G04 #@! TF.GenerationSoftware,KiCad,Pcbnew,(5.1.0)-1*
G04 #@! TF.CreationDate,2021-08-05T13:01:27-06:00*
G04 #@! TF.ProjectId,_autosave-Igloo19,5f617574-6f73-4617-9665-2d49676c6f6f,rev?*
G04 #@! TF.SameCoordinates,Original*
G04 #@! TF.FileFunction,Copper,L2,Bot*
G04 #@! TF.FilePolarity,Positive*
%FSLAX46Y46*%
G04 Gerber Fmt 4.6, Leading zero omitted, Abs format (unit mm)*
G04 Created by KiCad (PCBNEW (5.1.0)-1) date 2021-08-05 13:01:27*
%MOMM*%
%LPD*%
G04 APERTURE LIST*
%ADD10C,1.208000*%
%ADD11R,0.300000X1.630000*%
%ADD12R,0.300000X1.800000*%
%ADD13C,0.800000*%
%ADD14C,0.250000*%
%ADD15C,0.100000*%
G04 APERTURE END LIST*
D10*
X185315000Y-52300000D03*
X187290000Y-51180000D03*
X187290000Y-53430000D03*
D11*
X183740000Y-51915000D03*
D12*
X183740000Y-54580000D03*
D11*
X183240000Y-51915000D03*
D12*
X183240000Y-54580000D03*
D11*
X182740000Y-51915000D03*
D12*
X182740000Y-54580000D03*
D11*
X182240000Y-51915000D03*
D12*
X182240000Y-54580000D03*
D11*
X181740000Y-51915000D03*
D12*
X181740000Y-54580000D03*
D11*
X181240000Y-51915000D03*
D12*
X181240000Y-54580000D03*
D11*
X180740000Y-51915000D03*
D12*
X180740000Y-54580000D03*
D11*
X180240000Y-51915000D03*
D12*
X180240000Y-54580000D03*
D11*
X179740000Y-51915000D03*
D12*
X179740000Y-54580000D03*
D11*
X179240000Y-51915000D03*
D12*
X179240000Y-54580000D03*
D10*
X172665000Y-52300000D03*
X170690000Y-51180000D03*
X170690000Y-53430000D03*
D11*
X178740000Y-51915000D03*
D12*
X178740000Y-54580000D03*
D11*
X178240000Y-51915000D03*
D12*
X178240000Y-54580000D03*
D11*
X177740000Y-51915000D03*
D12*
X177740000Y-54580000D03*
D11*
X177240000Y-51915000D03*
D12*
X177240000Y-54580000D03*
D11*
X176740000Y-51915000D03*
D12*
X176740000Y-54580000D03*
D11*
X176240000Y-51915000D03*
D12*
X176240000Y-54580000D03*
D11*
X175740000Y-51915000D03*
D12*
X175740000Y-54580000D03*
D11*
X175240000Y-51915000D03*
D12*
X175240000Y-54580000D03*
D11*
X174740000Y-51915000D03*
D12*
X174740000Y-54580000D03*
D11*
X174240000Y-51915000D03*
D12*
X174240000Y-54580000D03*
D10*
X172645000Y-98780000D03*
X170670000Y-99900000D03*
X170670000Y-97650000D03*
D11*
X174220000Y-99165000D03*
D12*
X174220000Y-96500000D03*
D11*
X174720000Y-99165000D03*
D12*
X174720000Y-96500000D03*
D11*
X175220000Y-99165000D03*
D12*
X175220000Y-96500000D03*
D11*
X175720000Y-99165000D03*
D12*
X175720000Y-96500000D03*
D11*
X176220000Y-99165000D03*
D12*
X176220000Y-96500000D03*
D11*
X176720000Y-99165000D03*
D12*
X176720000Y-96500000D03*
D11*
X177220000Y-99165000D03*
D12*
X177220000Y-96500000D03*
D11*
X177720000Y-99165000D03*
D12*
X177720000Y-96500000D03*
D11*
X178220000Y-99165000D03*
D12*
X178220000Y-96500000D03*
D11*
X178720000Y-99165000D03*
D12*
X178720000Y-96500000D03*
D10*
X185295000Y-98780000D03*
X187270000Y-99900000D03*
X187270000Y-97650000D03*
D11*
X179220000Y-99165000D03*
D12*
X179220000Y-96500000D03*
D11*
X179720000Y-99165000D03*
D12*
X179720000Y-96500000D03*
D11*
X180220000Y-99165000D03*
D12*
X180220000Y-96500000D03*
D11*
X180720000Y-99165000D03*
D12*
X180720000Y-96500000D03*
D11*
X181220000Y-99165000D03*
D12*
X181220000Y-96500000D03*
D11*
X181720000Y-99165000D03*
D12*
X181720000Y-96500000D03*
D11*
X182220000Y-99165000D03*
D12*
X182220000Y-96500000D03*
D11*
X182720000Y-99165000D03*
D12*
X182720000Y-96500000D03*
D11*
X183220000Y-99165000D03*
D12*
X183220000Y-96500000D03*
D11*
X183720000Y-99165000D03*
D12*
X183720000Y-96500000D03*
D13*
X173990000Y-69250000D03*
X176530000Y-69250000D03*
X179070000Y-69250000D03*
X181610000Y-69250000D03*
X184150000Y-69250000D03*
X181610000Y-81950000D03*
X184150000Y-81950000D03*
X179070000Y-81950000D03*
X173990000Y-81950000D03*
X176530000Y-81950000D03*
X185320000Y-70450000D03*
X185320000Y-72990000D03*
X185320000Y-75530000D03*
X185320000Y-78070000D03*
X185320000Y-80610000D03*
X172720000Y-70450000D03*
X172720000Y-80610000D03*
X172720000Y-72990000D03*
X172720000Y-75530000D03*
X172720000Y-78070000D03*
X194310000Y-72390000D03*
X194310000Y-76200000D03*
X194310000Y-80010000D03*
X189230000Y-80010000D03*
X189230000Y-76200000D03*
X189230000Y-72390000D03*
X189230000Y-68580000D03*
X189230000Y-64770000D03*
X189230000Y-60960000D03*
X189230000Y-57150000D03*
X189230000Y-83820000D03*
X189230000Y-87630000D03*
X189230000Y-91440000D03*
X168910000Y-76200000D03*
X168910000Y-72390000D03*
X168910000Y-68580000D03*
X168910000Y-64770000D03*
X168910000Y-60960000D03*
X168910000Y-57150000D03*
X168910000Y-80010000D03*
X168910000Y-83820000D03*
X168910000Y-87630000D03*
X168910000Y-91440000D03*
X163830000Y-87630000D03*
X163830000Y-91440000D03*
X194310000Y-87630000D03*
X194310000Y-91440000D03*
X194310000Y-60960000D03*
X194310000Y-57150000D03*
X163830000Y-57150000D03*
X163830000Y-60960000D03*
X163830000Y-72390000D03*
X163830000Y-76200000D03*
X163830000Y-80010000D03*
X184370000Y-91440000D03*
X183170000Y-91440000D03*
X181970000Y-91440000D03*
X180770000Y-91440000D03*
X179570000Y-91440000D03*
X178370000Y-91440000D03*
X177170000Y-91440000D03*
X175970000Y-91440000D03*
X174770000Y-91440000D03*
X173570000Y-91440000D03*
X177340000Y-58440000D03*
X176140000Y-58440000D03*
X183340000Y-58440000D03*
X182140000Y-58440000D03*
X173740000Y-58440000D03*
X184540000Y-58440000D03*
X179740000Y-58440000D03*
X180940000Y-58440000D03*
X178540000Y-58440000D03*
X174940000Y-58440000D03*
D14*
X181740000Y-54580000D02*
X181715001Y-54580000D01*
X174720000Y-92590000D02*
X174720000Y-96500000D01*
X173570000Y-91440000D02*
X174720000Y-92590000D01*
X175720000Y-92390000D02*
X175720000Y-96500000D01*
X174770000Y-91440000D02*
X175720000Y-92390000D01*
X176720000Y-95350000D02*
X176720000Y-96500000D01*
X176720000Y-92190000D02*
X176720000Y-95350000D01*
X175970000Y-91440000D02*
X176720000Y-92190000D01*
X177744999Y-92014999D02*
X177744999Y-95339999D01*
X177170000Y-91440000D02*
X177744999Y-92014999D01*
X177720000Y-95350000D02*
X177720000Y-96500000D01*
X177730001Y-95339999D02*
X177720000Y-95350000D01*
X177744999Y-95339999D02*
X177730001Y-95339999D01*
X178720000Y-91790000D02*
X178370000Y-91440000D01*
X178720000Y-96500000D02*
X178720000Y-91790000D01*
X179720000Y-91590000D02*
X179570000Y-91440000D01*
X179720000Y-96500000D02*
X179720000Y-91590000D01*
X180720000Y-91490000D02*
X180770000Y-91440000D01*
X180720000Y-96500000D02*
X180720000Y-91490000D01*
X181720000Y-91690000D02*
X181970000Y-91440000D01*
X181720000Y-96500000D02*
X181720000Y-91690000D01*
X182720000Y-91890000D02*
X183170000Y-91440000D01*
X182720000Y-96500000D02*
X182720000Y-91890000D01*
X183720000Y-92090000D02*
X184370000Y-91440000D01*
X183720000Y-96500000D02*
X183720000Y-92090000D01*
X183240000Y-57140000D02*
X184540000Y-58440000D01*
X183240000Y-54580000D02*
X183240000Y-57140000D01*
X182240000Y-57340000D02*
X183340000Y-58440000D01*
X182240000Y-54580000D02*
X182240000Y-57340000D01*
X181240000Y-57540000D02*
X182140000Y-58440000D01*
X181240000Y-54580000D02*
X181240000Y-57540000D01*
X180240000Y-57740000D02*
X180940000Y-58440000D01*
X180240000Y-54580000D02*
X180240000Y-57740000D01*
X179240000Y-57940000D02*
X179740000Y-58440000D01*
X179240000Y-54580000D02*
X179240000Y-57940000D01*
X178240000Y-58140000D02*
X178540000Y-58440000D01*
X178240000Y-54580000D02*
X178240000Y-58140000D01*
X177240000Y-58340000D02*
X177340000Y-58440000D01*
X177240000Y-54580000D02*
X177240000Y-58340000D01*
X176240000Y-58340000D02*
X176140000Y-58440000D01*
X176240000Y-54580000D02*
X176240000Y-58340000D01*
X175240000Y-58140000D02*
X174940000Y-58440000D01*
X175240000Y-54580000D02*
X175240000Y-58140000D01*
X174240000Y-57940000D02*
X173740000Y-58440000D01*
X174240000Y-54580000D02*
X174240000Y-57940000D01*
D15*
G36*
X197590001Y-101120000D02*
G01*
X160410000Y-101120000D01*
X160410000Y-99806039D01*
X169716000Y-99806039D01*
X169716000Y-99993961D01*
X169752662Y-100178272D01*
X169824576Y-100351888D01*
X169928980Y-100508140D01*
X170061860Y-100641020D01*
X170218112Y-100745424D01*
X170391728Y-100817338D01*
X170576039Y-100854000D01*
X170763961Y-100854000D01*
X170948272Y-100817338D01*
X171121888Y-100745424D01*
X171278140Y-100641020D01*
X171411020Y-100508140D01*
X171515424Y-100351888D01*
X171587338Y-100178272D01*
X171624000Y-99993961D01*
X171624000Y-99980000D01*
X173718306Y-99980000D01*
X173725064Y-100048612D01*
X173745077Y-100114587D01*
X173777577Y-100175391D01*
X173821315Y-100228685D01*
X173874609Y-100272423D01*
X173935413Y-100304923D01*
X174001388Y-100324936D01*
X174070000Y-100331694D01*
X174102500Y-100330000D01*
X174190000Y-100242500D01*
X174190000Y-99980000D01*
X174218306Y-99980000D01*
X174225064Y-100048612D01*
X174245077Y-100114587D01*
X174250000Y-100123797D01*
X174250000Y-100242500D01*
X174337500Y-100330000D01*
X174370000Y-100331694D01*
X174438612Y-100324936D01*
X174470000Y-100315415D01*
X174501388Y-100324936D01*
X174570000Y-100331694D01*
X174602500Y-100330000D01*
X174690000Y-100242500D01*
X174690000Y-100123797D01*
X174694923Y-100114587D01*
X174714936Y-100048612D01*
X174720000Y-99997199D01*
X174725064Y-100048612D01*
X174745077Y-100114587D01*
X174750000Y-100123797D01*
X174750000Y-100242500D01*
X174837500Y-100330000D01*
X174870000Y-100331694D01*
X174938612Y-100324936D01*
X174970000Y-100315415D01*
X175001388Y-100324936D01*
X175070000Y-100331694D01*
X175102500Y-100330000D01*
X175190000Y-100242500D01*
X175190000Y-100123797D01*
X175194923Y-100114587D01*
X175214936Y-100048612D01*
X175220000Y-99997199D01*
X175225064Y-100048612D01*
X175245077Y-100114587D01*
X175250000Y-100123797D01*
X175250000Y-100242500D01*
X175337500Y-100330000D01*
X175370000Y-100331694D01*
X175438612Y-100324936D01*
X175470000Y-100315415D01*
X175501388Y-100324936D01*
X175570000Y-100331694D01*
X175602500Y-100330000D01*
X175690000Y-100242500D01*
X175690000Y-100123797D01*
X175694923Y-100114587D01*
X175714936Y-100048612D01*
X175720000Y-99997199D01*
X175725064Y-100048612D01*
X175745077Y-100114587D01*
X175750000Y-100123797D01*
X175750000Y-100242500D01*
X175837500Y-100330000D01*
X175870000Y-100331694D01*
X175938612Y-100324936D01*
X175970000Y-100315415D01*
X176001388Y-100324936D01*
X176070000Y-100331694D01*
X176102500Y-100330000D01*
X176190000Y-100242500D01*
X176190000Y-100123797D01*
X176194923Y-100114587D01*
X176214936Y-100048612D01*
X176220000Y-99997199D01*
X176225064Y-100048612D01*
X176245077Y-100114587D01*
X176250000Y-100123797D01*
X176250000Y-100242500D01*
X176337500Y-100330000D01*
X176370000Y-100331694D01*
X176438612Y-100324936D01*
X176470000Y-100315415D01*
X176501388Y-100324936D01*
X176570000Y-100331694D01*
X176602500Y-100330000D01*
X176690000Y-100242500D01*
X176690000Y-100123797D01*
X176694923Y-100114587D01*
X176714936Y-100048612D01*
X176720000Y-99997199D01*
X176725064Y-100048612D01*
X176745077Y-100114587D01*
X176750000Y-100123797D01*
X176750000Y-100242500D01*
X176837500Y-100330000D01*
X176870000Y-100331694D01*
X176938612Y-100324936D01*
X176970000Y-100315415D01*
X177001388Y-100324936D01*
X177070000Y-100331694D01*
X177102500Y-100330000D01*
X177190000Y-100242500D01*
X177190000Y-100123797D01*
X177194923Y-100114587D01*
X177214936Y-100048612D01*
X177220000Y-99997199D01*
X177225064Y-100048612D01*
X177245077Y-100114587D01*
X177250000Y-100123797D01*
X177250000Y-100242500D01*
X177337500Y-100330000D01*
X177370000Y-100331694D01*
X177438612Y-100324936D01*
X177470000Y-100315415D01*
X177501388Y-100324936D01*
X177570000Y-100331694D01*
X177602500Y-100330000D01*
X177690000Y-100242500D01*
X177690000Y-100123797D01*
X177694923Y-100114587D01*
X177714936Y-100048612D01*
X177720000Y-99997199D01*
X177725064Y-100048612D01*
X177745077Y-100114587D01*
X177750000Y-100123797D01*
X177750000Y-100242500D01*
X177837500Y-100330000D01*
X177870000Y-100331694D01*
X177938612Y-100324936D01*
X177970000Y-100315415D01*
X178001388Y-100324936D01*
X178070000Y-100331694D01*
X178102500Y-100330000D01*
X178190000Y-100242500D01*
X178190000Y-100123797D01*
X178194923Y-100114587D01*
X178214936Y-100048612D01*
X178220000Y-99997199D01*
X178225064Y-100048612D01*
X178245077Y-100114587D01*
X178250000Y-100123797D01*
X178250000Y-100242500D01*
X178337500Y-100330000D01*
X178370000Y-100331694D01*
X178438612Y-100324936D01*
X178470000Y-100315415D01*
X178501388Y-100324936D01*
X178570000Y-100331694D01*
X178602500Y-100330000D01*
X178690000Y-100242500D01*
X178690000Y-100123797D01*
X178694923Y-100114587D01*
X178714936Y-100048612D01*
X178720000Y-99997199D01*
X178725064Y-100048612D01*
X178745077Y-100114587D01*
X178750000Y-100123797D01*
X178750000Y-100242500D01*
X178837500Y-100330000D01*
X178870000Y-100331694D01*
X178938612Y-100324936D01*
X178970000Y-100315415D01*
X179001388Y-100324936D01*
X179070000Y-100331694D01*
X179102500Y-100330000D01*
X179190000Y-100242500D01*
X179190000Y-100123797D01*
X179194923Y-100114587D01*
X179214936Y-100048612D01*
X179220000Y-99997199D01*
X179225064Y-100048612D01*
X179245077Y-100114587D01*
X179250000Y-100123797D01*
X179250000Y-100242500D01*
X179337500Y-100330000D01*
X179370000Y-100331694D01*
X179438612Y-100324936D01*
X179470000Y-100315415D01*
X179501388Y-100324936D01*
X179570000Y-100331694D01*
X179602500Y-100330000D01*
X179690000Y-100242500D01*
X179690000Y-100123797D01*
X179694923Y-100114587D01*
X179714936Y-100048612D01*
X179720000Y-99997199D01*
X179725064Y-100048612D01*
X179745077Y-100114587D01*
X179750000Y-100123797D01*
X179750000Y-100242500D01*
X179837500Y-100330000D01*
X179870000Y-100331694D01*
X179938612Y-100324936D01*
X179970000Y-100315415D01*
X180001388Y-100324936D01*
X180070000Y-100331694D01*
X180102500Y-100330000D01*
X180190000Y-100242500D01*
X180190000Y-100123797D01*
X180194923Y-100114587D01*
X180214936Y-100048612D01*
X180220000Y-99997199D01*
X180225064Y-100048612D01*
X180245077Y-100114587D01*
X180250000Y-100123797D01*
X180250000Y-100242500D01*
X180337500Y-100330000D01*
X180370000Y-100331694D01*
X180438612Y-100324936D01*
X180470000Y-100315415D01*
X180501388Y-100324936D01*
X180570000Y-100331694D01*
X180602500Y-100330000D01*
X180690000Y-100242500D01*
X180690000Y-100123797D01*
X180694923Y-100114587D01*
X180714936Y-100048612D01*
X180720000Y-99997199D01*
X180725064Y-100048612D01*
X180745077Y-100114587D01*
X180750000Y-100123797D01*
X180750000Y-100242500D01*
X180837500Y-100330000D01*
X180870000Y-100331694D01*
X180938612Y-100324936D01*
X180970000Y-100315415D01*
X181001388Y-100324936D01*
X181070000Y-100331694D01*
X181102500Y-100330000D01*
X181190000Y-100242500D01*
X181190000Y-100123797D01*
X181194923Y-100114587D01*
X181214936Y-100048612D01*
X181220000Y-99997199D01*
X181225064Y-100048612D01*
X181245077Y-100114587D01*
X181250000Y-100123797D01*
X181250000Y-100242500D01*
X181337500Y-100330000D01*
X181370000Y-100331694D01*
X181438612Y-100324936D01*
X181470000Y-100315415D01*
X181501388Y-100324936D01*
X181570000Y-100331694D01*
X181602500Y-100330000D01*
X181690000Y-100242500D01*
X181690000Y-100123797D01*
X181694923Y-100114587D01*
X181714936Y-100048612D01*
X181720000Y-99997199D01*
X181725064Y-100048612D01*
X181745077Y-100114587D01*
X181750000Y-100123797D01*
X181750000Y-100242500D01*
X181837500Y-100330000D01*
X181870000Y-100331694D01*
X181938612Y-100324936D01*
X181970000Y-100315415D01*
X182001388Y-100324936D01*
X182070000Y-100331694D01*
X182102500Y-100330000D01*
X182190000Y-100242500D01*
X182190000Y-100123797D01*
X182194923Y-100114587D01*
X182214936Y-100048612D01*
X182220000Y-99997199D01*
X182225064Y-100048612D01*
X182245077Y-100114587D01*
X182250000Y-100123797D01*
X182250000Y-100242500D01*
X182337500Y-100330000D01*
X182370000Y-100331694D01*
X182438612Y-100324936D01*
X182470000Y-100315415D01*
X182501388Y-100324936D01*
X182570000Y-100331694D01*
X182602500Y-100330000D01*
X182690000Y-100242500D01*
X182690000Y-100123797D01*
X182694923Y-100114587D01*
X182714936Y-100048612D01*
X182720000Y-99997199D01*
X182725064Y-100048612D01*
X182745077Y-100114587D01*
X182750000Y-100123797D01*
X182750000Y-100242500D01*
X182837500Y-100330000D01*
X182870000Y-100331694D01*
X182938612Y-100324936D01*
X182970000Y-100315415D01*
X183001388Y-100324936D01*
X183070000Y-100331694D01*
X183102500Y-100330000D01*
X183190000Y-100242500D01*
X183190000Y-100123797D01*
X183194923Y-100114587D01*
X183214936Y-100048612D01*
X183220000Y-99997199D01*
X183225064Y-100048612D01*
X183245077Y-100114587D01*
X183250000Y-100123797D01*
X183250000Y-100242500D01*
X183337500Y-100330000D01*
X183370000Y-100331694D01*
X183438612Y-100324936D01*
X183470000Y-100315415D01*
X183501388Y-100324936D01*
X183570000Y-100331694D01*
X183602500Y-100330000D01*
X183690000Y-100242500D01*
X183690000Y-100123797D01*
X183694923Y-100114587D01*
X183714936Y-100048612D01*
X183721694Y-99980000D01*
X183720000Y-99282500D01*
X183690000Y-99252500D01*
X183690000Y-99195000D01*
X183750000Y-99195000D01*
X183750000Y-100242500D01*
X183837500Y-100330000D01*
X183870000Y-100331694D01*
X183938612Y-100324936D01*
X184004587Y-100304923D01*
X184065391Y-100272423D01*
X184118685Y-100228685D01*
X184162423Y-100175391D01*
X184194923Y-100114587D01*
X184214936Y-100048612D01*
X184221694Y-99980000D01*
X184221272Y-99806039D01*
X186316000Y-99806039D01*
X186316000Y-99993961D01*
X186352662Y-100178272D01*
X186424576Y-100351888D01*
X186528980Y-100508140D01*
X186661860Y-100641020D01*
X186818112Y-100745424D01*
X186991728Y-100817338D01*
X187176039Y-100854000D01*
X187363961Y-100854000D01*
X187548272Y-100817338D01*
X187721888Y-100745424D01*
X187878140Y-100641020D01*
X188011020Y-100508140D01*
X188115424Y-100351888D01*
X188187338Y-100178272D01*
X188224000Y-99993961D01*
X188224000Y-99806039D01*
X188187338Y-99621728D01*
X188115424Y-99448112D01*
X188011020Y-99291860D01*
X187878140Y-99158980D01*
X187721888Y-99054576D01*
X187548272Y-98982662D01*
X187363961Y-98946000D01*
X187176039Y-98946000D01*
X186991728Y-98982662D01*
X186818112Y-99054576D01*
X186661860Y-99158980D01*
X186528980Y-99291860D01*
X186424576Y-99448112D01*
X186352662Y-99621728D01*
X186316000Y-99806039D01*
X184221272Y-99806039D01*
X184220327Y-99416820D01*
X184700607Y-99416820D01*
X184756086Y-99572790D01*
X184921107Y-99662694D01*
X185100497Y-99718676D01*
X185287361Y-99738586D01*
X185474519Y-99721657D01*
X185654777Y-99668540D01*
X185821210Y-99581279D01*
X185833914Y-99572790D01*
X185889393Y-99416820D01*
X185295000Y-98822426D01*
X184700607Y-99416820D01*
X184220327Y-99416820D01*
X184220000Y-99282500D01*
X184132500Y-99195000D01*
X183750000Y-99195000D01*
X183690000Y-99195000D01*
X183250000Y-99195000D01*
X183250000Y-99252500D01*
X183220000Y-99282500D01*
X183190000Y-99252500D01*
X183190000Y-99195000D01*
X182750000Y-99195000D01*
X182750000Y-99252500D01*
X182720000Y-99282500D01*
X182690000Y-99252500D01*
X182690000Y-99195000D01*
X182250000Y-99195000D01*
X182250000Y-99252500D01*
X182220000Y-99282500D01*
X182190000Y-99252500D01*
X182190000Y-99195000D01*
X181750000Y-99195000D01*
X181750000Y-99252500D01*
X181720000Y-99282500D01*
X181690000Y-99252500D01*
X181690000Y-99195000D01*
X181250000Y-99195000D01*
X181250000Y-99252500D01*
X181220000Y-99282500D01*
X181190000Y-99252500D01*
X181190000Y-99195000D01*
X180750000Y-99195000D01*
X180750000Y-99252500D01*
X180720000Y-99282500D01*
X180690000Y-99252500D01*
X180690000Y-99195000D01*
X180250000Y-99195000D01*
X180250000Y-99252500D01*
X180220000Y-99282500D01*
X180190000Y-99252500D01*
X180190000Y-99195000D01*
X179750000Y-99195000D01*
X179750000Y-99252500D01*
X179720000Y-99282500D01*
X179690000Y-99252500D01*
X179690000Y-99195000D01*
X179250000Y-99195000D01*
X179250000Y-99252500D01*
X179220000Y-99282500D01*
X179190000Y-99252500D01*
X179190000Y-99195000D01*
X178750000Y-99195000D01*
X178750000Y-99252500D01*
X178720000Y-99282500D01*
X178690000Y-99252500D01*
X178690000Y-99195000D01*
X178250000Y-99195000D01*
X178250000Y-99252500D01*
X178220000Y-99282500D01*
X178190000Y-99252500D01*
X178190000Y-99195000D01*
X177750000Y-99195000D01*
X177750000Y-99252500D01*
X177720000Y-99282500D01*
X177690000Y-99252500D01*
X177690000Y-99195000D01*
X177250000Y-99195000D01*
X177250000Y-99252500D01*
X177220000Y-99282500D01*
X177190000Y-99252500D01*
X177190000Y-99195000D01*
X176750000Y-99195000D01*
X176750000Y-99252500D01*
X176720000Y-99282500D01*
X176690000Y-99252500D01*
X176690000Y-99195000D01*
X176250000Y-99195000D01*
X176250000Y-99252500D01*
X176220000Y-99282500D01*
X176190000Y-99252500D01*
X176190000Y-99195000D01*
X175750000Y-99195000D01*
X175750000Y-99252500D01*
X175720000Y-99282500D01*
X175690000Y-99252500D01*
X175690000Y-99195000D01*
X175250000Y-99195000D01*
X175250000Y-99252500D01*
X175220000Y-99282500D01*
X175190000Y-99252500D01*
X175190000Y-99195000D01*
X174750000Y-99195000D01*
X174750000Y-99252500D01*
X174720000Y-99282500D01*
X174690000Y-99252500D01*
X174690000Y-99195000D01*
X174250000Y-99195000D01*
X174250000Y-99252500D01*
X174220000Y-99282500D01*
X174218306Y-99980000D01*
X174190000Y-99980000D01*
X174190000Y-99195000D01*
X173807500Y-99195000D01*
X173720000Y-99282500D01*
X173718306Y-99980000D01*
X171624000Y-99980000D01*
X171624000Y-99806039D01*
X171587338Y-99621728D01*
X171515424Y-99448112D01*
X171494516Y-99416820D01*
X172050607Y-99416820D01*
X172106086Y-99572790D01*
X172271107Y-99662694D01*
X172450497Y-99718676D01*
X172637361Y-99738586D01*
X172824519Y-99721657D01*
X173004777Y-99668540D01*
X173171210Y-99581279D01*
X173183914Y-99572790D01*
X173239393Y-99416820D01*
X172645000Y-98822426D01*
X172050607Y-99416820D01*
X171494516Y-99416820D01*
X171411020Y-99291860D01*
X171278140Y-99158980D01*
X171121888Y-99054576D01*
X170948272Y-98982662D01*
X170763961Y-98946000D01*
X170576039Y-98946000D01*
X170391728Y-98982662D01*
X170218112Y-99054576D01*
X170061860Y-99158980D01*
X169928980Y-99291860D01*
X169824576Y-99448112D01*
X169752662Y-99621728D01*
X169716000Y-99806039D01*
X160410000Y-99806039D01*
X160410000Y-97556039D01*
X169716000Y-97556039D01*
X169716000Y-97743961D01*
X169752662Y-97928272D01*
X169824576Y-98101888D01*
X169928980Y-98258140D01*
X170061860Y-98391020D01*
X170218112Y-98495424D01*
X170391728Y-98567338D01*
X170576039Y-98604000D01*
X170763961Y-98604000D01*
X170948272Y-98567338D01*
X171121888Y-98495424D01*
X171278140Y-98391020D01*
X171411020Y-98258140D01*
X171515424Y-98101888D01*
X171573749Y-97961080D01*
X171710797Y-98052652D01*
X171906434Y-98133688D01*
X171968631Y-98146060D01*
X172008179Y-98185608D01*
X171852210Y-98241086D01*
X171762306Y-98406107D01*
X171706324Y-98585497D01*
X171686414Y-98772361D01*
X171703343Y-98959519D01*
X171756460Y-99139777D01*
X171843721Y-99306210D01*
X171852210Y-99318914D01*
X172008180Y-99374393D01*
X172602574Y-98780000D01*
X172687426Y-98780000D01*
X173281820Y-99374393D01*
X173437790Y-99318914D01*
X173527694Y-99153893D01*
X173583676Y-98974503D01*
X173603586Y-98787639D01*
X173586657Y-98600481D01*
X173533540Y-98420223D01*
X173496723Y-98350000D01*
X173718306Y-98350000D01*
X173720000Y-99047500D01*
X173807500Y-99135000D01*
X174190000Y-99135000D01*
X174190000Y-98350000D01*
X174218306Y-98350000D01*
X174220000Y-99047500D01*
X174250000Y-99077500D01*
X174250000Y-99135000D01*
X174690000Y-99135000D01*
X174690000Y-99077500D01*
X174720000Y-99047500D01*
X174750000Y-99077500D01*
X174750000Y-99135000D01*
X175190000Y-99135000D01*
X175190000Y-99077500D01*
X175220000Y-99047500D01*
X175250000Y-99077500D01*
X175250000Y-99135000D01*
X175690000Y-99135000D01*
X175690000Y-99077500D01*
X175720000Y-99047500D01*
X175750000Y-99077500D01*
X175750000Y-99135000D01*
X176190000Y-99135000D01*
X176190000Y-99077500D01*
X176220000Y-99047500D01*
X176250000Y-99077500D01*
X176250000Y-99135000D01*
X176690000Y-99135000D01*
X176690000Y-99077500D01*
X176720000Y-99047500D01*
X176750000Y-99077500D01*
X176750000Y-99135000D01*
X177190000Y-99135000D01*
X177190000Y-99077500D01*
X177220000Y-99047500D01*
X177250000Y-99077500D01*
X177250000Y-99135000D01*
X177690000Y-99135000D01*
X177690000Y-99077500D01*
X177720000Y-99047500D01*
X177750000Y-99077500D01*
X177750000Y-99135000D01*
X178190000Y-99135000D01*
X178190000Y-99077500D01*
X178220000Y-99047500D01*
X178250000Y-99077500D01*
X178250000Y-99135000D01*
X178690000Y-99135000D01*
X178690000Y-99077500D01*
X178720000Y-99047500D01*
X178750000Y-99077500D01*
X178750000Y-99135000D01*
X179190000Y-99135000D01*
X179190000Y-99077500D01*
X179220000Y-99047500D01*
X179250000Y-99077500D01*
X179250000Y-99135000D01*
X179690000Y-99135000D01*
X179690000Y-99077500D01*
X179720000Y-99047500D01*
X179750000Y-99077500D01*
X179750000Y-99135000D01*
X180190000Y-99135000D01*
X180190000Y-99077500D01*
X180220000Y-99047500D01*
X180250000Y-99077500D01*
X180250000Y-99135000D01*
X180690000Y-99135000D01*
X180690000Y-99077500D01*
X180720000Y-99047500D01*
X180750000Y-99077500D01*
X180750000Y-99135000D01*
X181190000Y-99135000D01*
X181190000Y-99077500D01*
X181220000Y-99047500D01*
X181250000Y-99077500D01*
X181250000Y-99135000D01*
X181690000Y-99135000D01*
X181690000Y-99077500D01*
X181720000Y-99047500D01*
X181750000Y-99077500D01*
X181750000Y-99135000D01*
X182190000Y-99135000D01*
X182190000Y-99077500D01*
X182220000Y-99047500D01*
X182250000Y-99077500D01*
X182250000Y-99135000D01*
X182690000Y-99135000D01*
X182690000Y-99077500D01*
X182720000Y-99047500D01*
X182750000Y-99077500D01*
X182750000Y-99135000D01*
X183190000Y-99135000D01*
X183190000Y-99077500D01*
X183220000Y-99047500D01*
X183250000Y-99077500D01*
X183250000Y-99135000D01*
X183690000Y-99135000D01*
X183690000Y-99077500D01*
X183720000Y-99047500D01*
X183721694Y-98350000D01*
X183714936Y-98281388D01*
X183694923Y-98215413D01*
X183690000Y-98206203D01*
X183690000Y-98087500D01*
X183750000Y-98087500D01*
X183750000Y-99135000D01*
X184132500Y-99135000D01*
X184220000Y-99047500D01*
X184220668Y-98772361D01*
X184336414Y-98772361D01*
X184353343Y-98959519D01*
X184406460Y-99139777D01*
X184493721Y-99306210D01*
X184502210Y-99318914D01*
X184658180Y-99374393D01*
X185252574Y-98780000D01*
X184658180Y-98185607D01*
X184502210Y-98241086D01*
X184412306Y-98406107D01*
X184356324Y-98585497D01*
X184336414Y-98772361D01*
X184220668Y-98772361D01*
X184221694Y-98350000D01*
X184214936Y-98281388D01*
X184194923Y-98215413D01*
X184162423Y-98154609D01*
X184118685Y-98101315D01*
X184065391Y-98057577D01*
X184004587Y-98025077D01*
X183938612Y-98005064D01*
X183870000Y-97998306D01*
X183837500Y-98000000D01*
X183750000Y-98087500D01*
X183690000Y-98087500D01*
X183602500Y-98000000D01*
X183570000Y-97998306D01*
X183501388Y-98005064D01*
X183470000Y-98014585D01*
X183438612Y-98005064D01*
X183370000Y-97998306D01*
X183337500Y-98000000D01*
X183250000Y-98087500D01*
X183250000Y-98206203D01*
X183245077Y-98215413D01*
X183225064Y-98281388D01*
X183220000Y-98332801D01*
X183214936Y-98281388D01*
X183194923Y-98215413D01*
X183190000Y-98206203D01*
X183190000Y-98087500D01*
X183102500Y-98000000D01*
X183070000Y-97998306D01*
X183001388Y-98005064D01*
X182970000Y-98014585D01*
X182938612Y-98005064D01*
X182870000Y-97998306D01*
X182837500Y-98000000D01*
X182750000Y-98087500D01*
X182750000Y-98206203D01*
X182745077Y-98215413D01*
X182725064Y-98281388D01*
X182720000Y-98332801D01*
X182714936Y-98281388D01*
X182694923Y-98215413D01*
X182690000Y-98206203D01*
X182690000Y-98087500D01*
X182602500Y-98000000D01*
X182570000Y-97998306D01*
X182501388Y-98005064D01*
X182470000Y-98014585D01*
X182438612Y-98005064D01*
X182370000Y-97998306D01*
X182337500Y-98000000D01*
X182250000Y-98087500D01*
X182250000Y-98206203D01*
X182245077Y-98215413D01*
X182225064Y-98281388D01*
X182220000Y-98332801D01*
X182214936Y-98281388D01*
X182194923Y-98215413D01*
X182190000Y-98206203D01*
X182190000Y-98087500D01*
X182102500Y-98000000D01*
X182070000Y-97998306D01*
X182001388Y-98005064D01*
X181970000Y-98014585D01*
X181938612Y-98005064D01*
X181870000Y-97998306D01*
X181837500Y-98000000D01*
X181750000Y-98087500D01*
X181750000Y-98206203D01*
X181745077Y-98215413D01*
X181725064Y-98281388D01*
X181720000Y-98332801D01*
X181714936Y-98281388D01*
X181694923Y-98215413D01*
X181690000Y-98206203D01*
X181690000Y-98087500D01*
X181602500Y-98000000D01*
X181570000Y-97998306D01*
X181501388Y-98005064D01*
X181470000Y-98014585D01*
X181438612Y-98005064D01*
X181370000Y-97998306D01*
X181337500Y-98000000D01*
X181250000Y-98087500D01*
X181250000Y-98206203D01*
X181245077Y-98215413D01*
X181225064Y-98281388D01*
X181220000Y-98332801D01*
X181214936Y-98281388D01*
X181194923Y-98215413D01*
X181190000Y-98206203D01*
X181190000Y-98087500D01*
X181102500Y-98000000D01*
X181070000Y-97998306D01*
X181001388Y-98005064D01*
X180970000Y-98014585D01*
X180938612Y-98005064D01*
X180870000Y-97998306D01*
X180837500Y-98000000D01*
X180750000Y-98087500D01*
X180750000Y-98206203D01*
X180745077Y-98215413D01*
X180725064Y-98281388D01*
X180720000Y-98332801D01*
X180714936Y-98281388D01*
X180694923Y-98215413D01*
X180690000Y-98206203D01*
X180690000Y-98087500D01*
X180602500Y-98000000D01*
X180570000Y-97998306D01*
X180501388Y-98005064D01*
X180470000Y-98014585D01*
X180438612Y-98005064D01*
X180370000Y-97998306D01*
X180337500Y-98000000D01*
X180250000Y-98087500D01*
X180250000Y-98206203D01*
X180245077Y-98215413D01*
X180225064Y-98281388D01*
X180220000Y-98332801D01*
X180214936Y-98281388D01*
X180194923Y-98215413D01*
X180190000Y-98206203D01*
X180190000Y-98087500D01*
X180102500Y-98000000D01*
X180070000Y-97998306D01*
X180001388Y-98005064D01*
X179970000Y-98014585D01*
X179938612Y-98005064D01*
X179870000Y-97998306D01*
X179837500Y-98000000D01*
X179750000Y-98087500D01*
X179750000Y-98206203D01*
X179745077Y-98215413D01*
X179725064Y-98281388D01*
X179720000Y-98332801D01*
X179714936Y-98281388D01*
X179694923Y-98215413D01*
X179690000Y-98206203D01*
X179690000Y-98087500D01*
X179602500Y-98000000D01*
X179570000Y-97998306D01*
X179501388Y-98005064D01*
X179470000Y-98014585D01*
X179438612Y-98005064D01*
X179370000Y-97998306D01*
X179337500Y-98000000D01*
X179250000Y-98087500D01*
X179250000Y-98206203D01*
X179245077Y-98215413D01*
X179225064Y-98281388D01*
X179220000Y-98332801D01*
X179214936Y-98281388D01*
X179194923Y-98215413D01*
X179190000Y-98206203D01*
X179190000Y-98087500D01*
X179102500Y-98000000D01*
X179070000Y-97998306D01*
X179001388Y-98005064D01*
X178970000Y-98014585D01*
X178938612Y-98005064D01*
X178870000Y-97998306D01*
X178837500Y-98000000D01*
X178750000Y-98087500D01*
X178750000Y-98206203D01*
X178745077Y-98215413D01*
X178725064Y-98281388D01*
X178720000Y-98332801D01*
X178714936Y-98281388D01*
X178694923Y-98215413D01*
X178690000Y-98206203D01*
X178690000Y-98087500D01*
X178602500Y-98000000D01*
X178570000Y-97998306D01*
X178501388Y-98005064D01*
X178470000Y-98014585D01*
X178438612Y-98005064D01*
X178370000Y-97998306D01*
X178337500Y-98000000D01*
X178250000Y-98087500D01*
X178250000Y-98206203D01*
X178245077Y-98215413D01*
X178225064Y-98281388D01*
X178220000Y-98332801D01*
X178214936Y-98281388D01*
X178194923Y-98215413D01*
X178190000Y-98206203D01*
X178190000Y-98087500D01*
X178102500Y-98000000D01*
X178070000Y-97998306D01*
X178001388Y-98005064D01*
X177970000Y-98014585D01*
X177938612Y-98005064D01*
X177870000Y-97998306D01*
X177837500Y-98000000D01*
X177750000Y-98087500D01*
X177750000Y-98206203D01*
X177745077Y-98215413D01*
X177725064Y-98281388D01*
X177720000Y-98332801D01*
X177714936Y-98281388D01*
X177694923Y-98215413D01*
X177690000Y-98206203D01*
X177690000Y-98087500D01*
X177602500Y-98000000D01*
X177570000Y-97998306D01*
X177501388Y-98005064D01*
X177470000Y-98014585D01*
X177438612Y-98005064D01*
X177370000Y-97998306D01*
X177337500Y-98000000D01*
X177250000Y-98087500D01*
X177250000Y-98206203D01*
X177245077Y-98215413D01*
X177225064Y-98281388D01*
X177220000Y-98332801D01*
X177214936Y-98281388D01*
X177194923Y-98215413D01*
X177190000Y-98206203D01*
X177190000Y-98087500D01*
X177102500Y-98000000D01*
X177070000Y-97998306D01*
X177001388Y-98005064D01*
X176970000Y-98014585D01*
X176938612Y-98005064D01*
X176870000Y-97998306D01*
X176837500Y-98000000D01*
X176750000Y-98087500D01*
X176750000Y-98206203D01*
X176745077Y-98215413D01*
X176725064Y-98281388D01*
X176720000Y-98332801D01*
X176714936Y-98281388D01*
X176694923Y-98215413D01*
X176690000Y-98206203D01*
X176690000Y-98087500D01*
X176602500Y-98000000D01*
X176570000Y-97998306D01*
X176501388Y-98005064D01*
X176470000Y-98014585D01*
X176438612Y-98005064D01*
X176370000Y-97998306D01*
X176337500Y-98000000D01*
X176250000Y-98087500D01*
X176250000Y-98206203D01*
X176245077Y-98215413D01*
X176225064Y-98281388D01*
X176220000Y-98332801D01*
X176214936Y-98281388D01*
X176194923Y-98215413D01*
X176190000Y-98206203D01*
X176190000Y-98087500D01*
X176102500Y-98000000D01*
X176070000Y-97998306D01*
X176001388Y-98005064D01*
X175970000Y-98014585D01*
X175938612Y-98005064D01*
X175870000Y-97998306D01*
X175837500Y-98000000D01*
X175750000Y-98087500D01*
X175750000Y-98206203D01*
X175745077Y-98215413D01*
X175725064Y-98281388D01*
X175720000Y-98332801D01*
X175714936Y-98281388D01*
X175694923Y-98215413D01*
X175690000Y-98206203D01*
X175690000Y-98087500D01*
X175602500Y-98000000D01*
X175570000Y-97998306D01*
X175501388Y-98005064D01*
X175470000Y-98014585D01*
X175438612Y-98005064D01*
X175370000Y-97998306D01*
X175337500Y-98000000D01*
X175250000Y-98087500D01*
X175250000Y-98206203D01*
X175245077Y-98215413D01*
X175225064Y-98281388D01*
X175220000Y-98332801D01*
X175214936Y-98281388D01*
X175194923Y-98215413D01*
X175190000Y-98206203D01*
X175190000Y-98087500D01*
X175102500Y-98000000D01*
X175070000Y-97998306D01*
X175001388Y-98005064D01*
X174970000Y-98014585D01*
X174938612Y-98005064D01*
X174870000Y-97998306D01*
X174837500Y-98000000D01*
X174750000Y-98087500D01*
X174750000Y-98206203D01*
X174745077Y-98215413D01*
X174725064Y-98281388D01*
X174720000Y-98332801D01*
X174714936Y-98281388D01*
X174694923Y-98215413D01*
X174690000Y-98206203D01*
X174690000Y-98087500D01*
X174602500Y-98000000D01*
X174570000Y-97998306D01*
X174501388Y-98005064D01*
X174470000Y-98014585D01*
X174438612Y-98005064D01*
X174370000Y-97998306D01*
X174337500Y-98000000D01*
X174250000Y-98087500D01*
X174250000Y-98206203D01*
X174245077Y-98215413D01*
X174225064Y-98281388D01*
X174218306Y-98350000D01*
X174190000Y-98350000D01*
X174190000Y-98087500D01*
X174102500Y-98000000D01*
X174070000Y-97998306D01*
X174001388Y-98005064D01*
X173935413Y-98025077D01*
X173874609Y-98057577D01*
X173821315Y-98101315D01*
X173777577Y-98154609D01*
X173745077Y-98215413D01*
X173725064Y-98281388D01*
X173718306Y-98350000D01*
X173496723Y-98350000D01*
X173446279Y-98253790D01*
X173437790Y-98241086D01*
X173281820Y-98185607D01*
X172687426Y-98780000D01*
X172602574Y-98780000D01*
X172588431Y-98765858D01*
X172630858Y-98723431D01*
X172645000Y-98737574D01*
X173239393Y-98143180D01*
X173183914Y-97987210D01*
X173018893Y-97897306D01*
X172961030Y-97879249D01*
X173055007Y-97785272D01*
X173172652Y-97609203D01*
X173253688Y-97413566D01*
X173256386Y-97400000D01*
X173718306Y-97400000D01*
X173725064Y-97468612D01*
X173745077Y-97534587D01*
X173777577Y-97595391D01*
X173821315Y-97648685D01*
X173874609Y-97692423D01*
X173935413Y-97724923D01*
X174001388Y-97744936D01*
X174070000Y-97751694D01*
X174102500Y-97750000D01*
X174190000Y-97662500D01*
X174190000Y-96530000D01*
X173807500Y-96530000D01*
X173720000Y-96617500D01*
X173718306Y-97400000D01*
X173256386Y-97400000D01*
X173295000Y-97205878D01*
X173295000Y-96994122D01*
X173253688Y-96786434D01*
X173172652Y-96590797D01*
X173055007Y-96414728D01*
X172905272Y-96264993D01*
X172729203Y-96147348D01*
X172533566Y-96066312D01*
X172325878Y-96025000D01*
X172114122Y-96025000D01*
X171906434Y-96066312D01*
X171710797Y-96147348D01*
X171534728Y-96264993D01*
X171384993Y-96414728D01*
X171267348Y-96590797D01*
X171186312Y-96786434D01*
X171175569Y-96840444D01*
X171121888Y-96804576D01*
X170948272Y-96732662D01*
X170763961Y-96696000D01*
X170576039Y-96696000D01*
X170391728Y-96732662D01*
X170218112Y-96804576D01*
X170061860Y-96908980D01*
X169928980Y-97041860D01*
X169824576Y-97198112D01*
X169752662Y-97371728D01*
X169716000Y-97556039D01*
X160410000Y-97556039D01*
X160410000Y-95600000D01*
X173718306Y-95600000D01*
X173720000Y-96382500D01*
X173807500Y-96470000D01*
X174190000Y-96470000D01*
X174190000Y-95337500D01*
X174102500Y-95250000D01*
X174070000Y-95248306D01*
X174001388Y-95255064D01*
X173935413Y-95275077D01*
X173874609Y-95307577D01*
X173821315Y-95351315D01*
X173777577Y-95404609D01*
X173745077Y-95465413D01*
X173725064Y-95531388D01*
X173718306Y-95600000D01*
X160410000Y-95600000D01*
X160410000Y-91366131D01*
X172820000Y-91366131D01*
X172820000Y-91513869D01*
X172848822Y-91658767D01*
X172905359Y-91795258D01*
X172987437Y-91918097D01*
X173091903Y-92022563D01*
X173214742Y-92104641D01*
X173351233Y-92161178D01*
X173496131Y-92190000D01*
X173643869Y-92190000D01*
X173647523Y-92189273D01*
X174245000Y-92786752D01*
X174245001Y-95465668D01*
X174225065Y-95531388D01*
X174218307Y-95600000D01*
X174218307Y-97400000D01*
X174225065Y-97468612D01*
X174245078Y-97534587D01*
X174250000Y-97543795D01*
X174250000Y-97662500D01*
X174337500Y-97750000D01*
X174370000Y-97751694D01*
X174438612Y-97744936D01*
X174470002Y-97735414D01*
X174501388Y-97744935D01*
X174570000Y-97751693D01*
X174870000Y-97751693D01*
X174938612Y-97744935D01*
X174969998Y-97735414D01*
X175001388Y-97744936D01*
X175070000Y-97751694D01*
X175102500Y-97750000D01*
X175190000Y-97662500D01*
X175190000Y-97543795D01*
X175194922Y-97534587D01*
X175214935Y-97468612D01*
X175220000Y-97417189D01*
X175225065Y-97468612D01*
X175245078Y-97534587D01*
X175250000Y-97543795D01*
X175250000Y-97662500D01*
X175337500Y-97750000D01*
X175370000Y-97751694D01*
X175438612Y-97744936D01*
X175470002Y-97735414D01*
X175501388Y-97744935D01*
X175570000Y-97751693D01*
X175870000Y-97751693D01*
X175938612Y-97744935D01*
X175969998Y-97735414D01*
X176001388Y-97744936D01*
X176070000Y-97751694D01*
X176102500Y-97750000D01*
X176190000Y-97662500D01*
X176190000Y-97543795D01*
X176194922Y-97534587D01*
X176214935Y-97468612D01*
X176220000Y-97417189D01*
X176225065Y-97468612D01*
X176245078Y-97534587D01*
X176250000Y-97543795D01*
X176250000Y-97662500D01*
X176337500Y-97750000D01*
X176370000Y-97751694D01*
X176438612Y-97744936D01*
X176470002Y-97735414D01*
X176501388Y-97744935D01*
X176570000Y-97751693D01*
X176870000Y-97751693D01*
X176938612Y-97744935D01*
X176969998Y-97735414D01*
X177001388Y-97744936D01*
X177070000Y-97751694D01*
X177102500Y-97750000D01*
X177190000Y-97662500D01*
X177190000Y-97543795D01*
X177194922Y-97534587D01*
X177214935Y-97468612D01*
X177220000Y-97417189D01*
X177225065Y-97468612D01*
X177245078Y-97534587D01*
X177250000Y-97543795D01*
X177250000Y-97662500D01*
X177337500Y-97750000D01*
X177370000Y-97751694D01*
X177438612Y-97744936D01*
X177470002Y-97735414D01*
X177501388Y-97744935D01*
X177570000Y-97751693D01*
X177870000Y-97751693D01*
X177938612Y-97744935D01*
X177969998Y-97735414D01*
X178001388Y-97744936D01*
X178070000Y-97751694D01*
X178102500Y-97750000D01*
X178190000Y-97662500D01*
X178190000Y-97543795D01*
X178194922Y-97534587D01*
X178214935Y-97468612D01*
X178220000Y-97417189D01*
X178225065Y-97468612D01*
X178245078Y-97534587D01*
X178250000Y-97543795D01*
X178250000Y-97662500D01*
X178337500Y-97750000D01*
X178370000Y-97751694D01*
X178438612Y-97744936D01*
X178470002Y-97735414D01*
X178501388Y-97744935D01*
X178570000Y-97751693D01*
X178870000Y-97751693D01*
X178938612Y-97744935D01*
X178969998Y-97735414D01*
X179001388Y-97744936D01*
X179070000Y-97751694D01*
X179102500Y-97750000D01*
X179190000Y-97662500D01*
X179190000Y-97543795D01*
X179194922Y-97534587D01*
X179214935Y-97468612D01*
X179220000Y-97417189D01*
X179225065Y-97468612D01*
X179245078Y-97534587D01*
X179250000Y-97543795D01*
X179250000Y-97662500D01*
X179337500Y-97750000D01*
X179370000Y-97751694D01*
X179438612Y-97744936D01*
X179470002Y-97735414D01*
X179501388Y-97744935D01*
X179570000Y-97751693D01*
X179870000Y-97751693D01*
X179938612Y-97744935D01*
X179969998Y-97735414D01*
X180001388Y-97744936D01*
X180070000Y-97751694D01*
X180102500Y-97750000D01*
X180190000Y-97662500D01*
X180190000Y-97543795D01*
X180194922Y-97534587D01*
X180214935Y-97468612D01*
X180220000Y-97417189D01*
X180225065Y-97468612D01*
X180245078Y-97534587D01*
X180250000Y-97543795D01*
X180250000Y-97662500D01*
X180337500Y-97750000D01*
X180370000Y-97751694D01*
X180438612Y-97744936D01*
X180470002Y-97735414D01*
X180501388Y-97744935D01*
X180570000Y-97751693D01*
X180870000Y-97751693D01*
X180938612Y-97744935D01*
X180969998Y-97735414D01*
X181001388Y-97744936D01*
X181070000Y-97751694D01*
X181102500Y-97750000D01*
X181190000Y-97662500D01*
X181190000Y-97543795D01*
X181194922Y-97534587D01*
X181214935Y-97468612D01*
X181220000Y-97417189D01*
X181225065Y-97468612D01*
X181245078Y-97534587D01*
X181250000Y-97543795D01*
X181250000Y-97662500D01*
X181337500Y-97750000D01*
X181370000Y-97751694D01*
X181438612Y-97744936D01*
X181470002Y-97735414D01*
X181501388Y-97744935D01*
X181570000Y-97751693D01*
X181870000Y-97751693D01*
X181938612Y-97744935D01*
X181969998Y-97735414D01*
X182001388Y-97744936D01*
X182070000Y-97751694D01*
X182102500Y-97750000D01*
X182190000Y-97662500D01*
X182190000Y-97543795D01*
X182194922Y-97534587D01*
X182214935Y-97468612D01*
X182220000Y-97417189D01*
X182225065Y-97468612D01*
X182245078Y-97534587D01*
X182250000Y-97543795D01*
X182250000Y-97662500D01*
X182337500Y-97750000D01*
X182370000Y-97751694D01*
X182438612Y-97744936D01*
X182470002Y-97735414D01*
X182501388Y-97744935D01*
X182570000Y-97751693D01*
X182870000Y-97751693D01*
X182938612Y-97744935D01*
X182969998Y-97735414D01*
X183001388Y-97744936D01*
X183070000Y-97751694D01*
X183102500Y-97750000D01*
X183190000Y-97662500D01*
X183190000Y-97543795D01*
X183194922Y-97534587D01*
X183214935Y-97468612D01*
X183220000Y-97417189D01*
X183225065Y-97468612D01*
X183245078Y-97534587D01*
X183250000Y-97543795D01*
X183250000Y-97662500D01*
X183337500Y-97750000D01*
X183370000Y-97751694D01*
X183438612Y-97744936D01*
X183470002Y-97735414D01*
X183501388Y-97744935D01*
X183570000Y-97751693D01*
X183870000Y-97751693D01*
X183938612Y-97744935D01*
X184004587Y-97724922D01*
X184065390Y-97692422D01*
X184118685Y-97648685D01*
X184162422Y-97595390D01*
X184194922Y-97534587D01*
X184214935Y-97468612D01*
X184221693Y-97400000D01*
X184221693Y-96994122D01*
X184645000Y-96994122D01*
X184645000Y-97205878D01*
X184686312Y-97413566D01*
X184767348Y-97609203D01*
X184884993Y-97785272D01*
X184978445Y-97878724D01*
X184935223Y-97891460D01*
X184768790Y-97978721D01*
X184756086Y-97987210D01*
X184700607Y-98143180D01*
X185295000Y-98737574D01*
X185309142Y-98723431D01*
X185351569Y-98765858D01*
X185337426Y-98780000D01*
X185931820Y-99374393D01*
X186087790Y-99318914D01*
X186177694Y-99153893D01*
X186233676Y-98974503D01*
X186253586Y-98787639D01*
X186236657Y-98600481D01*
X186183540Y-98420223D01*
X186096279Y-98253790D01*
X186087790Y-98241086D01*
X185931821Y-98185608D01*
X185971369Y-98146060D01*
X186033566Y-98133688D01*
X186229203Y-98052652D01*
X186366251Y-97961080D01*
X186424576Y-98101888D01*
X186528980Y-98258140D01*
X186661860Y-98391020D01*
X186818112Y-98495424D01*
X186991728Y-98567338D01*
X187176039Y-98604000D01*
X187363961Y-98604000D01*
X187548272Y-98567338D01*
X187721888Y-98495424D01*
X187878140Y-98391020D01*
X188011020Y-98258140D01*
X188115424Y-98101888D01*
X188187338Y-97928272D01*
X188224000Y-97743961D01*
X188224000Y-97556039D01*
X188187338Y-97371728D01*
X188115424Y-97198112D01*
X188011020Y-97041860D01*
X187878140Y-96908980D01*
X187721888Y-96804576D01*
X187548272Y-96732662D01*
X187363961Y-96696000D01*
X187176039Y-96696000D01*
X186991728Y-96732662D01*
X186818112Y-96804576D01*
X186764431Y-96840444D01*
X186753688Y-96786434D01*
X186672652Y-96590797D01*
X186555007Y-96414728D01*
X186405272Y-96264993D01*
X186229203Y-96147348D01*
X186033566Y-96066312D01*
X185825878Y-96025000D01*
X185614122Y-96025000D01*
X185406434Y-96066312D01*
X185210797Y-96147348D01*
X185034728Y-96264993D01*
X184884993Y-96414728D01*
X184767348Y-96590797D01*
X184686312Y-96786434D01*
X184645000Y-96994122D01*
X184221693Y-96994122D01*
X184221693Y-95600000D01*
X184214935Y-95531388D01*
X184195000Y-95465670D01*
X184195000Y-92286750D01*
X184292477Y-92189273D01*
X184296131Y-92190000D01*
X184443869Y-92190000D01*
X184588767Y-92161178D01*
X184725258Y-92104641D01*
X184848097Y-92022563D01*
X184952563Y-91918097D01*
X185034641Y-91795258D01*
X185091178Y-91658767D01*
X185120000Y-91513869D01*
X185120000Y-91366131D01*
X185091178Y-91221233D01*
X185034641Y-91084742D01*
X184952563Y-90961903D01*
X184848097Y-90857437D01*
X184725258Y-90775359D01*
X184588767Y-90718822D01*
X184443869Y-90690000D01*
X184296131Y-90690000D01*
X184151233Y-90718822D01*
X184014742Y-90775359D01*
X183891903Y-90857437D01*
X183787437Y-90961903D01*
X183770000Y-90987999D01*
X183752563Y-90961903D01*
X183648097Y-90857437D01*
X183525258Y-90775359D01*
X183388767Y-90718822D01*
X183243869Y-90690000D01*
X183096131Y-90690000D01*
X182951233Y-90718822D01*
X182814742Y-90775359D01*
X182691903Y-90857437D01*
X182587437Y-90961903D01*
X182570000Y-90987999D01*
X182552563Y-90961903D01*
X182448097Y-90857437D01*
X182325258Y-90775359D01*
X182188767Y-90718822D01*
X182043869Y-90690000D01*
X181896131Y-90690000D01*
X181751233Y-90718822D01*
X181614742Y-90775359D01*
X181491903Y-90857437D01*
X181387437Y-90961903D01*
X181370000Y-90987999D01*
X181352563Y-90961903D01*
X181248097Y-90857437D01*
X181125258Y-90775359D01*
X180988767Y-90718822D01*
X180843869Y-90690000D01*
X180696131Y-90690000D01*
X180551233Y-90718822D01*
X180414742Y-90775359D01*
X180291903Y-90857437D01*
X180187437Y-90961903D01*
X180170000Y-90987999D01*
X180152563Y-90961903D01*
X180048097Y-90857437D01*
X179925258Y-90775359D01*
X179788767Y-90718822D01*
X179643869Y-90690000D01*
X179496131Y-90690000D01*
X179351233Y-90718822D01*
X179214742Y-90775359D01*
X179091903Y-90857437D01*
X178987437Y-90961903D01*
X178970000Y-90987999D01*
X178952563Y-90961903D01*
X178848097Y-90857437D01*
X178725258Y-90775359D01*
X178588767Y-90718822D01*
X178443869Y-90690000D01*
X178296131Y-90690000D01*
X178151233Y-90718822D01*
X178014742Y-90775359D01*
X177891903Y-90857437D01*
X177787437Y-90961903D01*
X177770000Y-90987999D01*
X177752563Y-90961903D01*
X177648097Y-90857437D01*
X177525258Y-90775359D01*
X177388767Y-90718822D01*
X177243869Y-90690000D01*
X177096131Y-90690000D01*
X176951233Y-90718822D01*
X176814742Y-90775359D01*
X176691903Y-90857437D01*
X176587437Y-90961903D01*
X176570000Y-90987999D01*
X176552563Y-90961903D01*
X176448097Y-90857437D01*
X176325258Y-90775359D01*
X176188767Y-90718822D01*
X176043869Y-90690000D01*
X175896131Y-90690000D01*
X175751233Y-90718822D01*
X175614742Y-90775359D01*
X175491903Y-90857437D01*
X175387437Y-90961903D01*
X175370000Y-90987999D01*
X175352563Y-90961903D01*
X175248097Y-90857437D01*
X175125258Y-90775359D01*
X174988767Y-90718822D01*
X174843869Y-90690000D01*
X174696131Y-90690000D01*
X174551233Y-90718822D01*
X174414742Y-90775359D01*
X174291903Y-90857437D01*
X174187437Y-90961903D01*
X174170000Y-90987999D01*
X174152563Y-90961903D01*
X174048097Y-90857437D01*
X173925258Y-90775359D01*
X173788767Y-90718822D01*
X173643869Y-90690000D01*
X173496131Y-90690000D01*
X173351233Y-90718822D01*
X173214742Y-90775359D01*
X173091903Y-90857437D01*
X172987437Y-90961903D01*
X172905359Y-91084742D01*
X172848822Y-91221233D01*
X172820000Y-91366131D01*
X160410000Y-91366131D01*
X160410000Y-82724790D01*
X162018000Y-82724790D01*
X162018000Y-83115210D01*
X162094167Y-83498128D01*
X162243574Y-83858829D01*
X162460480Y-84183451D01*
X162736549Y-84459520D01*
X163061171Y-84676426D01*
X163421872Y-84825833D01*
X163804790Y-84902000D01*
X164195210Y-84902000D01*
X164578128Y-84825833D01*
X164938829Y-84676426D01*
X165263451Y-84459520D01*
X165539520Y-84183451D01*
X165756426Y-83858829D01*
X165905833Y-83498128D01*
X165982000Y-83115210D01*
X165982000Y-82794790D01*
X192018000Y-82794790D01*
X192018000Y-83185210D01*
X192094167Y-83568128D01*
X192243574Y-83928829D01*
X192460480Y-84253451D01*
X192736549Y-84529520D01*
X193061171Y-84746426D01*
X193421872Y-84895833D01*
X193804790Y-84972000D01*
X194195210Y-84972000D01*
X194578128Y-84895833D01*
X194938829Y-84746426D01*
X195263451Y-84529520D01*
X195539520Y-84253451D01*
X195756426Y-83928829D01*
X195905833Y-83568128D01*
X195982000Y-83185210D01*
X195982000Y-82794790D01*
X195905833Y-82411872D01*
X195756426Y-82051171D01*
X195539520Y-81726549D01*
X195263451Y-81450480D01*
X194938829Y-81233574D01*
X194578128Y-81084167D01*
X194195210Y-81008000D01*
X193804790Y-81008000D01*
X193421872Y-81084167D01*
X193061171Y-81233574D01*
X192736549Y-81450480D01*
X192460480Y-81726549D01*
X192243574Y-82051171D01*
X192094167Y-82411872D01*
X192018000Y-82794790D01*
X165982000Y-82794790D01*
X165982000Y-82724790D01*
X165905833Y-82341872D01*
X165756426Y-81981171D01*
X165539520Y-81656549D01*
X165263451Y-81380480D01*
X164938829Y-81163574D01*
X164578128Y-81014167D01*
X164195210Y-80938000D01*
X163804790Y-80938000D01*
X163421872Y-81014167D01*
X163061171Y-81163574D01*
X162736549Y-81380480D01*
X162460480Y-81656549D01*
X162243574Y-81981171D01*
X162094167Y-82341872D01*
X162018000Y-82724790D01*
X160410000Y-82724790D01*
X160410000Y-70030000D01*
X173103017Y-70030000D01*
X173105000Y-70050134D01*
X173105001Y-81009856D01*
X173103017Y-81030000D01*
X173110933Y-81110374D01*
X173134377Y-81187659D01*
X173172449Y-81258885D01*
X173223684Y-81321316D01*
X173286115Y-81372551D01*
X173357341Y-81410623D01*
X173434626Y-81434067D01*
X173494866Y-81440000D01*
X173515000Y-81441983D01*
X173535134Y-81440000D01*
X184494866Y-81440000D01*
X184515000Y-81441983D01*
X184535134Y-81440000D01*
X184595374Y-81434067D01*
X184672659Y-81410623D01*
X184743885Y-81372551D01*
X184806316Y-81321316D01*
X184857551Y-81258885D01*
X184895623Y-81187659D01*
X184919067Y-81110374D01*
X184926983Y-81030000D01*
X184925000Y-81009866D01*
X184925000Y-70050134D01*
X184926983Y-70030000D01*
X184919067Y-69949626D01*
X184895623Y-69872341D01*
X184857551Y-69801115D01*
X184806316Y-69738684D01*
X184743885Y-69687449D01*
X184672659Y-69649377D01*
X184595374Y-69625933D01*
X184535134Y-69620000D01*
X184515000Y-69618017D01*
X184494866Y-69620000D01*
X173535134Y-69620000D01*
X173515000Y-69618017D01*
X173494866Y-69620000D01*
X173434626Y-69625933D01*
X173357341Y-69649377D01*
X173286115Y-69687449D01*
X173223684Y-69738684D01*
X173172449Y-69801115D01*
X173134377Y-69872341D01*
X173110933Y-69949626D01*
X173103017Y-70030000D01*
X160410000Y-70030000D01*
X160410000Y-67794790D01*
X162018000Y-67794790D01*
X162018000Y-68185210D01*
X162094167Y-68568128D01*
X162243574Y-68928829D01*
X162460480Y-69253451D01*
X162736549Y-69529520D01*
X163061171Y-69746426D01*
X163421872Y-69895833D01*
X163804790Y-69972000D01*
X164195210Y-69972000D01*
X164578128Y-69895833D01*
X164938829Y-69746426D01*
X165263451Y-69529520D01*
X165539520Y-69253451D01*
X165756426Y-68928829D01*
X165905833Y-68568128D01*
X165982000Y-68185210D01*
X165982000Y-67794790D01*
X192018000Y-67794790D01*
X192018000Y-68185210D01*
X192094167Y-68568128D01*
X192243574Y-68928829D01*
X192460480Y-69253451D01*
X192736549Y-69529520D01*
X193061171Y-69746426D01*
X193421872Y-69895833D01*
X193804790Y-69972000D01*
X194195210Y-69972000D01*
X194578128Y-69895833D01*
X194938829Y-69746426D01*
X195263451Y-69529520D01*
X195539520Y-69253451D01*
X195756426Y-68928829D01*
X195905833Y-68568128D01*
X195982000Y-68185210D01*
X195982000Y-67794790D01*
X195905833Y-67411872D01*
X195756426Y-67051171D01*
X195539520Y-66726549D01*
X195263451Y-66450480D01*
X194938829Y-66233574D01*
X194578128Y-66084167D01*
X194195210Y-66008000D01*
X193804790Y-66008000D01*
X193421872Y-66084167D01*
X193061171Y-66233574D01*
X192736549Y-66450480D01*
X192460480Y-66726549D01*
X192243574Y-67051171D01*
X192094167Y-67411872D01*
X192018000Y-67794790D01*
X165982000Y-67794790D01*
X165905833Y-67411872D01*
X165756426Y-67051171D01*
X165539520Y-66726549D01*
X165263451Y-66450480D01*
X164938829Y-66233574D01*
X164578128Y-66084167D01*
X164195210Y-66008000D01*
X163804790Y-66008000D01*
X163421872Y-66084167D01*
X163061171Y-66233574D01*
X162736549Y-66450480D01*
X162460480Y-66726549D01*
X162243574Y-67051171D01*
X162094167Y-67411872D01*
X162018000Y-67794790D01*
X160410000Y-67794790D01*
X160410000Y-58366131D01*
X172990000Y-58366131D01*
X172990000Y-58513869D01*
X173018822Y-58658767D01*
X173075359Y-58795258D01*
X173157437Y-58918097D01*
X173261903Y-59022563D01*
X173384742Y-59104641D01*
X173521233Y-59161178D01*
X173666131Y-59190000D01*
X173813869Y-59190000D01*
X173958767Y-59161178D01*
X174095258Y-59104641D01*
X174218097Y-59022563D01*
X174322563Y-58918097D01*
X174340000Y-58892001D01*
X174357437Y-58918097D01*
X174461903Y-59022563D01*
X174584742Y-59104641D01*
X174721233Y-59161178D01*
X174866131Y-59190000D01*
X175013869Y-59190000D01*
X175158767Y-59161178D01*
X175295258Y-59104641D01*
X175418097Y-59022563D01*
X175522563Y-58918097D01*
X175540000Y-58892001D01*
X175557437Y-58918097D01*
X175661903Y-59022563D01*
X175784742Y-59104641D01*
X175921233Y-59161178D01*
X176066131Y-59190000D01*
X176213869Y-59190000D01*
X176358767Y-59161178D01*
X176495258Y-59104641D01*
X176618097Y-59022563D01*
X176722563Y-58918097D01*
X176740000Y-58892001D01*
X176757437Y-58918097D01*
X176861903Y-59022563D01*
X176984742Y-59104641D01*
X177121233Y-59161178D01*
X177266131Y-59190000D01*
X177413869Y-59190000D01*
X177558767Y-59161178D01*
X177695258Y-59104641D01*
X177818097Y-59022563D01*
X177922563Y-58918097D01*
X177940000Y-58892001D01*
X177957437Y-58918097D01*
X178061903Y-59022563D01*
X178184742Y-59104641D01*
X178321233Y-59161178D01*
X178466131Y-59190000D01*
X178613869Y-59190000D01*
X178758767Y-59161178D01*
X178895258Y-59104641D01*
X179018097Y-59022563D01*
X179122563Y-58918097D01*
X179140000Y-58892001D01*
X179157437Y-58918097D01*
X179261903Y-59022563D01*
X179384742Y-59104641D01*
X179521233Y-59161178D01*
X179666131Y-59190000D01*
X179813869Y-59190000D01*
X179958767Y-59161178D01*
X180095258Y-59104641D01*
X180218097Y-59022563D01*
X180322563Y-58918097D01*
X180340000Y-58892001D01*
X180357437Y-58918097D01*
X180461903Y-59022563D01*
X180584742Y-59104641D01*
X180721233Y-59161178D01*
X180866131Y-59190000D01*
X181013869Y-59190000D01*
X181158767Y-59161178D01*
X181295258Y-59104641D01*
X181418097Y-59022563D01*
X181522563Y-58918097D01*
X181540000Y-58892001D01*
X181557437Y-58918097D01*
X181661903Y-59022563D01*
X181784742Y-59104641D01*
X181921233Y-59161178D01*
X182066131Y-59190000D01*
X182213869Y-59190000D01*
X182358767Y-59161178D01*
X182495258Y-59104641D01*
X182618097Y-59022563D01*
X182722563Y-58918097D01*
X182740000Y-58892001D01*
X182757437Y-58918097D01*
X182861903Y-59022563D01*
X182984742Y-59104641D01*
X183121233Y-59161178D01*
X183266131Y-59190000D01*
X183413869Y-59190000D01*
X183558767Y-59161178D01*
X183695258Y-59104641D01*
X183818097Y-59022563D01*
X183922563Y-58918097D01*
X183940000Y-58892001D01*
X183957437Y-58918097D01*
X184061903Y-59022563D01*
X184184742Y-59104641D01*
X184321233Y-59161178D01*
X184466131Y-59190000D01*
X184613869Y-59190000D01*
X184758767Y-59161178D01*
X184895258Y-59104641D01*
X185018097Y-59022563D01*
X185122563Y-58918097D01*
X185204641Y-58795258D01*
X185261178Y-58658767D01*
X185290000Y-58513869D01*
X185290000Y-58366131D01*
X185261178Y-58221233D01*
X185204641Y-58084742D01*
X185122563Y-57961903D01*
X185018097Y-57857437D01*
X184895258Y-57775359D01*
X184758767Y-57718822D01*
X184613869Y-57690000D01*
X184466131Y-57690000D01*
X184462478Y-57690727D01*
X183715000Y-56943250D01*
X183715000Y-55614330D01*
X183734935Y-55548612D01*
X183741693Y-55480000D01*
X183741693Y-54610000D01*
X183770000Y-54610000D01*
X183770000Y-55742500D01*
X183857500Y-55830000D01*
X183890000Y-55831694D01*
X183958612Y-55824936D01*
X184024587Y-55804923D01*
X184085391Y-55772423D01*
X184138685Y-55728685D01*
X184182423Y-55675391D01*
X184214923Y-55614587D01*
X184234936Y-55548612D01*
X184241694Y-55480000D01*
X184240000Y-54697500D01*
X184152500Y-54610000D01*
X183770000Y-54610000D01*
X183741693Y-54610000D01*
X183741693Y-53680000D01*
X183734935Y-53611388D01*
X183714922Y-53545413D01*
X183710000Y-53536205D01*
X183710000Y-53417500D01*
X183770000Y-53417500D01*
X183770000Y-54550000D01*
X184152500Y-54550000D01*
X184240000Y-54462500D01*
X184241273Y-53874122D01*
X184665000Y-53874122D01*
X184665000Y-54085878D01*
X184706312Y-54293566D01*
X184787348Y-54489203D01*
X184904993Y-54665272D01*
X185054728Y-54815007D01*
X185230797Y-54932652D01*
X185426434Y-55013688D01*
X185634122Y-55055000D01*
X185845878Y-55055000D01*
X186053566Y-55013688D01*
X186249203Y-54932652D01*
X186425272Y-54815007D01*
X186575007Y-54665272D01*
X186692652Y-54489203D01*
X186773688Y-54293566D01*
X186784431Y-54239556D01*
X186838112Y-54275424D01*
X187011728Y-54347338D01*
X187196039Y-54384000D01*
X187383961Y-54384000D01*
X187568272Y-54347338D01*
X187741888Y-54275424D01*
X187898140Y-54171020D01*
X188031020Y-54038140D01*
X188135424Y-53881888D01*
X188207338Y-53708272D01*
X188244000Y-53523961D01*
X188244000Y-53336039D01*
X188207338Y-53151728D01*
X188135424Y-52978112D01*
X188031020Y-52821860D01*
X187898140Y-52688980D01*
X187741888Y-52584576D01*
X187568272Y-52512662D01*
X187383961Y-52476000D01*
X187196039Y-52476000D01*
X187011728Y-52512662D01*
X186838112Y-52584576D01*
X186681860Y-52688980D01*
X186548980Y-52821860D01*
X186444576Y-52978112D01*
X186386251Y-53118920D01*
X186249203Y-53027348D01*
X186053566Y-52946312D01*
X185991369Y-52933940D01*
X185951821Y-52894392D01*
X186107790Y-52838914D01*
X186197694Y-52673893D01*
X186253676Y-52494503D01*
X186273586Y-52307639D01*
X186256657Y-52120481D01*
X186203540Y-51940223D01*
X186116279Y-51773790D01*
X186107790Y-51761086D01*
X185951820Y-51705607D01*
X185357426Y-52300000D01*
X185371569Y-52314142D01*
X185329142Y-52356569D01*
X185315000Y-52342426D01*
X184720607Y-52936820D01*
X184776086Y-53092790D01*
X184941107Y-53182694D01*
X184998970Y-53200751D01*
X184904993Y-53294728D01*
X184787348Y-53470797D01*
X184706312Y-53666434D01*
X184665000Y-53874122D01*
X184241273Y-53874122D01*
X184241694Y-53680000D01*
X184234936Y-53611388D01*
X184214923Y-53545413D01*
X184182423Y-53484609D01*
X184138685Y-53431315D01*
X184085391Y-53387577D01*
X184024587Y-53355077D01*
X183958612Y-53335064D01*
X183890000Y-53328306D01*
X183857500Y-53330000D01*
X183770000Y-53417500D01*
X183710000Y-53417500D01*
X183622500Y-53330000D01*
X183590000Y-53328306D01*
X183521388Y-53335064D01*
X183489998Y-53344586D01*
X183458612Y-53335065D01*
X183390000Y-53328307D01*
X183090000Y-53328307D01*
X183021388Y-53335065D01*
X182990002Y-53344586D01*
X182958612Y-53335064D01*
X182890000Y-53328306D01*
X182857500Y-53330000D01*
X182770000Y-53417500D01*
X182770000Y-53536205D01*
X182765078Y-53545413D01*
X182745065Y-53611388D01*
X182740000Y-53662811D01*
X182734935Y-53611388D01*
X182714922Y-53545413D01*
X182710000Y-53536205D01*
X182710000Y-53417500D01*
X182622500Y-53330000D01*
X182590000Y-53328306D01*
X182521388Y-53335064D01*
X182489998Y-53344586D01*
X182458612Y-53335065D01*
X182390000Y-53328307D01*
X182090000Y-53328307D01*
X182021388Y-53335065D01*
X181990002Y-53344586D01*
X181958612Y-53335064D01*
X181890000Y-53328306D01*
X181857500Y-53330000D01*
X181770000Y-53417500D01*
X181770000Y-53536205D01*
X181765078Y-53545413D01*
X181745065Y-53611388D01*
X181740000Y-53662811D01*
X181734935Y-53611388D01*
X181714922Y-53545413D01*
X181710000Y-53536205D01*
X181710000Y-53417500D01*
X181622500Y-53330000D01*
X181590000Y-53328306D01*
X181521388Y-53335064D01*
X181489998Y-53344586D01*
X181458612Y-53335065D01*
X181390000Y-53328307D01*
X181090000Y-53328307D01*
X181021388Y-53335065D01*
X180990002Y-53344586D01*
X180958612Y-53335064D01*
X180890000Y-53328306D01*
X180857500Y-53330000D01*
X180770000Y-53417500D01*
X180770000Y-53536205D01*
X180765078Y-53545413D01*
X180745065Y-53611388D01*
X180740000Y-53662811D01*
X180734935Y-53611388D01*
X180714922Y-53545413D01*
X180710000Y-53536205D01*
X180710000Y-53417500D01*
X180622500Y-53330000D01*
X180590000Y-53328306D01*
X180521388Y-53335064D01*
X180489998Y-53344586D01*
X180458612Y-53335065D01*
X180390000Y-53328307D01*
X180090000Y-53328307D01*
X180021388Y-53335065D01*
X179990002Y-53344586D01*
X179958612Y-53335064D01*
X179890000Y-53328306D01*
X179857500Y-53330000D01*
X179770000Y-53417500D01*
X179770000Y-53536205D01*
X179765078Y-53545413D01*
X179745065Y-53611388D01*
X179740000Y-53662811D01*
X179734935Y-53611388D01*
X179714922Y-53545413D01*
X179710000Y-53536205D01*
X179710000Y-53417500D01*
X179622500Y-53330000D01*
X179590000Y-53328306D01*
X179521388Y-53335064D01*
X179489998Y-53344586D01*
X179458612Y-53335065D01*
X179390000Y-53328307D01*
X179090000Y-53328307D01*
X179021388Y-53335065D01*
X178990002Y-53344586D01*
X178958612Y-53335064D01*
X178890000Y-53328306D01*
X178857500Y-53330000D01*
X178770000Y-53417500D01*
X178770000Y-53536205D01*
X178765078Y-53545413D01*
X178745065Y-53611388D01*
X178740000Y-53662811D01*
X178734935Y-53611388D01*
X178714922Y-53545413D01*
X178710000Y-53536205D01*
X178710000Y-53417500D01*
X178622500Y-53330000D01*
X178590000Y-53328306D01*
X178521388Y-53335064D01*
X178489998Y-53344586D01*
X178458612Y-53335065D01*
X178390000Y-53328307D01*
X178090000Y-53328307D01*
X178021388Y-53335065D01*
X177990002Y-53344586D01*
X177958612Y-53335064D01*
X177890000Y-53328306D01*
X177857500Y-53330000D01*
X177770000Y-53417500D01*
X177770000Y-53536205D01*
X177765078Y-53545413D01*
X177745065Y-53611388D01*
X177740000Y-53662811D01*
X177734935Y-53611388D01*
X177714922Y-53545413D01*
X177710000Y-53536205D01*
X177710000Y-53417500D01*
X177622500Y-53330000D01*
X177590000Y-53328306D01*
X177521388Y-53335064D01*
X177489998Y-53344586D01*
X177458612Y-53335065D01*
X177390000Y-53328307D01*
X177090000Y-53328307D01*
X177021388Y-53335065D01*
X176990002Y-53344586D01*
X176958612Y-53335064D01*
X176890000Y-53328306D01*
X176857500Y-53330000D01*
X176770000Y-53417500D01*
X176770000Y-53536205D01*
X176765078Y-53545413D01*
X176745065Y-53611388D01*
X176740000Y-53662811D01*
X176734935Y-53611388D01*
X176714922Y-53545413D01*
X176710000Y-53536205D01*
X176710000Y-53417500D01*
X176622500Y-53330000D01*
X176590000Y-53328306D01*
X176521388Y-53335064D01*
X176489998Y-53344586D01*
X176458612Y-53335065D01*
X176390000Y-53328307D01*
X176090000Y-53328307D01*
X176021388Y-53335065D01*
X175990002Y-53344586D01*
X175958612Y-53335064D01*
X175890000Y-53328306D01*
X175857500Y-53330000D01*
X175770000Y-53417500D01*
X175770000Y-53536205D01*
X175765078Y-53545413D01*
X175745065Y-53611388D01*
X175740000Y-53662811D01*
X175734935Y-53611388D01*
X175714922Y-53545413D01*
X175710000Y-53536205D01*
X175710000Y-53417500D01*
X175622500Y-53330000D01*
X175590000Y-53328306D01*
X175521388Y-53335064D01*
X175489998Y-53344586D01*
X175458612Y-53335065D01*
X175390000Y-53328307D01*
X175090000Y-53328307D01*
X175021388Y-53335065D01*
X174990002Y-53344586D01*
X174958612Y-53335064D01*
X174890000Y-53328306D01*
X174857500Y-53330000D01*
X174770000Y-53417500D01*
X174770000Y-53536205D01*
X174765078Y-53545413D01*
X174745065Y-53611388D01*
X174740000Y-53662811D01*
X174734935Y-53611388D01*
X174714922Y-53545413D01*
X174710000Y-53536205D01*
X174710000Y-53417500D01*
X174622500Y-53330000D01*
X174590000Y-53328306D01*
X174521388Y-53335064D01*
X174489998Y-53344586D01*
X174458612Y-53335065D01*
X174390000Y-53328307D01*
X174090000Y-53328307D01*
X174021388Y-53335065D01*
X173955413Y-53355078D01*
X173894610Y-53387578D01*
X173841315Y-53431315D01*
X173797578Y-53484610D01*
X173765078Y-53545413D01*
X173745065Y-53611388D01*
X173738307Y-53680000D01*
X173738307Y-55480000D01*
X173745065Y-55548612D01*
X173765000Y-55614331D01*
X173765001Y-57690000D01*
X173666131Y-57690000D01*
X173521233Y-57718822D01*
X173384742Y-57775359D01*
X173261903Y-57857437D01*
X173157437Y-57961903D01*
X173075359Y-58084742D01*
X173018822Y-58221233D01*
X172990000Y-58366131D01*
X160410000Y-58366131D01*
X160410000Y-53336039D01*
X169736000Y-53336039D01*
X169736000Y-53523961D01*
X169772662Y-53708272D01*
X169844576Y-53881888D01*
X169948980Y-54038140D01*
X170081860Y-54171020D01*
X170238112Y-54275424D01*
X170411728Y-54347338D01*
X170596039Y-54384000D01*
X170783961Y-54384000D01*
X170968272Y-54347338D01*
X171141888Y-54275424D01*
X171195569Y-54239556D01*
X171206312Y-54293566D01*
X171287348Y-54489203D01*
X171404993Y-54665272D01*
X171554728Y-54815007D01*
X171730797Y-54932652D01*
X171926434Y-55013688D01*
X172134122Y-55055000D01*
X172345878Y-55055000D01*
X172553566Y-55013688D01*
X172749203Y-54932652D01*
X172925272Y-54815007D01*
X173075007Y-54665272D01*
X173192652Y-54489203D01*
X173273688Y-54293566D01*
X173315000Y-54085878D01*
X173315000Y-53874122D01*
X173273688Y-53666434D01*
X173192652Y-53470797D01*
X173075007Y-53294728D01*
X172981555Y-53201276D01*
X173024777Y-53188540D01*
X173191210Y-53101279D01*
X173203914Y-53092790D01*
X173259393Y-52936820D01*
X172665000Y-52342426D01*
X172650858Y-52356569D01*
X172608431Y-52314142D01*
X172622574Y-52300000D01*
X172707426Y-52300000D01*
X173301820Y-52894393D01*
X173457790Y-52838914D01*
X173517126Y-52730000D01*
X173738306Y-52730000D01*
X173745064Y-52798612D01*
X173765077Y-52864587D01*
X173797577Y-52925391D01*
X173841315Y-52978685D01*
X173894609Y-53022423D01*
X173955413Y-53054923D01*
X174021388Y-53074936D01*
X174090000Y-53081694D01*
X174122500Y-53080000D01*
X174210000Y-52992500D01*
X174210000Y-52730000D01*
X174238306Y-52730000D01*
X174245064Y-52798612D01*
X174265077Y-52864587D01*
X174270000Y-52873797D01*
X174270000Y-52992500D01*
X174357500Y-53080000D01*
X174390000Y-53081694D01*
X174458612Y-53074936D01*
X174490000Y-53065415D01*
X174521388Y-53074936D01*
X174590000Y-53081694D01*
X174622500Y-53080000D01*
X174710000Y-52992500D01*
X174710000Y-52873797D01*
X174714923Y-52864587D01*
X174734936Y-52798612D01*
X174740000Y-52747199D01*
X174745064Y-52798612D01*
X174765077Y-52864587D01*
X174770000Y-52873797D01*
X174770000Y-52992500D01*
X174857500Y-53080000D01*
X174890000Y-53081694D01*
X174958612Y-53074936D01*
X174990000Y-53065415D01*
X175021388Y-53074936D01*
X175090000Y-53081694D01*
X175122500Y-53080000D01*
X175210000Y-52992500D01*
X175210000Y-52873797D01*
X175214923Y-52864587D01*
X175234936Y-52798612D01*
X175240000Y-52747199D01*
X175245064Y-52798612D01*
X175265077Y-52864587D01*
X175270000Y-52873797D01*
X175270000Y-52992500D01*
X175357500Y-53080000D01*
X175390000Y-53081694D01*
X175458612Y-53074936D01*
X175490000Y-53065415D01*
X175521388Y-53074936D01*
X175590000Y-53081694D01*
X175622500Y-53080000D01*
X175710000Y-52992500D01*
X175710000Y-52873797D01*
X175714923Y-52864587D01*
X175734936Y-52798612D01*
X175740000Y-52747199D01*
X175745064Y-52798612D01*
X175765077Y-52864587D01*
X175770000Y-52873797D01*
X175770000Y-52992500D01*
X175857500Y-53080000D01*
X175890000Y-53081694D01*
X175958612Y-53074936D01*
X175990000Y-53065415D01*
X176021388Y-53074936D01*
X176090000Y-53081694D01*
X176122500Y-53080000D01*
X176210000Y-52992500D01*
X176210000Y-52873797D01*
X176214923Y-52864587D01*
X176234936Y-52798612D01*
X176240000Y-52747199D01*
X176245064Y-52798612D01*
X176265077Y-52864587D01*
X176270000Y-52873797D01*
X176270000Y-52992500D01*
X176357500Y-53080000D01*
X176390000Y-53081694D01*
X176458612Y-53074936D01*
X176490000Y-53065415D01*
X176521388Y-53074936D01*
X176590000Y-53081694D01*
X176622500Y-53080000D01*
X176710000Y-52992500D01*
X176710000Y-52873797D01*
X176714923Y-52864587D01*
X176734936Y-52798612D01*
X176740000Y-52747199D01*
X176745064Y-52798612D01*
X176765077Y-52864587D01*
X176770000Y-52873797D01*
X176770000Y-52992500D01*
X176857500Y-53080000D01*
X176890000Y-53081694D01*
X176958612Y-53074936D01*
X176990000Y-53065415D01*
X177021388Y-53074936D01*
X177090000Y-53081694D01*
X177122500Y-53080000D01*
X177210000Y-52992500D01*
X177210000Y-52873797D01*
X177214923Y-52864587D01*
X177234936Y-52798612D01*
X177240000Y-52747199D01*
X177245064Y-52798612D01*
X177265077Y-52864587D01*
X177270000Y-52873797D01*
X177270000Y-52992500D01*
X177357500Y-53080000D01*
X177390000Y-53081694D01*
X177458612Y-53074936D01*
X177490000Y-53065415D01*
X177521388Y-53074936D01*
X177590000Y-53081694D01*
X177622500Y-53080000D01*
X177710000Y-52992500D01*
X177710000Y-52873797D01*
X177714923Y-52864587D01*
X177734936Y-52798612D01*
X177740000Y-52747199D01*
X177745064Y-52798612D01*
X177765077Y-52864587D01*
X177770000Y-52873797D01*
X177770000Y-52992500D01*
X177857500Y-53080000D01*
X177890000Y-53081694D01*
X177958612Y-53074936D01*
X177990000Y-53065415D01*
X178021388Y-53074936D01*
X178090000Y-53081694D01*
X178122500Y-53080000D01*
X178210000Y-52992500D01*
X178210000Y-52873797D01*
X178214923Y-52864587D01*
X178234936Y-52798612D01*
X178240000Y-52747199D01*
X178245064Y-52798612D01*
X178265077Y-52864587D01*
X178270000Y-52873797D01*
X178270000Y-52992500D01*
X178357500Y-53080000D01*
X178390000Y-53081694D01*
X178458612Y-53074936D01*
X178490000Y-53065415D01*
X178521388Y-53074936D01*
X178590000Y-53081694D01*
X178622500Y-53080000D01*
X178710000Y-52992500D01*
X178710000Y-52873797D01*
X178714923Y-52864587D01*
X178734936Y-52798612D01*
X178740000Y-52747199D01*
X178745064Y-52798612D01*
X178765077Y-52864587D01*
X178770000Y-52873797D01*
X178770000Y-52992500D01*
X178857500Y-53080000D01*
X178890000Y-53081694D01*
X178958612Y-53074936D01*
X178990000Y-53065415D01*
X179021388Y-53074936D01*
X179090000Y-53081694D01*
X179122500Y-53080000D01*
X179210000Y-52992500D01*
X179210000Y-52873797D01*
X179214923Y-52864587D01*
X179234936Y-52798612D01*
X179240000Y-52747199D01*
X179245064Y-52798612D01*
X179265077Y-52864587D01*
X179270000Y-52873797D01*
X179270000Y-52992500D01*
X179357500Y-53080000D01*
X179390000Y-53081694D01*
X179458612Y-53074936D01*
X179490000Y-53065415D01*
X179521388Y-53074936D01*
X179590000Y-53081694D01*
X179622500Y-53080000D01*
X179710000Y-52992500D01*
X179710000Y-52873797D01*
X179714923Y-52864587D01*
X179734936Y-52798612D01*
X179740000Y-52747199D01*
X179745064Y-52798612D01*
X179765077Y-52864587D01*
X179770000Y-52873797D01*
X179770000Y-52992500D01*
X179857500Y-53080000D01*
X179890000Y-53081694D01*
X179958612Y-53074936D01*
X179990000Y-53065415D01*
X180021388Y-53074936D01*
X180090000Y-53081694D01*
X180122500Y-53080000D01*
X180210000Y-52992500D01*
X180210000Y-52873797D01*
X180214923Y-52864587D01*
X180234936Y-52798612D01*
X180240000Y-52747199D01*
X180245064Y-52798612D01*
X180265077Y-52864587D01*
X180270000Y-52873797D01*
X180270000Y-52992500D01*
X180357500Y-53080000D01*
X180390000Y-53081694D01*
X180458612Y-53074936D01*
X180490000Y-53065415D01*
X180521388Y-53074936D01*
X180590000Y-53081694D01*
X180622500Y-53080000D01*
X180710000Y-52992500D01*
X180710000Y-52873797D01*
X180714923Y-52864587D01*
X180734936Y-52798612D01*
X180740000Y-52747199D01*
X180745064Y-52798612D01*
X180765077Y-52864587D01*
X180770000Y-52873797D01*
X180770000Y-52992500D01*
X180857500Y-53080000D01*
X180890000Y-53081694D01*
X180958612Y-53074936D01*
X180990000Y-53065415D01*
X181021388Y-53074936D01*
X181090000Y-53081694D01*
X181122500Y-53080000D01*
X181210000Y-52992500D01*
X181210000Y-52873797D01*
X181214923Y-52864587D01*
X181234936Y-52798612D01*
X181240000Y-52747199D01*
X181245064Y-52798612D01*
X181265077Y-52864587D01*
X181270000Y-52873797D01*
X181270000Y-52992500D01*
X181357500Y-53080000D01*
X181390000Y-53081694D01*
X181458612Y-53074936D01*
X181490000Y-53065415D01*
X181521388Y-53074936D01*
X181590000Y-53081694D01*
X181622500Y-53080000D01*
X181710000Y-52992500D01*
X181710000Y-52873797D01*
X181714923Y-52864587D01*
X181734936Y-52798612D01*
X181740000Y-52747199D01*
X181745064Y-52798612D01*
X181765077Y-52864587D01*
X181770000Y-52873797D01*
X181770000Y-52992500D01*
X181857500Y-53080000D01*
X181890000Y-53081694D01*
X181958612Y-53074936D01*
X181990000Y-53065415D01*
X182021388Y-53074936D01*
X182090000Y-53081694D01*
X182122500Y-53080000D01*
X182210000Y-52992500D01*
X182210000Y-52873797D01*
X182214923Y-52864587D01*
X182234936Y-52798612D01*
X182240000Y-52747199D01*
X182245064Y-52798612D01*
X182265077Y-52864587D01*
X182270000Y-52873797D01*
X182270000Y-52992500D01*
X182357500Y-53080000D01*
X182390000Y-53081694D01*
X182458612Y-53074936D01*
X182490000Y-53065415D01*
X182521388Y-53074936D01*
X182590000Y-53081694D01*
X182622500Y-53080000D01*
X182710000Y-52992500D01*
X182710000Y-52873797D01*
X182714923Y-52864587D01*
X182734936Y-52798612D01*
X182740000Y-52747199D01*
X182745064Y-52798612D01*
X182765077Y-52864587D01*
X182770000Y-52873797D01*
X182770000Y-52992500D01*
X182857500Y-53080000D01*
X182890000Y-53081694D01*
X182958612Y-53074936D01*
X182990000Y-53065415D01*
X183021388Y-53074936D01*
X183090000Y-53081694D01*
X183122500Y-53080000D01*
X183210000Y-52992500D01*
X183210000Y-52873797D01*
X183214923Y-52864587D01*
X183234936Y-52798612D01*
X183240000Y-52747199D01*
X183245064Y-52798612D01*
X183265077Y-52864587D01*
X183270000Y-52873797D01*
X183270000Y-52992500D01*
X183357500Y-53080000D01*
X183390000Y-53081694D01*
X183458612Y-53074936D01*
X183490000Y-53065415D01*
X183521388Y-53074936D01*
X183590000Y-53081694D01*
X183622500Y-53080000D01*
X183710000Y-52992500D01*
X183710000Y-52873797D01*
X183714923Y-52864587D01*
X183734936Y-52798612D01*
X183741694Y-52730000D01*
X183740000Y-52032500D01*
X183710000Y-52002500D01*
X183710000Y-51945000D01*
X183770000Y-51945000D01*
X183770000Y-52992500D01*
X183857500Y-53080000D01*
X183890000Y-53081694D01*
X183958612Y-53074936D01*
X184024587Y-53054923D01*
X184085391Y-53022423D01*
X184138685Y-52978685D01*
X184182423Y-52925391D01*
X184214923Y-52864587D01*
X184234936Y-52798612D01*
X184241694Y-52730000D01*
X184240632Y-52292361D01*
X184356414Y-52292361D01*
X184373343Y-52479519D01*
X184426460Y-52659777D01*
X184513721Y-52826210D01*
X184522210Y-52838914D01*
X184678180Y-52894393D01*
X185272574Y-52300000D01*
X184678180Y-51705607D01*
X184522210Y-51761086D01*
X184432306Y-51926107D01*
X184376324Y-52105497D01*
X184356414Y-52292361D01*
X184240632Y-52292361D01*
X184240000Y-52032500D01*
X184152500Y-51945000D01*
X183770000Y-51945000D01*
X183710000Y-51945000D01*
X183270000Y-51945000D01*
X183270000Y-52002500D01*
X183240000Y-52032500D01*
X183210000Y-52002500D01*
X183210000Y-51945000D01*
X182770000Y-51945000D01*
X182770000Y-52002500D01*
X182740000Y-52032500D01*
X182710000Y-52002500D01*
X182710000Y-51945000D01*
X182270000Y-51945000D01*
X182270000Y-52002500D01*
X182240000Y-52032500D01*
X182210000Y-52002500D01*
X182210000Y-51945000D01*
X181770000Y-51945000D01*
X181770000Y-52002500D01*
X181740000Y-52032500D01*
X181710000Y-52002500D01*
X181710000Y-51945000D01*
X181270000Y-51945000D01*
X181270000Y-52002500D01*
X181240000Y-52032500D01*
X181210000Y-52002500D01*
X181210000Y-51945000D01*
X180770000Y-51945000D01*
X180770000Y-52002500D01*
X180740000Y-52032500D01*
X180710000Y-52002500D01*
X180710000Y-51945000D01*
X180270000Y-51945000D01*
X180270000Y-52002500D01*
X180240000Y-52032500D01*
X180210000Y-52002500D01*
X180210000Y-51945000D01*
X179770000Y-51945000D01*
X179770000Y-52002500D01*
X179740000Y-52032500D01*
X179710000Y-52002500D01*
X179710000Y-51945000D01*
X179270000Y-51945000D01*
X179270000Y-52002500D01*
X179240000Y-52032500D01*
X179210000Y-52002500D01*
X179210000Y-51945000D01*
X178770000Y-51945000D01*
X178770000Y-52002500D01*
X178740000Y-52032500D01*
X178710000Y-52002500D01*
X178710000Y-51945000D01*
X178270000Y-51945000D01*
X178270000Y-52002500D01*
X178240000Y-52032500D01*
X178210000Y-52002500D01*
X178210000Y-51945000D01*
X177770000Y-51945000D01*
X177770000Y-52002500D01*
X177740000Y-52032500D01*
X177710000Y-52002500D01*
X177710000Y-51945000D01*
X177270000Y-51945000D01*
X177270000Y-52002500D01*
X177240000Y-52032500D01*
X177210000Y-52002500D01*
X177210000Y-51945000D01*
X176770000Y-51945000D01*
X176770000Y-52002500D01*
X176740000Y-52032500D01*
X176710000Y-52002500D01*
X176710000Y-51945000D01*
X176270000Y-51945000D01*
X176270000Y-52002500D01*
X176240000Y-52032500D01*
X176210000Y-52002500D01*
X176210000Y-51945000D01*
X175770000Y-51945000D01*
X175770000Y-52002500D01*
X175740000Y-52032500D01*
X175710000Y-52002500D01*
X175710000Y-51945000D01*
X175270000Y-51945000D01*
X175270000Y-52002500D01*
X175240000Y-52032500D01*
X175210000Y-52002500D01*
X175210000Y-51945000D01*
X174770000Y-51945000D01*
X174770000Y-52002500D01*
X174740000Y-52032500D01*
X174710000Y-52002500D01*
X174710000Y-51945000D01*
X174270000Y-51945000D01*
X174270000Y-52002500D01*
X174240000Y-52032500D01*
X174238306Y-52730000D01*
X174210000Y-52730000D01*
X174210000Y-51945000D01*
X173827500Y-51945000D01*
X173740000Y-52032500D01*
X173738306Y-52730000D01*
X173517126Y-52730000D01*
X173547694Y-52673893D01*
X173603676Y-52494503D01*
X173623586Y-52307639D01*
X173606657Y-52120481D01*
X173553540Y-51940223D01*
X173466279Y-51773790D01*
X173457790Y-51761086D01*
X173301820Y-51705607D01*
X172707426Y-52300000D01*
X172622574Y-52300000D01*
X172028180Y-51705607D01*
X171872210Y-51761086D01*
X171782306Y-51926107D01*
X171726324Y-52105497D01*
X171706414Y-52292361D01*
X171723343Y-52479519D01*
X171776460Y-52659777D01*
X171863721Y-52826210D01*
X171872210Y-52838914D01*
X172028179Y-52894392D01*
X171988631Y-52933940D01*
X171926434Y-52946312D01*
X171730797Y-53027348D01*
X171593749Y-53118920D01*
X171535424Y-52978112D01*
X171431020Y-52821860D01*
X171298140Y-52688980D01*
X171141888Y-52584576D01*
X170968272Y-52512662D01*
X170783961Y-52476000D01*
X170596039Y-52476000D01*
X170411728Y-52512662D01*
X170238112Y-52584576D01*
X170081860Y-52688980D01*
X169948980Y-52821860D01*
X169844576Y-52978112D01*
X169772662Y-53151728D01*
X169736000Y-53336039D01*
X160410000Y-53336039D01*
X160410000Y-51086039D01*
X169736000Y-51086039D01*
X169736000Y-51273961D01*
X169772662Y-51458272D01*
X169844576Y-51631888D01*
X169948980Y-51788140D01*
X170081860Y-51921020D01*
X170238112Y-52025424D01*
X170411728Y-52097338D01*
X170596039Y-52134000D01*
X170783961Y-52134000D01*
X170968272Y-52097338D01*
X171141888Y-52025424D01*
X171298140Y-51921020D01*
X171431020Y-51788140D01*
X171514515Y-51663180D01*
X172070607Y-51663180D01*
X172665000Y-52257574D01*
X173259393Y-51663180D01*
X173203914Y-51507210D01*
X173038893Y-51417306D01*
X172859503Y-51361324D01*
X172672639Y-51341414D01*
X172485481Y-51358343D01*
X172305223Y-51411460D01*
X172138790Y-51498721D01*
X172126086Y-51507210D01*
X172070607Y-51663180D01*
X171514515Y-51663180D01*
X171535424Y-51631888D01*
X171607338Y-51458272D01*
X171644000Y-51273961D01*
X171644000Y-51100000D01*
X173738306Y-51100000D01*
X173740000Y-51797500D01*
X173827500Y-51885000D01*
X174210000Y-51885000D01*
X174210000Y-51100000D01*
X174238306Y-51100000D01*
X174240000Y-51797500D01*
X174270000Y-51827500D01*
X174270000Y-51885000D01*
X174710000Y-51885000D01*
X174710000Y-51827500D01*
X174740000Y-51797500D01*
X174770000Y-51827500D01*
X174770000Y-51885000D01*
X175210000Y-51885000D01*
X175210000Y-51827500D01*
X175240000Y-51797500D01*
X175270000Y-51827500D01*
X175270000Y-51885000D01*
X175710000Y-51885000D01*
X175710000Y-51827500D01*
X175740000Y-51797500D01*
X175770000Y-51827500D01*
X175770000Y-51885000D01*
X176210000Y-51885000D01*
X176210000Y-51827500D01*
X176240000Y-51797500D01*
X176270000Y-51827500D01*
X176270000Y-51885000D01*
X176710000Y-51885000D01*
X176710000Y-51827500D01*
X176740000Y-51797500D01*
X176770000Y-51827500D01*
X176770000Y-51885000D01*
X177210000Y-51885000D01*
X177210000Y-51827500D01*
X177240000Y-51797500D01*
X177270000Y-51827500D01*
X177270000Y-51885000D01*
X177710000Y-51885000D01*
X177710000Y-51827500D01*
X177740000Y-51797500D01*
X177770000Y-51827500D01*
X177770000Y-51885000D01*
X178210000Y-51885000D01*
X178210000Y-51827500D01*
X178240000Y-51797500D01*
X178270000Y-51827500D01*
X178270000Y-51885000D01*
X178710000Y-51885000D01*
X178710000Y-51827500D01*
X178740000Y-51797500D01*
X178770000Y-51827500D01*
X178770000Y-51885000D01*
X179210000Y-51885000D01*
X179210000Y-51827500D01*
X179240000Y-51797500D01*
X179270000Y-51827500D01*
X179270000Y-51885000D01*
X179710000Y-51885000D01*
X179710000Y-51827500D01*
X179740000Y-51797500D01*
X179770000Y-51827500D01*
X179770000Y-51885000D01*
X180210000Y-51885000D01*
X180210000Y-51827500D01*
X180240000Y-51797500D01*
X180270000Y-51827500D01*
X180270000Y-51885000D01*
X180710000Y-51885000D01*
X180710000Y-51827500D01*
X180740000Y-51797500D01*
X180770000Y-51827500D01*
X180770000Y-51885000D01*
X181210000Y-51885000D01*
X181210000Y-51827500D01*
X181240000Y-51797500D01*
X181270000Y-51827500D01*
X181270000Y-51885000D01*
X181710000Y-51885000D01*
X181710000Y-51827500D01*
X181740000Y-51797500D01*
X181770000Y-51827500D01*
X181770000Y-51885000D01*
X182210000Y-51885000D01*
X182210000Y-51827500D01*
X182240000Y-51797500D01*
X182270000Y-51827500D01*
X182270000Y-51885000D01*
X182710000Y-51885000D01*
X182710000Y-51827500D01*
X182740000Y-51797500D01*
X182770000Y-51827500D01*
X182770000Y-51885000D01*
X183210000Y-51885000D01*
X183210000Y-51827500D01*
X183240000Y-51797500D01*
X183270000Y-51827500D01*
X183270000Y-51885000D01*
X183710000Y-51885000D01*
X183710000Y-51827500D01*
X183740000Y-51797500D01*
X183741694Y-51100000D01*
X183734936Y-51031388D01*
X183714923Y-50965413D01*
X183710000Y-50956203D01*
X183710000Y-50837500D01*
X183770000Y-50837500D01*
X183770000Y-51885000D01*
X184152500Y-51885000D01*
X184240000Y-51797500D01*
X184240326Y-51663180D01*
X184720607Y-51663180D01*
X185315000Y-52257574D01*
X185909393Y-51663180D01*
X185853914Y-51507210D01*
X185688893Y-51417306D01*
X185509503Y-51361324D01*
X185322639Y-51341414D01*
X185135481Y-51358343D01*
X184955223Y-51411460D01*
X184788790Y-51498721D01*
X184776086Y-51507210D01*
X184720607Y-51663180D01*
X184240326Y-51663180D01*
X184241694Y-51100000D01*
X184240319Y-51086039D01*
X186336000Y-51086039D01*
X186336000Y-51273961D01*
X186372662Y-51458272D01*
X186444576Y-51631888D01*
X186548980Y-51788140D01*
X186681860Y-51921020D01*
X186838112Y-52025424D01*
X187011728Y-52097338D01*
X187196039Y-52134000D01*
X187383961Y-52134000D01*
X187568272Y-52097338D01*
X187741888Y-52025424D01*
X187898140Y-51921020D01*
X188031020Y-51788140D01*
X188135424Y-51631888D01*
X188207338Y-51458272D01*
X188244000Y-51273961D01*
X188244000Y-51086039D01*
X188207338Y-50901728D01*
X188135424Y-50728112D01*
X188031020Y-50571860D01*
X187898140Y-50438980D01*
X187741888Y-50334576D01*
X187568272Y-50262662D01*
X187383961Y-50226000D01*
X187196039Y-50226000D01*
X187011728Y-50262662D01*
X186838112Y-50334576D01*
X186681860Y-50438980D01*
X186548980Y-50571860D01*
X186444576Y-50728112D01*
X186372662Y-50901728D01*
X186336000Y-51086039D01*
X184240319Y-51086039D01*
X184234936Y-51031388D01*
X184214923Y-50965413D01*
X184182423Y-50904609D01*
X184138685Y-50851315D01*
X184085391Y-50807577D01*
X184024587Y-50775077D01*
X183958612Y-50755064D01*
X183890000Y-50748306D01*
X183857500Y-50750000D01*
X183770000Y-50837500D01*
X183710000Y-50837500D01*
X183622500Y-50750000D01*
X183590000Y-50748306D01*
X183521388Y-50755064D01*
X183490000Y-50764585D01*
X183458612Y-50755064D01*
X183390000Y-50748306D01*
X183357500Y-50750000D01*
X183270000Y-50837500D01*
X183270000Y-50956203D01*
X183265077Y-50965413D01*
X183245064Y-51031388D01*
X183240000Y-51082801D01*
X183234936Y-51031388D01*
X183214923Y-50965413D01*
X183210000Y-50956203D01*
X183210000Y-50837500D01*
X183122500Y-50750000D01*
X183090000Y-50748306D01*
X183021388Y-50755064D01*
X182990000Y-50764585D01*
X182958612Y-50755064D01*
X182890000Y-50748306D01*
X182857500Y-50750000D01*
X182770000Y-50837500D01*
X182770000Y-50956203D01*
X182765077Y-50965413D01*
X182745064Y-51031388D01*
X182740000Y-51082801D01*
X182734936Y-51031388D01*
X182714923Y-50965413D01*
X182710000Y-50956203D01*
X182710000Y-50837500D01*
X182622500Y-50750000D01*
X182590000Y-50748306D01*
X182521388Y-50755064D01*
X182490000Y-50764585D01*
X182458612Y-50755064D01*
X182390000Y-50748306D01*
X182357500Y-50750000D01*
X182270000Y-50837500D01*
X182270000Y-50956203D01*
X182265077Y-50965413D01*
X182245064Y-51031388D01*
X182240000Y-51082801D01*
X182234936Y-51031388D01*
X182214923Y-50965413D01*
X182210000Y-50956203D01*
X182210000Y-50837500D01*
X182122500Y-50750000D01*
X182090000Y-50748306D01*
X182021388Y-50755064D01*
X181990000Y-50764585D01*
X181958612Y-50755064D01*
X181890000Y-50748306D01*
X181857500Y-50750000D01*
X181770000Y-50837500D01*
X181770000Y-50956203D01*
X181765077Y-50965413D01*
X181745064Y-51031388D01*
X181740000Y-51082801D01*
X181734936Y-51031388D01*
X181714923Y-50965413D01*
X181710000Y-50956203D01*
X181710000Y-50837500D01*
X181622500Y-50750000D01*
X181590000Y-50748306D01*
X181521388Y-50755064D01*
X181490000Y-50764585D01*
X181458612Y-50755064D01*
X181390000Y-50748306D01*
X181357500Y-50750000D01*
X181270000Y-50837500D01*
X181270000Y-50956203D01*
X181265077Y-50965413D01*
X181245064Y-51031388D01*
X181240000Y-51082801D01*
X181234936Y-51031388D01*
X181214923Y-50965413D01*
X181210000Y-50956203D01*
X181210000Y-50837500D01*
X181122500Y-50750000D01*
X181090000Y-50748306D01*
X181021388Y-50755064D01*
X180990000Y-50764585D01*
X180958612Y-50755064D01*
X180890000Y-50748306D01*
X180857500Y-50750000D01*
X180770000Y-50837500D01*
X180770000Y-50956203D01*
X180765077Y-50965413D01*
X180745064Y-51031388D01*
X180740000Y-51082801D01*
X180734936Y-51031388D01*
X180714923Y-50965413D01*
X180710000Y-50956203D01*
X180710000Y-50837500D01*
X180622500Y-50750000D01*
X180590000Y-50748306D01*
X180521388Y-50755064D01*
X180490000Y-50764585D01*
X180458612Y-50755064D01*
X180390000Y-50748306D01*
X180357500Y-50750000D01*
X180270000Y-50837500D01*
X180270000Y-50956203D01*
X180265077Y-50965413D01*
X180245064Y-51031388D01*
X180240000Y-51082801D01*
X180234936Y-51031388D01*
X180214923Y-50965413D01*
X180210000Y-50956203D01*
X180210000Y-50837500D01*
X180122500Y-50750000D01*
X180090000Y-50748306D01*
X180021388Y-50755064D01*
X179990000Y-50764585D01*
X179958612Y-50755064D01*
X179890000Y-50748306D01*
X179857500Y-50750000D01*
X179770000Y-50837500D01*
X179770000Y-50956203D01*
X179765077Y-50965413D01*
X179745064Y-51031388D01*
X179740000Y-51082801D01*
X179734936Y-51031388D01*
X179714923Y-50965413D01*
X179710000Y-50956203D01*
X179710000Y-50837500D01*
X179622500Y-50750000D01*
X179590000Y-50748306D01*
X179521388Y-50755064D01*
X179490000Y-50764585D01*
X179458612Y-50755064D01*
X179390000Y-50748306D01*
X179357500Y-50750000D01*
X179270000Y-50837500D01*
X179270000Y-50956203D01*
X179265077Y-50965413D01*
X179245064Y-51031388D01*
X179240000Y-51082801D01*
X179234936Y-51031388D01*
X179214923Y-50965413D01*
X179210000Y-50956203D01*
X179210000Y-50837500D01*
X179122500Y-50750000D01*
X179090000Y-50748306D01*
X179021388Y-50755064D01*
X178990000Y-50764585D01*
X178958612Y-50755064D01*
X178890000Y-50748306D01*
X178857500Y-50750000D01*
X178770000Y-50837500D01*
X178770000Y-50956203D01*
X178765077Y-50965413D01*
X178745064Y-51031388D01*
X178740000Y-51082801D01*
X178734936Y-51031388D01*
X178714923Y-50965413D01*
X178710000Y-50956203D01*
X178710000Y-50837500D01*
X178622500Y-50750000D01*
X178590000Y-50748306D01*
X178521388Y-50755064D01*
X178490000Y-50764585D01*
X178458612Y-50755064D01*
X178390000Y-50748306D01*
X178357500Y-50750000D01*
X178270000Y-50837500D01*
X178270000Y-50956203D01*
X178265077Y-50965413D01*
X178245064Y-51031388D01*
X178240000Y-51082801D01*
X178234936Y-51031388D01*
X178214923Y-50965413D01*
X178210000Y-50956203D01*
X178210000Y-50837500D01*
X178122500Y-50750000D01*
X178090000Y-50748306D01*
X178021388Y-50755064D01*
X177990000Y-50764585D01*
X177958612Y-50755064D01*
X177890000Y-50748306D01*
X177857500Y-50750000D01*
X177770000Y-50837500D01*
X177770000Y-50956203D01*
X177765077Y-50965413D01*
X177745064Y-51031388D01*
X177740000Y-51082801D01*
X177734936Y-51031388D01*
X177714923Y-50965413D01*
X177710000Y-50956203D01*
X177710000Y-50837500D01*
X177622500Y-50750000D01*
X177590000Y-50748306D01*
X177521388Y-50755064D01*
X177490000Y-50764585D01*
X177458612Y-50755064D01*
X177390000Y-50748306D01*
X177357500Y-50750000D01*
X177270000Y-50837500D01*
X177270000Y-50956203D01*
X177265077Y-50965413D01*
X177245064Y-51031388D01*
X177240000Y-51082801D01*
X177234936Y-51031388D01*
X177214923Y-50965413D01*
X177210000Y-50956203D01*
X177210000Y-50837500D01*
X177122500Y-50750000D01*
X177090000Y-50748306D01*
X177021388Y-50755064D01*
X176990000Y-50764585D01*
X176958612Y-50755064D01*
X176890000Y-50748306D01*
X176857500Y-50750000D01*
X176770000Y-50837500D01*
X176770000Y-50956203D01*
X176765077Y-50965413D01*
X176745064Y-51031388D01*
X176740000Y-51082801D01*
X176734936Y-51031388D01*
X176714923Y-50965413D01*
X176710000Y-50956203D01*
X176710000Y-50837500D01*
X176622500Y-50750000D01*
X176590000Y-50748306D01*
X176521388Y-50755064D01*
X176490000Y-50764585D01*
X176458612Y-50755064D01*
X176390000Y-50748306D01*
X176357500Y-50750000D01*
X176270000Y-50837500D01*
X176270000Y-50956203D01*
X176265077Y-50965413D01*
X176245064Y-51031388D01*
X176240000Y-51082801D01*
X176234936Y-51031388D01*
X176214923Y-50965413D01*
X176210000Y-50956203D01*
X176210000Y-50837500D01*
X176122500Y-50750000D01*
X176090000Y-50748306D01*
X176021388Y-50755064D01*
X175990000Y-50764585D01*
X175958612Y-50755064D01*
X175890000Y-50748306D01*
X175857500Y-50750000D01*
X175770000Y-50837500D01*
X175770000Y-50956203D01*
X175765077Y-50965413D01*
X175745064Y-51031388D01*
X175740000Y-51082801D01*
X175734936Y-51031388D01*
X175714923Y-50965413D01*
X175710000Y-50956203D01*
X175710000Y-50837500D01*
X175622500Y-50750000D01*
X175590000Y-50748306D01*
X175521388Y-50755064D01*
X175490000Y-50764585D01*
X175458612Y-50755064D01*
X175390000Y-50748306D01*
X175357500Y-50750000D01*
X175270000Y-50837500D01*
X175270000Y-50956203D01*
X175265077Y-50965413D01*
X175245064Y-51031388D01*
X175240000Y-51082801D01*
X175234936Y-51031388D01*
X175214923Y-50965413D01*
X175210000Y-50956203D01*
X175210000Y-50837500D01*
X175122500Y-50750000D01*
X175090000Y-50748306D01*
X175021388Y-50755064D01*
X174990000Y-50764585D01*
X174958612Y-50755064D01*
X174890000Y-50748306D01*
X174857500Y-50750000D01*
X174770000Y-50837500D01*
X174770000Y-50956203D01*
X174765077Y-50965413D01*
X174745064Y-51031388D01*
X174740000Y-51082801D01*
X174734936Y-51031388D01*
X174714923Y-50965413D01*
X174710000Y-50956203D01*
X174710000Y-50837500D01*
X174622500Y-50750000D01*
X174590000Y-50748306D01*
X174521388Y-50755064D01*
X174490000Y-50764585D01*
X174458612Y-50755064D01*
X174390000Y-50748306D01*
X174357500Y-50750000D01*
X174270000Y-50837500D01*
X174270000Y-50956203D01*
X174265077Y-50965413D01*
X174245064Y-51031388D01*
X174238306Y-51100000D01*
X174210000Y-51100000D01*
X174210000Y-50837500D01*
X174122500Y-50750000D01*
X174090000Y-50748306D01*
X174021388Y-50755064D01*
X173955413Y-50775077D01*
X173894609Y-50807577D01*
X173841315Y-50851315D01*
X173797577Y-50904609D01*
X173765077Y-50965413D01*
X173745064Y-51031388D01*
X173738306Y-51100000D01*
X171644000Y-51100000D01*
X171644000Y-51086039D01*
X171607338Y-50901728D01*
X171535424Y-50728112D01*
X171431020Y-50571860D01*
X171298140Y-50438980D01*
X171141888Y-50334576D01*
X170968272Y-50262662D01*
X170783961Y-50226000D01*
X170596039Y-50226000D01*
X170411728Y-50262662D01*
X170238112Y-50334576D01*
X170081860Y-50438980D01*
X169948980Y-50571860D01*
X169844576Y-50728112D01*
X169772662Y-50901728D01*
X169736000Y-51086039D01*
X160410000Y-51086039D01*
X160410000Y-49940000D01*
X197590000Y-49940000D01*
X197590001Y-101120000D01*
X197590001Y-101120000D01*
G37*
X197590001Y-101120000D02*
X160410000Y-101120000D01*
X160410000Y-99806039D01*
X169716000Y-99806039D01*
X169716000Y-99993961D01*
X169752662Y-100178272D01*
X169824576Y-100351888D01*
X169928980Y-100508140D01*
X170061860Y-100641020D01*
X170218112Y-100745424D01*
X170391728Y-100817338D01*
X170576039Y-100854000D01*
X170763961Y-100854000D01*
X170948272Y-100817338D01*
X171121888Y-100745424D01*
X171278140Y-100641020D01*
X171411020Y-100508140D01*
X171515424Y-100351888D01*
X171587338Y-100178272D01*
X171624000Y-99993961D01*
X171624000Y-99980000D01*
X173718306Y-99980000D01*
X173725064Y-100048612D01*
X173745077Y-100114587D01*
X173777577Y-100175391D01*
X173821315Y-100228685D01*
X173874609Y-100272423D01*
X173935413Y-100304923D01*
X174001388Y-100324936D01*
X174070000Y-100331694D01*
X174102500Y-100330000D01*
X174190000Y-100242500D01*
X174190000Y-99980000D01*
X174218306Y-99980000D01*
X174225064Y-100048612D01*
X174245077Y-100114587D01*
X174250000Y-100123797D01*
X174250000Y-100242500D01*
X174337500Y-100330000D01*
X174370000Y-100331694D01*
X174438612Y-100324936D01*
X174470000Y-100315415D01*
X174501388Y-100324936D01*
X174570000Y-100331694D01*
X174602500Y-100330000D01*
X174690000Y-100242500D01*
X174690000Y-100123797D01*
X174694923Y-100114587D01*
X174714936Y-100048612D01*
X174720000Y-99997199D01*
X174725064Y-100048612D01*
X174745077Y-100114587D01*
X174750000Y-100123797D01*
X174750000Y-100242500D01*
X174837500Y-100330000D01*
X174870000Y-100331694D01*
X174938612Y-100324936D01*
X174970000Y-100315415D01*
X175001388Y-100324936D01*
X175070000Y-100331694D01*
X175102500Y-100330000D01*
X175190000Y-100242500D01*
X175190000Y-100123797D01*
X175194923Y-100114587D01*
X175214936Y-100048612D01*
X175220000Y-99997199D01*
X175225064Y-100048612D01*
X175245077Y-100114587D01*
X175250000Y-100123797D01*
X175250000Y-100242500D01*
X175337500Y-100330000D01*
X175370000Y-100331694D01*
X175438612Y-100324936D01*
X175470000Y-100315415D01*
X175501388Y-100324936D01*
X175570000Y-100331694D01*
X175602500Y-100330000D01*
X175690000Y-100242500D01*
X175690000Y-100123797D01*
X175694923Y-100114587D01*
X175714936Y-100048612D01*
X175720000Y-99997199D01*
X175725064Y-100048612D01*
X175745077Y-100114587D01*
X175750000Y-100123797D01*
X175750000Y-100242500D01*
X175837500Y-100330000D01*
X175870000Y-100331694D01*
X175938612Y-100324936D01*
X175970000Y-100315415D01*
X176001388Y-100324936D01*
X176070000Y-100331694D01*
X176102500Y-100330000D01*
X176190000Y-100242500D01*
X176190000Y-100123797D01*
X176194923Y-100114587D01*
X176214936Y-100048612D01*
X176220000Y-99997199D01*
X176225064Y-100048612D01*
X176245077Y-100114587D01*
X176250000Y-100123797D01*
X176250000Y-100242500D01*
X176337500Y-100330000D01*
X176370000Y-100331694D01*
X176438612Y-100324936D01*
X176470000Y-100315415D01*
X176501388Y-100324936D01*
X176570000Y-100331694D01*
X176602500Y-100330000D01*
X176690000Y-100242500D01*
X176690000Y-100123797D01*
X176694923Y-100114587D01*
X176714936Y-100048612D01*
X176720000Y-99997199D01*
X176725064Y-100048612D01*
X176745077Y-100114587D01*
X176750000Y-100123797D01*
X176750000Y-100242500D01*
X176837500Y-100330000D01*
X176870000Y-100331694D01*
X176938612Y-100324936D01*
X176970000Y-100315415D01*
X177001388Y-100324936D01*
X177070000Y-100331694D01*
X177102500Y-100330000D01*
X177190000Y-100242500D01*
X177190000Y-100123797D01*
X177194923Y-100114587D01*
X177214936Y-100048612D01*
X177220000Y-99997199D01*
X177225064Y-100048612D01*
X177245077Y-100114587D01*
X177250000Y-100123797D01*
X177250000Y-100242500D01*
X177337500Y-100330000D01*
X177370000Y-100331694D01*
X177438612Y-100324936D01*
X177470000Y-100315415D01*
X177501388Y-100324936D01*
X177570000Y-100331694D01*
X177602500Y-100330000D01*
X177690000Y-100242500D01*
X177690000Y-100123797D01*
X177694923Y-100114587D01*
X177714936Y-100048612D01*
X177720000Y-99997199D01*
X177725064Y-100048612D01*
X177745077Y-100114587D01*
X177750000Y-100123797D01*
X177750000Y-100242500D01*
X177837500Y-100330000D01*
X177870000Y-100331694D01*
X177938612Y-100324936D01*
X177970000Y-100315415D01*
X178001388Y-100324936D01*
X178070000Y-100331694D01*
X178102500Y-100330000D01*
X178190000Y-100242500D01*
X178190000Y-100123797D01*
X178194923Y-100114587D01*
X178214936Y-100048612D01*
X178220000Y-99997199D01*
X178225064Y-100048612D01*
X178245077Y-100114587D01*
X178250000Y-100123797D01*
X178250000Y-100242500D01*
X178337500Y-100330000D01*
X178370000Y-100331694D01*
X178438612Y-100324936D01*
X178470000Y-100315415D01*
X178501388Y-100324936D01*
X178570000Y-100331694D01*
X178602500Y-100330000D01*
X178690000Y-100242500D01*
X178690000Y-100123797D01*
X178694923Y-100114587D01*
X178714936Y-100048612D01*
X178720000Y-99997199D01*
X178725064Y-100048612D01*
X178745077Y-100114587D01*
X178750000Y-100123797D01*
X178750000Y-100242500D01*
X178837500Y-100330000D01*
X178870000Y-100331694D01*
X178938612Y-100324936D01*
X178970000Y-100315415D01*
X179001388Y-100324936D01*
X179070000Y-100331694D01*
X179102500Y-100330000D01*
X179190000Y-100242500D01*
X179190000Y-100123797D01*
X179194923Y-100114587D01*
X179214936Y-100048612D01*
X179220000Y-99997199D01*
X179225064Y-100048612D01*
X179245077Y-100114587D01*
X179250000Y-100123797D01*
X179250000Y-100242500D01*
X179337500Y-100330000D01*
X179370000Y-100331694D01*
X179438612Y-100324936D01*
X179470000Y-100315415D01*
X179501388Y-100324936D01*
X179570000Y-100331694D01*
X179602500Y-100330000D01*
X179690000Y-100242500D01*
X179690000Y-100123797D01*
X179694923Y-100114587D01*
X179714936Y-100048612D01*
X179720000Y-99997199D01*
X179725064Y-100048612D01*
X179745077Y-100114587D01*
X179750000Y-100123797D01*
X179750000Y-100242500D01*
X179837500Y-100330000D01*
X179870000Y-100331694D01*
X179938612Y-100324936D01*
X179970000Y-100315415D01*
X180001388Y-100324936D01*
X180070000Y-100331694D01*
X180102500Y-100330000D01*
X180190000Y-100242500D01*
X180190000Y-100123797D01*
X180194923Y-100114587D01*
X180214936Y-100048612D01*
X180220000Y-99997199D01*
X180225064Y-100048612D01*
X180245077Y-100114587D01*
X180250000Y-100123797D01*
X180250000Y-100242500D01*
X180337500Y-100330000D01*
X180370000Y-100331694D01*
X180438612Y-100324936D01*
X180470000Y-100315415D01*
X180501388Y-100324936D01*
X180570000Y-100331694D01*
X180602500Y-100330000D01*
X180690000Y-100242500D01*
X180690000Y-100123797D01*
X180694923Y-100114587D01*
X180714936Y-100048612D01*
X180720000Y-99997199D01*
X180725064Y-100048612D01*
X180745077Y-100114587D01*
X180750000Y-100123797D01*
X180750000Y-100242500D01*
X180837500Y-100330000D01*
X180870000Y-100331694D01*
X180938612Y-100324936D01*
X180970000Y-100315415D01*
X181001388Y-100324936D01*
X181070000Y-100331694D01*
X181102500Y-100330000D01*
X181190000Y-100242500D01*
X181190000Y-100123797D01*
X181194923Y-100114587D01*
X181214936Y-100048612D01*
X181220000Y-99997199D01*
X181225064Y-100048612D01*
X181245077Y-100114587D01*
X181250000Y-100123797D01*
X181250000Y-100242500D01*
X181337500Y-100330000D01*
X181370000Y-100331694D01*
X181438612Y-100324936D01*
X181470000Y-100315415D01*
X181501388Y-100324936D01*
X181570000Y-100331694D01*
X181602500Y-100330000D01*
X181690000Y-100242500D01*
X181690000Y-100123797D01*
X181694923Y-100114587D01*
X181714936Y-100048612D01*
X181720000Y-99997199D01*
X181725064Y-100048612D01*
X181745077Y-100114587D01*
X181750000Y-100123797D01*
X181750000Y-100242500D01*
X181837500Y-100330000D01*
X181870000Y-100331694D01*
X181938612Y-100324936D01*
X181970000Y-100315415D01*
X182001388Y-100324936D01*
X182070000Y-100331694D01*
X182102500Y-100330000D01*
X182190000Y-100242500D01*
X182190000Y-100123797D01*
X182194923Y-100114587D01*
X182214936Y-100048612D01*
X182220000Y-99997199D01*
X182225064Y-100048612D01*
X182245077Y-100114587D01*
X182250000Y-100123797D01*
X182250000Y-100242500D01*
X182337500Y-100330000D01*
X182370000Y-100331694D01*
X182438612Y-100324936D01*
X182470000Y-100315415D01*
X182501388Y-100324936D01*
X182570000Y-100331694D01*
X182602500Y-100330000D01*
X182690000Y-100242500D01*
X182690000Y-100123797D01*
X182694923Y-100114587D01*
X182714936Y-100048612D01*
X182720000Y-99997199D01*
X182725064Y-100048612D01*
X182745077Y-100114587D01*
X182750000Y-100123797D01*
X182750000Y-100242500D01*
X182837500Y-100330000D01*
X182870000Y-100331694D01*
X182938612Y-100324936D01*
X182970000Y-100315415D01*
X183001388Y-100324936D01*
X183070000Y-100331694D01*
X183102500Y-100330000D01*
X183190000Y-100242500D01*
X183190000Y-100123797D01*
X183194923Y-100114587D01*
X183214936Y-100048612D01*
X183220000Y-99997199D01*
X183225064Y-100048612D01*
X183245077Y-100114587D01*
X183250000Y-100123797D01*
X183250000Y-100242500D01*
X183337500Y-100330000D01*
X183370000Y-100331694D01*
X183438612Y-100324936D01*
X183470000Y-100315415D01*
X183501388Y-100324936D01*
X183570000Y-100331694D01*
X183602500Y-100330000D01*
X183690000Y-100242500D01*
X183690000Y-100123797D01*
X183694923Y-100114587D01*
X183714936Y-100048612D01*
X183721694Y-99980000D01*
X183720000Y-99282500D01*
X183690000Y-99252500D01*
X183690000Y-99195000D01*
X183750000Y-99195000D01*
X183750000Y-100242500D01*
X183837500Y-100330000D01*
X183870000Y-100331694D01*
X183938612Y-100324936D01*
X184004587Y-100304923D01*
X184065391Y-100272423D01*
X184118685Y-100228685D01*
X184162423Y-100175391D01*
X184194923Y-100114587D01*
X184214936Y-100048612D01*
X184221694Y-99980000D01*
X184221272Y-99806039D01*
X186316000Y-99806039D01*
X186316000Y-99993961D01*
X186352662Y-100178272D01*
X186424576Y-100351888D01*
X186528980Y-100508140D01*
X186661860Y-100641020D01*
X186818112Y-100745424D01*
X186991728Y-100817338D01*
X187176039Y-100854000D01*
X187363961Y-100854000D01*
X187548272Y-100817338D01*
X187721888Y-100745424D01*
X187878140Y-100641020D01*
X188011020Y-100508140D01*
X188115424Y-100351888D01*
X188187338Y-100178272D01*
X188224000Y-99993961D01*
X188224000Y-99806039D01*
X188187338Y-99621728D01*
X188115424Y-99448112D01*
X188011020Y-99291860D01*
X187878140Y-99158980D01*
X187721888Y-99054576D01*
X187548272Y-98982662D01*
X187363961Y-98946000D01*
X187176039Y-98946000D01*
X186991728Y-98982662D01*
X186818112Y-99054576D01*
X186661860Y-99158980D01*
X186528980Y-99291860D01*
X186424576Y-99448112D01*
X186352662Y-99621728D01*
X186316000Y-99806039D01*
X184221272Y-99806039D01*
X184220327Y-99416820D01*
X184700607Y-99416820D01*
X184756086Y-99572790D01*
X184921107Y-99662694D01*
X185100497Y-99718676D01*
X185287361Y-99738586D01*
X185474519Y-99721657D01*
X185654777Y-99668540D01*
X185821210Y-99581279D01*
X185833914Y-99572790D01*
X185889393Y-99416820D01*
X185295000Y-98822426D01*
X184700607Y-99416820D01*
X184220327Y-99416820D01*
X184220000Y-99282500D01*
X184132500Y-99195000D01*
X183750000Y-99195000D01*
X183690000Y-99195000D01*
X183250000Y-99195000D01*
X183250000Y-99252500D01*
X183220000Y-99282500D01*
X183190000Y-99252500D01*
X183190000Y-99195000D01*
X182750000Y-99195000D01*
X182750000Y-99252500D01*
X182720000Y-99282500D01*
X182690000Y-99252500D01*
X182690000Y-99195000D01*
X182250000Y-99195000D01*
X182250000Y-99252500D01*
X182220000Y-99282500D01*
X182190000Y-99252500D01*
X182190000Y-99195000D01*
X181750000Y-99195000D01*
X181750000Y-99252500D01*
X181720000Y-99282500D01*
X181690000Y-99252500D01*
X181690000Y-99195000D01*
X181250000Y-99195000D01*
X181250000Y-99252500D01*
X181220000Y-99282500D01*
X181190000Y-99252500D01*
X181190000Y-99195000D01*
X180750000Y-99195000D01*
X180750000Y-99252500D01*
X180720000Y-99282500D01*
X180690000Y-99252500D01*
X180690000Y-99195000D01*
X180250000Y-99195000D01*
X180250000Y-99252500D01*
X180220000Y-99282500D01*
X180190000Y-99252500D01*
X180190000Y-99195000D01*
X179750000Y-99195000D01*
X179750000Y-99252500D01*
X179720000Y-99282500D01*
X179690000Y-99252500D01*
X179690000Y-99195000D01*
X179250000Y-99195000D01*
X179250000Y-99252500D01*
X179220000Y-99282500D01*
X179190000Y-99252500D01*
X179190000Y-99195000D01*
X178750000Y-99195000D01*
X178750000Y-99252500D01*
X178720000Y-99282500D01*
X178690000Y-99252500D01*
X178690000Y-99195000D01*
X178250000Y-99195000D01*
X178250000Y-99252500D01*
X178220000Y-99282500D01*
X178190000Y-99252500D01*
X178190000Y-99195000D01*
X177750000Y-99195000D01*
X177750000Y-99252500D01*
X177720000Y-99282500D01*
X177690000Y-99252500D01*
X177690000Y-99195000D01*
X177250000Y-99195000D01*
X177250000Y-99252500D01*
X177220000Y-99282500D01*
X177190000Y-99252500D01*
X177190000Y-99195000D01*
X176750000Y-99195000D01*
X176750000Y-99252500D01*
X176720000Y-99282500D01*
X176690000Y-99252500D01*
X176690000Y-99195000D01*
X176250000Y-99195000D01*
X176250000Y-99252500D01*
X176220000Y-99282500D01*
X176190000Y-99252500D01*
X176190000Y-99195000D01*
X175750000Y-99195000D01*
X175750000Y-99252500D01*
X175720000Y-99282500D01*
X175690000Y-99252500D01*
X175690000Y-99195000D01*
X175250000Y-99195000D01*
X175250000Y-99252500D01*
X175220000Y-99282500D01*
X175190000Y-99252500D01*
X175190000Y-99195000D01*
X174750000Y-99195000D01*
X174750000Y-99252500D01*
X174720000Y-99282500D01*
X174690000Y-99252500D01*
X174690000Y-99195000D01*
X174250000Y-99195000D01*
X174250000Y-99252500D01*
X174220000Y-99282500D01*
X174218306Y-99980000D01*
X174190000Y-99980000D01*
X174190000Y-99195000D01*
X173807500Y-99195000D01*
X173720000Y-99282500D01*
X173718306Y-99980000D01*
X171624000Y-99980000D01*
X171624000Y-99806039D01*
X171587338Y-99621728D01*
X171515424Y-99448112D01*
X171494516Y-99416820D01*
X172050607Y-99416820D01*
X172106086Y-99572790D01*
X172271107Y-99662694D01*
X172450497Y-99718676D01*
X172637361Y-99738586D01*
X172824519Y-99721657D01*
X173004777Y-99668540D01*
X173171210Y-99581279D01*
X173183914Y-99572790D01*
X173239393Y-99416820D01*
X172645000Y-98822426D01*
X172050607Y-99416820D01*
X171494516Y-99416820D01*
X171411020Y-99291860D01*
X171278140Y-99158980D01*
X171121888Y-99054576D01*
X170948272Y-98982662D01*
X170763961Y-98946000D01*
X170576039Y-98946000D01*
X170391728Y-98982662D01*
X170218112Y-99054576D01*
X170061860Y-99158980D01*
X169928980Y-99291860D01*
X169824576Y-99448112D01*
X169752662Y-99621728D01*
X169716000Y-99806039D01*
X160410000Y-99806039D01*
X160410000Y-97556039D01*
X169716000Y-97556039D01*
X169716000Y-97743961D01*
X169752662Y-97928272D01*
X169824576Y-98101888D01*
X169928980Y-98258140D01*
X170061860Y-98391020D01*
X170218112Y-98495424D01*
X170391728Y-98567338D01*
X170576039Y-98604000D01*
X170763961Y-98604000D01*
X170948272Y-98567338D01*
X171121888Y-98495424D01*
X171278140Y-98391020D01*
X171411020Y-98258140D01*
X171515424Y-98101888D01*
X171573749Y-97961080D01*
X171710797Y-98052652D01*
X171906434Y-98133688D01*
X171968631Y-98146060D01*
X172008179Y-98185608D01*
X171852210Y-98241086D01*
X171762306Y-98406107D01*
X171706324Y-98585497D01*
X171686414Y-98772361D01*
X171703343Y-98959519D01*
X171756460Y-99139777D01*
X171843721Y-99306210D01*
X171852210Y-99318914D01*
X172008180Y-99374393D01*
X172602574Y-98780000D01*
X172687426Y-98780000D01*
X173281820Y-99374393D01*
X173437790Y-99318914D01*
X173527694Y-99153893D01*
X173583676Y-98974503D01*
X173603586Y-98787639D01*
X173586657Y-98600481D01*
X173533540Y-98420223D01*
X173496723Y-98350000D01*
X173718306Y-98350000D01*
X173720000Y-99047500D01*
X173807500Y-99135000D01*
X174190000Y-99135000D01*
X174190000Y-98350000D01*
X174218306Y-98350000D01*
X174220000Y-99047500D01*
X174250000Y-99077500D01*
X174250000Y-99135000D01*
X174690000Y-99135000D01*
X174690000Y-99077500D01*
X174720000Y-99047500D01*
X174750000Y-99077500D01*
X174750000Y-99135000D01*
X175190000Y-99135000D01*
X175190000Y-99077500D01*
X175220000Y-99047500D01*
X175250000Y-99077500D01*
X175250000Y-99135000D01*
X175690000Y-99135000D01*
X175690000Y-99077500D01*
X175720000Y-99047500D01*
X175750000Y-99077500D01*
X175750000Y-99135000D01*
X176190000Y-99135000D01*
X176190000Y-99077500D01*
X176220000Y-99047500D01*
X176250000Y-99077500D01*
X176250000Y-99135000D01*
X176690000Y-99135000D01*
X176690000Y-99077500D01*
X176720000Y-99047500D01*
X176750000Y-99077500D01*
X176750000Y-99135000D01*
X177190000Y-99135000D01*
X177190000Y-99077500D01*
X177220000Y-99047500D01*
X177250000Y-99077500D01*
X177250000Y-99135000D01*
X177690000Y-99135000D01*
X177690000Y-99077500D01*
X177720000Y-99047500D01*
X177750000Y-99077500D01*
X177750000Y-99135000D01*
X178190000Y-99135000D01*
X178190000Y-99077500D01*
X178220000Y-99047500D01*
X178250000Y-99077500D01*
X178250000Y-99135000D01*
X178690000Y-99135000D01*
X178690000Y-99077500D01*
X178720000Y-99047500D01*
X178750000Y-99077500D01*
X178750000Y-99135000D01*
X179190000Y-99135000D01*
X179190000Y-99077500D01*
X179220000Y-99047500D01*
X179250000Y-99077500D01*
X179250000Y-99135000D01*
X179690000Y-99135000D01*
X179690000Y-99077500D01*
X179720000Y-99047500D01*
X179750000Y-99077500D01*
X179750000Y-99135000D01*
X180190000Y-99135000D01*
X180190000Y-99077500D01*
X180220000Y-99047500D01*
X180250000Y-99077500D01*
X180250000Y-99135000D01*
X180690000Y-99135000D01*
X180690000Y-99077500D01*
X180720000Y-99047500D01*
X180750000Y-99077500D01*
X180750000Y-99135000D01*
X181190000Y-99135000D01*
X181190000Y-99077500D01*
X181220000Y-99047500D01*
X181250000Y-99077500D01*
X181250000Y-99135000D01*
X181690000Y-99135000D01*
X181690000Y-99077500D01*
X181720000Y-99047500D01*
X181750000Y-99077500D01*
X181750000Y-99135000D01*
X182190000Y-99135000D01*
X182190000Y-99077500D01*
X182220000Y-99047500D01*
X182250000Y-99077500D01*
X182250000Y-99135000D01*
X182690000Y-99135000D01*
X182690000Y-99077500D01*
X182720000Y-99047500D01*
X182750000Y-99077500D01*
X182750000Y-99135000D01*
X183190000Y-99135000D01*
X183190000Y-99077500D01*
X183220000Y-99047500D01*
X183250000Y-99077500D01*
X183250000Y-99135000D01*
X183690000Y-99135000D01*
X183690000Y-99077500D01*
X183720000Y-99047500D01*
X183721694Y-98350000D01*
X183714936Y-98281388D01*
X183694923Y-98215413D01*
X183690000Y-98206203D01*
X183690000Y-98087500D01*
X183750000Y-98087500D01*
X183750000Y-99135000D01*
X184132500Y-99135000D01*
X184220000Y-99047500D01*
X184220668Y-98772361D01*
X184336414Y-98772361D01*
X184353343Y-98959519D01*
X184406460Y-99139777D01*
X184493721Y-99306210D01*
X184502210Y-99318914D01*
X184658180Y-99374393D01*
X185252574Y-98780000D01*
X184658180Y-98185607D01*
X184502210Y-98241086D01*
X184412306Y-98406107D01*
X184356324Y-98585497D01*
X184336414Y-98772361D01*
X184220668Y-98772361D01*
X184221694Y-98350000D01*
X184214936Y-98281388D01*
X184194923Y-98215413D01*
X184162423Y-98154609D01*
X184118685Y-98101315D01*
X184065391Y-98057577D01*
X184004587Y-98025077D01*
X183938612Y-98005064D01*
X183870000Y-97998306D01*
X183837500Y-98000000D01*
X183750000Y-98087500D01*
X183690000Y-98087500D01*
X183602500Y-98000000D01*
X183570000Y-97998306D01*
X183501388Y-98005064D01*
X183470000Y-98014585D01*
X183438612Y-98005064D01*
X183370000Y-97998306D01*
X183337500Y-98000000D01*
X183250000Y-98087500D01*
X183250000Y-98206203D01*
X183245077Y-98215413D01*
X183225064Y-98281388D01*
X183220000Y-98332801D01*
X183214936Y-98281388D01*
X183194923Y-98215413D01*
X183190000Y-98206203D01*
X183190000Y-98087500D01*
X183102500Y-98000000D01*
X183070000Y-97998306D01*
X183001388Y-98005064D01*
X182970000Y-98014585D01*
X182938612Y-98005064D01*
X182870000Y-97998306D01*
X182837500Y-98000000D01*
X182750000Y-98087500D01*
X182750000Y-98206203D01*
X182745077Y-98215413D01*
X182725064Y-98281388D01*
X182720000Y-98332801D01*
X182714936Y-98281388D01*
X182694923Y-98215413D01*
X182690000Y-98206203D01*
X182690000Y-98087500D01*
X182602500Y-98000000D01*
X182570000Y-97998306D01*
X182501388Y-98005064D01*
X182470000Y-98014585D01*
X182438612Y-98005064D01*
X182370000Y-97998306D01*
X182337500Y-98000000D01*
X182250000Y-98087500D01*
X182250000Y-98206203D01*
X182245077Y-98215413D01*
X182225064Y-98281388D01*
X182220000Y-98332801D01*
X182214936Y-98281388D01*
X182194923Y-98215413D01*
X182190000Y-98206203D01*
X182190000Y-98087500D01*
X182102500Y-98000000D01*
X182070000Y-97998306D01*
X182001388Y-98005064D01*
X181970000Y-98014585D01*
X181938612Y-98005064D01*
X181870000Y-97998306D01*
X181837500Y-98000000D01*
X181750000Y-98087500D01*
X181750000Y-98206203D01*
X181745077Y-98215413D01*
X181725064Y-98281388D01*
X181720000Y-98332801D01*
X181714936Y-98281388D01*
X181694923Y-98215413D01*
X181690000Y-98206203D01*
X181690000Y-98087500D01*
X181602500Y-98000000D01*
X181570000Y-97998306D01*
X181501388Y-98005064D01*
X181470000Y-98014585D01*
X181438612Y-98005064D01*
X181370000Y-97998306D01*
X181337500Y-98000000D01*
X181250000Y-98087500D01*
X181250000Y-98206203D01*
X181245077Y-98215413D01*
X181225064Y-98281388D01*
X181220000Y-98332801D01*
X181214936Y-98281388D01*
X181194923Y-98215413D01*
X181190000Y-98206203D01*
X181190000Y-98087500D01*
X181102500Y-98000000D01*
X181070000Y-97998306D01*
X181001388Y-98005064D01*
X180970000Y-98014585D01*
X180938612Y-98005064D01*
X180870000Y-97998306D01*
X180837500Y-98000000D01*
X180750000Y-98087500D01*
X180750000Y-98206203D01*
X180745077Y-98215413D01*
X180725064Y-98281388D01*
X180720000Y-98332801D01*
X180714936Y-98281388D01*
X180694923Y-98215413D01*
X180690000Y-98206203D01*
X180690000Y-98087500D01*
X180602500Y-98000000D01*
X180570000Y-97998306D01*
X180501388Y-98005064D01*
X180470000Y-98014585D01*
X180438612Y-98005064D01*
X180370000Y-97998306D01*
X180337500Y-98000000D01*
X180250000Y-98087500D01*
X180250000Y-98206203D01*
X180245077Y-98215413D01*
X180225064Y-98281388D01*
X180220000Y-98332801D01*
X180214936Y-98281388D01*
X180194923Y-98215413D01*
X180190000Y-98206203D01*
X180190000Y-98087500D01*
X180102500Y-98000000D01*
X180070000Y-97998306D01*
X180001388Y-98005064D01*
X179970000Y-98014585D01*
X179938612Y-98005064D01*
X179870000Y-97998306D01*
X179837500Y-98000000D01*
X179750000Y-98087500D01*
X179750000Y-98206203D01*
X179745077Y-98215413D01*
X179725064Y-98281388D01*
X179720000Y-98332801D01*
X179714936Y-98281388D01*
X179694923Y-98215413D01*
X179690000Y-98206203D01*
X179690000Y-98087500D01*
X179602500Y-98000000D01*
X179570000Y-97998306D01*
X179501388Y-98005064D01*
X179470000Y-98014585D01*
X179438612Y-98005064D01*
X179370000Y-97998306D01*
X179337500Y-98000000D01*
X179250000Y-98087500D01*
X179250000Y-98206203D01*
X179245077Y-98215413D01*
X179225064Y-98281388D01*
X179220000Y-98332801D01*
X179214936Y-98281388D01*
X179194923Y-98215413D01*
X179190000Y-98206203D01*
X179190000Y-98087500D01*
X179102500Y-98000000D01*
X179070000Y-97998306D01*
X179001388Y-98005064D01*
X178970000Y-98014585D01*
X178938612Y-98005064D01*
X178870000Y-97998306D01*
X178837500Y-98000000D01*
X178750000Y-98087500D01*
X178750000Y-98206203D01*
X178745077Y-98215413D01*
X178725064Y-98281388D01*
X178720000Y-98332801D01*
X178714936Y-98281388D01*
X178694923Y-98215413D01*
X178690000Y-98206203D01*
X178690000Y-98087500D01*
X178602500Y-98000000D01*
X178570000Y-97998306D01*
X178501388Y-98005064D01*
X178470000Y-98014585D01*
X178438612Y-98005064D01*
X178370000Y-97998306D01*
X178337500Y-98000000D01*
X178250000Y-98087500D01*
X178250000Y-98206203D01*
X178245077Y-98215413D01*
X178225064Y-98281388D01*
X178220000Y-98332801D01*
X178214936Y-98281388D01*
X178194923Y-98215413D01*
X178190000Y-98206203D01*
X178190000Y-98087500D01*
X178102500Y-98000000D01*
X178070000Y-97998306D01*
X178001388Y-98005064D01*
X177970000Y-98014585D01*
X177938612Y-98005064D01*
X177870000Y-97998306D01*
X177837500Y-98000000D01*
X177750000Y-98087500D01*
X177750000Y-98206203D01*
X177745077Y-98215413D01*
X177725064Y-98281388D01*
X177720000Y-98332801D01*
X177714936Y-98281388D01*
X177694923Y-98215413D01*
X177690000Y-98206203D01*
X177690000Y-98087500D01*
X177602500Y-98000000D01*
X177570000Y-97998306D01*
X177501388Y-98005064D01*
X177470000Y-98014585D01*
X177438612Y-98005064D01*
X177370000Y-97998306D01*
X177337500Y-98000000D01*
X177250000Y-98087500D01*
X177250000Y-98206203D01*
X177245077Y-98215413D01*
X177225064Y-98281388D01*
X177220000Y-98332801D01*
X177214936Y-98281388D01*
X177194923Y-98215413D01*
X177190000Y-98206203D01*
X177190000Y-98087500D01*
X177102500Y-98000000D01*
X177070000Y-97998306D01*
X177001388Y-98005064D01*
X176970000Y-98014585D01*
X176938612Y-98005064D01*
X176870000Y-97998306D01*
X176837500Y-98000000D01*
X176750000Y-98087500D01*
X176750000Y-98206203D01*
X176745077Y-98215413D01*
X176725064Y-98281388D01*
X176720000Y-98332801D01*
X176714936Y-98281388D01*
X176694923Y-98215413D01*
X176690000Y-98206203D01*
X176690000Y-98087500D01*
X176602500Y-98000000D01*
X176570000Y-97998306D01*
X176501388Y-98005064D01*
X176470000Y-98014585D01*
X176438612Y-98005064D01*
X176370000Y-97998306D01*
X176337500Y-98000000D01*
X176250000Y-98087500D01*
X176250000Y-98206203D01*
X176245077Y-98215413D01*
X176225064Y-98281388D01*
X176220000Y-98332801D01*
X176214936Y-98281388D01*
X176194923Y-98215413D01*
X176190000Y-98206203D01*
X176190000Y-98087500D01*
X176102500Y-98000000D01*
X176070000Y-97998306D01*
X176001388Y-98005064D01*
X175970000Y-98014585D01*
X175938612Y-98005064D01*
X175870000Y-97998306D01*
X175837500Y-98000000D01*
X175750000Y-98087500D01*
X175750000Y-98206203D01*
X175745077Y-98215413D01*
X175725064Y-98281388D01*
X175720000Y-98332801D01*
X175714936Y-98281388D01*
X175694923Y-98215413D01*
X175690000Y-98206203D01*
X175690000Y-98087500D01*
X175602500Y-98000000D01*
X175570000Y-97998306D01*
X175501388Y-98005064D01*
X175470000Y-98014585D01*
X175438612Y-98005064D01*
X175370000Y-97998306D01*
X175337500Y-98000000D01*
X175250000Y-98087500D01*
X175250000Y-98206203D01*
X175245077Y-98215413D01*
X175225064Y-98281388D01*
X175220000Y-98332801D01*
X175214936Y-98281388D01*
X175194923Y-98215413D01*
X175190000Y-98206203D01*
X175190000Y-98087500D01*
X175102500Y-98000000D01*
X175070000Y-97998306D01*
X175001388Y-98005064D01*
X174970000Y-98014585D01*
X174938612Y-98005064D01*
X174870000Y-97998306D01*
X174837500Y-98000000D01*
X174750000Y-98087500D01*
X174750000Y-98206203D01*
X174745077Y-98215413D01*
X174725064Y-98281388D01*
X174720000Y-98332801D01*
X174714936Y-98281388D01*
X174694923Y-98215413D01*
X174690000Y-98206203D01*
X174690000Y-98087500D01*
X174602500Y-98000000D01*
X174570000Y-97998306D01*
X174501388Y-98005064D01*
X174470000Y-98014585D01*
X174438612Y-98005064D01*
X174370000Y-97998306D01*
X174337500Y-98000000D01*
X174250000Y-98087500D01*
X174250000Y-98206203D01*
X174245077Y-98215413D01*
X174225064Y-98281388D01*
X174218306Y-98350000D01*
X174190000Y-98350000D01*
X174190000Y-98087500D01*
X174102500Y-98000000D01*
X174070000Y-97998306D01*
X174001388Y-98005064D01*
X173935413Y-98025077D01*
X173874609Y-98057577D01*
X173821315Y-98101315D01*
X173777577Y-98154609D01*
X173745077Y-98215413D01*
X173725064Y-98281388D01*
X173718306Y-98350000D01*
X173496723Y-98350000D01*
X173446279Y-98253790D01*
X173437790Y-98241086D01*
X173281820Y-98185607D01*
X172687426Y-98780000D01*
X172602574Y-98780000D01*
X172588431Y-98765858D01*
X172630858Y-98723431D01*
X172645000Y-98737574D01*
X173239393Y-98143180D01*
X173183914Y-97987210D01*
X173018893Y-97897306D01*
X172961030Y-97879249D01*
X173055007Y-97785272D01*
X173172652Y-97609203D01*
X173253688Y-97413566D01*
X173256386Y-97400000D01*
X173718306Y-97400000D01*
X173725064Y-97468612D01*
X173745077Y-97534587D01*
X173777577Y-97595391D01*
X173821315Y-97648685D01*
X173874609Y-97692423D01*
X173935413Y-97724923D01*
X174001388Y-97744936D01*
X174070000Y-97751694D01*
X174102500Y-97750000D01*
X174190000Y-97662500D01*
X174190000Y-96530000D01*
X173807500Y-96530000D01*
X173720000Y-96617500D01*
X173718306Y-97400000D01*
X173256386Y-97400000D01*
X173295000Y-97205878D01*
X173295000Y-96994122D01*
X173253688Y-96786434D01*
X173172652Y-96590797D01*
X173055007Y-96414728D01*
X172905272Y-96264993D01*
X172729203Y-96147348D01*
X172533566Y-96066312D01*
X172325878Y-96025000D01*
X172114122Y-96025000D01*
X171906434Y-96066312D01*
X171710797Y-96147348D01*
X171534728Y-96264993D01*
X171384993Y-96414728D01*
X171267348Y-96590797D01*
X171186312Y-96786434D01*
X171175569Y-96840444D01*
X171121888Y-96804576D01*
X170948272Y-96732662D01*
X170763961Y-96696000D01*
X170576039Y-96696000D01*
X170391728Y-96732662D01*
X170218112Y-96804576D01*
X170061860Y-96908980D01*
X169928980Y-97041860D01*
X169824576Y-97198112D01*
X169752662Y-97371728D01*
X169716000Y-97556039D01*
X160410000Y-97556039D01*
X160410000Y-95600000D01*
X173718306Y-95600000D01*
X173720000Y-96382500D01*
X173807500Y-96470000D01*
X174190000Y-96470000D01*
X174190000Y-95337500D01*
X174102500Y-95250000D01*
X174070000Y-95248306D01*
X174001388Y-95255064D01*
X173935413Y-95275077D01*
X173874609Y-95307577D01*
X173821315Y-95351315D01*
X173777577Y-95404609D01*
X173745077Y-95465413D01*
X173725064Y-95531388D01*
X173718306Y-95600000D01*
X160410000Y-95600000D01*
X160410000Y-91366131D01*
X172820000Y-91366131D01*
X172820000Y-91513869D01*
X172848822Y-91658767D01*
X172905359Y-91795258D01*
X172987437Y-91918097D01*
X173091903Y-92022563D01*
X173214742Y-92104641D01*
X173351233Y-92161178D01*
X173496131Y-92190000D01*
X173643869Y-92190000D01*
X173647523Y-92189273D01*
X174245000Y-92786752D01*
X174245001Y-95465668D01*
X174225065Y-95531388D01*
X174218307Y-95600000D01*
X174218307Y-97400000D01*
X174225065Y-97468612D01*
X174245078Y-97534587D01*
X174250000Y-97543795D01*
X174250000Y-97662500D01*
X174337500Y-97750000D01*
X174370000Y-97751694D01*
X174438612Y-97744936D01*
X174470002Y-97735414D01*
X174501388Y-97744935D01*
X174570000Y-97751693D01*
X174870000Y-97751693D01*
X174938612Y-97744935D01*
X174969998Y-97735414D01*
X175001388Y-97744936D01*
X175070000Y-97751694D01*
X175102500Y-97750000D01*
X175190000Y-97662500D01*
X175190000Y-97543795D01*
X175194922Y-97534587D01*
X175214935Y-97468612D01*
X175220000Y-97417189D01*
X175225065Y-97468612D01*
X175245078Y-97534587D01*
X175250000Y-97543795D01*
X175250000Y-97662500D01*
X175337500Y-97750000D01*
X175370000Y-97751694D01*
X175438612Y-97744936D01*
X175470002Y-97735414D01*
X175501388Y-97744935D01*
X175570000Y-97751693D01*
X175870000Y-97751693D01*
X175938612Y-97744935D01*
X175969998Y-97735414D01*
X176001388Y-97744936D01*
X176070000Y-97751694D01*
X176102500Y-97750000D01*
X176190000Y-97662500D01*
X176190000Y-97543795D01*
X176194922Y-97534587D01*
X176214935Y-97468612D01*
X176220000Y-97417189D01*
X176225065Y-97468612D01*
X176245078Y-97534587D01*
X176250000Y-97543795D01*
X176250000Y-97662500D01*
X176337500Y-97750000D01*
X176370000Y-97751694D01*
X176438612Y-97744936D01*
X176470002Y-97735414D01*
X176501388Y-97744935D01*
X176570000Y-97751693D01*
X176870000Y-97751693D01*
X176938612Y-97744935D01*
X176969998Y-97735414D01*
X177001388Y-97744936D01*
X177070000Y-97751694D01*
X177102500Y-97750000D01*
X177190000Y-97662500D01*
X177190000Y-97543795D01*
X177194922Y-97534587D01*
X177214935Y-97468612D01*
X177220000Y-97417189D01*
X177225065Y-97468612D01*
X177245078Y-97534587D01*
X177250000Y-97543795D01*
X177250000Y-97662500D01*
X177337500Y-97750000D01*
X177370000Y-97751694D01*
X177438612Y-97744936D01*
X177470002Y-97735414D01*
X177501388Y-97744935D01*
X177570000Y-97751693D01*
X177870000Y-97751693D01*
X177938612Y-97744935D01*
X177969998Y-97735414D01*
X178001388Y-97744936D01*
X178070000Y-97751694D01*
X178102500Y-97750000D01*
X178190000Y-97662500D01*
X178190000Y-97543795D01*
X178194922Y-97534587D01*
X178214935Y-97468612D01*
X178220000Y-97417189D01*
X178225065Y-97468612D01*
X178245078Y-97534587D01*
X178250000Y-97543795D01*
X178250000Y-97662500D01*
X178337500Y-97750000D01*
X178370000Y-97751694D01*
X178438612Y-97744936D01*
X178470002Y-97735414D01*
X178501388Y-97744935D01*
X178570000Y-97751693D01*
X178870000Y-97751693D01*
X178938612Y-97744935D01*
X178969998Y-97735414D01*
X179001388Y-97744936D01*
X179070000Y-97751694D01*
X179102500Y-97750000D01*
X179190000Y-97662500D01*
X179190000Y-97543795D01*
X179194922Y-97534587D01*
X179214935Y-97468612D01*
X179220000Y-97417189D01*
X179225065Y-97468612D01*
X179245078Y-97534587D01*
X179250000Y-97543795D01*
X179250000Y-97662500D01*
X179337500Y-97750000D01*
X179370000Y-97751694D01*
X179438612Y-97744936D01*
X179470002Y-97735414D01*
X179501388Y-97744935D01*
X179570000Y-97751693D01*
X179870000Y-97751693D01*
X179938612Y-97744935D01*
X179969998Y-97735414D01*
X180001388Y-97744936D01*
X180070000Y-97751694D01*
X180102500Y-97750000D01*
X180190000Y-97662500D01*
X180190000Y-97543795D01*
X180194922Y-97534587D01*
X180214935Y-97468612D01*
X180220000Y-97417189D01*
X180225065Y-97468612D01*
X180245078Y-97534587D01*
X180250000Y-97543795D01*
X180250000Y-97662500D01*
X180337500Y-97750000D01*
X180370000Y-97751694D01*
X180438612Y-97744936D01*
X180470002Y-97735414D01*
X180501388Y-97744935D01*
X180570000Y-97751693D01*
X180870000Y-97751693D01*
X180938612Y-97744935D01*
X180969998Y-97735414D01*
X181001388Y-97744936D01*
X181070000Y-97751694D01*
X181102500Y-97750000D01*
X181190000Y-97662500D01*
X181190000Y-97543795D01*
X181194922Y-97534587D01*
X181214935Y-97468612D01*
X181220000Y-97417189D01*
X181225065Y-97468612D01*
X181245078Y-97534587D01*
X181250000Y-97543795D01*
X181250000Y-97662500D01*
X181337500Y-97750000D01*
X181370000Y-97751694D01*
X181438612Y-97744936D01*
X181470002Y-97735414D01*
X181501388Y-97744935D01*
X181570000Y-97751693D01*
X181870000Y-97751693D01*
X181938612Y-97744935D01*
X181969998Y-97735414D01*
X182001388Y-97744936D01*
X182070000Y-97751694D01*
X182102500Y-97750000D01*
X182190000Y-97662500D01*
X182190000Y-97543795D01*
X182194922Y-97534587D01*
X182214935Y-97468612D01*
X182220000Y-97417189D01*
X182225065Y-97468612D01*
X182245078Y-97534587D01*
X182250000Y-97543795D01*
X182250000Y-97662500D01*
X182337500Y-97750000D01*
X182370000Y-97751694D01*
X182438612Y-97744936D01*
X182470002Y-97735414D01*
X182501388Y-97744935D01*
X182570000Y-97751693D01*
X182870000Y-97751693D01*
X182938612Y-97744935D01*
X182969998Y-97735414D01*
X183001388Y-97744936D01*
X183070000Y-97751694D01*
X183102500Y-97750000D01*
X183190000Y-97662500D01*
X183190000Y-97543795D01*
X183194922Y-97534587D01*
X183214935Y-97468612D01*
X183220000Y-97417189D01*
X183225065Y-97468612D01*
X183245078Y-97534587D01*
X183250000Y-97543795D01*
X183250000Y-97662500D01*
X183337500Y-97750000D01*
X183370000Y-97751694D01*
X183438612Y-97744936D01*
X183470002Y-97735414D01*
X183501388Y-97744935D01*
X183570000Y-97751693D01*
X183870000Y-97751693D01*
X183938612Y-97744935D01*
X184004587Y-97724922D01*
X184065390Y-97692422D01*
X184118685Y-97648685D01*
X184162422Y-97595390D01*
X184194922Y-97534587D01*
X184214935Y-97468612D01*
X184221693Y-97400000D01*
X184221693Y-96994122D01*
X184645000Y-96994122D01*
X184645000Y-97205878D01*
X184686312Y-97413566D01*
X184767348Y-97609203D01*
X184884993Y-97785272D01*
X184978445Y-97878724D01*
X184935223Y-97891460D01*
X184768790Y-97978721D01*
X184756086Y-97987210D01*
X184700607Y-98143180D01*
X185295000Y-98737574D01*
X185309142Y-98723431D01*
X185351569Y-98765858D01*
X185337426Y-98780000D01*
X185931820Y-99374393D01*
X186087790Y-99318914D01*
X186177694Y-99153893D01*
X186233676Y-98974503D01*
X186253586Y-98787639D01*
X186236657Y-98600481D01*
X186183540Y-98420223D01*
X186096279Y-98253790D01*
X186087790Y-98241086D01*
X185931821Y-98185608D01*
X185971369Y-98146060D01*
X186033566Y-98133688D01*
X186229203Y-98052652D01*
X186366251Y-97961080D01*
X186424576Y-98101888D01*
X186528980Y-98258140D01*
X186661860Y-98391020D01*
X186818112Y-98495424D01*
X186991728Y-98567338D01*
X187176039Y-98604000D01*
X187363961Y-98604000D01*
X187548272Y-98567338D01*
X187721888Y-98495424D01*
X187878140Y-98391020D01*
X188011020Y-98258140D01*
X188115424Y-98101888D01*
X188187338Y-97928272D01*
X188224000Y-97743961D01*
X188224000Y-97556039D01*
X188187338Y-97371728D01*
X188115424Y-97198112D01*
X188011020Y-97041860D01*
X187878140Y-96908980D01*
X187721888Y-96804576D01*
X187548272Y-96732662D01*
X187363961Y-96696000D01*
X187176039Y-96696000D01*
X186991728Y-96732662D01*
X186818112Y-96804576D01*
X186764431Y-96840444D01*
X186753688Y-96786434D01*
X186672652Y-96590797D01*
X186555007Y-96414728D01*
X186405272Y-96264993D01*
X186229203Y-96147348D01*
X186033566Y-96066312D01*
X185825878Y-96025000D01*
X185614122Y-96025000D01*
X185406434Y-96066312D01*
X185210797Y-96147348D01*
X185034728Y-96264993D01*
X184884993Y-96414728D01*
X184767348Y-96590797D01*
X184686312Y-96786434D01*
X184645000Y-96994122D01*
X184221693Y-96994122D01*
X184221693Y-95600000D01*
X184214935Y-95531388D01*
X184195000Y-95465670D01*
X184195000Y-92286750D01*
X184292477Y-92189273D01*
X184296131Y-92190000D01*
X184443869Y-92190000D01*
X184588767Y-92161178D01*
X184725258Y-92104641D01*
X184848097Y-92022563D01*
X184952563Y-91918097D01*
X185034641Y-91795258D01*
X185091178Y-91658767D01*
X185120000Y-91513869D01*
X185120000Y-91366131D01*
X185091178Y-91221233D01*
X185034641Y-91084742D01*
X184952563Y-90961903D01*
X184848097Y-90857437D01*
X184725258Y-90775359D01*
X184588767Y-90718822D01*
X184443869Y-90690000D01*
X184296131Y-90690000D01*
X184151233Y-90718822D01*
X184014742Y-90775359D01*
X183891903Y-90857437D01*
X183787437Y-90961903D01*
X183770000Y-90987999D01*
X183752563Y-90961903D01*
X183648097Y-90857437D01*
X183525258Y-90775359D01*
X183388767Y-90718822D01*
X183243869Y-90690000D01*
X183096131Y-90690000D01*
X182951233Y-90718822D01*
X182814742Y-90775359D01*
X182691903Y-90857437D01*
X182587437Y-90961903D01*
X182570000Y-90987999D01*
X182552563Y-90961903D01*
X182448097Y-90857437D01*
X182325258Y-90775359D01*
X182188767Y-90718822D01*
X182043869Y-90690000D01*
X181896131Y-90690000D01*
X181751233Y-90718822D01*
X181614742Y-90775359D01*
X181491903Y-90857437D01*
X181387437Y-90961903D01*
X181370000Y-90987999D01*
X181352563Y-90961903D01*
X181248097Y-90857437D01*
X181125258Y-90775359D01*
X180988767Y-90718822D01*
X180843869Y-90690000D01*
X180696131Y-90690000D01*
X180551233Y-90718822D01*
X180414742Y-90775359D01*
X180291903Y-90857437D01*
X180187437Y-90961903D01*
X180170000Y-90987999D01*
X180152563Y-90961903D01*
X180048097Y-90857437D01*
X179925258Y-90775359D01*
X179788767Y-90718822D01*
X179643869Y-90690000D01*
X179496131Y-90690000D01*
X179351233Y-90718822D01*
X179214742Y-90775359D01*
X179091903Y-90857437D01*
X178987437Y-90961903D01*
X178970000Y-90987999D01*
X178952563Y-90961903D01*
X178848097Y-90857437D01*
X178725258Y-90775359D01*
X178588767Y-90718822D01*
X178443869Y-90690000D01*
X178296131Y-90690000D01*
X178151233Y-90718822D01*
X178014742Y-90775359D01*
X177891903Y-90857437D01*
X177787437Y-90961903D01*
X177770000Y-90987999D01*
X177752563Y-90961903D01*
X177648097Y-90857437D01*
X177525258Y-90775359D01*
X177388767Y-90718822D01*
X177243869Y-90690000D01*
X177096131Y-90690000D01*
X176951233Y-90718822D01*
X176814742Y-90775359D01*
X176691903Y-90857437D01*
X176587437Y-90961903D01*
X176570000Y-90987999D01*
X176552563Y-90961903D01*
X176448097Y-90857437D01*
X176325258Y-90775359D01*
X176188767Y-90718822D01*
X176043869Y-90690000D01*
X175896131Y-90690000D01*
X175751233Y-90718822D01*
X175614742Y-90775359D01*
X175491903Y-90857437D01*
X175387437Y-90961903D01*
X175370000Y-90987999D01*
X175352563Y-90961903D01*
X175248097Y-90857437D01*
X175125258Y-90775359D01*
X174988767Y-90718822D01*
X174843869Y-90690000D01*
X174696131Y-90690000D01*
X174551233Y-90718822D01*
X174414742Y-90775359D01*
X174291903Y-90857437D01*
X174187437Y-90961903D01*
X174170000Y-90987999D01*
X174152563Y-90961903D01*
X174048097Y-90857437D01*
X173925258Y-90775359D01*
X173788767Y-90718822D01*
X173643869Y-90690000D01*
X173496131Y-90690000D01*
X173351233Y-90718822D01*
X173214742Y-90775359D01*
X173091903Y-90857437D01*
X172987437Y-90961903D01*
X172905359Y-91084742D01*
X172848822Y-91221233D01*
X172820000Y-91366131D01*
X160410000Y-91366131D01*
X160410000Y-82724790D01*
X162018000Y-82724790D01*
X162018000Y-83115210D01*
X162094167Y-83498128D01*
X162243574Y-83858829D01*
X162460480Y-84183451D01*
X162736549Y-84459520D01*
X163061171Y-84676426D01*
X163421872Y-84825833D01*
X163804790Y-84902000D01*
X164195210Y-84902000D01*
X164578128Y-84825833D01*
X164938829Y-84676426D01*
X165263451Y-84459520D01*
X165539520Y-84183451D01*
X165756426Y-83858829D01*
X165905833Y-83498128D01*
X165982000Y-83115210D01*
X165982000Y-82794790D01*
X192018000Y-82794790D01*
X192018000Y-83185210D01*
X192094167Y-83568128D01*
X192243574Y-83928829D01*
X192460480Y-84253451D01*
X192736549Y-84529520D01*
X193061171Y-84746426D01*
X193421872Y-84895833D01*
X193804790Y-84972000D01*
X194195210Y-84972000D01*
X194578128Y-84895833D01*
X194938829Y-84746426D01*
X195263451Y-84529520D01*
X195539520Y-84253451D01*
X195756426Y-83928829D01*
X195905833Y-83568128D01*
X195982000Y-83185210D01*
X195982000Y-82794790D01*
X195905833Y-82411872D01*
X195756426Y-82051171D01*
X195539520Y-81726549D01*
X195263451Y-81450480D01*
X194938829Y-81233574D01*
X194578128Y-81084167D01*
X194195210Y-81008000D01*
X193804790Y-81008000D01*
X193421872Y-81084167D01*
X193061171Y-81233574D01*
X192736549Y-81450480D01*
X192460480Y-81726549D01*
X192243574Y-82051171D01*
X192094167Y-82411872D01*
X192018000Y-82794790D01*
X165982000Y-82794790D01*
X165982000Y-82724790D01*
X165905833Y-82341872D01*
X165756426Y-81981171D01*
X165539520Y-81656549D01*
X165263451Y-81380480D01*
X164938829Y-81163574D01*
X164578128Y-81014167D01*
X164195210Y-80938000D01*
X163804790Y-80938000D01*
X163421872Y-81014167D01*
X163061171Y-81163574D01*
X162736549Y-81380480D01*
X162460480Y-81656549D01*
X162243574Y-81981171D01*
X162094167Y-82341872D01*
X162018000Y-82724790D01*
X160410000Y-82724790D01*
X160410000Y-70030000D01*
X173103017Y-70030000D01*
X173105000Y-70050134D01*
X173105001Y-81009856D01*
X173103017Y-81030000D01*
X173110933Y-81110374D01*
X173134377Y-81187659D01*
X173172449Y-81258885D01*
X173223684Y-81321316D01*
X173286115Y-81372551D01*
X173357341Y-81410623D01*
X173434626Y-81434067D01*
X173494866Y-81440000D01*
X173515000Y-81441983D01*
X173535134Y-81440000D01*
X184494866Y-81440000D01*
X184515000Y-81441983D01*
X184535134Y-81440000D01*
X184595374Y-81434067D01*
X184672659Y-81410623D01*
X184743885Y-81372551D01*
X184806316Y-81321316D01*
X184857551Y-81258885D01*
X184895623Y-81187659D01*
X184919067Y-81110374D01*
X184926983Y-81030000D01*
X184925000Y-81009866D01*
X184925000Y-70050134D01*
X184926983Y-70030000D01*
X184919067Y-69949626D01*
X184895623Y-69872341D01*
X184857551Y-69801115D01*
X184806316Y-69738684D01*
X184743885Y-69687449D01*
X184672659Y-69649377D01*
X184595374Y-69625933D01*
X184535134Y-69620000D01*
X184515000Y-69618017D01*
X184494866Y-69620000D01*
X173535134Y-69620000D01*
X173515000Y-69618017D01*
X173494866Y-69620000D01*
X173434626Y-69625933D01*
X173357341Y-69649377D01*
X173286115Y-69687449D01*
X173223684Y-69738684D01*
X173172449Y-69801115D01*
X173134377Y-69872341D01*
X173110933Y-69949626D01*
X173103017Y-70030000D01*
X160410000Y-70030000D01*
X160410000Y-67794790D01*
X162018000Y-67794790D01*
X162018000Y-68185210D01*
X162094167Y-68568128D01*
X162243574Y-68928829D01*
X162460480Y-69253451D01*
X162736549Y-69529520D01*
X163061171Y-69746426D01*
X163421872Y-69895833D01*
X163804790Y-69972000D01*
X164195210Y-69972000D01*
X164578128Y-69895833D01*
X164938829Y-69746426D01*
X165263451Y-69529520D01*
X165539520Y-69253451D01*
X165756426Y-68928829D01*
X165905833Y-68568128D01*
X165982000Y-68185210D01*
X165982000Y-67794790D01*
X192018000Y-67794790D01*
X192018000Y-68185210D01*
X192094167Y-68568128D01*
X192243574Y-68928829D01*
X192460480Y-69253451D01*
X192736549Y-69529520D01*
X193061171Y-69746426D01*
X193421872Y-69895833D01*
X193804790Y-69972000D01*
X194195210Y-69972000D01*
X194578128Y-69895833D01*
X194938829Y-69746426D01*
X195263451Y-69529520D01*
X195539520Y-69253451D01*
X195756426Y-68928829D01*
X195905833Y-68568128D01*
X195982000Y-68185210D01*
X195982000Y-67794790D01*
X195905833Y-67411872D01*
X195756426Y-67051171D01*
X195539520Y-66726549D01*
X195263451Y-66450480D01*
X194938829Y-66233574D01*
X194578128Y-66084167D01*
X194195210Y-66008000D01*
X193804790Y-66008000D01*
X193421872Y-66084167D01*
X193061171Y-66233574D01*
X192736549Y-66450480D01*
X192460480Y-66726549D01*
X192243574Y-67051171D01*
X192094167Y-67411872D01*
X192018000Y-67794790D01*
X165982000Y-67794790D01*
X165905833Y-67411872D01*
X165756426Y-67051171D01*
X165539520Y-66726549D01*
X165263451Y-66450480D01*
X164938829Y-66233574D01*
X164578128Y-66084167D01*
X164195210Y-66008000D01*
X163804790Y-66008000D01*
X163421872Y-66084167D01*
X163061171Y-66233574D01*
X162736549Y-66450480D01*
X162460480Y-66726549D01*
X162243574Y-67051171D01*
X162094167Y-67411872D01*
X162018000Y-67794790D01*
X160410000Y-67794790D01*
X160410000Y-58366131D01*
X172990000Y-58366131D01*
X172990000Y-58513869D01*
X173018822Y-58658767D01*
X173075359Y-58795258D01*
X173157437Y-58918097D01*
X173261903Y-59022563D01*
X173384742Y-59104641D01*
X173521233Y-59161178D01*
X173666131Y-59190000D01*
X173813869Y-59190000D01*
X173958767Y-59161178D01*
X174095258Y-59104641D01*
X174218097Y-59022563D01*
X174322563Y-58918097D01*
X174340000Y-58892001D01*
X174357437Y-58918097D01*
X174461903Y-59022563D01*
X174584742Y-59104641D01*
X174721233Y-59161178D01*
X174866131Y-59190000D01*
X175013869Y-59190000D01*
X175158767Y-59161178D01*
X175295258Y-59104641D01*
X175418097Y-59022563D01*
X175522563Y-58918097D01*
X175540000Y-58892001D01*
X175557437Y-58918097D01*
X175661903Y-59022563D01*
X175784742Y-59104641D01*
X175921233Y-59161178D01*
X176066131Y-59190000D01*
X176213869Y-59190000D01*
X176358767Y-59161178D01*
X176495258Y-59104641D01*
X176618097Y-59022563D01*
X176722563Y-58918097D01*
X176740000Y-58892001D01*
X176757437Y-58918097D01*
X176861903Y-59022563D01*
X176984742Y-59104641D01*
X177121233Y-59161178D01*
X177266131Y-59190000D01*
X177413869Y-59190000D01*
X177558767Y-59161178D01*
X177695258Y-59104641D01*
X177818097Y-59022563D01*
X177922563Y-58918097D01*
X177940000Y-58892001D01*
X177957437Y-58918097D01*
X178061903Y-59022563D01*
X178184742Y-59104641D01*
X178321233Y-59161178D01*
X178466131Y-59190000D01*
X178613869Y-59190000D01*
X178758767Y-59161178D01*
X178895258Y-59104641D01*
X179018097Y-59022563D01*
X179122563Y-58918097D01*
X179140000Y-58892001D01*
X179157437Y-58918097D01*
X179261903Y-59022563D01*
X179384742Y-59104641D01*
X179521233Y-59161178D01*
X179666131Y-59190000D01*
X179813869Y-59190000D01*
X179958767Y-59161178D01*
X180095258Y-59104641D01*
X180218097Y-59022563D01*
X180322563Y-58918097D01*
X180340000Y-58892001D01*
X180357437Y-58918097D01*
X180461903Y-59022563D01*
X180584742Y-59104641D01*
X180721233Y-59161178D01*
X180866131Y-59190000D01*
X181013869Y-59190000D01*
X181158767Y-59161178D01*
X181295258Y-59104641D01*
X181418097Y-59022563D01*
X181522563Y-58918097D01*
X181540000Y-58892001D01*
X181557437Y-58918097D01*
X181661903Y-59022563D01*
X181784742Y-59104641D01*
X181921233Y-59161178D01*
X182066131Y-59190000D01*
X182213869Y-59190000D01*
X182358767Y-59161178D01*
X182495258Y-59104641D01*
X182618097Y-59022563D01*
X182722563Y-58918097D01*
X182740000Y-58892001D01*
X182757437Y-58918097D01*
X182861903Y-59022563D01*
X182984742Y-59104641D01*
X183121233Y-59161178D01*
X183266131Y-59190000D01*
X183413869Y-59190000D01*
X183558767Y-59161178D01*
X183695258Y-59104641D01*
X183818097Y-59022563D01*
X183922563Y-58918097D01*
X183940000Y-58892001D01*
X183957437Y-58918097D01*
X184061903Y-59022563D01*
X184184742Y-59104641D01*
X184321233Y-59161178D01*
X184466131Y-59190000D01*
X184613869Y-59190000D01*
X184758767Y-59161178D01*
X184895258Y-59104641D01*
X185018097Y-59022563D01*
X185122563Y-58918097D01*
X185204641Y-58795258D01*
X185261178Y-58658767D01*
X185290000Y-58513869D01*
X185290000Y-58366131D01*
X185261178Y-58221233D01*
X185204641Y-58084742D01*
X185122563Y-57961903D01*
X185018097Y-57857437D01*
X184895258Y-57775359D01*
X184758767Y-57718822D01*
X184613869Y-57690000D01*
X184466131Y-57690000D01*
X184462478Y-57690727D01*
X183715000Y-56943250D01*
X183715000Y-55614330D01*
X183734935Y-55548612D01*
X183741693Y-55480000D01*
X183741693Y-54610000D01*
X183770000Y-54610000D01*
X183770000Y-55742500D01*
X183857500Y-55830000D01*
X183890000Y-55831694D01*
X183958612Y-55824936D01*
X184024587Y-55804923D01*
X184085391Y-55772423D01*
X184138685Y-55728685D01*
X184182423Y-55675391D01*
X184214923Y-55614587D01*
X184234936Y-55548612D01*
X184241694Y-55480000D01*
X184240000Y-54697500D01*
X184152500Y-54610000D01*
X183770000Y-54610000D01*
X183741693Y-54610000D01*
X183741693Y-53680000D01*
X183734935Y-53611388D01*
X183714922Y-53545413D01*
X183710000Y-53536205D01*
X183710000Y-53417500D01*
X183770000Y-53417500D01*
X183770000Y-54550000D01*
X184152500Y-54550000D01*
X184240000Y-54462500D01*
X184241273Y-53874122D01*
X184665000Y-53874122D01*
X184665000Y-54085878D01*
X184706312Y-54293566D01*
X184787348Y-54489203D01*
X184904993Y-54665272D01*
X185054728Y-54815007D01*
X185230797Y-54932652D01*
X185426434Y-55013688D01*
X185634122Y-55055000D01*
X185845878Y-55055000D01*
X186053566Y-55013688D01*
X186249203Y-54932652D01*
X186425272Y-54815007D01*
X186575007Y-54665272D01*
X186692652Y-54489203D01*
X186773688Y-54293566D01*
X186784431Y-54239556D01*
X186838112Y-54275424D01*
X187011728Y-54347338D01*
X187196039Y-54384000D01*
X187383961Y-54384000D01*
X187568272Y-54347338D01*
X187741888Y-54275424D01*
X187898140Y-54171020D01*
X188031020Y-54038140D01*
X188135424Y-53881888D01*
X188207338Y-53708272D01*
X188244000Y-53523961D01*
X188244000Y-53336039D01*
X188207338Y-53151728D01*
X188135424Y-52978112D01*
X188031020Y-52821860D01*
X187898140Y-52688980D01*
X187741888Y-52584576D01*
X187568272Y-52512662D01*
X187383961Y-52476000D01*
X187196039Y-52476000D01*
X187011728Y-52512662D01*
X186838112Y-52584576D01*
X186681860Y-52688980D01*
X186548980Y-52821860D01*
X186444576Y-52978112D01*
X186386251Y-53118920D01*
X186249203Y-53027348D01*
X186053566Y-52946312D01*
X185991369Y-52933940D01*
X185951821Y-52894392D01*
X186107790Y-52838914D01*
X186197694Y-52673893D01*
X186253676Y-52494503D01*
X186273586Y-52307639D01*
X186256657Y-52120481D01*
X186203540Y-51940223D01*
X186116279Y-51773790D01*
X186107790Y-51761086D01*
X185951820Y-51705607D01*
X185357426Y-52300000D01*
X185371569Y-52314142D01*
X185329142Y-52356569D01*
X185315000Y-52342426D01*
X184720607Y-52936820D01*
X184776086Y-53092790D01*
X184941107Y-53182694D01*
X184998970Y-53200751D01*
X184904993Y-53294728D01*
X184787348Y-53470797D01*
X184706312Y-53666434D01*
X184665000Y-53874122D01*
X184241273Y-53874122D01*
X184241694Y-53680000D01*
X184234936Y-53611388D01*
X184214923Y-53545413D01*
X184182423Y-53484609D01*
X184138685Y-53431315D01*
X184085391Y-53387577D01*
X184024587Y-53355077D01*
X183958612Y-53335064D01*
X183890000Y-53328306D01*
X183857500Y-53330000D01*
X183770000Y-53417500D01*
X183710000Y-53417500D01*
X183622500Y-53330000D01*
X183590000Y-53328306D01*
X183521388Y-53335064D01*
X183489998Y-53344586D01*
X183458612Y-53335065D01*
X183390000Y-53328307D01*
X183090000Y-53328307D01*
X183021388Y-53335065D01*
X182990002Y-53344586D01*
X182958612Y-53335064D01*
X182890000Y-53328306D01*
X182857500Y-53330000D01*
X182770000Y-53417500D01*
X182770000Y-53536205D01*
X182765078Y-53545413D01*
X182745065Y-53611388D01*
X182740000Y-53662811D01*
X182734935Y-53611388D01*
X182714922Y-53545413D01*
X182710000Y-53536205D01*
X182710000Y-53417500D01*
X182622500Y-53330000D01*
X182590000Y-53328306D01*
X182521388Y-53335064D01*
X182489998Y-53344586D01*
X182458612Y-53335065D01*
X182390000Y-53328307D01*
X182090000Y-53328307D01*
X182021388Y-53335065D01*
X181990002Y-53344586D01*
X181958612Y-53335064D01*
X181890000Y-53328306D01*
X181857500Y-53330000D01*
X181770000Y-53417500D01*
X181770000Y-53536205D01*
X181765078Y-53545413D01*
X181745065Y-53611388D01*
X181740000Y-53662811D01*
X181734935Y-53611388D01*
X181714922Y-53545413D01*
X181710000Y-53536205D01*
X181710000Y-53417500D01*
X181622500Y-53330000D01*
X181590000Y-53328306D01*
X181521388Y-53335064D01*
X181489998Y-53344586D01*
X181458612Y-53335065D01*
X181390000Y-53328307D01*
X181090000Y-53328307D01*
X181021388Y-53335065D01*
X180990002Y-53344586D01*
X180958612Y-53335064D01*
X180890000Y-53328306D01*
X180857500Y-53330000D01*
X180770000Y-53417500D01*
X180770000Y-53536205D01*
X180765078Y-53545413D01*
X180745065Y-53611388D01*
X180740000Y-53662811D01*
X180734935Y-53611388D01*
X180714922Y-53545413D01*
X180710000Y-53536205D01*
X180710000Y-53417500D01*
X180622500Y-53330000D01*
X180590000Y-53328306D01*
X180521388Y-53335064D01*
X180489998Y-53344586D01*
X180458612Y-53335065D01*
X180390000Y-53328307D01*
X180090000Y-53328307D01*
X180021388Y-53335065D01*
X179990002Y-53344586D01*
X179958612Y-53335064D01*
X179890000Y-53328306D01*
X179857500Y-53330000D01*
X179770000Y-53417500D01*
X179770000Y-53536205D01*
X179765078Y-53545413D01*
X179745065Y-53611388D01*
X179740000Y-53662811D01*
X179734935Y-53611388D01*
X179714922Y-53545413D01*
X179710000Y-53536205D01*
X179710000Y-53417500D01*
X179622500Y-53330000D01*
X179590000Y-53328306D01*
X179521388Y-53335064D01*
X179489998Y-53344586D01*
X179458612Y-53335065D01*
X179390000Y-53328307D01*
X179090000Y-53328307D01*
X179021388Y-53335065D01*
X178990002Y-53344586D01*
X178958612Y-53335064D01*
X178890000Y-53328306D01*
X178857500Y-53330000D01*
X178770000Y-53417500D01*
X178770000Y-53536205D01*
X178765078Y-53545413D01*
X178745065Y-53611388D01*
X178740000Y-53662811D01*
X178734935Y-53611388D01*
X178714922Y-53545413D01*
X178710000Y-53536205D01*
X178710000Y-53417500D01*
X178622500Y-53330000D01*
X178590000Y-53328306D01*
X178521388Y-53335064D01*
X178489998Y-53344586D01*
X178458612Y-53335065D01*
X178390000Y-53328307D01*
X178090000Y-53328307D01*
X178021388Y-53335065D01*
X177990002Y-53344586D01*
X177958612Y-53335064D01*
X177890000Y-53328306D01*
X177857500Y-53330000D01*
X177770000Y-53417500D01*
X177770000Y-53536205D01*
X177765078Y-53545413D01*
X177745065Y-53611388D01*
X177740000Y-53662811D01*
X177734935Y-53611388D01*
X177714922Y-53545413D01*
X177710000Y-53536205D01*
X177710000Y-53417500D01*
X177622500Y-53330000D01*
X177590000Y-53328306D01*
X177521388Y-53335064D01*
X177489998Y-53344586D01*
X177458612Y-53335065D01*
X177390000Y-53328307D01*
X177090000Y-53328307D01*
X177021388Y-53335065D01*
X176990002Y-53344586D01*
X176958612Y-53335064D01*
X176890000Y-53328306D01*
X176857500Y-53330000D01*
X176770000Y-53417500D01*
X176770000Y-53536205D01*
X176765078Y-53545413D01*
X176745065Y-53611388D01*
X176740000Y-53662811D01*
X176734935Y-53611388D01*
X176714922Y-53545413D01*
X176710000Y-53536205D01*
X176710000Y-53417500D01*
X176622500Y-53330000D01*
X176590000Y-53328306D01*
X176521388Y-53335064D01*
X176489998Y-53344586D01*
X176458612Y-53335065D01*
X176390000Y-53328307D01*
X176090000Y-53328307D01*
X176021388Y-53335065D01*
X175990002Y-53344586D01*
X175958612Y-53335064D01*
X175890000Y-53328306D01*
X175857500Y-53330000D01*
X175770000Y-53417500D01*
X175770000Y-53536205D01*
X175765078Y-53545413D01*
X175745065Y-53611388D01*
X175740000Y-53662811D01*
X175734935Y-53611388D01*
X175714922Y-53545413D01*
X175710000Y-53536205D01*
X175710000Y-53417500D01*
X175622500Y-53330000D01*
X175590000Y-53328306D01*
X175521388Y-53335064D01*
X175489998Y-53344586D01*
X175458612Y-53335065D01*
X175390000Y-53328307D01*
X175090000Y-53328307D01*
X175021388Y-53335065D01*
X174990002Y-53344586D01*
X174958612Y-53335064D01*
X174890000Y-53328306D01*
X174857500Y-53330000D01*
X174770000Y-53417500D01*
X174770000Y-53536205D01*
X174765078Y-53545413D01*
X174745065Y-53611388D01*
X174740000Y-53662811D01*
X174734935Y-53611388D01*
X174714922Y-53545413D01*
X174710000Y-53536205D01*
X174710000Y-53417500D01*
X174622500Y-53330000D01*
X174590000Y-53328306D01*
X174521388Y-53335064D01*
X174489998Y-53344586D01*
X174458612Y-53335065D01*
X174390000Y-53328307D01*
X174090000Y-53328307D01*
X174021388Y-53335065D01*
X173955413Y-53355078D01*
X173894610Y-53387578D01*
X173841315Y-53431315D01*
X173797578Y-53484610D01*
X173765078Y-53545413D01*
X173745065Y-53611388D01*
X173738307Y-53680000D01*
X173738307Y-55480000D01*
X173745065Y-55548612D01*
X173765000Y-55614331D01*
X173765001Y-57690000D01*
X173666131Y-57690000D01*
X173521233Y-57718822D01*
X173384742Y-57775359D01*
X173261903Y-57857437D01*
X173157437Y-57961903D01*
X173075359Y-58084742D01*
X173018822Y-58221233D01*
X172990000Y-58366131D01*
X160410000Y-58366131D01*
X160410000Y-53336039D01*
X169736000Y-53336039D01*
X169736000Y-53523961D01*
X169772662Y-53708272D01*
X169844576Y-53881888D01*
X169948980Y-54038140D01*
X170081860Y-54171020D01*
X170238112Y-54275424D01*
X170411728Y-54347338D01*
X170596039Y-54384000D01*
X170783961Y-54384000D01*
X170968272Y-54347338D01*
X171141888Y-54275424D01*
X171195569Y-54239556D01*
X171206312Y-54293566D01*
X171287348Y-54489203D01*
X171404993Y-54665272D01*
X171554728Y-54815007D01*
X171730797Y-54932652D01*
X171926434Y-55013688D01*
X172134122Y-55055000D01*
X172345878Y-55055000D01*
X172553566Y-55013688D01*
X172749203Y-54932652D01*
X172925272Y-54815007D01*
X173075007Y-54665272D01*
X173192652Y-54489203D01*
X173273688Y-54293566D01*
X173315000Y-54085878D01*
X173315000Y-53874122D01*
X173273688Y-53666434D01*
X173192652Y-53470797D01*
X173075007Y-53294728D01*
X172981555Y-53201276D01*
X173024777Y-53188540D01*
X173191210Y-53101279D01*
X173203914Y-53092790D01*
X173259393Y-52936820D01*
X172665000Y-52342426D01*
X172650858Y-52356569D01*
X172608431Y-52314142D01*
X172622574Y-52300000D01*
X172707426Y-52300000D01*
X173301820Y-52894393D01*
X173457790Y-52838914D01*
X173517126Y-52730000D01*
X173738306Y-52730000D01*
X173745064Y-52798612D01*
X173765077Y-52864587D01*
X173797577Y-52925391D01*
X173841315Y-52978685D01*
X173894609Y-53022423D01*
X173955413Y-53054923D01*
X174021388Y-53074936D01*
X174090000Y-53081694D01*
X174122500Y-53080000D01*
X174210000Y-52992500D01*
X174210000Y-52730000D01*
X174238306Y-52730000D01*
X174245064Y-52798612D01*
X174265077Y-52864587D01*
X174270000Y-52873797D01*
X174270000Y-52992500D01*
X174357500Y-53080000D01*
X174390000Y-53081694D01*
X174458612Y-53074936D01*
X174490000Y-53065415D01*
X174521388Y-53074936D01*
X174590000Y-53081694D01*
X174622500Y-53080000D01*
X174710000Y-52992500D01*
X174710000Y-52873797D01*
X174714923Y-52864587D01*
X174734936Y-52798612D01*
X174740000Y-52747199D01*
X174745064Y-52798612D01*
X174765077Y-52864587D01*
X174770000Y-52873797D01*
X174770000Y-52992500D01*
X174857500Y-53080000D01*
X174890000Y-53081694D01*
X174958612Y-53074936D01*
X174990000Y-53065415D01*
X175021388Y-53074936D01*
X175090000Y-53081694D01*
X175122500Y-53080000D01*
X175210000Y-52992500D01*
X175210000Y-52873797D01*
X175214923Y-52864587D01*
X175234936Y-52798612D01*
X175240000Y-52747199D01*
X175245064Y-52798612D01*
X175265077Y-52864587D01*
X175270000Y-52873797D01*
X175270000Y-52992500D01*
X175357500Y-53080000D01*
X175390000Y-53081694D01*
X175458612Y-53074936D01*
X175490000Y-53065415D01*
X175521388Y-53074936D01*
X175590000Y-53081694D01*
X175622500Y-53080000D01*
X175710000Y-52992500D01*
X175710000Y-52873797D01*
X175714923Y-52864587D01*
X175734936Y-52798612D01*
X175740000Y-52747199D01*
X175745064Y-52798612D01*
X175765077Y-52864587D01*
X175770000Y-52873797D01*
X175770000Y-52992500D01*
X175857500Y-53080000D01*
X175890000Y-53081694D01*
X175958612Y-53074936D01*
X175990000Y-53065415D01*
X176021388Y-53074936D01*
X176090000Y-53081694D01*
X176122500Y-53080000D01*
X176210000Y-52992500D01*
X176210000Y-52873797D01*
X176214923Y-52864587D01*
X176234936Y-52798612D01*
X176240000Y-52747199D01*
X176245064Y-52798612D01*
X176265077Y-52864587D01*
X176270000Y-52873797D01*
X176270000Y-52992500D01*
X176357500Y-53080000D01*
X176390000Y-53081694D01*
X176458612Y-53074936D01*
X176490000Y-53065415D01*
X176521388Y-53074936D01*
X176590000Y-53081694D01*
X176622500Y-53080000D01*
X176710000Y-52992500D01*
X176710000Y-52873797D01*
X176714923Y-52864587D01*
X176734936Y-52798612D01*
X176740000Y-52747199D01*
X176745064Y-52798612D01*
X176765077Y-52864587D01*
X176770000Y-52873797D01*
X176770000Y-52992500D01*
X176857500Y-53080000D01*
X176890000Y-53081694D01*
X176958612Y-53074936D01*
X176990000Y-53065415D01*
X177021388Y-53074936D01*
X177090000Y-53081694D01*
X177122500Y-53080000D01*
X177210000Y-52992500D01*
X177210000Y-52873797D01*
X177214923Y-52864587D01*
X177234936Y-52798612D01*
X177240000Y-52747199D01*
X177245064Y-52798612D01*
X177265077Y-52864587D01*
X177270000Y-52873797D01*
X177270000Y-52992500D01*
X177357500Y-53080000D01*
X177390000Y-53081694D01*
X177458612Y-53074936D01*
X177490000Y-53065415D01*
X177521388Y-53074936D01*
X177590000Y-53081694D01*
X177622500Y-53080000D01*
X177710000Y-52992500D01*
X177710000Y-52873797D01*
X177714923Y-52864587D01*
X177734936Y-52798612D01*
X177740000Y-52747199D01*
X177745064Y-52798612D01*
X177765077Y-52864587D01*
X177770000Y-52873797D01*
X177770000Y-52992500D01*
X177857500Y-53080000D01*
X177890000Y-53081694D01*
X177958612Y-53074936D01*
X177990000Y-53065415D01*
X178021388Y-53074936D01*
X178090000Y-53081694D01*
X178122500Y-53080000D01*
X178210000Y-52992500D01*
X178210000Y-52873797D01*
X178214923Y-52864587D01*
X178234936Y-52798612D01*
X178240000Y-52747199D01*
X178245064Y-52798612D01*
X178265077Y-52864587D01*
X178270000Y-52873797D01*
X178270000Y-52992500D01*
X178357500Y-53080000D01*
X178390000Y-53081694D01*
X178458612Y-53074936D01*
X178490000Y-53065415D01*
X178521388Y-53074936D01*
X178590000Y-53081694D01*
X178622500Y-53080000D01*
X178710000Y-52992500D01*
X178710000Y-52873797D01*
X178714923Y-52864587D01*
X178734936Y-52798612D01*
X178740000Y-52747199D01*
X178745064Y-52798612D01*
X178765077Y-52864587D01*
X178770000Y-52873797D01*
X178770000Y-52992500D01*
X178857500Y-53080000D01*
X178890000Y-53081694D01*
X178958612Y-53074936D01*
X178990000Y-53065415D01*
X179021388Y-53074936D01*
X179090000Y-53081694D01*
X179122500Y-53080000D01*
X179210000Y-52992500D01*
X179210000Y-52873797D01*
X179214923Y-52864587D01*
X179234936Y-52798612D01*
X179240000Y-52747199D01*
X179245064Y-52798612D01*
X179265077Y-52864587D01*
X179270000Y-52873797D01*
X179270000Y-52992500D01*
X179357500Y-53080000D01*
X179390000Y-53081694D01*
X179458612Y-53074936D01*
X179490000Y-53065415D01*
X179521388Y-53074936D01*
X179590000Y-53081694D01*
X179622500Y-53080000D01*
X179710000Y-52992500D01*
X179710000Y-52873797D01*
X179714923Y-52864587D01*
X179734936Y-52798612D01*
X179740000Y-52747199D01*
X179745064Y-52798612D01*
X179765077Y-52864587D01*
X179770000Y-52873797D01*
X179770000Y-52992500D01*
X179857500Y-53080000D01*
X179890000Y-53081694D01*
X179958612Y-53074936D01*
X179990000Y-53065415D01*
X180021388Y-53074936D01*
X180090000Y-53081694D01*
X180122500Y-53080000D01*
X180210000Y-52992500D01*
X180210000Y-52873797D01*
X180214923Y-52864587D01*
X180234936Y-52798612D01*
X180240000Y-52747199D01*
X180245064Y-52798612D01*
X180265077Y-52864587D01*
X180270000Y-52873797D01*
X180270000Y-52992500D01*
X180357500Y-53080000D01*
X180390000Y-53081694D01*
X180458612Y-53074936D01*
X180490000Y-53065415D01*
X180521388Y-53074936D01*
X180590000Y-53081694D01*
X180622500Y-53080000D01*
X180710000Y-52992500D01*
X180710000Y-52873797D01*
X180714923Y-52864587D01*
X180734936Y-52798612D01*
X180740000Y-52747199D01*
X180745064Y-52798612D01*
X180765077Y-52864587D01*
X180770000Y-52873797D01*
X180770000Y-52992500D01*
X180857500Y-53080000D01*
X180890000Y-53081694D01*
X180958612Y-53074936D01*
X180990000Y-53065415D01*
X181021388Y-53074936D01*
X181090000Y-53081694D01*
X181122500Y-53080000D01*
X181210000Y-52992500D01*
X181210000Y-52873797D01*
X181214923Y-52864587D01*
X181234936Y-52798612D01*
X181240000Y-52747199D01*
X181245064Y-52798612D01*
X181265077Y-52864587D01*
X181270000Y-52873797D01*
X181270000Y-52992500D01*
X181357500Y-53080000D01*
X181390000Y-53081694D01*
X181458612Y-53074936D01*
X181490000Y-53065415D01*
X181521388Y-53074936D01*
X181590000Y-53081694D01*
X181622500Y-53080000D01*
X181710000Y-52992500D01*
X181710000Y-52873797D01*
X181714923Y-52864587D01*
X181734936Y-52798612D01*
X181740000Y-52747199D01*
X181745064Y-52798612D01*
X181765077Y-52864587D01*
X181770000Y-52873797D01*
X181770000Y-52992500D01*
X181857500Y-53080000D01*
X181890000Y-53081694D01*
X181958612Y-53074936D01*
X181990000Y-53065415D01*
X182021388Y-53074936D01*
X182090000Y-53081694D01*
X182122500Y-53080000D01*
X182210000Y-52992500D01*
X182210000Y-52873797D01*
X182214923Y-52864587D01*
X182234936Y-52798612D01*
X182240000Y-52747199D01*
X182245064Y-52798612D01*
X182265077Y-52864587D01*
X182270000Y-52873797D01*
X182270000Y-52992500D01*
X182357500Y-53080000D01*
X182390000Y-53081694D01*
X182458612Y-53074936D01*
X182490000Y-53065415D01*
X182521388Y-53074936D01*
X182590000Y-53081694D01*
X182622500Y-53080000D01*
X182710000Y-52992500D01*
X182710000Y-52873797D01*
X182714923Y-52864587D01*
X182734936Y-52798612D01*
X182740000Y-52747199D01*
X182745064Y-52798612D01*
X182765077Y-52864587D01*
X182770000Y-52873797D01*
X182770000Y-52992500D01*
X182857500Y-53080000D01*
X182890000Y-53081694D01*
X182958612Y-53074936D01*
X182990000Y-53065415D01*
X183021388Y-53074936D01*
X183090000Y-53081694D01*
X183122500Y-53080000D01*
X183210000Y-52992500D01*
X183210000Y-52873797D01*
X183214923Y-52864587D01*
X183234936Y-52798612D01*
X183240000Y-52747199D01*
X183245064Y-52798612D01*
X183265077Y-52864587D01*
X183270000Y-52873797D01*
X183270000Y-52992500D01*
X183357500Y-53080000D01*
X183390000Y-53081694D01*
X183458612Y-53074936D01*
X183490000Y-53065415D01*
X183521388Y-53074936D01*
X183590000Y-53081694D01*
X183622500Y-53080000D01*
X183710000Y-52992500D01*
X183710000Y-52873797D01*
X183714923Y-52864587D01*
X183734936Y-52798612D01*
X183741694Y-52730000D01*
X183740000Y-52032500D01*
X183710000Y-52002500D01*
X183710000Y-51945000D01*
X183770000Y-51945000D01*
X183770000Y-52992500D01*
X183857500Y-53080000D01*
X183890000Y-53081694D01*
X183958612Y-53074936D01*
X184024587Y-53054923D01*
X184085391Y-53022423D01*
X184138685Y-52978685D01*
X184182423Y-52925391D01*
X184214923Y-52864587D01*
X184234936Y-52798612D01*
X184241694Y-52730000D01*
X184240632Y-52292361D01*
X184356414Y-52292361D01*
X184373343Y-52479519D01*
X184426460Y-52659777D01*
X184513721Y-52826210D01*
X184522210Y-52838914D01*
X184678180Y-52894393D01*
X185272574Y-52300000D01*
X184678180Y-51705607D01*
X184522210Y-51761086D01*
X184432306Y-51926107D01*
X184376324Y-52105497D01*
X184356414Y-52292361D01*
X184240632Y-52292361D01*
X184240000Y-52032500D01*
X184152500Y-51945000D01*
X183770000Y-51945000D01*
X183710000Y-51945000D01*
X183270000Y-51945000D01*
X183270000Y-52002500D01*
X183240000Y-52032500D01*
X183210000Y-52002500D01*
X183210000Y-51945000D01*
X182770000Y-51945000D01*
X182770000Y-52002500D01*
X182740000Y-52032500D01*
X182710000Y-52002500D01*
X182710000Y-51945000D01*
X182270000Y-51945000D01*
X182270000Y-52002500D01*
X182240000Y-52032500D01*
X182210000Y-52002500D01*
X182210000Y-51945000D01*
X181770000Y-51945000D01*
X181770000Y-52002500D01*
X181740000Y-52032500D01*
X181710000Y-52002500D01*
X181710000Y-51945000D01*
X181270000Y-51945000D01*
X181270000Y-52002500D01*
X181240000Y-52032500D01*
X181210000Y-52002500D01*
X181210000Y-51945000D01*
X180770000Y-51945000D01*
X180770000Y-52002500D01*
X180740000Y-52032500D01*
X180710000Y-52002500D01*
X180710000Y-51945000D01*
X180270000Y-51945000D01*
X180270000Y-52002500D01*
X180240000Y-52032500D01*
X180210000Y-52002500D01*
X180210000Y-51945000D01*
X179770000Y-51945000D01*
X179770000Y-52002500D01*
X179740000Y-52032500D01*
X179710000Y-52002500D01*
X179710000Y-51945000D01*
X179270000Y-51945000D01*
X179270000Y-52002500D01*
X179240000Y-52032500D01*
X179210000Y-52002500D01*
X179210000Y-51945000D01*
X178770000Y-51945000D01*
X178770000Y-52002500D01*
X178740000Y-52032500D01*
X178710000Y-52002500D01*
X178710000Y-51945000D01*
X178270000Y-51945000D01*
X178270000Y-52002500D01*
X178240000Y-52032500D01*
X178210000Y-52002500D01*
X178210000Y-51945000D01*
X177770000Y-51945000D01*
X177770000Y-52002500D01*
X177740000Y-52032500D01*
X177710000Y-52002500D01*
X177710000Y-51945000D01*
X177270000Y-51945000D01*
X177270000Y-52002500D01*
X177240000Y-52032500D01*
X177210000Y-52002500D01*
X177210000Y-51945000D01*
X176770000Y-51945000D01*
X176770000Y-52002500D01*
X176740000Y-52032500D01*
X176710000Y-52002500D01*
X176710000Y-51945000D01*
X176270000Y-51945000D01*
X176270000Y-52002500D01*
X176240000Y-52032500D01*
X176210000Y-52002500D01*
X176210000Y-51945000D01*
X175770000Y-51945000D01*
X175770000Y-52002500D01*
X175740000Y-52032500D01*
X175710000Y-52002500D01*
X175710000Y-51945000D01*
X175270000Y-51945000D01*
X175270000Y-52002500D01*
X175240000Y-52032500D01*
X175210000Y-52002500D01*
X175210000Y-51945000D01*
X174770000Y-51945000D01*
X174770000Y-52002500D01*
X174740000Y-52032500D01*
X174710000Y-52002500D01*
X174710000Y-51945000D01*
X174270000Y-51945000D01*
X174270000Y-52002500D01*
X174240000Y-52032500D01*
X174238306Y-52730000D01*
X174210000Y-52730000D01*
X174210000Y-51945000D01*
X173827500Y-51945000D01*
X173740000Y-52032500D01*
X173738306Y-52730000D01*
X173517126Y-52730000D01*
X173547694Y-52673893D01*
X173603676Y-52494503D01*
X173623586Y-52307639D01*
X173606657Y-52120481D01*
X173553540Y-51940223D01*
X173466279Y-51773790D01*
X173457790Y-51761086D01*
X173301820Y-51705607D01*
X172707426Y-52300000D01*
X172622574Y-52300000D01*
X172028180Y-51705607D01*
X171872210Y-51761086D01*
X171782306Y-51926107D01*
X171726324Y-52105497D01*
X171706414Y-52292361D01*
X171723343Y-52479519D01*
X171776460Y-52659777D01*
X171863721Y-52826210D01*
X171872210Y-52838914D01*
X172028179Y-52894392D01*
X171988631Y-52933940D01*
X171926434Y-52946312D01*
X171730797Y-53027348D01*
X171593749Y-53118920D01*
X171535424Y-52978112D01*
X171431020Y-52821860D01*
X171298140Y-52688980D01*
X171141888Y-52584576D01*
X170968272Y-52512662D01*
X170783961Y-52476000D01*
X170596039Y-52476000D01*
X170411728Y-52512662D01*
X170238112Y-52584576D01*
X170081860Y-52688980D01*
X169948980Y-52821860D01*
X169844576Y-52978112D01*
X169772662Y-53151728D01*
X169736000Y-53336039D01*
X160410000Y-53336039D01*
X160410000Y-51086039D01*
X169736000Y-51086039D01*
X169736000Y-51273961D01*
X169772662Y-51458272D01*
X169844576Y-51631888D01*
X169948980Y-51788140D01*
X170081860Y-51921020D01*
X170238112Y-52025424D01*
X170411728Y-52097338D01*
X170596039Y-52134000D01*
X170783961Y-52134000D01*
X170968272Y-52097338D01*
X171141888Y-52025424D01*
X171298140Y-51921020D01*
X171431020Y-51788140D01*
X171514515Y-51663180D01*
X172070607Y-51663180D01*
X172665000Y-52257574D01*
X173259393Y-51663180D01*
X173203914Y-51507210D01*
X173038893Y-51417306D01*
X172859503Y-51361324D01*
X172672639Y-51341414D01*
X172485481Y-51358343D01*
X172305223Y-51411460D01*
X172138790Y-51498721D01*
X172126086Y-51507210D01*
X172070607Y-51663180D01*
X171514515Y-51663180D01*
X171535424Y-51631888D01*
X171607338Y-51458272D01*
X171644000Y-51273961D01*
X171644000Y-51100000D01*
X173738306Y-51100000D01*
X173740000Y-51797500D01*
X173827500Y-51885000D01*
X174210000Y-51885000D01*
X174210000Y-51100000D01*
X174238306Y-51100000D01*
X174240000Y-51797500D01*
X174270000Y-51827500D01*
X174270000Y-51885000D01*
X174710000Y-51885000D01*
X174710000Y-51827500D01*
X174740000Y-51797500D01*
X174770000Y-51827500D01*
X174770000Y-51885000D01*
X175210000Y-51885000D01*
X175210000Y-51827500D01*
X175240000Y-51797500D01*
X175270000Y-51827500D01*
X175270000Y-51885000D01*
X175710000Y-51885000D01*
X175710000Y-51827500D01*
X175740000Y-51797500D01*
X175770000Y-51827500D01*
X175770000Y-51885000D01*
X176210000Y-51885000D01*
X176210000Y-51827500D01*
X176240000Y-51797500D01*
X176270000Y-51827500D01*
X176270000Y-51885000D01*
X176710000Y-51885000D01*
X176710000Y-51827500D01*
X176740000Y-51797500D01*
X176770000Y-51827500D01*
X176770000Y-51885000D01*
X177210000Y-51885000D01*
X177210000Y-51827500D01*
X177240000Y-51797500D01*
X177270000Y-51827500D01*
X177270000Y-51885000D01*
X177710000Y-51885000D01*
X177710000Y-51827500D01*
X177740000Y-51797500D01*
X177770000Y-51827500D01*
X177770000Y-51885000D01*
X178210000Y-51885000D01*
X178210000Y-51827500D01*
X178240000Y-51797500D01*
X178270000Y-51827500D01*
X178270000Y-51885000D01*
X178710000Y-51885000D01*
X178710000Y-51827500D01*
X178740000Y-51797500D01*
X178770000Y-51827500D01*
X178770000Y-51885000D01*
X179210000Y-51885000D01*
X179210000Y-51827500D01*
X179240000Y-51797500D01*
X179270000Y-51827500D01*
X179270000Y-51885000D01*
X179710000Y-51885000D01*
X179710000Y-51827500D01*
X179740000Y-51797500D01*
X179770000Y-51827500D01*
X179770000Y-51885000D01*
X180210000Y-51885000D01*
X180210000Y-51827500D01*
X180240000Y-51797500D01*
X180270000Y-51827500D01*
X180270000Y-51885000D01*
X180710000Y-51885000D01*
X180710000Y-51827500D01*
X180740000Y-51797500D01*
X180770000Y-51827500D01*
X180770000Y-51885000D01*
X181210000Y-51885000D01*
X181210000Y-51827500D01*
X181240000Y-51797500D01*
X181270000Y-51827500D01*
X181270000Y-51885000D01*
X181710000Y-51885000D01*
X181710000Y-51827500D01*
X181740000Y-51797500D01*
X181770000Y-51827500D01*
X181770000Y-51885000D01*
X182210000Y-51885000D01*
X182210000Y-51827500D01*
X182240000Y-51797500D01*
X182270000Y-51827500D01*
X182270000Y-51885000D01*
X182710000Y-51885000D01*
X182710000Y-51827500D01*
X182740000Y-51797500D01*
X182770000Y-51827500D01*
X182770000Y-51885000D01*
X183210000Y-51885000D01*
X183210000Y-51827500D01*
X183240000Y-51797500D01*
X183270000Y-51827500D01*
X183270000Y-51885000D01*
X183710000Y-51885000D01*
X183710000Y-51827500D01*
X183740000Y-51797500D01*
X183741694Y-51100000D01*
X183734936Y-51031388D01*
X183714923Y-50965413D01*
X183710000Y-50956203D01*
X183710000Y-50837500D01*
X183770000Y-50837500D01*
X183770000Y-51885000D01*
X184152500Y-51885000D01*
X184240000Y-51797500D01*
X184240326Y-51663180D01*
X184720607Y-51663180D01*
X185315000Y-52257574D01*
X185909393Y-51663180D01*
X185853914Y-51507210D01*
X185688893Y-51417306D01*
X185509503Y-51361324D01*
X185322639Y-51341414D01*
X185135481Y-51358343D01*
X184955223Y-51411460D01*
X184788790Y-51498721D01*
X184776086Y-51507210D01*
X184720607Y-51663180D01*
X184240326Y-51663180D01*
X184241694Y-51100000D01*
X184240319Y-51086039D01*
X186336000Y-51086039D01*
X186336000Y-51273961D01*
X186372662Y-51458272D01*
X186444576Y-51631888D01*
X186548980Y-51788140D01*
X186681860Y-51921020D01*
X186838112Y-52025424D01*
X187011728Y-52097338D01*
X187196039Y-52134000D01*
X187383961Y-52134000D01*
X187568272Y-52097338D01*
X187741888Y-52025424D01*
X187898140Y-51921020D01*
X188031020Y-51788140D01*
X188135424Y-51631888D01*
X188207338Y-51458272D01*
X188244000Y-51273961D01*
X188244000Y-51086039D01*
X188207338Y-50901728D01*
X188135424Y-50728112D01*
X188031020Y-50571860D01*
X187898140Y-50438980D01*
X187741888Y-50334576D01*
X187568272Y-50262662D01*
X187383961Y-50226000D01*
X187196039Y-50226000D01*
X187011728Y-50262662D01*
X186838112Y-50334576D01*
X186681860Y-50438980D01*
X186548980Y-50571860D01*
X186444576Y-50728112D01*
X186372662Y-50901728D01*
X186336000Y-51086039D01*
X184240319Y-51086039D01*
X184234936Y-51031388D01*
X184214923Y-50965413D01*
X184182423Y-50904609D01*
X184138685Y-50851315D01*
X184085391Y-50807577D01*
X184024587Y-50775077D01*
X183958612Y-50755064D01*
X183890000Y-50748306D01*
X183857500Y-50750000D01*
X183770000Y-50837500D01*
X183710000Y-50837500D01*
X183622500Y-50750000D01*
X183590000Y-50748306D01*
X183521388Y-50755064D01*
X183490000Y-50764585D01*
X183458612Y-50755064D01*
X183390000Y-50748306D01*
X183357500Y-50750000D01*
X183270000Y-50837500D01*
X183270000Y-50956203D01*
X183265077Y-50965413D01*
X183245064Y-51031388D01*
X183240000Y-51082801D01*
X183234936Y-51031388D01*
X183214923Y-50965413D01*
X183210000Y-50956203D01*
X183210000Y-50837500D01*
X183122500Y-50750000D01*
X183090000Y-50748306D01*
X183021388Y-50755064D01*
X182990000Y-50764585D01*
X182958612Y-50755064D01*
X182890000Y-50748306D01*
X182857500Y-50750000D01*
X182770000Y-50837500D01*
X182770000Y-50956203D01*
X182765077Y-50965413D01*
X182745064Y-51031388D01*
X182740000Y-51082801D01*
X182734936Y-51031388D01*
X182714923Y-50965413D01*
X182710000Y-50956203D01*
X182710000Y-50837500D01*
X182622500Y-50750000D01*
X182590000Y-50748306D01*
X182521388Y-50755064D01*
X182490000Y-50764585D01*
X182458612Y-50755064D01*
X182390000Y-50748306D01*
X182357500Y-50750000D01*
X182270000Y-50837500D01*
X182270000Y-50956203D01*
X182265077Y-50965413D01*
X182245064Y-51031388D01*
X182240000Y-51082801D01*
X182234936Y-51031388D01*
X182214923Y-50965413D01*
X182210000Y-50956203D01*
X182210000Y-50837500D01*
X182122500Y-50750000D01*
X182090000Y-50748306D01*
X182021388Y-50755064D01*
X181990000Y-50764585D01*
X181958612Y-50755064D01*
X181890000Y-50748306D01*
X181857500Y-50750000D01*
X181770000Y-50837500D01*
X181770000Y-50956203D01*
X181765077Y-50965413D01*
X181745064Y-51031388D01*
X181740000Y-51082801D01*
X181734936Y-51031388D01*
X181714923Y-50965413D01*
X181710000Y-50956203D01*
X181710000Y-50837500D01*
X181622500Y-50750000D01*
X181590000Y-50748306D01*
X181521388Y-50755064D01*
X181490000Y-50764585D01*
X181458612Y-50755064D01*
X181390000Y-50748306D01*
X181357500Y-50750000D01*
X181270000Y-50837500D01*
X181270000Y-50956203D01*
X181265077Y-50965413D01*
X181245064Y-51031388D01*
X181240000Y-51082801D01*
X181234936Y-51031388D01*
X181214923Y-50965413D01*
X181210000Y-50956203D01*
X181210000Y-50837500D01*
X181122500Y-50750000D01*
X181090000Y-50748306D01*
X181021388Y-50755064D01*
X180990000Y-50764585D01*
X180958612Y-50755064D01*
X180890000Y-50748306D01*
X180857500Y-50750000D01*
X180770000Y-50837500D01*
X180770000Y-50956203D01*
X180765077Y-50965413D01*
X180745064Y-51031388D01*
X180740000Y-51082801D01*
X180734936Y-51031388D01*
X180714923Y-50965413D01*
X180710000Y-50956203D01*
X180710000Y-50837500D01*
X180622500Y-50750000D01*
X180590000Y-50748306D01*
X180521388Y-50755064D01*
X180490000Y-50764585D01*
X180458612Y-50755064D01*
X180390000Y-50748306D01*
X180357500Y-50750000D01*
X180270000Y-50837500D01*
X180270000Y-50956203D01*
X180265077Y-50965413D01*
X180245064Y-51031388D01*
X180240000Y-51082801D01*
X180234936Y-51031388D01*
X180214923Y-50965413D01*
X180210000Y-50956203D01*
X180210000Y-50837500D01*
X180122500Y-50750000D01*
X180090000Y-50748306D01*
X180021388Y-50755064D01*
X179990000Y-50764585D01*
X179958612Y-50755064D01*
X179890000Y-50748306D01*
X179857500Y-50750000D01*
X179770000Y-50837500D01*
X179770000Y-50956203D01*
X179765077Y-50965413D01*
X179745064Y-51031388D01*
X179740000Y-51082801D01*
X179734936Y-51031388D01*
X179714923Y-50965413D01*
X179710000Y-50956203D01*
X179710000Y-50837500D01*
X179622500Y-50750000D01*
X179590000Y-50748306D01*
X179521388Y-50755064D01*
X179490000Y-50764585D01*
X179458612Y-50755064D01*
X179390000Y-50748306D01*
X179357500Y-50750000D01*
X179270000Y-50837500D01*
X179270000Y-50956203D01*
X179265077Y-50965413D01*
X179245064Y-51031388D01*
X179240000Y-51082801D01*
X179234936Y-51031388D01*
X179214923Y-50965413D01*
X179210000Y-50956203D01*
X179210000Y-50837500D01*
X179122500Y-50750000D01*
X179090000Y-50748306D01*
X179021388Y-50755064D01*
X178990000Y-50764585D01*
X178958612Y-50755064D01*
X178890000Y-50748306D01*
X178857500Y-50750000D01*
X178770000Y-50837500D01*
X178770000Y-50956203D01*
X178765077Y-50965413D01*
X178745064Y-51031388D01*
X178740000Y-51082801D01*
X178734936Y-51031388D01*
X178714923Y-50965413D01*
X178710000Y-50956203D01*
X178710000Y-50837500D01*
X178622500Y-50750000D01*
X178590000Y-50748306D01*
X178521388Y-50755064D01*
X178490000Y-50764585D01*
X178458612Y-50755064D01*
X178390000Y-50748306D01*
X178357500Y-50750000D01*
X178270000Y-50837500D01*
X178270000Y-50956203D01*
X178265077Y-50965413D01*
X178245064Y-51031388D01*
X178240000Y-51082801D01*
X178234936Y-51031388D01*
X178214923Y-50965413D01*
X178210000Y-50956203D01*
X178210000Y-50837500D01*
X178122500Y-50750000D01*
X178090000Y-50748306D01*
X178021388Y-50755064D01*
X177990000Y-50764585D01*
X177958612Y-50755064D01*
X177890000Y-50748306D01*
X177857500Y-50750000D01*
X177770000Y-50837500D01*
X177770000Y-50956203D01*
X177765077Y-50965413D01*
X177745064Y-51031388D01*
X177740000Y-51082801D01*
X177734936Y-51031388D01*
X177714923Y-50965413D01*
X177710000Y-50956203D01*
X177710000Y-50837500D01*
X177622500Y-50750000D01*
X177590000Y-50748306D01*
X177521388Y-50755064D01*
X177490000Y-50764585D01*
X177458612Y-50755064D01*
X177390000Y-50748306D01*
X177357500Y-50750000D01*
X177270000Y-50837500D01*
X177270000Y-50956203D01*
X177265077Y-50965413D01*
X177245064Y-51031388D01*
X177240000Y-51082801D01*
X177234936Y-51031388D01*
X177214923Y-50965413D01*
X177210000Y-50956203D01*
X177210000Y-50837500D01*
X177122500Y-50750000D01*
X177090000Y-50748306D01*
X177021388Y-50755064D01*
X176990000Y-50764585D01*
X176958612Y-50755064D01*
X176890000Y-50748306D01*
X176857500Y-50750000D01*
X176770000Y-50837500D01*
X176770000Y-50956203D01*
X176765077Y-50965413D01*
X176745064Y-51031388D01*
X176740000Y-51082801D01*
X176734936Y-51031388D01*
X176714923Y-50965413D01*
X176710000Y-50956203D01*
X176710000Y-50837500D01*
X176622500Y-50750000D01*
X176590000Y-50748306D01*
X176521388Y-50755064D01*
X176490000Y-50764585D01*
X176458612Y-50755064D01*
X176390000Y-50748306D01*
X176357500Y-50750000D01*
X176270000Y-50837500D01*
X176270000Y-50956203D01*
X176265077Y-50965413D01*
X176245064Y-51031388D01*
X176240000Y-51082801D01*
X176234936Y-51031388D01*
X176214923Y-50965413D01*
X176210000Y-50956203D01*
X176210000Y-50837500D01*
X176122500Y-50750000D01*
X176090000Y-50748306D01*
X176021388Y-50755064D01*
X175990000Y-50764585D01*
X175958612Y-50755064D01*
X175890000Y-50748306D01*
X175857500Y-50750000D01*
X175770000Y-50837500D01*
X175770000Y-50956203D01*
X175765077Y-50965413D01*
X175745064Y-51031388D01*
X175740000Y-51082801D01*
X175734936Y-51031388D01*
X175714923Y-50965413D01*
X175710000Y-50956203D01*
X175710000Y-50837500D01*
X175622500Y-50750000D01*
X175590000Y-50748306D01*
X175521388Y-50755064D01*
X175490000Y-50764585D01*
X175458612Y-50755064D01*
X175390000Y-50748306D01*
X175357500Y-50750000D01*
X175270000Y-50837500D01*
X175270000Y-50956203D01*
X175265077Y-50965413D01*
X175245064Y-51031388D01*
X175240000Y-51082801D01*
X175234936Y-51031388D01*
X175214923Y-50965413D01*
X175210000Y-50956203D01*
X175210000Y-50837500D01*
X175122500Y-50750000D01*
X175090000Y-50748306D01*
X175021388Y-50755064D01*
X174990000Y-50764585D01*
X174958612Y-50755064D01*
X174890000Y-50748306D01*
X174857500Y-50750000D01*
X174770000Y-50837500D01*
X174770000Y-50956203D01*
X174765077Y-50965413D01*
X174745064Y-51031388D01*
X174740000Y-51082801D01*
X174734936Y-51031388D01*
X174714923Y-50965413D01*
X174710000Y-50956203D01*
X174710000Y-50837500D01*
X174622500Y-50750000D01*
X174590000Y-50748306D01*
X174521388Y-50755064D01*
X174490000Y-50764585D01*
X174458612Y-50755064D01*
X174390000Y-50748306D01*
X174357500Y-50750000D01*
X174270000Y-50837500D01*
X174270000Y-50956203D01*
X174265077Y-50965413D01*
X174245064Y-51031388D01*
X174238306Y-51100000D01*
X174210000Y-51100000D01*
X174210000Y-50837500D01*
X174122500Y-50750000D01*
X174090000Y-50748306D01*
X174021388Y-50755064D01*
X173955413Y-50775077D01*
X173894609Y-50807577D01*
X173841315Y-50851315D01*
X173797577Y-50904609D01*
X173765077Y-50965413D01*
X173745064Y-51031388D01*
X173738306Y-51100000D01*
X171644000Y-51100000D01*
X171644000Y-51086039D01*
X171607338Y-50901728D01*
X171535424Y-50728112D01*
X171431020Y-50571860D01*
X171298140Y-50438980D01*
X171141888Y-50334576D01*
X170968272Y-50262662D01*
X170783961Y-50226000D01*
X170596039Y-50226000D01*
X170411728Y-50262662D01*
X170238112Y-50334576D01*
X170081860Y-50438980D01*
X169948980Y-50571860D01*
X169844576Y-50728112D01*
X169772662Y-50901728D01*
X169736000Y-51086039D01*
X160410000Y-51086039D01*
X160410000Y-49940000D01*
X197590000Y-49940000D01*
X197590001Y-101120000D01*
M02*
