G04 #@! TF.GenerationSoftware,KiCad,Pcbnew,(5.1.0)-1*
G04 #@! TF.CreationDate,2021-08-05T13:01:27-06:00*
G04 #@! TF.ProjectId,_autosave-Igloo19,5f617574-6f73-4617-9665-2d49676c6f6f,rev?*
G04 #@! TF.SameCoordinates,Original*
G04 #@! TF.FileFunction,Soldermask,Bot*
G04 #@! TF.FilePolarity,Negative*
%FSLAX46Y46*%
G04 Gerber Fmt 4.6, Leading zero omitted, Abs format (unit mm)*
G04 Created by KiCad (PCBNEW (5.1.0)-1) date 2021-08-05 13:01:27*
%MOMM*%
%LPD*%
G04 APERTURE LIST*
%ADD10C,0.100000*%
G04 APERTURE END LIST*
D10*
G36*
X198120000Y-90170000D02*
G01*
X160020000Y-90170000D01*
X160020000Y-59690000D01*
X198120000Y-59690000D01*
X198120000Y-90170000D01*
G37*
X198120000Y-90170000D02*
X160020000Y-90170000D01*
X160020000Y-59690000D01*
X198120000Y-59690000D01*
X198120000Y-90170000D01*
G36*
X187461055Y-99270171D02*
G01*
X187580257Y-99319546D01*
X187580259Y-99319547D01*
X187687538Y-99391228D01*
X187778772Y-99482462D01*
X187850453Y-99589741D01*
X187850454Y-99589743D01*
X187899829Y-99708945D01*
X187925000Y-99835487D01*
X187925000Y-99964513D01*
X187899829Y-100091055D01*
X187850454Y-100210257D01*
X187850453Y-100210259D01*
X187778772Y-100317538D01*
X187687538Y-100408772D01*
X187580259Y-100480453D01*
X187580258Y-100480454D01*
X187580257Y-100480454D01*
X187461055Y-100529829D01*
X187334513Y-100555000D01*
X187205487Y-100555000D01*
X187078945Y-100529829D01*
X186959743Y-100480454D01*
X186959742Y-100480454D01*
X186959741Y-100480453D01*
X186852462Y-100408772D01*
X186761228Y-100317538D01*
X186689547Y-100210259D01*
X186689546Y-100210257D01*
X186640171Y-100091055D01*
X186615000Y-99964513D01*
X186615000Y-99835487D01*
X186640171Y-99708945D01*
X186689546Y-99589743D01*
X186689547Y-99589741D01*
X186761228Y-99482462D01*
X186852462Y-99391228D01*
X186959741Y-99319547D01*
X186959743Y-99319546D01*
X187078945Y-99270171D01*
X187205487Y-99245000D01*
X187334513Y-99245000D01*
X187461055Y-99270171D01*
X187461055Y-99270171D01*
G37*
G36*
X170861055Y-99270171D02*
G01*
X170980257Y-99319546D01*
X170980259Y-99319547D01*
X171087538Y-99391228D01*
X171178772Y-99482462D01*
X171250453Y-99589741D01*
X171250454Y-99589743D01*
X171299829Y-99708945D01*
X171325000Y-99835487D01*
X171325000Y-99964513D01*
X171299829Y-100091055D01*
X171250454Y-100210257D01*
X171250453Y-100210259D01*
X171178772Y-100317538D01*
X171087538Y-100408772D01*
X170980259Y-100480453D01*
X170980258Y-100480454D01*
X170980257Y-100480454D01*
X170861055Y-100529829D01*
X170734513Y-100555000D01*
X170605487Y-100555000D01*
X170478945Y-100529829D01*
X170359743Y-100480454D01*
X170359742Y-100480454D01*
X170359741Y-100480453D01*
X170252462Y-100408772D01*
X170161228Y-100317538D01*
X170089547Y-100210259D01*
X170089546Y-100210257D01*
X170040171Y-100091055D01*
X170015000Y-99964513D01*
X170015000Y-99835487D01*
X170040171Y-99708945D01*
X170089546Y-99589743D01*
X170089547Y-99589741D01*
X170161228Y-99482462D01*
X170252462Y-99391228D01*
X170359741Y-99319547D01*
X170359743Y-99319546D01*
X170478945Y-99270171D01*
X170605487Y-99245000D01*
X170734513Y-99245000D01*
X170861055Y-99270171D01*
X170861055Y-99270171D01*
G37*
G36*
X183921000Y-100031000D02*
G01*
X174019000Y-100031000D01*
X174019000Y-98299000D01*
X183921000Y-98299000D01*
X183921000Y-100031000D01*
X183921000Y-100031000D01*
G37*
G36*
X172836055Y-98150171D02*
G01*
X172955257Y-98199546D01*
X172955259Y-98199547D01*
X173062538Y-98271228D01*
X173153772Y-98362462D01*
X173225453Y-98469741D01*
X173225454Y-98469743D01*
X173274829Y-98588945D01*
X173300000Y-98715487D01*
X173300000Y-98844513D01*
X173274829Y-98971055D01*
X173225454Y-99090257D01*
X173225453Y-99090259D01*
X173153772Y-99197538D01*
X173062538Y-99288772D01*
X172955259Y-99360453D01*
X172955258Y-99360454D01*
X172955257Y-99360454D01*
X172836055Y-99409829D01*
X172709513Y-99435000D01*
X172580487Y-99435000D01*
X172453945Y-99409829D01*
X172334743Y-99360454D01*
X172334742Y-99360454D01*
X172334741Y-99360453D01*
X172227462Y-99288772D01*
X172136228Y-99197538D01*
X172064547Y-99090259D01*
X172064546Y-99090257D01*
X172015171Y-98971055D01*
X171990000Y-98844513D01*
X171990000Y-98715487D01*
X172015171Y-98588945D01*
X172064546Y-98469743D01*
X172064547Y-98469741D01*
X172136228Y-98362462D01*
X172227462Y-98271228D01*
X172334741Y-98199547D01*
X172334743Y-98199546D01*
X172453945Y-98150171D01*
X172580487Y-98125000D01*
X172709513Y-98125000D01*
X172836055Y-98150171D01*
X172836055Y-98150171D01*
G37*
G36*
X185486055Y-98150171D02*
G01*
X185605257Y-98199546D01*
X185605259Y-98199547D01*
X185712538Y-98271228D01*
X185803772Y-98362462D01*
X185875453Y-98469741D01*
X185875454Y-98469743D01*
X185924829Y-98588945D01*
X185950000Y-98715487D01*
X185950000Y-98844513D01*
X185924829Y-98971055D01*
X185875454Y-99090257D01*
X185875453Y-99090259D01*
X185803772Y-99197538D01*
X185712538Y-99288772D01*
X185605259Y-99360453D01*
X185605258Y-99360454D01*
X185605257Y-99360454D01*
X185486055Y-99409829D01*
X185359513Y-99435000D01*
X185230487Y-99435000D01*
X185103945Y-99409829D01*
X184984743Y-99360454D01*
X184984742Y-99360454D01*
X184984741Y-99360453D01*
X184877462Y-99288772D01*
X184786228Y-99197538D01*
X184714547Y-99090259D01*
X184714546Y-99090257D01*
X184665171Y-98971055D01*
X184640000Y-98844513D01*
X184640000Y-98715487D01*
X184665171Y-98588945D01*
X184714546Y-98469743D01*
X184714547Y-98469741D01*
X184786228Y-98362462D01*
X184877462Y-98271228D01*
X184984741Y-98199547D01*
X184984743Y-98199546D01*
X185103945Y-98150171D01*
X185230487Y-98125000D01*
X185359513Y-98125000D01*
X185486055Y-98150171D01*
X185486055Y-98150171D01*
G37*
G36*
X185946348Y-96353820D02*
G01*
X185946350Y-96353821D01*
X185946351Y-96353821D01*
X186087574Y-96412317D01*
X186087577Y-96412319D01*
X186214669Y-96497239D01*
X186322761Y-96605331D01*
X186407681Y-96732423D01*
X186407683Y-96732426D01*
X186466179Y-96873649D01*
X186466180Y-96873652D01*
X186496000Y-97023569D01*
X186496000Y-97176432D01*
X186490303Y-97205074D01*
X186487901Y-97229460D01*
X186490303Y-97253846D01*
X186497416Y-97277295D01*
X186508968Y-97298905D01*
X186524513Y-97317847D01*
X186543455Y-97333392D01*
X186565066Y-97344943D01*
X186588515Y-97352056D01*
X186612901Y-97354458D01*
X186637287Y-97352056D01*
X186660736Y-97344943D01*
X186682346Y-97333391D01*
X186701288Y-97317846D01*
X186716833Y-97298904D01*
X186761226Y-97232465D01*
X186761228Y-97232462D01*
X186852462Y-97141228D01*
X186959741Y-97069547D01*
X186959743Y-97069546D01*
X187078945Y-97020171D01*
X187205487Y-96995000D01*
X187334513Y-96995000D01*
X187461055Y-97020171D01*
X187580257Y-97069546D01*
X187580259Y-97069547D01*
X187687538Y-97141228D01*
X187778772Y-97232462D01*
X187850453Y-97339741D01*
X187850454Y-97339743D01*
X187899829Y-97458945D01*
X187925000Y-97585487D01*
X187925000Y-97714513D01*
X187899829Y-97841055D01*
X187897706Y-97846180D01*
X187850453Y-97960259D01*
X187778772Y-98067538D01*
X187687538Y-98158772D01*
X187580259Y-98230453D01*
X187580258Y-98230454D01*
X187580257Y-98230454D01*
X187461055Y-98279829D01*
X187334513Y-98305000D01*
X187205487Y-98305000D01*
X187078945Y-98279829D01*
X186959743Y-98230454D01*
X186959742Y-98230454D01*
X186959741Y-98230453D01*
X186852462Y-98158772D01*
X186761228Y-98067538D01*
X186689547Y-97960259D01*
X186642294Y-97846180D01*
X186640171Y-97841055D01*
X186615000Y-97714513D01*
X186615000Y-97578709D01*
X186616079Y-97567755D01*
X186613678Y-97543369D01*
X186606565Y-97519920D01*
X186595014Y-97498309D01*
X186579469Y-97479367D01*
X186560528Y-97463821D01*
X186538917Y-97452270D01*
X186515468Y-97445156D01*
X186491082Y-97442754D01*
X186466696Y-97445155D01*
X186443247Y-97452268D01*
X186421636Y-97463819D01*
X186402694Y-97479364D01*
X186387147Y-97498308D01*
X186322761Y-97594669D01*
X186214669Y-97702761D01*
X186087577Y-97787681D01*
X186087574Y-97787683D01*
X185946351Y-97846179D01*
X185946350Y-97846179D01*
X185946348Y-97846180D01*
X185796431Y-97876000D01*
X185643569Y-97876000D01*
X185493652Y-97846180D01*
X185493650Y-97846179D01*
X185493649Y-97846179D01*
X185352426Y-97787683D01*
X185352423Y-97787681D01*
X185225331Y-97702761D01*
X185117239Y-97594669D01*
X185032319Y-97467577D01*
X185032317Y-97467574D01*
X184973821Y-97326351D01*
X184968362Y-97298905D01*
X184944000Y-97176431D01*
X184944000Y-97023569D01*
X184973820Y-96873652D01*
X184973821Y-96873649D01*
X185032317Y-96732426D01*
X185032319Y-96732423D01*
X185117239Y-96605331D01*
X185225331Y-96497239D01*
X185352423Y-96412319D01*
X185352426Y-96412317D01*
X185493649Y-96353821D01*
X185493650Y-96353821D01*
X185493652Y-96353820D01*
X185643569Y-96324000D01*
X185796431Y-96324000D01*
X185946348Y-96353820D01*
X185946348Y-96353820D01*
G37*
G36*
X172446348Y-96353820D02*
G01*
X172446350Y-96353821D01*
X172446351Y-96353821D01*
X172587574Y-96412317D01*
X172587577Y-96412319D01*
X172714669Y-96497239D01*
X172822761Y-96605331D01*
X172907681Y-96732423D01*
X172907683Y-96732426D01*
X172966179Y-96873649D01*
X172966180Y-96873652D01*
X172996000Y-97023569D01*
X172996000Y-97176431D01*
X172971639Y-97298905D01*
X172966179Y-97326351D01*
X172907683Y-97467574D01*
X172907681Y-97467577D01*
X172822761Y-97594669D01*
X172714669Y-97702761D01*
X172587577Y-97787681D01*
X172587574Y-97787683D01*
X172446351Y-97846179D01*
X172446350Y-97846179D01*
X172446348Y-97846180D01*
X172296431Y-97876000D01*
X172143569Y-97876000D01*
X171993652Y-97846180D01*
X171993650Y-97846179D01*
X171993649Y-97846179D01*
X171852426Y-97787683D01*
X171852423Y-97787681D01*
X171725331Y-97702761D01*
X171617239Y-97594669D01*
X171552853Y-97498308D01*
X171537308Y-97479366D01*
X171518366Y-97463820D01*
X171496755Y-97452269D01*
X171473307Y-97445156D01*
X171448920Y-97442754D01*
X171424534Y-97445156D01*
X171401085Y-97452269D01*
X171379475Y-97463820D01*
X171360533Y-97479365D01*
X171344987Y-97498307D01*
X171333436Y-97519918D01*
X171326323Y-97543366D01*
X171323921Y-97567753D01*
X171325000Y-97578708D01*
X171325000Y-97714513D01*
X171299829Y-97841055D01*
X171297706Y-97846180D01*
X171250453Y-97960259D01*
X171178772Y-98067538D01*
X171087538Y-98158772D01*
X170980259Y-98230453D01*
X170980258Y-98230454D01*
X170980257Y-98230454D01*
X170861055Y-98279829D01*
X170734513Y-98305000D01*
X170605487Y-98305000D01*
X170478945Y-98279829D01*
X170359743Y-98230454D01*
X170359742Y-98230454D01*
X170359741Y-98230453D01*
X170252462Y-98158772D01*
X170161228Y-98067538D01*
X170089547Y-97960259D01*
X170042294Y-97846180D01*
X170040171Y-97841055D01*
X170015000Y-97714513D01*
X170015000Y-97585487D01*
X170040171Y-97458945D01*
X170089546Y-97339743D01*
X170089547Y-97339741D01*
X170161228Y-97232462D01*
X170252462Y-97141228D01*
X170359741Y-97069547D01*
X170359743Y-97069546D01*
X170478945Y-97020171D01*
X170605487Y-96995000D01*
X170734513Y-96995000D01*
X170861055Y-97020171D01*
X170980257Y-97069546D01*
X170980259Y-97069547D01*
X171087538Y-97141228D01*
X171178772Y-97232462D01*
X171178774Y-97232465D01*
X171223167Y-97298904D01*
X171238712Y-97317846D01*
X171257654Y-97333392D01*
X171279265Y-97344943D01*
X171302714Y-97352056D01*
X171327100Y-97354458D01*
X171351486Y-97352056D01*
X171374935Y-97344943D01*
X171396545Y-97333392D01*
X171415487Y-97317847D01*
X171431033Y-97298905D01*
X171442584Y-97277294D01*
X171449697Y-97253845D01*
X171452099Y-97229459D01*
X171449697Y-97205074D01*
X171444000Y-97176432D01*
X171444000Y-97023569D01*
X171473820Y-96873652D01*
X171473821Y-96873649D01*
X171532317Y-96732426D01*
X171532319Y-96732423D01*
X171617239Y-96605331D01*
X171725331Y-96497239D01*
X171852423Y-96412319D01*
X171852426Y-96412317D01*
X171993649Y-96353821D01*
X171993650Y-96353821D01*
X171993652Y-96353820D01*
X172143569Y-96324000D01*
X172296431Y-96324000D01*
X172446348Y-96353820D01*
X172446348Y-96353820D01*
G37*
G36*
X183921000Y-97451000D02*
G01*
X174019000Y-97451000D01*
X174019000Y-95549000D01*
X183921000Y-95549000D01*
X183921000Y-97451000D01*
X183921000Y-97451000D01*
G37*
G36*
X194328337Y-81339338D02*
G01*
X194490913Y-81371677D01*
X194617780Y-81424227D01*
X194797198Y-81498544D01*
X194797199Y-81498545D01*
X195072850Y-81682729D01*
X195307271Y-81917150D01*
X195307272Y-81917152D01*
X195491456Y-82192802D01*
X195618323Y-82499088D01*
X195683000Y-82824238D01*
X195683000Y-83155762D01*
X195618323Y-83480912D01*
X195491456Y-83787198D01*
X195491455Y-83787199D01*
X195307271Y-84062850D01*
X195072850Y-84297271D01*
X194934088Y-84389989D01*
X194797198Y-84481456D01*
X194659908Y-84538323D01*
X194490913Y-84608323D01*
X194328337Y-84640661D01*
X194165762Y-84673000D01*
X193834238Y-84673000D01*
X193671663Y-84640662D01*
X193509087Y-84608323D01*
X193340092Y-84538323D01*
X193202802Y-84481456D01*
X193065912Y-84389989D01*
X192927150Y-84297271D01*
X192692729Y-84062850D01*
X192508545Y-83787199D01*
X192508544Y-83787198D01*
X192381677Y-83480912D01*
X192317000Y-83155762D01*
X192317000Y-82824238D01*
X192381677Y-82499088D01*
X192508544Y-82192802D01*
X192692728Y-81917152D01*
X192692729Y-81917150D01*
X192927150Y-81682729D01*
X193202801Y-81498545D01*
X193202802Y-81498544D01*
X193382220Y-81424227D01*
X193509087Y-81371677D01*
X193671663Y-81339339D01*
X193834238Y-81307000D01*
X194165762Y-81307000D01*
X194328337Y-81339338D01*
X194328337Y-81339338D01*
G37*
G36*
X164328337Y-81269338D02*
G01*
X164490913Y-81301677D01*
X164617780Y-81354227D01*
X164797198Y-81428544D01*
X164934088Y-81520011D01*
X165072850Y-81612729D01*
X165307271Y-81847150D01*
X165307272Y-81847152D01*
X165491456Y-82122802D01*
X165618323Y-82429088D01*
X165683000Y-82754238D01*
X165683000Y-83085762D01*
X165618323Y-83410912D01*
X165491456Y-83717198D01*
X165491455Y-83717199D01*
X165307271Y-83992850D01*
X165072850Y-84227271D01*
X164968086Y-84297272D01*
X164797198Y-84411456D01*
X164628204Y-84481455D01*
X164490913Y-84538323D01*
X164328337Y-84570661D01*
X164165762Y-84603000D01*
X163834238Y-84603000D01*
X163671663Y-84570661D01*
X163509087Y-84538323D01*
X163371796Y-84481455D01*
X163202802Y-84411456D01*
X163031914Y-84297272D01*
X162927150Y-84227271D01*
X162692729Y-83992850D01*
X162508545Y-83717199D01*
X162508544Y-83717198D01*
X162381677Y-83410912D01*
X162317000Y-83085762D01*
X162317000Y-82754238D01*
X162381677Y-82429088D01*
X162508544Y-82122802D01*
X162692728Y-81847152D01*
X162692729Y-81847150D01*
X162927150Y-81612729D01*
X163065912Y-81520011D01*
X163202802Y-81428544D01*
X163382220Y-81354227D01*
X163509087Y-81301677D01*
X163671663Y-81269339D01*
X163834238Y-81237000D01*
X164165762Y-81237000D01*
X164328337Y-81269338D01*
X164328337Y-81269338D01*
G37*
G36*
X194328337Y-66339338D02*
G01*
X194490913Y-66371677D01*
X194617780Y-66424227D01*
X194797198Y-66498544D01*
X194797199Y-66498545D01*
X195072850Y-66682729D01*
X195307271Y-66917150D01*
X195307272Y-66917152D01*
X195491456Y-67192802D01*
X195618323Y-67499088D01*
X195683000Y-67824238D01*
X195683000Y-68155762D01*
X195618323Y-68480912D01*
X195491456Y-68787198D01*
X195491455Y-68787199D01*
X195307271Y-69062850D01*
X195072850Y-69297271D01*
X194934088Y-69389989D01*
X194797198Y-69481456D01*
X194617780Y-69555773D01*
X194490913Y-69608323D01*
X194328337Y-69640661D01*
X194165762Y-69673000D01*
X193834238Y-69673000D01*
X193671663Y-69640661D01*
X193509087Y-69608323D01*
X193382220Y-69555773D01*
X193202802Y-69481456D01*
X193065912Y-69389989D01*
X192927150Y-69297271D01*
X192692729Y-69062850D01*
X192508545Y-68787199D01*
X192508544Y-68787198D01*
X192381677Y-68480912D01*
X192317000Y-68155762D01*
X192317000Y-67824238D01*
X192381677Y-67499088D01*
X192508544Y-67192802D01*
X192692728Y-66917152D01*
X192692729Y-66917150D01*
X192927150Y-66682729D01*
X193202801Y-66498545D01*
X193202802Y-66498544D01*
X193382220Y-66424227D01*
X193509087Y-66371677D01*
X193671663Y-66339338D01*
X193834238Y-66307000D01*
X194165762Y-66307000D01*
X194328337Y-66339338D01*
X194328337Y-66339338D01*
G37*
G36*
X164328337Y-66339338D02*
G01*
X164490913Y-66371677D01*
X164617780Y-66424227D01*
X164797198Y-66498544D01*
X164797199Y-66498545D01*
X165072850Y-66682729D01*
X165307271Y-66917150D01*
X165307272Y-66917152D01*
X165491456Y-67192802D01*
X165618323Y-67499088D01*
X165683000Y-67824238D01*
X165683000Y-68155762D01*
X165618323Y-68480912D01*
X165491456Y-68787198D01*
X165491455Y-68787199D01*
X165307271Y-69062850D01*
X165072850Y-69297271D01*
X164934088Y-69389989D01*
X164797198Y-69481456D01*
X164617780Y-69555773D01*
X164490913Y-69608323D01*
X164328337Y-69640661D01*
X164165762Y-69673000D01*
X163834238Y-69673000D01*
X163671663Y-69640661D01*
X163509087Y-69608323D01*
X163382220Y-69555773D01*
X163202802Y-69481456D01*
X163065912Y-69389989D01*
X162927150Y-69297271D01*
X162692729Y-69062850D01*
X162508545Y-68787199D01*
X162508544Y-68787198D01*
X162381677Y-68480912D01*
X162317000Y-68155762D01*
X162317000Y-67824238D01*
X162381677Y-67499088D01*
X162508544Y-67192802D01*
X162692728Y-66917152D01*
X162692729Y-66917150D01*
X162927150Y-66682729D01*
X163202801Y-66498545D01*
X163202802Y-66498544D01*
X163382220Y-66424227D01*
X163509087Y-66371677D01*
X163671663Y-66339338D01*
X163834238Y-66307000D01*
X164165762Y-66307000D01*
X164328337Y-66339338D01*
X164328337Y-66339338D01*
G37*
G36*
X183941000Y-55531000D02*
G01*
X174039000Y-55531000D01*
X174039000Y-53629000D01*
X183941000Y-53629000D01*
X183941000Y-55531000D01*
X183941000Y-55531000D01*
G37*
G36*
X187481055Y-52800171D02*
G01*
X187600257Y-52849546D01*
X187600259Y-52849547D01*
X187707538Y-52921228D01*
X187798772Y-53012462D01*
X187870453Y-53119741D01*
X187870454Y-53119743D01*
X187919829Y-53238945D01*
X187945000Y-53365487D01*
X187945000Y-53494513D01*
X187919829Y-53621055D01*
X187913122Y-53637246D01*
X187870453Y-53740259D01*
X187798772Y-53847538D01*
X187707538Y-53938772D01*
X187600259Y-54010453D01*
X187600258Y-54010454D01*
X187600257Y-54010454D01*
X187481055Y-54059829D01*
X187354513Y-54085000D01*
X187225487Y-54085000D01*
X187098945Y-54059829D01*
X186979743Y-54010454D01*
X186979742Y-54010454D01*
X186979741Y-54010453D01*
X186872462Y-53938772D01*
X186781228Y-53847538D01*
X186736833Y-53781096D01*
X186721288Y-53762154D01*
X186702346Y-53746608D01*
X186680735Y-53735057D01*
X186657286Y-53727944D01*
X186632900Y-53725542D01*
X186608514Y-53727944D01*
X186585065Y-53735057D01*
X186563455Y-53746608D01*
X186544513Y-53762153D01*
X186528967Y-53781095D01*
X186517416Y-53802706D01*
X186510303Y-53826155D01*
X186507901Y-53850541D01*
X186510303Y-53874926D01*
X186516000Y-53903568D01*
X186516000Y-54056429D01*
X186486179Y-54206351D01*
X186427683Y-54347574D01*
X186427681Y-54347577D01*
X186342761Y-54474669D01*
X186234669Y-54582761D01*
X186107577Y-54667681D01*
X186107574Y-54667683D01*
X185966351Y-54726179D01*
X185966350Y-54726179D01*
X185966348Y-54726180D01*
X185816431Y-54756000D01*
X185663569Y-54756000D01*
X185513652Y-54726180D01*
X185513650Y-54726179D01*
X185513649Y-54726179D01*
X185372426Y-54667683D01*
X185372423Y-54667681D01*
X185245331Y-54582761D01*
X185137239Y-54474669D01*
X185052319Y-54347577D01*
X185052317Y-54347574D01*
X184993821Y-54206351D01*
X184964000Y-54056429D01*
X184964000Y-53903569D01*
X184993820Y-53753652D01*
X184996737Y-53746609D01*
X185052317Y-53612426D01*
X185060195Y-53600636D01*
X185137239Y-53485331D01*
X185245331Y-53377239D01*
X185372423Y-53292319D01*
X185372426Y-53292317D01*
X185513649Y-53233821D01*
X185513650Y-53233821D01*
X185513652Y-53233820D01*
X185663569Y-53204000D01*
X185816431Y-53204000D01*
X185966348Y-53233820D01*
X185966350Y-53233821D01*
X185966351Y-53233821D01*
X186107574Y-53292317D01*
X186107577Y-53292319D01*
X186234669Y-53377239D01*
X186342761Y-53485331D01*
X186407147Y-53581692D01*
X186422692Y-53600634D01*
X186441634Y-53616180D01*
X186463245Y-53627731D01*
X186486693Y-53634844D01*
X186511080Y-53637246D01*
X186535466Y-53634844D01*
X186558915Y-53627731D01*
X186580525Y-53616180D01*
X186599467Y-53600635D01*
X186615013Y-53581693D01*
X186626564Y-53560082D01*
X186633677Y-53536634D01*
X186636079Y-53512247D01*
X186635000Y-53501292D01*
X186635000Y-53365487D01*
X186660171Y-53238945D01*
X186709546Y-53119743D01*
X186709547Y-53119741D01*
X186781228Y-53012462D01*
X186872462Y-52921228D01*
X186979741Y-52849547D01*
X186979743Y-52849546D01*
X187098945Y-52800171D01*
X187225487Y-52775000D01*
X187354513Y-52775000D01*
X187481055Y-52800171D01*
X187481055Y-52800171D01*
G37*
G36*
X170881055Y-52800171D02*
G01*
X171000257Y-52849546D01*
X171000259Y-52849547D01*
X171107538Y-52921228D01*
X171198772Y-53012462D01*
X171270453Y-53119741D01*
X171270454Y-53119743D01*
X171319829Y-53238945D01*
X171345000Y-53365487D01*
X171345000Y-53501291D01*
X171343921Y-53512245D01*
X171346322Y-53536631D01*
X171353435Y-53560080D01*
X171364986Y-53581691D01*
X171380531Y-53600633D01*
X171399472Y-53616179D01*
X171421083Y-53627730D01*
X171444532Y-53634844D01*
X171468918Y-53637246D01*
X171493304Y-53634845D01*
X171516753Y-53627732D01*
X171538364Y-53616181D01*
X171557306Y-53600636D01*
X171572853Y-53581692D01*
X171637239Y-53485331D01*
X171745331Y-53377239D01*
X171872423Y-53292319D01*
X171872426Y-53292317D01*
X172013649Y-53233821D01*
X172013650Y-53233821D01*
X172013652Y-53233820D01*
X172163569Y-53204000D01*
X172316431Y-53204000D01*
X172466348Y-53233820D01*
X172466350Y-53233821D01*
X172466351Y-53233821D01*
X172607574Y-53292317D01*
X172607577Y-53292319D01*
X172734669Y-53377239D01*
X172842761Y-53485331D01*
X172919805Y-53600636D01*
X172927683Y-53612426D01*
X172983263Y-53746609D01*
X172986180Y-53753652D01*
X173016000Y-53903569D01*
X173016000Y-54056429D01*
X172986179Y-54206351D01*
X172927683Y-54347574D01*
X172927681Y-54347577D01*
X172842761Y-54474669D01*
X172734669Y-54582761D01*
X172607577Y-54667681D01*
X172607574Y-54667683D01*
X172466351Y-54726179D01*
X172466350Y-54726179D01*
X172466348Y-54726180D01*
X172316431Y-54756000D01*
X172163569Y-54756000D01*
X172013652Y-54726180D01*
X172013650Y-54726179D01*
X172013649Y-54726179D01*
X171872426Y-54667683D01*
X171872423Y-54667681D01*
X171745331Y-54582761D01*
X171637239Y-54474669D01*
X171552319Y-54347577D01*
X171552317Y-54347574D01*
X171493821Y-54206351D01*
X171464000Y-54056429D01*
X171464000Y-53903568D01*
X171469697Y-53874926D01*
X171472099Y-53850540D01*
X171469697Y-53826154D01*
X171462584Y-53802705D01*
X171451032Y-53781095D01*
X171435487Y-53762153D01*
X171416545Y-53746608D01*
X171394934Y-53735057D01*
X171371485Y-53727944D01*
X171347099Y-53725542D01*
X171322713Y-53727944D01*
X171299264Y-53735057D01*
X171277654Y-53746609D01*
X171258712Y-53762154D01*
X171243167Y-53781096D01*
X171198772Y-53847538D01*
X171107538Y-53938772D01*
X171000259Y-54010453D01*
X171000258Y-54010454D01*
X171000257Y-54010454D01*
X170881055Y-54059829D01*
X170754513Y-54085000D01*
X170625487Y-54085000D01*
X170498945Y-54059829D01*
X170379743Y-54010454D01*
X170379742Y-54010454D01*
X170379741Y-54010453D01*
X170272462Y-53938772D01*
X170181228Y-53847538D01*
X170109547Y-53740259D01*
X170066878Y-53637246D01*
X170060171Y-53621055D01*
X170035000Y-53494513D01*
X170035000Y-53365487D01*
X170060171Y-53238945D01*
X170109546Y-53119743D01*
X170109547Y-53119741D01*
X170181228Y-53012462D01*
X170272462Y-52921228D01*
X170379741Y-52849547D01*
X170379743Y-52849546D01*
X170498945Y-52800171D01*
X170625487Y-52775000D01*
X170754513Y-52775000D01*
X170881055Y-52800171D01*
X170881055Y-52800171D01*
G37*
G36*
X172856055Y-51670171D02*
G01*
X172975257Y-51719546D01*
X172975259Y-51719547D01*
X173082538Y-51791228D01*
X173173772Y-51882462D01*
X173245453Y-51989741D01*
X173245454Y-51989743D01*
X173294829Y-52108945D01*
X173320000Y-52235487D01*
X173320000Y-52364513D01*
X173294829Y-52491055D01*
X173245454Y-52610257D01*
X173245453Y-52610259D01*
X173173772Y-52717538D01*
X173082538Y-52808772D01*
X172975259Y-52880453D01*
X172975258Y-52880454D01*
X172975257Y-52880454D01*
X172856055Y-52929829D01*
X172729513Y-52955000D01*
X172600487Y-52955000D01*
X172473945Y-52929829D01*
X172354743Y-52880454D01*
X172354742Y-52880454D01*
X172354741Y-52880453D01*
X172247462Y-52808772D01*
X172156228Y-52717538D01*
X172084547Y-52610259D01*
X172084546Y-52610257D01*
X172035171Y-52491055D01*
X172010000Y-52364513D01*
X172010000Y-52235487D01*
X172035171Y-52108945D01*
X172084546Y-51989743D01*
X172084547Y-51989741D01*
X172156228Y-51882462D01*
X172247462Y-51791228D01*
X172354741Y-51719547D01*
X172354743Y-51719546D01*
X172473945Y-51670171D01*
X172600487Y-51645000D01*
X172729513Y-51645000D01*
X172856055Y-51670171D01*
X172856055Y-51670171D01*
G37*
G36*
X185506055Y-51670171D02*
G01*
X185625257Y-51719546D01*
X185625259Y-51719547D01*
X185732538Y-51791228D01*
X185823772Y-51882462D01*
X185895453Y-51989741D01*
X185895454Y-51989743D01*
X185944829Y-52108945D01*
X185970000Y-52235487D01*
X185970000Y-52364513D01*
X185944829Y-52491055D01*
X185895454Y-52610257D01*
X185895453Y-52610259D01*
X185823772Y-52717538D01*
X185732538Y-52808772D01*
X185625259Y-52880453D01*
X185625258Y-52880454D01*
X185625257Y-52880454D01*
X185506055Y-52929829D01*
X185379513Y-52955000D01*
X185250487Y-52955000D01*
X185123945Y-52929829D01*
X185004743Y-52880454D01*
X185004742Y-52880454D01*
X185004741Y-52880453D01*
X184897462Y-52808772D01*
X184806228Y-52717538D01*
X184734547Y-52610259D01*
X184734546Y-52610257D01*
X184685171Y-52491055D01*
X184660000Y-52364513D01*
X184660000Y-52235487D01*
X184685171Y-52108945D01*
X184734546Y-51989743D01*
X184734547Y-51989741D01*
X184806228Y-51882462D01*
X184897462Y-51791228D01*
X185004741Y-51719547D01*
X185004743Y-51719546D01*
X185123945Y-51670171D01*
X185250487Y-51645000D01*
X185379513Y-51645000D01*
X185506055Y-51670171D01*
X185506055Y-51670171D01*
G37*
G36*
X183941000Y-52781000D02*
G01*
X174039000Y-52781000D01*
X174039000Y-51049000D01*
X183941000Y-51049000D01*
X183941000Y-52781000D01*
X183941000Y-52781000D01*
G37*
G36*
X170881055Y-50550171D02*
G01*
X171000257Y-50599546D01*
X171000259Y-50599547D01*
X171107538Y-50671228D01*
X171198772Y-50762462D01*
X171270453Y-50869741D01*
X171270454Y-50869743D01*
X171319829Y-50988945D01*
X171345000Y-51115487D01*
X171345000Y-51244513D01*
X171319829Y-51371055D01*
X171270454Y-51490257D01*
X171270453Y-51490259D01*
X171198772Y-51597538D01*
X171107538Y-51688772D01*
X171000259Y-51760453D01*
X171000258Y-51760454D01*
X171000257Y-51760454D01*
X170881055Y-51809829D01*
X170754513Y-51835000D01*
X170625487Y-51835000D01*
X170498945Y-51809829D01*
X170379743Y-51760454D01*
X170379742Y-51760454D01*
X170379741Y-51760453D01*
X170272462Y-51688772D01*
X170181228Y-51597538D01*
X170109547Y-51490259D01*
X170109546Y-51490257D01*
X170060171Y-51371055D01*
X170035000Y-51244513D01*
X170035000Y-51115487D01*
X170060171Y-50988945D01*
X170109546Y-50869743D01*
X170109547Y-50869741D01*
X170181228Y-50762462D01*
X170272462Y-50671228D01*
X170379741Y-50599547D01*
X170379743Y-50599546D01*
X170498945Y-50550171D01*
X170625487Y-50525000D01*
X170754513Y-50525000D01*
X170881055Y-50550171D01*
X170881055Y-50550171D01*
G37*
G36*
X187481055Y-50550171D02*
G01*
X187600257Y-50599546D01*
X187600259Y-50599547D01*
X187707538Y-50671228D01*
X187798772Y-50762462D01*
X187870453Y-50869741D01*
X187870454Y-50869743D01*
X187919829Y-50988945D01*
X187945000Y-51115487D01*
X187945000Y-51244513D01*
X187919829Y-51371055D01*
X187870454Y-51490257D01*
X187870453Y-51490259D01*
X187798772Y-51597538D01*
X187707538Y-51688772D01*
X187600259Y-51760453D01*
X187600258Y-51760454D01*
X187600257Y-51760454D01*
X187481055Y-51809829D01*
X187354513Y-51835000D01*
X187225487Y-51835000D01*
X187098945Y-51809829D01*
X186979743Y-51760454D01*
X186979742Y-51760454D01*
X186979741Y-51760453D01*
X186872462Y-51688772D01*
X186781228Y-51597538D01*
X186709547Y-51490259D01*
X186709546Y-51490257D01*
X186660171Y-51371055D01*
X186635000Y-51244513D01*
X186635000Y-51115487D01*
X186660171Y-50988945D01*
X186709546Y-50869743D01*
X186709547Y-50869741D01*
X186781228Y-50762462D01*
X186872462Y-50671228D01*
X186979741Y-50599547D01*
X186979743Y-50599546D01*
X187098945Y-50550171D01*
X187225487Y-50525000D01*
X187354513Y-50525000D01*
X187481055Y-50550171D01*
X187481055Y-50550171D01*
G37*
M02*
