G04 #@! TF.GenerationSoftware,KiCad,Pcbnew,(5.1.0)-1*
G04 #@! TF.CreationDate,2021-08-05T13:01:27-06:00*
G04 #@! TF.ProjectId,_autosave-Igloo19,5f617574-6f73-4617-9665-2d49676c6f6f,rev?*
G04 #@! TF.SameCoordinates,Original*
G04 #@! TF.FileFunction,Copper,L1,Top*
G04 #@! TF.FilePolarity,Positive*
%FSLAX46Y46*%
G04 Gerber Fmt 4.6, Leading zero omitted, Abs format (unit mm)*
G04 Created by KiCad (PCBNEW (5.1.0)-1) date 2021-08-05 13:01:27*
%MOMM*%
%LPD*%
G04 APERTURE LIST*
%ADD10C,1.208000*%
%ADD11R,0.381000X1.250000*%
%ADD12C,0.800000*%
%ADD13C,0.250000*%
%ADD14C,0.100000*%
G04 APERTURE END LIST*
D10*
X185315000Y-52300000D03*
X187290000Y-51180000D03*
X187290000Y-53430000D03*
X172665000Y-52300000D03*
X170690000Y-51180000D03*
X170690000Y-53430000D03*
D11*
X184453500Y-67410000D03*
X183253500Y-67410000D03*
X182053500Y-67410000D03*
X180853500Y-67410000D03*
X179653500Y-67410000D03*
X178453500Y-67410000D03*
X177253500Y-67410000D03*
X176053500Y-67410000D03*
X174853500Y-67410000D03*
X173653500Y-67410000D03*
X173533500Y-83670000D03*
X174733500Y-83670000D03*
X175933500Y-83670000D03*
X177133500Y-83670000D03*
X178333500Y-83670000D03*
X179533500Y-83670000D03*
X180733500Y-83670000D03*
X181933500Y-83670000D03*
X183133500Y-83670000D03*
X184333500Y-83670000D03*
D10*
X172645000Y-98780000D03*
X170670000Y-99900000D03*
X170670000Y-97650000D03*
X185295000Y-98780000D03*
X187270000Y-99900000D03*
X187270000Y-97650000D03*
D12*
X173990000Y-69250000D03*
X176530000Y-69250000D03*
X179070000Y-69250000D03*
X181610000Y-69250000D03*
X184150000Y-69250000D03*
X181610000Y-81950000D03*
X184150000Y-81950000D03*
X179070000Y-81950000D03*
X173990000Y-81950000D03*
X176530000Y-81950000D03*
X185320000Y-70450000D03*
X185320000Y-72990000D03*
X185320000Y-75530000D03*
X185320000Y-78070000D03*
X185320000Y-80610000D03*
X172720000Y-70450000D03*
X172720000Y-80610000D03*
X172720000Y-72990000D03*
X172720000Y-75530000D03*
X172720000Y-78070000D03*
X194310000Y-72390000D03*
X194310000Y-76200000D03*
X194310000Y-80010000D03*
X189230000Y-80010000D03*
X189230000Y-76200000D03*
X189230000Y-72390000D03*
X189230000Y-68580000D03*
X189230000Y-64770000D03*
X189230000Y-60960000D03*
X189230000Y-57150000D03*
X189230000Y-83820000D03*
X189230000Y-87630000D03*
X189230000Y-91440000D03*
X168910000Y-76200000D03*
X168910000Y-72390000D03*
X168910000Y-68580000D03*
X168910000Y-64770000D03*
X168910000Y-60960000D03*
X168910000Y-57150000D03*
X168910000Y-80010000D03*
X168910000Y-83820000D03*
X168910000Y-87630000D03*
X168910000Y-91440000D03*
X163830000Y-87630000D03*
X163830000Y-91440000D03*
X194310000Y-87630000D03*
X194310000Y-91440000D03*
X194310000Y-60960000D03*
X194310000Y-57150000D03*
X163830000Y-57150000D03*
X163830000Y-60960000D03*
X163830000Y-72390000D03*
X163830000Y-76200000D03*
X163830000Y-80010000D03*
X184370000Y-91440000D03*
X183170000Y-91440000D03*
X181970000Y-91440000D03*
X180770000Y-91440000D03*
X179570000Y-91440000D03*
X178370000Y-91440000D03*
X177170000Y-91440000D03*
X175970000Y-91440000D03*
X174770000Y-91440000D03*
X173570000Y-91440000D03*
X177340000Y-58440000D03*
X176140000Y-58440000D03*
X183340000Y-58440000D03*
X182140000Y-58440000D03*
X173740000Y-58440000D03*
X184540000Y-58440000D03*
X179740000Y-58440000D03*
X180940000Y-58440000D03*
X178540000Y-58440000D03*
X174940000Y-58440000D03*
D13*
X173583500Y-91426500D02*
X173570000Y-91440000D01*
X173533500Y-91403500D02*
X173570000Y-91440000D01*
X173533500Y-83670000D02*
X173533500Y-91403500D01*
X174783500Y-91426500D02*
X174770000Y-91440000D01*
X174733500Y-91403500D02*
X174770000Y-91440000D01*
X174733500Y-83670000D02*
X174733500Y-91403500D01*
X175983500Y-91426500D02*
X175970000Y-91440000D01*
X175933500Y-91403500D02*
X175970000Y-91440000D01*
X175933500Y-83670000D02*
X175933500Y-91403500D01*
X177183500Y-91426500D02*
X177170000Y-91440000D01*
X177133500Y-91403500D02*
X177170000Y-91440000D01*
X177133500Y-83670000D02*
X177133500Y-91403500D01*
X178383500Y-91426500D02*
X178370000Y-91440000D01*
X178333500Y-91403500D02*
X178370000Y-91440000D01*
X178333500Y-83670000D02*
X178333500Y-91403500D01*
X179583500Y-91426500D02*
X179570000Y-91440000D01*
X179533500Y-91403500D02*
X179570000Y-91440000D01*
X179533500Y-83670000D02*
X179533500Y-91403500D01*
X180783500Y-91426500D02*
X180770000Y-91440000D01*
X180733500Y-91403500D02*
X180770000Y-91440000D01*
X180733500Y-83670000D02*
X180733500Y-91403500D01*
X181983500Y-91426500D02*
X181970000Y-91440000D01*
X181933500Y-91403500D02*
X181970000Y-91440000D01*
X181933500Y-83670000D02*
X181933500Y-91403500D01*
X183183500Y-91426500D02*
X183170000Y-91440000D01*
X183133500Y-91403500D02*
X183170000Y-91440000D01*
X183133500Y-83670000D02*
X183133500Y-91403500D01*
X184383500Y-91426500D02*
X184370000Y-91440000D01*
X184333500Y-91403500D02*
X184370000Y-91440000D01*
X184333500Y-83670000D02*
X184333500Y-91403500D01*
X184503500Y-58476500D02*
X184540000Y-58440000D01*
X184453500Y-58526500D02*
X184540000Y-58440000D01*
X184453500Y-67410000D02*
X184453500Y-58526500D01*
X183303500Y-58476500D02*
X183340000Y-58440000D01*
X183253500Y-58526500D02*
X183340000Y-58440000D01*
X183253500Y-67410000D02*
X183253500Y-58526500D01*
X182103500Y-58476500D02*
X182140000Y-58440000D01*
X182053500Y-58526500D02*
X182140000Y-58440000D01*
X182053500Y-67410000D02*
X182053500Y-58526500D01*
X180903500Y-58476500D02*
X180940000Y-58440000D01*
X180853500Y-58526500D02*
X180940000Y-58440000D01*
X180853500Y-67410000D02*
X180853500Y-58526500D01*
X179703500Y-58476500D02*
X179740000Y-58440000D01*
X179653500Y-58526500D02*
X179740000Y-58440000D01*
X179653500Y-67410000D02*
X179653500Y-58526500D01*
X178503500Y-58476500D02*
X178540000Y-58440000D01*
X178453500Y-58526500D02*
X178540000Y-58440000D01*
X178453500Y-67410000D02*
X178453500Y-58526500D01*
X177303500Y-58476500D02*
X177340000Y-58440000D01*
X177253500Y-58526500D02*
X177340000Y-58440000D01*
X177253500Y-67410000D02*
X177253500Y-58526500D01*
X176103500Y-58476500D02*
X176140000Y-58440000D01*
X176053500Y-58526500D02*
X176140000Y-58440000D01*
X176053500Y-67410000D02*
X176053500Y-58526500D01*
X174903500Y-58476500D02*
X174940000Y-58440000D01*
X174853500Y-58526500D02*
X174940000Y-58440000D01*
X174853500Y-67410000D02*
X174853500Y-58526500D01*
X173703500Y-58476500D02*
X173740000Y-58440000D01*
X173740000Y-67323500D02*
X173653500Y-67410000D01*
X173740000Y-58440000D02*
X173740000Y-67323500D01*
D14*
G36*
X197590001Y-101120000D02*
G01*
X160410000Y-101120000D01*
X160410000Y-99806039D01*
X169716000Y-99806039D01*
X169716000Y-99993961D01*
X169752662Y-100178272D01*
X169824576Y-100351888D01*
X169928980Y-100508140D01*
X170061860Y-100641020D01*
X170218112Y-100745424D01*
X170391728Y-100817338D01*
X170576039Y-100854000D01*
X170763961Y-100854000D01*
X170948272Y-100817338D01*
X171121888Y-100745424D01*
X171278140Y-100641020D01*
X171411020Y-100508140D01*
X171515424Y-100351888D01*
X171587338Y-100178272D01*
X171624000Y-99993961D01*
X171624000Y-99806039D01*
X186316000Y-99806039D01*
X186316000Y-99993961D01*
X186352662Y-100178272D01*
X186424576Y-100351888D01*
X186528980Y-100508140D01*
X186661860Y-100641020D01*
X186818112Y-100745424D01*
X186991728Y-100817338D01*
X187176039Y-100854000D01*
X187363961Y-100854000D01*
X187548272Y-100817338D01*
X187721888Y-100745424D01*
X187878140Y-100641020D01*
X188011020Y-100508140D01*
X188115424Y-100351888D01*
X188187338Y-100178272D01*
X188224000Y-99993961D01*
X188224000Y-99806039D01*
X188187338Y-99621728D01*
X188115424Y-99448112D01*
X188011020Y-99291860D01*
X187878140Y-99158980D01*
X187721888Y-99054576D01*
X187548272Y-98982662D01*
X187363961Y-98946000D01*
X187176039Y-98946000D01*
X186991728Y-98982662D01*
X186818112Y-99054576D01*
X186661860Y-99158980D01*
X186528980Y-99291860D01*
X186424576Y-99448112D01*
X186352662Y-99621728D01*
X186316000Y-99806039D01*
X171624000Y-99806039D01*
X171587338Y-99621728D01*
X171515424Y-99448112D01*
X171494516Y-99416820D01*
X172050607Y-99416820D01*
X172106086Y-99572790D01*
X172271107Y-99662694D01*
X172450497Y-99718676D01*
X172637361Y-99738586D01*
X172824519Y-99721657D01*
X173004777Y-99668540D01*
X173171210Y-99581279D01*
X173183914Y-99572790D01*
X173239393Y-99416820D01*
X184700607Y-99416820D01*
X184756086Y-99572790D01*
X184921107Y-99662694D01*
X185100497Y-99718676D01*
X185287361Y-99738586D01*
X185474519Y-99721657D01*
X185654777Y-99668540D01*
X185821210Y-99581279D01*
X185833914Y-99572790D01*
X185889393Y-99416820D01*
X185295000Y-98822426D01*
X184700607Y-99416820D01*
X173239393Y-99416820D01*
X172645000Y-98822426D01*
X172050607Y-99416820D01*
X171494516Y-99416820D01*
X171411020Y-99291860D01*
X171278140Y-99158980D01*
X171121888Y-99054576D01*
X170948272Y-98982662D01*
X170763961Y-98946000D01*
X170576039Y-98946000D01*
X170391728Y-98982662D01*
X170218112Y-99054576D01*
X170061860Y-99158980D01*
X169928980Y-99291860D01*
X169824576Y-99448112D01*
X169752662Y-99621728D01*
X169716000Y-99806039D01*
X160410000Y-99806039D01*
X160410000Y-97556039D01*
X169716000Y-97556039D01*
X169716000Y-97743961D01*
X169752662Y-97928272D01*
X169824576Y-98101888D01*
X169928980Y-98258140D01*
X170061860Y-98391020D01*
X170218112Y-98495424D01*
X170391728Y-98567338D01*
X170576039Y-98604000D01*
X170763961Y-98604000D01*
X170948272Y-98567338D01*
X171121888Y-98495424D01*
X171278140Y-98391020D01*
X171411020Y-98258140D01*
X171515424Y-98101888D01*
X171573749Y-97961080D01*
X171710797Y-98052652D01*
X171906434Y-98133688D01*
X171968631Y-98146060D01*
X172008179Y-98185608D01*
X171852210Y-98241086D01*
X171762306Y-98406107D01*
X171706324Y-98585497D01*
X171686414Y-98772361D01*
X171703343Y-98959519D01*
X171756460Y-99139777D01*
X171843721Y-99306210D01*
X171852210Y-99318914D01*
X172008180Y-99374393D01*
X172602574Y-98780000D01*
X172687426Y-98780000D01*
X173281820Y-99374393D01*
X173437790Y-99318914D01*
X173527694Y-99153893D01*
X173583676Y-98974503D01*
X173603586Y-98787639D01*
X173602205Y-98772361D01*
X184336414Y-98772361D01*
X184353343Y-98959519D01*
X184406460Y-99139777D01*
X184493721Y-99306210D01*
X184502210Y-99318914D01*
X184658180Y-99374393D01*
X185252574Y-98780000D01*
X184658180Y-98185607D01*
X184502210Y-98241086D01*
X184412306Y-98406107D01*
X184356324Y-98585497D01*
X184336414Y-98772361D01*
X173602205Y-98772361D01*
X173586657Y-98600481D01*
X173533540Y-98420223D01*
X173446279Y-98253790D01*
X173437790Y-98241086D01*
X173281820Y-98185607D01*
X172687426Y-98780000D01*
X172602574Y-98780000D01*
X172588431Y-98765858D01*
X172630858Y-98723431D01*
X172645000Y-98737574D01*
X173239393Y-98143180D01*
X173183914Y-97987210D01*
X173018893Y-97897306D01*
X172961030Y-97879249D01*
X173055007Y-97785272D01*
X173172652Y-97609203D01*
X173253688Y-97413566D01*
X173295000Y-97205878D01*
X173295000Y-96994122D01*
X184645000Y-96994122D01*
X184645000Y-97205878D01*
X184686312Y-97413566D01*
X184767348Y-97609203D01*
X184884993Y-97785272D01*
X184978445Y-97878724D01*
X184935223Y-97891460D01*
X184768790Y-97978721D01*
X184756086Y-97987210D01*
X184700607Y-98143180D01*
X185295000Y-98737574D01*
X185309142Y-98723431D01*
X185351569Y-98765858D01*
X185337426Y-98780000D01*
X185931820Y-99374393D01*
X186087790Y-99318914D01*
X186177694Y-99153893D01*
X186233676Y-98974503D01*
X186253586Y-98787639D01*
X186236657Y-98600481D01*
X186183540Y-98420223D01*
X186096279Y-98253790D01*
X186087790Y-98241086D01*
X185931821Y-98185608D01*
X185971369Y-98146060D01*
X186033566Y-98133688D01*
X186229203Y-98052652D01*
X186366251Y-97961080D01*
X186424576Y-98101888D01*
X186528980Y-98258140D01*
X186661860Y-98391020D01*
X186818112Y-98495424D01*
X186991728Y-98567338D01*
X187176039Y-98604000D01*
X187363961Y-98604000D01*
X187548272Y-98567338D01*
X187721888Y-98495424D01*
X187878140Y-98391020D01*
X188011020Y-98258140D01*
X188115424Y-98101888D01*
X188187338Y-97928272D01*
X188224000Y-97743961D01*
X188224000Y-97556039D01*
X188187338Y-97371728D01*
X188115424Y-97198112D01*
X188011020Y-97041860D01*
X187878140Y-96908980D01*
X187721888Y-96804576D01*
X187548272Y-96732662D01*
X187363961Y-96696000D01*
X187176039Y-96696000D01*
X186991728Y-96732662D01*
X186818112Y-96804576D01*
X186764431Y-96840444D01*
X186753688Y-96786434D01*
X186672652Y-96590797D01*
X186555007Y-96414728D01*
X186405272Y-96264993D01*
X186229203Y-96147348D01*
X186033566Y-96066312D01*
X185825878Y-96025000D01*
X185614122Y-96025000D01*
X185406434Y-96066312D01*
X185210797Y-96147348D01*
X185034728Y-96264993D01*
X184884993Y-96414728D01*
X184767348Y-96590797D01*
X184686312Y-96786434D01*
X184645000Y-96994122D01*
X173295000Y-96994122D01*
X173253688Y-96786434D01*
X173172652Y-96590797D01*
X173055007Y-96414728D01*
X172905272Y-96264993D01*
X172729203Y-96147348D01*
X172533566Y-96066312D01*
X172325878Y-96025000D01*
X172114122Y-96025000D01*
X171906434Y-96066312D01*
X171710797Y-96147348D01*
X171534728Y-96264993D01*
X171384993Y-96414728D01*
X171267348Y-96590797D01*
X171186312Y-96786434D01*
X171175569Y-96840444D01*
X171121888Y-96804576D01*
X170948272Y-96732662D01*
X170763961Y-96696000D01*
X170576039Y-96696000D01*
X170391728Y-96732662D01*
X170218112Y-96804576D01*
X170061860Y-96908980D01*
X169928980Y-97041860D01*
X169824576Y-97198112D01*
X169752662Y-97371728D01*
X169716000Y-97556039D01*
X160410000Y-97556039D01*
X160410000Y-91366131D01*
X172820000Y-91366131D01*
X172820000Y-91513869D01*
X172848822Y-91658767D01*
X172905359Y-91795258D01*
X172987437Y-91918097D01*
X173091903Y-92022563D01*
X173214742Y-92104641D01*
X173351233Y-92161178D01*
X173496131Y-92190000D01*
X173643869Y-92190000D01*
X173788767Y-92161178D01*
X173925258Y-92104641D01*
X174048097Y-92022563D01*
X174152563Y-91918097D01*
X174170000Y-91892001D01*
X174187437Y-91918097D01*
X174291903Y-92022563D01*
X174414742Y-92104641D01*
X174551233Y-92161178D01*
X174696131Y-92190000D01*
X174843869Y-92190000D01*
X174988767Y-92161178D01*
X175125258Y-92104641D01*
X175248097Y-92022563D01*
X175352563Y-91918097D01*
X175370000Y-91892001D01*
X175387437Y-91918097D01*
X175491903Y-92022563D01*
X175614742Y-92104641D01*
X175751233Y-92161178D01*
X175896131Y-92190000D01*
X176043869Y-92190000D01*
X176188767Y-92161178D01*
X176325258Y-92104641D01*
X176448097Y-92022563D01*
X176552563Y-91918097D01*
X176570000Y-91892001D01*
X176587437Y-91918097D01*
X176691903Y-92022563D01*
X176814742Y-92104641D01*
X176951233Y-92161178D01*
X177096131Y-92190000D01*
X177243869Y-92190000D01*
X177388767Y-92161178D01*
X177525258Y-92104641D01*
X177648097Y-92022563D01*
X177752563Y-91918097D01*
X177770000Y-91892001D01*
X177787437Y-91918097D01*
X177891903Y-92022563D01*
X178014742Y-92104641D01*
X178151233Y-92161178D01*
X178296131Y-92190000D01*
X178443869Y-92190000D01*
X178588767Y-92161178D01*
X178725258Y-92104641D01*
X178848097Y-92022563D01*
X178952563Y-91918097D01*
X178970000Y-91892001D01*
X178987437Y-91918097D01*
X179091903Y-92022563D01*
X179214742Y-92104641D01*
X179351233Y-92161178D01*
X179496131Y-92190000D01*
X179643869Y-92190000D01*
X179788767Y-92161178D01*
X179925258Y-92104641D01*
X180048097Y-92022563D01*
X180152563Y-91918097D01*
X180170000Y-91892001D01*
X180187437Y-91918097D01*
X180291903Y-92022563D01*
X180414742Y-92104641D01*
X180551233Y-92161178D01*
X180696131Y-92190000D01*
X180843869Y-92190000D01*
X180988767Y-92161178D01*
X181125258Y-92104641D01*
X181248097Y-92022563D01*
X181352563Y-91918097D01*
X181370000Y-91892001D01*
X181387437Y-91918097D01*
X181491903Y-92022563D01*
X181614742Y-92104641D01*
X181751233Y-92161178D01*
X181896131Y-92190000D01*
X182043869Y-92190000D01*
X182188767Y-92161178D01*
X182325258Y-92104641D01*
X182448097Y-92022563D01*
X182552563Y-91918097D01*
X182570000Y-91892001D01*
X182587437Y-91918097D01*
X182691903Y-92022563D01*
X182814742Y-92104641D01*
X182951233Y-92161178D01*
X183096131Y-92190000D01*
X183243869Y-92190000D01*
X183388767Y-92161178D01*
X183525258Y-92104641D01*
X183648097Y-92022563D01*
X183752563Y-91918097D01*
X183770000Y-91892001D01*
X183787437Y-91918097D01*
X183891903Y-92022563D01*
X184014742Y-92104641D01*
X184151233Y-92161178D01*
X184296131Y-92190000D01*
X184443869Y-92190000D01*
X184588767Y-92161178D01*
X184725258Y-92104641D01*
X184848097Y-92022563D01*
X184952563Y-91918097D01*
X185034641Y-91795258D01*
X185091178Y-91658767D01*
X185120000Y-91513869D01*
X185120000Y-91366131D01*
X185091178Y-91221233D01*
X185034641Y-91084742D01*
X184952563Y-90961903D01*
X184848097Y-90857437D01*
X184808500Y-90830979D01*
X184808500Y-84500043D01*
X184816422Y-84490390D01*
X184848922Y-84429587D01*
X184868935Y-84363612D01*
X184875693Y-84295000D01*
X184875693Y-83045000D01*
X184868935Y-82976388D01*
X184848922Y-82910413D01*
X184816422Y-82849610D01*
X184772685Y-82796315D01*
X184770827Y-82794790D01*
X192018000Y-82794790D01*
X192018000Y-83185210D01*
X192094167Y-83568128D01*
X192243574Y-83928829D01*
X192460480Y-84253451D01*
X192736549Y-84529520D01*
X193061171Y-84746426D01*
X193421872Y-84895833D01*
X193804790Y-84972000D01*
X194195210Y-84972000D01*
X194578128Y-84895833D01*
X194938829Y-84746426D01*
X195263451Y-84529520D01*
X195539520Y-84253451D01*
X195756426Y-83928829D01*
X195905833Y-83568128D01*
X195982000Y-83185210D01*
X195982000Y-82794790D01*
X195905833Y-82411872D01*
X195756426Y-82051171D01*
X195539520Y-81726549D01*
X195263451Y-81450480D01*
X194938829Y-81233574D01*
X194578128Y-81084167D01*
X194195210Y-81008000D01*
X193804790Y-81008000D01*
X193421872Y-81084167D01*
X193061171Y-81233574D01*
X192736549Y-81450480D01*
X192460480Y-81726549D01*
X192243574Y-82051171D01*
X192094167Y-82411872D01*
X192018000Y-82794790D01*
X184770827Y-82794790D01*
X184719390Y-82752578D01*
X184658587Y-82720078D01*
X184592612Y-82700065D01*
X184524000Y-82693307D01*
X184143000Y-82693307D01*
X184074388Y-82700065D01*
X184008413Y-82720078D01*
X183947610Y-82752578D01*
X183894315Y-82796315D01*
X183850578Y-82849610D01*
X183818078Y-82910413D01*
X183798065Y-82976388D01*
X183791307Y-83045000D01*
X183791307Y-84295000D01*
X183798065Y-84363612D01*
X183818078Y-84429587D01*
X183850578Y-84490390D01*
X183858500Y-84500043D01*
X183858501Y-90890839D01*
X183787437Y-90961903D01*
X183770000Y-90987999D01*
X183752563Y-90961903D01*
X183648097Y-90857437D01*
X183608500Y-90830979D01*
X183608500Y-84500043D01*
X183616422Y-84490390D01*
X183648922Y-84429587D01*
X183668935Y-84363612D01*
X183675693Y-84295000D01*
X183675693Y-83045000D01*
X183668935Y-82976388D01*
X183648922Y-82910413D01*
X183616422Y-82849610D01*
X183572685Y-82796315D01*
X183519390Y-82752578D01*
X183458587Y-82720078D01*
X183392612Y-82700065D01*
X183324000Y-82693307D01*
X182943000Y-82693307D01*
X182874388Y-82700065D01*
X182808413Y-82720078D01*
X182747610Y-82752578D01*
X182694315Y-82796315D01*
X182650578Y-82849610D01*
X182618078Y-82910413D01*
X182598065Y-82976388D01*
X182591307Y-83045000D01*
X182591307Y-84295000D01*
X182598065Y-84363612D01*
X182618078Y-84429587D01*
X182650578Y-84490390D01*
X182658500Y-84500043D01*
X182658501Y-90890839D01*
X182587437Y-90961903D01*
X182570000Y-90987999D01*
X182552563Y-90961903D01*
X182448097Y-90857437D01*
X182408500Y-90830979D01*
X182408500Y-84500043D01*
X182416422Y-84490390D01*
X182448922Y-84429587D01*
X182468935Y-84363612D01*
X182475693Y-84295000D01*
X182475693Y-83045000D01*
X182468935Y-82976388D01*
X182448922Y-82910413D01*
X182416422Y-82849610D01*
X182372685Y-82796315D01*
X182319390Y-82752578D01*
X182258587Y-82720078D01*
X182192612Y-82700065D01*
X182124000Y-82693307D01*
X181743000Y-82693307D01*
X181674388Y-82700065D01*
X181608413Y-82720078D01*
X181547610Y-82752578D01*
X181494315Y-82796315D01*
X181450578Y-82849610D01*
X181418078Y-82910413D01*
X181398065Y-82976388D01*
X181391307Y-83045000D01*
X181391307Y-84295000D01*
X181398065Y-84363612D01*
X181418078Y-84429587D01*
X181450578Y-84490390D01*
X181458500Y-84500043D01*
X181458501Y-90890839D01*
X181387437Y-90961903D01*
X181370000Y-90987999D01*
X181352563Y-90961903D01*
X181248097Y-90857437D01*
X181208500Y-90830979D01*
X181208500Y-84500043D01*
X181216422Y-84490390D01*
X181248922Y-84429587D01*
X181268935Y-84363612D01*
X181275693Y-84295000D01*
X181275693Y-83045000D01*
X181268935Y-82976388D01*
X181248922Y-82910413D01*
X181216422Y-82849610D01*
X181172685Y-82796315D01*
X181119390Y-82752578D01*
X181058587Y-82720078D01*
X180992612Y-82700065D01*
X180924000Y-82693307D01*
X180543000Y-82693307D01*
X180474388Y-82700065D01*
X180408413Y-82720078D01*
X180347610Y-82752578D01*
X180294315Y-82796315D01*
X180250578Y-82849610D01*
X180218078Y-82910413D01*
X180198065Y-82976388D01*
X180191307Y-83045000D01*
X180191307Y-84295000D01*
X180198065Y-84363612D01*
X180218078Y-84429587D01*
X180250578Y-84490390D01*
X180258500Y-84500043D01*
X180258501Y-90890839D01*
X180187437Y-90961903D01*
X180170000Y-90987999D01*
X180152563Y-90961903D01*
X180048097Y-90857437D01*
X180008500Y-90830979D01*
X180008500Y-84500043D01*
X180016422Y-84490390D01*
X180048922Y-84429587D01*
X180068935Y-84363612D01*
X180075693Y-84295000D01*
X180075693Y-83045000D01*
X180068935Y-82976388D01*
X180048922Y-82910413D01*
X180016422Y-82849610D01*
X179972685Y-82796315D01*
X179919390Y-82752578D01*
X179858587Y-82720078D01*
X179792612Y-82700065D01*
X179724000Y-82693307D01*
X179343000Y-82693307D01*
X179274388Y-82700065D01*
X179208413Y-82720078D01*
X179147610Y-82752578D01*
X179094315Y-82796315D01*
X179050578Y-82849610D01*
X179018078Y-82910413D01*
X178998065Y-82976388D01*
X178991307Y-83045000D01*
X178991307Y-84295000D01*
X178998065Y-84363612D01*
X179018078Y-84429587D01*
X179050578Y-84490390D01*
X179058500Y-84500043D01*
X179058501Y-90890839D01*
X178987437Y-90961903D01*
X178970000Y-90987999D01*
X178952563Y-90961903D01*
X178848097Y-90857437D01*
X178808500Y-90830979D01*
X178808500Y-84500043D01*
X178816422Y-84490390D01*
X178848922Y-84429587D01*
X178868935Y-84363612D01*
X178875693Y-84295000D01*
X178875693Y-83045000D01*
X178868935Y-82976388D01*
X178848922Y-82910413D01*
X178816422Y-82849610D01*
X178772685Y-82796315D01*
X178719390Y-82752578D01*
X178658587Y-82720078D01*
X178592612Y-82700065D01*
X178524000Y-82693307D01*
X178143000Y-82693307D01*
X178074388Y-82700065D01*
X178008413Y-82720078D01*
X177947610Y-82752578D01*
X177894315Y-82796315D01*
X177850578Y-82849610D01*
X177818078Y-82910413D01*
X177798065Y-82976388D01*
X177791307Y-83045000D01*
X177791307Y-84295000D01*
X177798065Y-84363612D01*
X177818078Y-84429587D01*
X177850578Y-84490390D01*
X177858500Y-84500043D01*
X177858501Y-90890839D01*
X177787437Y-90961903D01*
X177770000Y-90987999D01*
X177752563Y-90961903D01*
X177648097Y-90857437D01*
X177608500Y-90830979D01*
X177608500Y-84500043D01*
X177616422Y-84490390D01*
X177648922Y-84429587D01*
X177668935Y-84363612D01*
X177675693Y-84295000D01*
X177675693Y-83045000D01*
X177668935Y-82976388D01*
X177648922Y-82910413D01*
X177616422Y-82849610D01*
X177572685Y-82796315D01*
X177519390Y-82752578D01*
X177458587Y-82720078D01*
X177392612Y-82700065D01*
X177324000Y-82693307D01*
X176943000Y-82693307D01*
X176874388Y-82700065D01*
X176808413Y-82720078D01*
X176747610Y-82752578D01*
X176694315Y-82796315D01*
X176650578Y-82849610D01*
X176618078Y-82910413D01*
X176598065Y-82976388D01*
X176591307Y-83045000D01*
X176591307Y-84295000D01*
X176598065Y-84363612D01*
X176618078Y-84429587D01*
X176650578Y-84490390D01*
X176658500Y-84500043D01*
X176658501Y-90890839D01*
X176587437Y-90961903D01*
X176570000Y-90987999D01*
X176552563Y-90961903D01*
X176448097Y-90857437D01*
X176408500Y-90830979D01*
X176408500Y-84500043D01*
X176416422Y-84490390D01*
X176448922Y-84429587D01*
X176468935Y-84363612D01*
X176475693Y-84295000D01*
X176475693Y-83045000D01*
X176468935Y-82976388D01*
X176448922Y-82910413D01*
X176416422Y-82849610D01*
X176372685Y-82796315D01*
X176319390Y-82752578D01*
X176258587Y-82720078D01*
X176192612Y-82700065D01*
X176124000Y-82693307D01*
X175743000Y-82693307D01*
X175674388Y-82700065D01*
X175608413Y-82720078D01*
X175547610Y-82752578D01*
X175494315Y-82796315D01*
X175450578Y-82849610D01*
X175418078Y-82910413D01*
X175398065Y-82976388D01*
X175391307Y-83045000D01*
X175391307Y-84295000D01*
X175398065Y-84363612D01*
X175418078Y-84429587D01*
X175450578Y-84490390D01*
X175458500Y-84500043D01*
X175458501Y-90890839D01*
X175387437Y-90961903D01*
X175370000Y-90987999D01*
X175352563Y-90961903D01*
X175248097Y-90857437D01*
X175208500Y-90830979D01*
X175208500Y-84500043D01*
X175216422Y-84490390D01*
X175248922Y-84429587D01*
X175268935Y-84363612D01*
X175275693Y-84295000D01*
X175275693Y-83045000D01*
X175268935Y-82976388D01*
X175248922Y-82910413D01*
X175216422Y-82849610D01*
X175172685Y-82796315D01*
X175119390Y-82752578D01*
X175058587Y-82720078D01*
X174992612Y-82700065D01*
X174924000Y-82693307D01*
X174543000Y-82693307D01*
X174474388Y-82700065D01*
X174408413Y-82720078D01*
X174347610Y-82752578D01*
X174294315Y-82796315D01*
X174250578Y-82849610D01*
X174218078Y-82910413D01*
X174198065Y-82976388D01*
X174191307Y-83045000D01*
X174191307Y-84295000D01*
X174198065Y-84363612D01*
X174218078Y-84429587D01*
X174250578Y-84490390D01*
X174258500Y-84500043D01*
X174258501Y-90890839D01*
X174187437Y-90961903D01*
X174170000Y-90987999D01*
X174152563Y-90961903D01*
X174048097Y-90857437D01*
X174008500Y-90830979D01*
X174008500Y-84500043D01*
X174016422Y-84490390D01*
X174048922Y-84429587D01*
X174068935Y-84363612D01*
X174075693Y-84295000D01*
X174075693Y-83045000D01*
X174068935Y-82976388D01*
X174048922Y-82910413D01*
X174016422Y-82849610D01*
X173972685Y-82796315D01*
X173919390Y-82752578D01*
X173858587Y-82720078D01*
X173792612Y-82700065D01*
X173724000Y-82693307D01*
X173343000Y-82693307D01*
X173274388Y-82700065D01*
X173208413Y-82720078D01*
X173147610Y-82752578D01*
X173094315Y-82796315D01*
X173050578Y-82849610D01*
X173018078Y-82910413D01*
X172998065Y-82976388D01*
X172991307Y-83045000D01*
X172991307Y-84295000D01*
X172998065Y-84363612D01*
X173018078Y-84429587D01*
X173050578Y-84490390D01*
X173058500Y-84500043D01*
X173058501Y-90890839D01*
X172987437Y-90961903D01*
X172905359Y-91084742D01*
X172848822Y-91221233D01*
X172820000Y-91366131D01*
X160410000Y-91366131D01*
X160410000Y-82724790D01*
X162018000Y-82724790D01*
X162018000Y-83115210D01*
X162094167Y-83498128D01*
X162243574Y-83858829D01*
X162460480Y-84183451D01*
X162736549Y-84459520D01*
X163061171Y-84676426D01*
X163421872Y-84825833D01*
X163804790Y-84902000D01*
X164195210Y-84902000D01*
X164578128Y-84825833D01*
X164938829Y-84676426D01*
X165263451Y-84459520D01*
X165539520Y-84183451D01*
X165756426Y-83858829D01*
X165905833Y-83498128D01*
X165982000Y-83115210D01*
X165982000Y-82724790D01*
X165905833Y-82341872D01*
X165756426Y-81981171D01*
X165539520Y-81656549D01*
X165263451Y-81380480D01*
X164938829Y-81163574D01*
X164578128Y-81014167D01*
X164195210Y-80938000D01*
X163804790Y-80938000D01*
X163421872Y-81014167D01*
X163061171Y-81163574D01*
X162736549Y-81380480D01*
X162460480Y-81656549D01*
X162243574Y-81981171D01*
X162094167Y-82341872D01*
X162018000Y-82724790D01*
X160410000Y-82724790D01*
X160410000Y-70030000D01*
X173103017Y-70030000D01*
X173105000Y-70050134D01*
X173105001Y-81009856D01*
X173103017Y-81030000D01*
X173110933Y-81110374D01*
X173134377Y-81187659D01*
X173172449Y-81258885D01*
X173223684Y-81321316D01*
X173286115Y-81372551D01*
X173357341Y-81410623D01*
X173434626Y-81434067D01*
X173494866Y-81440000D01*
X173515000Y-81441983D01*
X173535134Y-81440000D01*
X184494866Y-81440000D01*
X184515000Y-81441983D01*
X184535134Y-81440000D01*
X184595374Y-81434067D01*
X184672659Y-81410623D01*
X184743885Y-81372551D01*
X184806316Y-81321316D01*
X184857551Y-81258885D01*
X184895623Y-81187659D01*
X184919067Y-81110374D01*
X184926983Y-81030000D01*
X184925000Y-81009866D01*
X184925000Y-70050134D01*
X184926983Y-70030000D01*
X184919067Y-69949626D01*
X184895623Y-69872341D01*
X184857551Y-69801115D01*
X184806316Y-69738684D01*
X184743885Y-69687449D01*
X184672659Y-69649377D01*
X184595374Y-69625933D01*
X184535134Y-69620000D01*
X184515000Y-69618017D01*
X184494866Y-69620000D01*
X173535134Y-69620000D01*
X173515000Y-69618017D01*
X173494866Y-69620000D01*
X173434626Y-69625933D01*
X173357341Y-69649377D01*
X173286115Y-69687449D01*
X173223684Y-69738684D01*
X173172449Y-69801115D01*
X173134377Y-69872341D01*
X173110933Y-69949626D01*
X173103017Y-70030000D01*
X160410000Y-70030000D01*
X160410000Y-67794790D01*
X162018000Y-67794790D01*
X162018000Y-68185210D01*
X162094167Y-68568128D01*
X162243574Y-68928829D01*
X162460480Y-69253451D01*
X162736549Y-69529520D01*
X163061171Y-69746426D01*
X163421872Y-69895833D01*
X163804790Y-69972000D01*
X164195210Y-69972000D01*
X164578128Y-69895833D01*
X164938829Y-69746426D01*
X165263451Y-69529520D01*
X165539520Y-69253451D01*
X165756426Y-68928829D01*
X165905833Y-68568128D01*
X165982000Y-68185210D01*
X165982000Y-67794790D01*
X165905833Y-67411872D01*
X165756426Y-67051171D01*
X165539520Y-66726549D01*
X165263451Y-66450480D01*
X164938829Y-66233574D01*
X164578128Y-66084167D01*
X164195210Y-66008000D01*
X163804790Y-66008000D01*
X163421872Y-66084167D01*
X163061171Y-66233574D01*
X162736549Y-66450480D01*
X162460480Y-66726549D01*
X162243574Y-67051171D01*
X162094167Y-67411872D01*
X162018000Y-67794790D01*
X160410000Y-67794790D01*
X160410000Y-58366131D01*
X172990000Y-58366131D01*
X172990000Y-58513869D01*
X173018822Y-58658767D01*
X173075359Y-58795258D01*
X173157437Y-58918097D01*
X173261903Y-59022563D01*
X173265000Y-59024632D01*
X173265001Y-66494719D01*
X173214315Y-66536315D01*
X173170578Y-66589610D01*
X173138078Y-66650413D01*
X173118065Y-66716388D01*
X173111307Y-66785000D01*
X173111307Y-68035000D01*
X173118065Y-68103612D01*
X173138078Y-68169587D01*
X173170578Y-68230390D01*
X173214315Y-68283685D01*
X173267610Y-68327422D01*
X173328413Y-68359922D01*
X173394388Y-68379935D01*
X173463000Y-68386693D01*
X173844000Y-68386693D01*
X173912612Y-68379935D01*
X173978587Y-68359922D01*
X174039390Y-68327422D01*
X174092685Y-68283685D01*
X174136422Y-68230390D01*
X174168922Y-68169587D01*
X174188935Y-68103612D01*
X174195693Y-68035000D01*
X174195693Y-67457605D01*
X174208127Y-67416616D01*
X174215000Y-67346832D01*
X174215000Y-67346831D01*
X174217298Y-67323501D01*
X174215000Y-67300171D01*
X174215000Y-59024632D01*
X174218097Y-59022563D01*
X174322563Y-58918097D01*
X174340000Y-58892001D01*
X174357437Y-58918097D01*
X174378501Y-58939161D01*
X174378500Y-66579957D01*
X174370578Y-66589610D01*
X174338078Y-66650413D01*
X174318065Y-66716388D01*
X174311307Y-66785000D01*
X174311307Y-68035000D01*
X174318065Y-68103612D01*
X174338078Y-68169587D01*
X174370578Y-68230390D01*
X174414315Y-68283685D01*
X174467610Y-68327422D01*
X174528413Y-68359922D01*
X174594388Y-68379935D01*
X174663000Y-68386693D01*
X175044000Y-68386693D01*
X175112612Y-68379935D01*
X175178587Y-68359922D01*
X175239390Y-68327422D01*
X175292685Y-68283685D01*
X175336422Y-68230390D01*
X175368922Y-68169587D01*
X175388935Y-68103612D01*
X175395693Y-68035000D01*
X175395693Y-66785000D01*
X175388935Y-66716388D01*
X175368922Y-66650413D01*
X175336422Y-66589610D01*
X175328500Y-66579957D01*
X175328500Y-59082430D01*
X175418097Y-59022563D01*
X175522563Y-58918097D01*
X175540000Y-58892001D01*
X175557437Y-58918097D01*
X175578501Y-58939161D01*
X175578500Y-66579957D01*
X175570578Y-66589610D01*
X175538078Y-66650413D01*
X175518065Y-66716388D01*
X175511307Y-66785000D01*
X175511307Y-68035000D01*
X175518065Y-68103612D01*
X175538078Y-68169587D01*
X175570578Y-68230390D01*
X175614315Y-68283685D01*
X175667610Y-68327422D01*
X175728413Y-68359922D01*
X175794388Y-68379935D01*
X175863000Y-68386693D01*
X176244000Y-68386693D01*
X176312612Y-68379935D01*
X176378587Y-68359922D01*
X176439390Y-68327422D01*
X176492685Y-68283685D01*
X176536422Y-68230390D01*
X176568922Y-68169587D01*
X176588935Y-68103612D01*
X176595693Y-68035000D01*
X176595693Y-66785000D01*
X176588935Y-66716388D01*
X176568922Y-66650413D01*
X176536422Y-66589610D01*
X176528500Y-66579957D01*
X176528500Y-59082430D01*
X176618097Y-59022563D01*
X176722563Y-58918097D01*
X176740000Y-58892001D01*
X176757437Y-58918097D01*
X176778501Y-58939161D01*
X176778500Y-66579957D01*
X176770578Y-66589610D01*
X176738078Y-66650413D01*
X176718065Y-66716388D01*
X176711307Y-66785000D01*
X176711307Y-68035000D01*
X176718065Y-68103612D01*
X176738078Y-68169587D01*
X176770578Y-68230390D01*
X176814315Y-68283685D01*
X176867610Y-68327422D01*
X176928413Y-68359922D01*
X176994388Y-68379935D01*
X177063000Y-68386693D01*
X177444000Y-68386693D01*
X177512612Y-68379935D01*
X177578587Y-68359922D01*
X177639390Y-68327422D01*
X177692685Y-68283685D01*
X177736422Y-68230390D01*
X177768922Y-68169587D01*
X177788935Y-68103612D01*
X177795693Y-68035000D01*
X177795693Y-66785000D01*
X177788935Y-66716388D01*
X177768922Y-66650413D01*
X177736422Y-66589610D01*
X177728500Y-66579957D01*
X177728500Y-59082430D01*
X177818097Y-59022563D01*
X177922563Y-58918097D01*
X177940000Y-58892001D01*
X177957437Y-58918097D01*
X177978501Y-58939161D01*
X177978500Y-66579957D01*
X177970578Y-66589610D01*
X177938078Y-66650413D01*
X177918065Y-66716388D01*
X177911307Y-66785000D01*
X177911307Y-68035000D01*
X177918065Y-68103612D01*
X177938078Y-68169587D01*
X177970578Y-68230390D01*
X178014315Y-68283685D01*
X178067610Y-68327422D01*
X178128413Y-68359922D01*
X178194388Y-68379935D01*
X178263000Y-68386693D01*
X178644000Y-68386693D01*
X178712612Y-68379935D01*
X178778587Y-68359922D01*
X178839390Y-68327422D01*
X178892685Y-68283685D01*
X178936422Y-68230390D01*
X178968922Y-68169587D01*
X178988935Y-68103612D01*
X178995693Y-68035000D01*
X178995693Y-66785000D01*
X178988935Y-66716388D01*
X178968922Y-66650413D01*
X178936422Y-66589610D01*
X178928500Y-66579957D01*
X178928500Y-59082430D01*
X179018097Y-59022563D01*
X179122563Y-58918097D01*
X179140000Y-58892001D01*
X179157437Y-58918097D01*
X179178501Y-58939161D01*
X179178500Y-66579957D01*
X179170578Y-66589610D01*
X179138078Y-66650413D01*
X179118065Y-66716388D01*
X179111307Y-66785000D01*
X179111307Y-68035000D01*
X179118065Y-68103612D01*
X179138078Y-68169587D01*
X179170578Y-68230390D01*
X179214315Y-68283685D01*
X179267610Y-68327422D01*
X179328413Y-68359922D01*
X179394388Y-68379935D01*
X179463000Y-68386693D01*
X179844000Y-68386693D01*
X179912612Y-68379935D01*
X179978587Y-68359922D01*
X180039390Y-68327422D01*
X180092685Y-68283685D01*
X180136422Y-68230390D01*
X180168922Y-68169587D01*
X180188935Y-68103612D01*
X180195693Y-68035000D01*
X180195693Y-66785000D01*
X180188935Y-66716388D01*
X180168922Y-66650413D01*
X180136422Y-66589610D01*
X180128500Y-66579957D01*
X180128500Y-59082430D01*
X180218097Y-59022563D01*
X180322563Y-58918097D01*
X180340000Y-58892001D01*
X180357437Y-58918097D01*
X180378501Y-58939161D01*
X180378500Y-66579957D01*
X180370578Y-66589610D01*
X180338078Y-66650413D01*
X180318065Y-66716388D01*
X180311307Y-66785000D01*
X180311307Y-68035000D01*
X180318065Y-68103612D01*
X180338078Y-68169587D01*
X180370578Y-68230390D01*
X180414315Y-68283685D01*
X180467610Y-68327422D01*
X180528413Y-68359922D01*
X180594388Y-68379935D01*
X180663000Y-68386693D01*
X181044000Y-68386693D01*
X181112612Y-68379935D01*
X181178587Y-68359922D01*
X181239390Y-68327422D01*
X181292685Y-68283685D01*
X181336422Y-68230390D01*
X181368922Y-68169587D01*
X181388935Y-68103612D01*
X181395693Y-68035000D01*
X181395693Y-66785000D01*
X181388935Y-66716388D01*
X181368922Y-66650413D01*
X181336422Y-66589610D01*
X181328500Y-66579957D01*
X181328500Y-59082430D01*
X181418097Y-59022563D01*
X181522563Y-58918097D01*
X181540000Y-58892001D01*
X181557437Y-58918097D01*
X181578501Y-58939161D01*
X181578500Y-66579957D01*
X181570578Y-66589610D01*
X181538078Y-66650413D01*
X181518065Y-66716388D01*
X181511307Y-66785000D01*
X181511307Y-68035000D01*
X181518065Y-68103612D01*
X181538078Y-68169587D01*
X181570578Y-68230390D01*
X181614315Y-68283685D01*
X181667610Y-68327422D01*
X181728413Y-68359922D01*
X181794388Y-68379935D01*
X181863000Y-68386693D01*
X182244000Y-68386693D01*
X182312612Y-68379935D01*
X182378587Y-68359922D01*
X182439390Y-68327422D01*
X182492685Y-68283685D01*
X182536422Y-68230390D01*
X182568922Y-68169587D01*
X182588935Y-68103612D01*
X182595693Y-68035000D01*
X182595693Y-66785000D01*
X182588935Y-66716388D01*
X182568922Y-66650413D01*
X182536422Y-66589610D01*
X182528500Y-66579957D01*
X182528500Y-59082430D01*
X182618097Y-59022563D01*
X182722563Y-58918097D01*
X182740000Y-58892001D01*
X182757437Y-58918097D01*
X182778501Y-58939161D01*
X182778500Y-66579957D01*
X182770578Y-66589610D01*
X182738078Y-66650413D01*
X182718065Y-66716388D01*
X182711307Y-66785000D01*
X182711307Y-68035000D01*
X182718065Y-68103612D01*
X182738078Y-68169587D01*
X182770578Y-68230390D01*
X182814315Y-68283685D01*
X182867610Y-68327422D01*
X182928413Y-68359922D01*
X182994388Y-68379935D01*
X183063000Y-68386693D01*
X183444000Y-68386693D01*
X183512612Y-68379935D01*
X183578587Y-68359922D01*
X183639390Y-68327422D01*
X183692685Y-68283685D01*
X183736422Y-68230390D01*
X183768922Y-68169587D01*
X183788935Y-68103612D01*
X183795693Y-68035000D01*
X183795693Y-66785000D01*
X183788935Y-66716388D01*
X183768922Y-66650413D01*
X183736422Y-66589610D01*
X183728500Y-66579957D01*
X183728500Y-59082430D01*
X183818097Y-59022563D01*
X183922563Y-58918097D01*
X183940000Y-58892001D01*
X183957437Y-58918097D01*
X183978501Y-58939161D01*
X183978500Y-66579957D01*
X183970578Y-66589610D01*
X183938078Y-66650413D01*
X183918065Y-66716388D01*
X183911307Y-66785000D01*
X183911307Y-68035000D01*
X183918065Y-68103612D01*
X183938078Y-68169587D01*
X183970578Y-68230390D01*
X184014315Y-68283685D01*
X184067610Y-68327422D01*
X184128413Y-68359922D01*
X184194388Y-68379935D01*
X184263000Y-68386693D01*
X184644000Y-68386693D01*
X184712612Y-68379935D01*
X184778587Y-68359922D01*
X184839390Y-68327422D01*
X184892685Y-68283685D01*
X184936422Y-68230390D01*
X184968922Y-68169587D01*
X184988935Y-68103612D01*
X184995693Y-68035000D01*
X184995693Y-67794790D01*
X192018000Y-67794790D01*
X192018000Y-68185210D01*
X192094167Y-68568128D01*
X192243574Y-68928829D01*
X192460480Y-69253451D01*
X192736549Y-69529520D01*
X193061171Y-69746426D01*
X193421872Y-69895833D01*
X193804790Y-69972000D01*
X194195210Y-69972000D01*
X194578128Y-69895833D01*
X194938829Y-69746426D01*
X195263451Y-69529520D01*
X195539520Y-69253451D01*
X195756426Y-68928829D01*
X195905833Y-68568128D01*
X195982000Y-68185210D01*
X195982000Y-67794790D01*
X195905833Y-67411872D01*
X195756426Y-67051171D01*
X195539520Y-66726549D01*
X195263451Y-66450480D01*
X194938829Y-66233574D01*
X194578128Y-66084167D01*
X194195210Y-66008000D01*
X193804790Y-66008000D01*
X193421872Y-66084167D01*
X193061171Y-66233574D01*
X192736549Y-66450480D01*
X192460480Y-66726549D01*
X192243574Y-67051171D01*
X192094167Y-67411872D01*
X192018000Y-67794790D01*
X184995693Y-67794790D01*
X184995693Y-66785000D01*
X184988935Y-66716388D01*
X184968922Y-66650413D01*
X184936422Y-66589610D01*
X184928500Y-66579957D01*
X184928500Y-59082430D01*
X185018097Y-59022563D01*
X185122563Y-58918097D01*
X185204641Y-58795258D01*
X185261178Y-58658767D01*
X185290000Y-58513869D01*
X185290000Y-58366131D01*
X185261178Y-58221233D01*
X185204641Y-58084742D01*
X185122563Y-57961903D01*
X185018097Y-57857437D01*
X184895258Y-57775359D01*
X184758767Y-57718822D01*
X184613869Y-57690000D01*
X184466131Y-57690000D01*
X184321233Y-57718822D01*
X184184742Y-57775359D01*
X184061903Y-57857437D01*
X183957437Y-57961903D01*
X183940000Y-57987999D01*
X183922563Y-57961903D01*
X183818097Y-57857437D01*
X183695258Y-57775359D01*
X183558767Y-57718822D01*
X183413869Y-57690000D01*
X183266131Y-57690000D01*
X183121233Y-57718822D01*
X182984742Y-57775359D01*
X182861903Y-57857437D01*
X182757437Y-57961903D01*
X182740000Y-57987999D01*
X182722563Y-57961903D01*
X182618097Y-57857437D01*
X182495258Y-57775359D01*
X182358767Y-57718822D01*
X182213869Y-57690000D01*
X182066131Y-57690000D01*
X181921233Y-57718822D01*
X181784742Y-57775359D01*
X181661903Y-57857437D01*
X181557437Y-57961903D01*
X181540000Y-57987999D01*
X181522563Y-57961903D01*
X181418097Y-57857437D01*
X181295258Y-57775359D01*
X181158767Y-57718822D01*
X181013869Y-57690000D01*
X180866131Y-57690000D01*
X180721233Y-57718822D01*
X180584742Y-57775359D01*
X180461903Y-57857437D01*
X180357437Y-57961903D01*
X180340000Y-57987999D01*
X180322563Y-57961903D01*
X180218097Y-57857437D01*
X180095258Y-57775359D01*
X179958767Y-57718822D01*
X179813869Y-57690000D01*
X179666131Y-57690000D01*
X179521233Y-57718822D01*
X179384742Y-57775359D01*
X179261903Y-57857437D01*
X179157437Y-57961903D01*
X179140000Y-57987999D01*
X179122563Y-57961903D01*
X179018097Y-57857437D01*
X178895258Y-57775359D01*
X178758767Y-57718822D01*
X178613869Y-57690000D01*
X178466131Y-57690000D01*
X178321233Y-57718822D01*
X178184742Y-57775359D01*
X178061903Y-57857437D01*
X177957437Y-57961903D01*
X177940000Y-57987999D01*
X177922563Y-57961903D01*
X177818097Y-57857437D01*
X177695258Y-57775359D01*
X177558767Y-57718822D01*
X177413869Y-57690000D01*
X177266131Y-57690000D01*
X177121233Y-57718822D01*
X176984742Y-57775359D01*
X176861903Y-57857437D01*
X176757437Y-57961903D01*
X176740000Y-57987999D01*
X176722563Y-57961903D01*
X176618097Y-57857437D01*
X176495258Y-57775359D01*
X176358767Y-57718822D01*
X176213869Y-57690000D01*
X176066131Y-57690000D01*
X175921233Y-57718822D01*
X175784742Y-57775359D01*
X175661903Y-57857437D01*
X175557437Y-57961903D01*
X175540000Y-57987999D01*
X175522563Y-57961903D01*
X175418097Y-57857437D01*
X175295258Y-57775359D01*
X175158767Y-57718822D01*
X175013869Y-57690000D01*
X174866131Y-57690000D01*
X174721233Y-57718822D01*
X174584742Y-57775359D01*
X174461903Y-57857437D01*
X174357437Y-57961903D01*
X174340000Y-57987999D01*
X174322563Y-57961903D01*
X174218097Y-57857437D01*
X174095258Y-57775359D01*
X173958767Y-57718822D01*
X173813869Y-57690000D01*
X173666131Y-57690000D01*
X173521233Y-57718822D01*
X173384742Y-57775359D01*
X173261903Y-57857437D01*
X173157437Y-57961903D01*
X173075359Y-58084742D01*
X173018822Y-58221233D01*
X172990000Y-58366131D01*
X160410000Y-58366131D01*
X160410000Y-53336039D01*
X169736000Y-53336039D01*
X169736000Y-53523961D01*
X169772662Y-53708272D01*
X169844576Y-53881888D01*
X169948980Y-54038140D01*
X170081860Y-54171020D01*
X170238112Y-54275424D01*
X170411728Y-54347338D01*
X170596039Y-54384000D01*
X170783961Y-54384000D01*
X170968272Y-54347338D01*
X171141888Y-54275424D01*
X171195569Y-54239556D01*
X171206312Y-54293566D01*
X171287348Y-54489203D01*
X171404993Y-54665272D01*
X171554728Y-54815007D01*
X171730797Y-54932652D01*
X171926434Y-55013688D01*
X172134122Y-55055000D01*
X172345878Y-55055000D01*
X172553566Y-55013688D01*
X172749203Y-54932652D01*
X172925272Y-54815007D01*
X173075007Y-54665272D01*
X173192652Y-54489203D01*
X173273688Y-54293566D01*
X173315000Y-54085878D01*
X173315000Y-53874122D01*
X184665000Y-53874122D01*
X184665000Y-54085878D01*
X184706312Y-54293566D01*
X184787348Y-54489203D01*
X184904993Y-54665272D01*
X185054728Y-54815007D01*
X185230797Y-54932652D01*
X185426434Y-55013688D01*
X185634122Y-55055000D01*
X185845878Y-55055000D01*
X186053566Y-55013688D01*
X186249203Y-54932652D01*
X186425272Y-54815007D01*
X186575007Y-54665272D01*
X186692652Y-54489203D01*
X186773688Y-54293566D01*
X186784431Y-54239556D01*
X186838112Y-54275424D01*
X187011728Y-54347338D01*
X187196039Y-54384000D01*
X187383961Y-54384000D01*
X187568272Y-54347338D01*
X187741888Y-54275424D01*
X187898140Y-54171020D01*
X188031020Y-54038140D01*
X188135424Y-53881888D01*
X188207338Y-53708272D01*
X188244000Y-53523961D01*
X188244000Y-53336039D01*
X188207338Y-53151728D01*
X188135424Y-52978112D01*
X188031020Y-52821860D01*
X187898140Y-52688980D01*
X187741888Y-52584576D01*
X187568272Y-52512662D01*
X187383961Y-52476000D01*
X187196039Y-52476000D01*
X187011728Y-52512662D01*
X186838112Y-52584576D01*
X186681860Y-52688980D01*
X186548980Y-52821860D01*
X186444576Y-52978112D01*
X186386251Y-53118920D01*
X186249203Y-53027348D01*
X186053566Y-52946312D01*
X185991369Y-52933940D01*
X185951821Y-52894392D01*
X186107790Y-52838914D01*
X186197694Y-52673893D01*
X186253676Y-52494503D01*
X186273586Y-52307639D01*
X186256657Y-52120481D01*
X186203540Y-51940223D01*
X186116279Y-51773790D01*
X186107790Y-51761086D01*
X185951820Y-51705607D01*
X185357426Y-52300000D01*
X185371569Y-52314142D01*
X185329142Y-52356569D01*
X185315000Y-52342426D01*
X184720607Y-52936820D01*
X184776086Y-53092790D01*
X184941107Y-53182694D01*
X184998970Y-53200751D01*
X184904993Y-53294728D01*
X184787348Y-53470797D01*
X184706312Y-53666434D01*
X184665000Y-53874122D01*
X173315000Y-53874122D01*
X173273688Y-53666434D01*
X173192652Y-53470797D01*
X173075007Y-53294728D01*
X172981555Y-53201276D01*
X173024777Y-53188540D01*
X173191210Y-53101279D01*
X173203914Y-53092790D01*
X173259393Y-52936820D01*
X172665000Y-52342426D01*
X172650858Y-52356569D01*
X172608431Y-52314142D01*
X172622574Y-52300000D01*
X172707426Y-52300000D01*
X173301820Y-52894393D01*
X173457790Y-52838914D01*
X173547694Y-52673893D01*
X173603676Y-52494503D01*
X173623586Y-52307639D01*
X173622205Y-52292361D01*
X184356414Y-52292361D01*
X184373343Y-52479519D01*
X184426460Y-52659777D01*
X184513721Y-52826210D01*
X184522210Y-52838914D01*
X184678180Y-52894393D01*
X185272574Y-52300000D01*
X184678180Y-51705607D01*
X184522210Y-51761086D01*
X184432306Y-51926107D01*
X184376324Y-52105497D01*
X184356414Y-52292361D01*
X173622205Y-52292361D01*
X173606657Y-52120481D01*
X173553540Y-51940223D01*
X173466279Y-51773790D01*
X173457790Y-51761086D01*
X173301820Y-51705607D01*
X172707426Y-52300000D01*
X172622574Y-52300000D01*
X172028180Y-51705607D01*
X171872210Y-51761086D01*
X171782306Y-51926107D01*
X171726324Y-52105497D01*
X171706414Y-52292361D01*
X171723343Y-52479519D01*
X171776460Y-52659777D01*
X171863721Y-52826210D01*
X171872210Y-52838914D01*
X172028179Y-52894392D01*
X171988631Y-52933940D01*
X171926434Y-52946312D01*
X171730797Y-53027348D01*
X171593749Y-53118920D01*
X171535424Y-52978112D01*
X171431020Y-52821860D01*
X171298140Y-52688980D01*
X171141888Y-52584576D01*
X170968272Y-52512662D01*
X170783961Y-52476000D01*
X170596039Y-52476000D01*
X170411728Y-52512662D01*
X170238112Y-52584576D01*
X170081860Y-52688980D01*
X169948980Y-52821860D01*
X169844576Y-52978112D01*
X169772662Y-53151728D01*
X169736000Y-53336039D01*
X160410000Y-53336039D01*
X160410000Y-51086039D01*
X169736000Y-51086039D01*
X169736000Y-51273961D01*
X169772662Y-51458272D01*
X169844576Y-51631888D01*
X169948980Y-51788140D01*
X170081860Y-51921020D01*
X170238112Y-52025424D01*
X170411728Y-52097338D01*
X170596039Y-52134000D01*
X170783961Y-52134000D01*
X170968272Y-52097338D01*
X171141888Y-52025424D01*
X171298140Y-51921020D01*
X171431020Y-51788140D01*
X171514515Y-51663180D01*
X172070607Y-51663180D01*
X172665000Y-52257574D01*
X173259393Y-51663180D01*
X184720607Y-51663180D01*
X185315000Y-52257574D01*
X185909393Y-51663180D01*
X185853914Y-51507210D01*
X185688893Y-51417306D01*
X185509503Y-51361324D01*
X185322639Y-51341414D01*
X185135481Y-51358343D01*
X184955223Y-51411460D01*
X184788790Y-51498721D01*
X184776086Y-51507210D01*
X184720607Y-51663180D01*
X173259393Y-51663180D01*
X173203914Y-51507210D01*
X173038893Y-51417306D01*
X172859503Y-51361324D01*
X172672639Y-51341414D01*
X172485481Y-51358343D01*
X172305223Y-51411460D01*
X172138790Y-51498721D01*
X172126086Y-51507210D01*
X172070607Y-51663180D01*
X171514515Y-51663180D01*
X171535424Y-51631888D01*
X171607338Y-51458272D01*
X171644000Y-51273961D01*
X171644000Y-51086039D01*
X186336000Y-51086039D01*
X186336000Y-51273961D01*
X186372662Y-51458272D01*
X186444576Y-51631888D01*
X186548980Y-51788140D01*
X186681860Y-51921020D01*
X186838112Y-52025424D01*
X187011728Y-52097338D01*
X187196039Y-52134000D01*
X187383961Y-52134000D01*
X187568272Y-52097338D01*
X187741888Y-52025424D01*
X187898140Y-51921020D01*
X188031020Y-51788140D01*
X188135424Y-51631888D01*
X188207338Y-51458272D01*
X188244000Y-51273961D01*
X188244000Y-51086039D01*
X188207338Y-50901728D01*
X188135424Y-50728112D01*
X188031020Y-50571860D01*
X187898140Y-50438980D01*
X187741888Y-50334576D01*
X187568272Y-50262662D01*
X187383961Y-50226000D01*
X187196039Y-50226000D01*
X187011728Y-50262662D01*
X186838112Y-50334576D01*
X186681860Y-50438980D01*
X186548980Y-50571860D01*
X186444576Y-50728112D01*
X186372662Y-50901728D01*
X186336000Y-51086039D01*
X171644000Y-51086039D01*
X171607338Y-50901728D01*
X171535424Y-50728112D01*
X171431020Y-50571860D01*
X171298140Y-50438980D01*
X171141888Y-50334576D01*
X170968272Y-50262662D01*
X170783961Y-50226000D01*
X170596039Y-50226000D01*
X170411728Y-50262662D01*
X170238112Y-50334576D01*
X170081860Y-50438980D01*
X169948980Y-50571860D01*
X169844576Y-50728112D01*
X169772662Y-50901728D01*
X169736000Y-51086039D01*
X160410000Y-51086039D01*
X160410000Y-49940000D01*
X197590000Y-49940000D01*
X197590001Y-101120000D01*
X197590001Y-101120000D01*
G37*
X197590001Y-101120000D02*
X160410000Y-101120000D01*
X160410000Y-99806039D01*
X169716000Y-99806039D01*
X169716000Y-99993961D01*
X169752662Y-100178272D01*
X169824576Y-100351888D01*
X169928980Y-100508140D01*
X170061860Y-100641020D01*
X170218112Y-100745424D01*
X170391728Y-100817338D01*
X170576039Y-100854000D01*
X170763961Y-100854000D01*
X170948272Y-100817338D01*
X171121888Y-100745424D01*
X171278140Y-100641020D01*
X171411020Y-100508140D01*
X171515424Y-100351888D01*
X171587338Y-100178272D01*
X171624000Y-99993961D01*
X171624000Y-99806039D01*
X186316000Y-99806039D01*
X186316000Y-99993961D01*
X186352662Y-100178272D01*
X186424576Y-100351888D01*
X186528980Y-100508140D01*
X186661860Y-100641020D01*
X186818112Y-100745424D01*
X186991728Y-100817338D01*
X187176039Y-100854000D01*
X187363961Y-100854000D01*
X187548272Y-100817338D01*
X187721888Y-100745424D01*
X187878140Y-100641020D01*
X188011020Y-100508140D01*
X188115424Y-100351888D01*
X188187338Y-100178272D01*
X188224000Y-99993961D01*
X188224000Y-99806039D01*
X188187338Y-99621728D01*
X188115424Y-99448112D01*
X188011020Y-99291860D01*
X187878140Y-99158980D01*
X187721888Y-99054576D01*
X187548272Y-98982662D01*
X187363961Y-98946000D01*
X187176039Y-98946000D01*
X186991728Y-98982662D01*
X186818112Y-99054576D01*
X186661860Y-99158980D01*
X186528980Y-99291860D01*
X186424576Y-99448112D01*
X186352662Y-99621728D01*
X186316000Y-99806039D01*
X171624000Y-99806039D01*
X171587338Y-99621728D01*
X171515424Y-99448112D01*
X171494516Y-99416820D01*
X172050607Y-99416820D01*
X172106086Y-99572790D01*
X172271107Y-99662694D01*
X172450497Y-99718676D01*
X172637361Y-99738586D01*
X172824519Y-99721657D01*
X173004777Y-99668540D01*
X173171210Y-99581279D01*
X173183914Y-99572790D01*
X173239393Y-99416820D01*
X184700607Y-99416820D01*
X184756086Y-99572790D01*
X184921107Y-99662694D01*
X185100497Y-99718676D01*
X185287361Y-99738586D01*
X185474519Y-99721657D01*
X185654777Y-99668540D01*
X185821210Y-99581279D01*
X185833914Y-99572790D01*
X185889393Y-99416820D01*
X185295000Y-98822426D01*
X184700607Y-99416820D01*
X173239393Y-99416820D01*
X172645000Y-98822426D01*
X172050607Y-99416820D01*
X171494516Y-99416820D01*
X171411020Y-99291860D01*
X171278140Y-99158980D01*
X171121888Y-99054576D01*
X170948272Y-98982662D01*
X170763961Y-98946000D01*
X170576039Y-98946000D01*
X170391728Y-98982662D01*
X170218112Y-99054576D01*
X170061860Y-99158980D01*
X169928980Y-99291860D01*
X169824576Y-99448112D01*
X169752662Y-99621728D01*
X169716000Y-99806039D01*
X160410000Y-99806039D01*
X160410000Y-97556039D01*
X169716000Y-97556039D01*
X169716000Y-97743961D01*
X169752662Y-97928272D01*
X169824576Y-98101888D01*
X169928980Y-98258140D01*
X170061860Y-98391020D01*
X170218112Y-98495424D01*
X170391728Y-98567338D01*
X170576039Y-98604000D01*
X170763961Y-98604000D01*
X170948272Y-98567338D01*
X171121888Y-98495424D01*
X171278140Y-98391020D01*
X171411020Y-98258140D01*
X171515424Y-98101888D01*
X171573749Y-97961080D01*
X171710797Y-98052652D01*
X171906434Y-98133688D01*
X171968631Y-98146060D01*
X172008179Y-98185608D01*
X171852210Y-98241086D01*
X171762306Y-98406107D01*
X171706324Y-98585497D01*
X171686414Y-98772361D01*
X171703343Y-98959519D01*
X171756460Y-99139777D01*
X171843721Y-99306210D01*
X171852210Y-99318914D01*
X172008180Y-99374393D01*
X172602574Y-98780000D01*
X172687426Y-98780000D01*
X173281820Y-99374393D01*
X173437790Y-99318914D01*
X173527694Y-99153893D01*
X173583676Y-98974503D01*
X173603586Y-98787639D01*
X173602205Y-98772361D01*
X184336414Y-98772361D01*
X184353343Y-98959519D01*
X184406460Y-99139777D01*
X184493721Y-99306210D01*
X184502210Y-99318914D01*
X184658180Y-99374393D01*
X185252574Y-98780000D01*
X184658180Y-98185607D01*
X184502210Y-98241086D01*
X184412306Y-98406107D01*
X184356324Y-98585497D01*
X184336414Y-98772361D01*
X173602205Y-98772361D01*
X173586657Y-98600481D01*
X173533540Y-98420223D01*
X173446279Y-98253790D01*
X173437790Y-98241086D01*
X173281820Y-98185607D01*
X172687426Y-98780000D01*
X172602574Y-98780000D01*
X172588431Y-98765858D01*
X172630858Y-98723431D01*
X172645000Y-98737574D01*
X173239393Y-98143180D01*
X173183914Y-97987210D01*
X173018893Y-97897306D01*
X172961030Y-97879249D01*
X173055007Y-97785272D01*
X173172652Y-97609203D01*
X173253688Y-97413566D01*
X173295000Y-97205878D01*
X173295000Y-96994122D01*
X184645000Y-96994122D01*
X184645000Y-97205878D01*
X184686312Y-97413566D01*
X184767348Y-97609203D01*
X184884993Y-97785272D01*
X184978445Y-97878724D01*
X184935223Y-97891460D01*
X184768790Y-97978721D01*
X184756086Y-97987210D01*
X184700607Y-98143180D01*
X185295000Y-98737574D01*
X185309142Y-98723431D01*
X185351569Y-98765858D01*
X185337426Y-98780000D01*
X185931820Y-99374393D01*
X186087790Y-99318914D01*
X186177694Y-99153893D01*
X186233676Y-98974503D01*
X186253586Y-98787639D01*
X186236657Y-98600481D01*
X186183540Y-98420223D01*
X186096279Y-98253790D01*
X186087790Y-98241086D01*
X185931821Y-98185608D01*
X185971369Y-98146060D01*
X186033566Y-98133688D01*
X186229203Y-98052652D01*
X186366251Y-97961080D01*
X186424576Y-98101888D01*
X186528980Y-98258140D01*
X186661860Y-98391020D01*
X186818112Y-98495424D01*
X186991728Y-98567338D01*
X187176039Y-98604000D01*
X187363961Y-98604000D01*
X187548272Y-98567338D01*
X187721888Y-98495424D01*
X187878140Y-98391020D01*
X188011020Y-98258140D01*
X188115424Y-98101888D01*
X188187338Y-97928272D01*
X188224000Y-97743961D01*
X188224000Y-97556039D01*
X188187338Y-97371728D01*
X188115424Y-97198112D01*
X188011020Y-97041860D01*
X187878140Y-96908980D01*
X187721888Y-96804576D01*
X187548272Y-96732662D01*
X187363961Y-96696000D01*
X187176039Y-96696000D01*
X186991728Y-96732662D01*
X186818112Y-96804576D01*
X186764431Y-96840444D01*
X186753688Y-96786434D01*
X186672652Y-96590797D01*
X186555007Y-96414728D01*
X186405272Y-96264993D01*
X186229203Y-96147348D01*
X186033566Y-96066312D01*
X185825878Y-96025000D01*
X185614122Y-96025000D01*
X185406434Y-96066312D01*
X185210797Y-96147348D01*
X185034728Y-96264993D01*
X184884993Y-96414728D01*
X184767348Y-96590797D01*
X184686312Y-96786434D01*
X184645000Y-96994122D01*
X173295000Y-96994122D01*
X173253688Y-96786434D01*
X173172652Y-96590797D01*
X173055007Y-96414728D01*
X172905272Y-96264993D01*
X172729203Y-96147348D01*
X172533566Y-96066312D01*
X172325878Y-96025000D01*
X172114122Y-96025000D01*
X171906434Y-96066312D01*
X171710797Y-96147348D01*
X171534728Y-96264993D01*
X171384993Y-96414728D01*
X171267348Y-96590797D01*
X171186312Y-96786434D01*
X171175569Y-96840444D01*
X171121888Y-96804576D01*
X170948272Y-96732662D01*
X170763961Y-96696000D01*
X170576039Y-96696000D01*
X170391728Y-96732662D01*
X170218112Y-96804576D01*
X170061860Y-96908980D01*
X169928980Y-97041860D01*
X169824576Y-97198112D01*
X169752662Y-97371728D01*
X169716000Y-97556039D01*
X160410000Y-97556039D01*
X160410000Y-91366131D01*
X172820000Y-91366131D01*
X172820000Y-91513869D01*
X172848822Y-91658767D01*
X172905359Y-91795258D01*
X172987437Y-91918097D01*
X173091903Y-92022563D01*
X173214742Y-92104641D01*
X173351233Y-92161178D01*
X173496131Y-92190000D01*
X173643869Y-92190000D01*
X173788767Y-92161178D01*
X173925258Y-92104641D01*
X174048097Y-92022563D01*
X174152563Y-91918097D01*
X174170000Y-91892001D01*
X174187437Y-91918097D01*
X174291903Y-92022563D01*
X174414742Y-92104641D01*
X174551233Y-92161178D01*
X174696131Y-92190000D01*
X174843869Y-92190000D01*
X174988767Y-92161178D01*
X175125258Y-92104641D01*
X175248097Y-92022563D01*
X175352563Y-91918097D01*
X175370000Y-91892001D01*
X175387437Y-91918097D01*
X175491903Y-92022563D01*
X175614742Y-92104641D01*
X175751233Y-92161178D01*
X175896131Y-92190000D01*
X176043869Y-92190000D01*
X176188767Y-92161178D01*
X176325258Y-92104641D01*
X176448097Y-92022563D01*
X176552563Y-91918097D01*
X176570000Y-91892001D01*
X176587437Y-91918097D01*
X176691903Y-92022563D01*
X176814742Y-92104641D01*
X176951233Y-92161178D01*
X177096131Y-92190000D01*
X177243869Y-92190000D01*
X177388767Y-92161178D01*
X177525258Y-92104641D01*
X177648097Y-92022563D01*
X177752563Y-91918097D01*
X177770000Y-91892001D01*
X177787437Y-91918097D01*
X177891903Y-92022563D01*
X178014742Y-92104641D01*
X178151233Y-92161178D01*
X178296131Y-92190000D01*
X178443869Y-92190000D01*
X178588767Y-92161178D01*
X178725258Y-92104641D01*
X178848097Y-92022563D01*
X178952563Y-91918097D01*
X178970000Y-91892001D01*
X178987437Y-91918097D01*
X179091903Y-92022563D01*
X179214742Y-92104641D01*
X179351233Y-92161178D01*
X179496131Y-92190000D01*
X179643869Y-92190000D01*
X179788767Y-92161178D01*
X179925258Y-92104641D01*
X180048097Y-92022563D01*
X180152563Y-91918097D01*
X180170000Y-91892001D01*
X180187437Y-91918097D01*
X180291903Y-92022563D01*
X180414742Y-92104641D01*
X180551233Y-92161178D01*
X180696131Y-92190000D01*
X180843869Y-92190000D01*
X180988767Y-92161178D01*
X181125258Y-92104641D01*
X181248097Y-92022563D01*
X181352563Y-91918097D01*
X181370000Y-91892001D01*
X181387437Y-91918097D01*
X181491903Y-92022563D01*
X181614742Y-92104641D01*
X181751233Y-92161178D01*
X181896131Y-92190000D01*
X182043869Y-92190000D01*
X182188767Y-92161178D01*
X182325258Y-92104641D01*
X182448097Y-92022563D01*
X182552563Y-91918097D01*
X182570000Y-91892001D01*
X182587437Y-91918097D01*
X182691903Y-92022563D01*
X182814742Y-92104641D01*
X182951233Y-92161178D01*
X183096131Y-92190000D01*
X183243869Y-92190000D01*
X183388767Y-92161178D01*
X183525258Y-92104641D01*
X183648097Y-92022563D01*
X183752563Y-91918097D01*
X183770000Y-91892001D01*
X183787437Y-91918097D01*
X183891903Y-92022563D01*
X184014742Y-92104641D01*
X184151233Y-92161178D01*
X184296131Y-92190000D01*
X184443869Y-92190000D01*
X184588767Y-92161178D01*
X184725258Y-92104641D01*
X184848097Y-92022563D01*
X184952563Y-91918097D01*
X185034641Y-91795258D01*
X185091178Y-91658767D01*
X185120000Y-91513869D01*
X185120000Y-91366131D01*
X185091178Y-91221233D01*
X185034641Y-91084742D01*
X184952563Y-90961903D01*
X184848097Y-90857437D01*
X184808500Y-90830979D01*
X184808500Y-84500043D01*
X184816422Y-84490390D01*
X184848922Y-84429587D01*
X184868935Y-84363612D01*
X184875693Y-84295000D01*
X184875693Y-83045000D01*
X184868935Y-82976388D01*
X184848922Y-82910413D01*
X184816422Y-82849610D01*
X184772685Y-82796315D01*
X184770827Y-82794790D01*
X192018000Y-82794790D01*
X192018000Y-83185210D01*
X192094167Y-83568128D01*
X192243574Y-83928829D01*
X192460480Y-84253451D01*
X192736549Y-84529520D01*
X193061171Y-84746426D01*
X193421872Y-84895833D01*
X193804790Y-84972000D01*
X194195210Y-84972000D01*
X194578128Y-84895833D01*
X194938829Y-84746426D01*
X195263451Y-84529520D01*
X195539520Y-84253451D01*
X195756426Y-83928829D01*
X195905833Y-83568128D01*
X195982000Y-83185210D01*
X195982000Y-82794790D01*
X195905833Y-82411872D01*
X195756426Y-82051171D01*
X195539520Y-81726549D01*
X195263451Y-81450480D01*
X194938829Y-81233574D01*
X194578128Y-81084167D01*
X194195210Y-81008000D01*
X193804790Y-81008000D01*
X193421872Y-81084167D01*
X193061171Y-81233574D01*
X192736549Y-81450480D01*
X192460480Y-81726549D01*
X192243574Y-82051171D01*
X192094167Y-82411872D01*
X192018000Y-82794790D01*
X184770827Y-82794790D01*
X184719390Y-82752578D01*
X184658587Y-82720078D01*
X184592612Y-82700065D01*
X184524000Y-82693307D01*
X184143000Y-82693307D01*
X184074388Y-82700065D01*
X184008413Y-82720078D01*
X183947610Y-82752578D01*
X183894315Y-82796315D01*
X183850578Y-82849610D01*
X183818078Y-82910413D01*
X183798065Y-82976388D01*
X183791307Y-83045000D01*
X183791307Y-84295000D01*
X183798065Y-84363612D01*
X183818078Y-84429587D01*
X183850578Y-84490390D01*
X183858500Y-84500043D01*
X183858501Y-90890839D01*
X183787437Y-90961903D01*
X183770000Y-90987999D01*
X183752563Y-90961903D01*
X183648097Y-90857437D01*
X183608500Y-90830979D01*
X183608500Y-84500043D01*
X183616422Y-84490390D01*
X183648922Y-84429587D01*
X183668935Y-84363612D01*
X183675693Y-84295000D01*
X183675693Y-83045000D01*
X183668935Y-82976388D01*
X183648922Y-82910413D01*
X183616422Y-82849610D01*
X183572685Y-82796315D01*
X183519390Y-82752578D01*
X183458587Y-82720078D01*
X183392612Y-82700065D01*
X183324000Y-82693307D01*
X182943000Y-82693307D01*
X182874388Y-82700065D01*
X182808413Y-82720078D01*
X182747610Y-82752578D01*
X182694315Y-82796315D01*
X182650578Y-82849610D01*
X182618078Y-82910413D01*
X182598065Y-82976388D01*
X182591307Y-83045000D01*
X182591307Y-84295000D01*
X182598065Y-84363612D01*
X182618078Y-84429587D01*
X182650578Y-84490390D01*
X182658500Y-84500043D01*
X182658501Y-90890839D01*
X182587437Y-90961903D01*
X182570000Y-90987999D01*
X182552563Y-90961903D01*
X182448097Y-90857437D01*
X182408500Y-90830979D01*
X182408500Y-84500043D01*
X182416422Y-84490390D01*
X182448922Y-84429587D01*
X182468935Y-84363612D01*
X182475693Y-84295000D01*
X182475693Y-83045000D01*
X182468935Y-82976388D01*
X182448922Y-82910413D01*
X182416422Y-82849610D01*
X182372685Y-82796315D01*
X182319390Y-82752578D01*
X182258587Y-82720078D01*
X182192612Y-82700065D01*
X182124000Y-82693307D01*
X181743000Y-82693307D01*
X181674388Y-82700065D01*
X181608413Y-82720078D01*
X181547610Y-82752578D01*
X181494315Y-82796315D01*
X181450578Y-82849610D01*
X181418078Y-82910413D01*
X181398065Y-82976388D01*
X181391307Y-83045000D01*
X181391307Y-84295000D01*
X181398065Y-84363612D01*
X181418078Y-84429587D01*
X181450578Y-84490390D01*
X181458500Y-84500043D01*
X181458501Y-90890839D01*
X181387437Y-90961903D01*
X181370000Y-90987999D01*
X181352563Y-90961903D01*
X181248097Y-90857437D01*
X181208500Y-90830979D01*
X181208500Y-84500043D01*
X181216422Y-84490390D01*
X181248922Y-84429587D01*
X181268935Y-84363612D01*
X181275693Y-84295000D01*
X181275693Y-83045000D01*
X181268935Y-82976388D01*
X181248922Y-82910413D01*
X181216422Y-82849610D01*
X181172685Y-82796315D01*
X181119390Y-82752578D01*
X181058587Y-82720078D01*
X180992612Y-82700065D01*
X180924000Y-82693307D01*
X180543000Y-82693307D01*
X180474388Y-82700065D01*
X180408413Y-82720078D01*
X180347610Y-82752578D01*
X180294315Y-82796315D01*
X180250578Y-82849610D01*
X180218078Y-82910413D01*
X180198065Y-82976388D01*
X180191307Y-83045000D01*
X180191307Y-84295000D01*
X180198065Y-84363612D01*
X180218078Y-84429587D01*
X180250578Y-84490390D01*
X180258500Y-84500043D01*
X180258501Y-90890839D01*
X180187437Y-90961903D01*
X180170000Y-90987999D01*
X180152563Y-90961903D01*
X180048097Y-90857437D01*
X180008500Y-90830979D01*
X180008500Y-84500043D01*
X180016422Y-84490390D01*
X180048922Y-84429587D01*
X180068935Y-84363612D01*
X180075693Y-84295000D01*
X180075693Y-83045000D01*
X180068935Y-82976388D01*
X180048922Y-82910413D01*
X180016422Y-82849610D01*
X179972685Y-82796315D01*
X179919390Y-82752578D01*
X179858587Y-82720078D01*
X179792612Y-82700065D01*
X179724000Y-82693307D01*
X179343000Y-82693307D01*
X179274388Y-82700065D01*
X179208413Y-82720078D01*
X179147610Y-82752578D01*
X179094315Y-82796315D01*
X179050578Y-82849610D01*
X179018078Y-82910413D01*
X178998065Y-82976388D01*
X178991307Y-83045000D01*
X178991307Y-84295000D01*
X178998065Y-84363612D01*
X179018078Y-84429587D01*
X179050578Y-84490390D01*
X179058500Y-84500043D01*
X179058501Y-90890839D01*
X178987437Y-90961903D01*
X178970000Y-90987999D01*
X178952563Y-90961903D01*
X178848097Y-90857437D01*
X178808500Y-90830979D01*
X178808500Y-84500043D01*
X178816422Y-84490390D01*
X178848922Y-84429587D01*
X178868935Y-84363612D01*
X178875693Y-84295000D01*
X178875693Y-83045000D01*
X178868935Y-82976388D01*
X178848922Y-82910413D01*
X178816422Y-82849610D01*
X178772685Y-82796315D01*
X178719390Y-82752578D01*
X178658587Y-82720078D01*
X178592612Y-82700065D01*
X178524000Y-82693307D01*
X178143000Y-82693307D01*
X178074388Y-82700065D01*
X178008413Y-82720078D01*
X177947610Y-82752578D01*
X177894315Y-82796315D01*
X177850578Y-82849610D01*
X177818078Y-82910413D01*
X177798065Y-82976388D01*
X177791307Y-83045000D01*
X177791307Y-84295000D01*
X177798065Y-84363612D01*
X177818078Y-84429587D01*
X177850578Y-84490390D01*
X177858500Y-84500043D01*
X177858501Y-90890839D01*
X177787437Y-90961903D01*
X177770000Y-90987999D01*
X177752563Y-90961903D01*
X177648097Y-90857437D01*
X177608500Y-90830979D01*
X177608500Y-84500043D01*
X177616422Y-84490390D01*
X177648922Y-84429587D01*
X177668935Y-84363612D01*
X177675693Y-84295000D01*
X177675693Y-83045000D01*
X177668935Y-82976388D01*
X177648922Y-82910413D01*
X177616422Y-82849610D01*
X177572685Y-82796315D01*
X177519390Y-82752578D01*
X177458587Y-82720078D01*
X177392612Y-82700065D01*
X177324000Y-82693307D01*
X176943000Y-82693307D01*
X176874388Y-82700065D01*
X176808413Y-82720078D01*
X176747610Y-82752578D01*
X176694315Y-82796315D01*
X176650578Y-82849610D01*
X176618078Y-82910413D01*
X176598065Y-82976388D01*
X176591307Y-83045000D01*
X176591307Y-84295000D01*
X176598065Y-84363612D01*
X176618078Y-84429587D01*
X176650578Y-84490390D01*
X176658500Y-84500043D01*
X176658501Y-90890839D01*
X176587437Y-90961903D01*
X176570000Y-90987999D01*
X176552563Y-90961903D01*
X176448097Y-90857437D01*
X176408500Y-90830979D01*
X176408500Y-84500043D01*
X176416422Y-84490390D01*
X176448922Y-84429587D01*
X176468935Y-84363612D01*
X176475693Y-84295000D01*
X176475693Y-83045000D01*
X176468935Y-82976388D01*
X176448922Y-82910413D01*
X176416422Y-82849610D01*
X176372685Y-82796315D01*
X176319390Y-82752578D01*
X176258587Y-82720078D01*
X176192612Y-82700065D01*
X176124000Y-82693307D01*
X175743000Y-82693307D01*
X175674388Y-82700065D01*
X175608413Y-82720078D01*
X175547610Y-82752578D01*
X175494315Y-82796315D01*
X175450578Y-82849610D01*
X175418078Y-82910413D01*
X175398065Y-82976388D01*
X175391307Y-83045000D01*
X175391307Y-84295000D01*
X175398065Y-84363612D01*
X175418078Y-84429587D01*
X175450578Y-84490390D01*
X175458500Y-84500043D01*
X175458501Y-90890839D01*
X175387437Y-90961903D01*
X175370000Y-90987999D01*
X175352563Y-90961903D01*
X175248097Y-90857437D01*
X175208500Y-90830979D01*
X175208500Y-84500043D01*
X175216422Y-84490390D01*
X175248922Y-84429587D01*
X175268935Y-84363612D01*
X175275693Y-84295000D01*
X175275693Y-83045000D01*
X175268935Y-82976388D01*
X175248922Y-82910413D01*
X175216422Y-82849610D01*
X175172685Y-82796315D01*
X175119390Y-82752578D01*
X175058587Y-82720078D01*
X174992612Y-82700065D01*
X174924000Y-82693307D01*
X174543000Y-82693307D01*
X174474388Y-82700065D01*
X174408413Y-82720078D01*
X174347610Y-82752578D01*
X174294315Y-82796315D01*
X174250578Y-82849610D01*
X174218078Y-82910413D01*
X174198065Y-82976388D01*
X174191307Y-83045000D01*
X174191307Y-84295000D01*
X174198065Y-84363612D01*
X174218078Y-84429587D01*
X174250578Y-84490390D01*
X174258500Y-84500043D01*
X174258501Y-90890839D01*
X174187437Y-90961903D01*
X174170000Y-90987999D01*
X174152563Y-90961903D01*
X174048097Y-90857437D01*
X174008500Y-90830979D01*
X174008500Y-84500043D01*
X174016422Y-84490390D01*
X174048922Y-84429587D01*
X174068935Y-84363612D01*
X174075693Y-84295000D01*
X174075693Y-83045000D01*
X174068935Y-82976388D01*
X174048922Y-82910413D01*
X174016422Y-82849610D01*
X173972685Y-82796315D01*
X173919390Y-82752578D01*
X173858587Y-82720078D01*
X173792612Y-82700065D01*
X173724000Y-82693307D01*
X173343000Y-82693307D01*
X173274388Y-82700065D01*
X173208413Y-82720078D01*
X173147610Y-82752578D01*
X173094315Y-82796315D01*
X173050578Y-82849610D01*
X173018078Y-82910413D01*
X172998065Y-82976388D01*
X172991307Y-83045000D01*
X172991307Y-84295000D01*
X172998065Y-84363612D01*
X173018078Y-84429587D01*
X173050578Y-84490390D01*
X173058500Y-84500043D01*
X173058501Y-90890839D01*
X172987437Y-90961903D01*
X172905359Y-91084742D01*
X172848822Y-91221233D01*
X172820000Y-91366131D01*
X160410000Y-91366131D01*
X160410000Y-82724790D01*
X162018000Y-82724790D01*
X162018000Y-83115210D01*
X162094167Y-83498128D01*
X162243574Y-83858829D01*
X162460480Y-84183451D01*
X162736549Y-84459520D01*
X163061171Y-84676426D01*
X163421872Y-84825833D01*
X163804790Y-84902000D01*
X164195210Y-84902000D01*
X164578128Y-84825833D01*
X164938829Y-84676426D01*
X165263451Y-84459520D01*
X165539520Y-84183451D01*
X165756426Y-83858829D01*
X165905833Y-83498128D01*
X165982000Y-83115210D01*
X165982000Y-82724790D01*
X165905833Y-82341872D01*
X165756426Y-81981171D01*
X165539520Y-81656549D01*
X165263451Y-81380480D01*
X164938829Y-81163574D01*
X164578128Y-81014167D01*
X164195210Y-80938000D01*
X163804790Y-80938000D01*
X163421872Y-81014167D01*
X163061171Y-81163574D01*
X162736549Y-81380480D01*
X162460480Y-81656549D01*
X162243574Y-81981171D01*
X162094167Y-82341872D01*
X162018000Y-82724790D01*
X160410000Y-82724790D01*
X160410000Y-70030000D01*
X173103017Y-70030000D01*
X173105000Y-70050134D01*
X173105001Y-81009856D01*
X173103017Y-81030000D01*
X173110933Y-81110374D01*
X173134377Y-81187659D01*
X173172449Y-81258885D01*
X173223684Y-81321316D01*
X173286115Y-81372551D01*
X173357341Y-81410623D01*
X173434626Y-81434067D01*
X173494866Y-81440000D01*
X173515000Y-81441983D01*
X173535134Y-81440000D01*
X184494866Y-81440000D01*
X184515000Y-81441983D01*
X184535134Y-81440000D01*
X184595374Y-81434067D01*
X184672659Y-81410623D01*
X184743885Y-81372551D01*
X184806316Y-81321316D01*
X184857551Y-81258885D01*
X184895623Y-81187659D01*
X184919067Y-81110374D01*
X184926983Y-81030000D01*
X184925000Y-81009866D01*
X184925000Y-70050134D01*
X184926983Y-70030000D01*
X184919067Y-69949626D01*
X184895623Y-69872341D01*
X184857551Y-69801115D01*
X184806316Y-69738684D01*
X184743885Y-69687449D01*
X184672659Y-69649377D01*
X184595374Y-69625933D01*
X184535134Y-69620000D01*
X184515000Y-69618017D01*
X184494866Y-69620000D01*
X173535134Y-69620000D01*
X173515000Y-69618017D01*
X173494866Y-69620000D01*
X173434626Y-69625933D01*
X173357341Y-69649377D01*
X173286115Y-69687449D01*
X173223684Y-69738684D01*
X173172449Y-69801115D01*
X173134377Y-69872341D01*
X173110933Y-69949626D01*
X173103017Y-70030000D01*
X160410000Y-70030000D01*
X160410000Y-67794790D01*
X162018000Y-67794790D01*
X162018000Y-68185210D01*
X162094167Y-68568128D01*
X162243574Y-68928829D01*
X162460480Y-69253451D01*
X162736549Y-69529520D01*
X163061171Y-69746426D01*
X163421872Y-69895833D01*
X163804790Y-69972000D01*
X164195210Y-69972000D01*
X164578128Y-69895833D01*
X164938829Y-69746426D01*
X165263451Y-69529520D01*
X165539520Y-69253451D01*
X165756426Y-68928829D01*
X165905833Y-68568128D01*
X165982000Y-68185210D01*
X165982000Y-67794790D01*
X165905833Y-67411872D01*
X165756426Y-67051171D01*
X165539520Y-66726549D01*
X165263451Y-66450480D01*
X164938829Y-66233574D01*
X164578128Y-66084167D01*
X164195210Y-66008000D01*
X163804790Y-66008000D01*
X163421872Y-66084167D01*
X163061171Y-66233574D01*
X162736549Y-66450480D01*
X162460480Y-66726549D01*
X162243574Y-67051171D01*
X162094167Y-67411872D01*
X162018000Y-67794790D01*
X160410000Y-67794790D01*
X160410000Y-58366131D01*
X172990000Y-58366131D01*
X172990000Y-58513869D01*
X173018822Y-58658767D01*
X173075359Y-58795258D01*
X173157437Y-58918097D01*
X173261903Y-59022563D01*
X173265000Y-59024632D01*
X173265001Y-66494719D01*
X173214315Y-66536315D01*
X173170578Y-66589610D01*
X173138078Y-66650413D01*
X173118065Y-66716388D01*
X173111307Y-66785000D01*
X173111307Y-68035000D01*
X173118065Y-68103612D01*
X173138078Y-68169587D01*
X173170578Y-68230390D01*
X173214315Y-68283685D01*
X173267610Y-68327422D01*
X173328413Y-68359922D01*
X173394388Y-68379935D01*
X173463000Y-68386693D01*
X173844000Y-68386693D01*
X173912612Y-68379935D01*
X173978587Y-68359922D01*
X174039390Y-68327422D01*
X174092685Y-68283685D01*
X174136422Y-68230390D01*
X174168922Y-68169587D01*
X174188935Y-68103612D01*
X174195693Y-68035000D01*
X174195693Y-67457605D01*
X174208127Y-67416616D01*
X174215000Y-67346832D01*
X174215000Y-67346831D01*
X174217298Y-67323501D01*
X174215000Y-67300171D01*
X174215000Y-59024632D01*
X174218097Y-59022563D01*
X174322563Y-58918097D01*
X174340000Y-58892001D01*
X174357437Y-58918097D01*
X174378501Y-58939161D01*
X174378500Y-66579957D01*
X174370578Y-66589610D01*
X174338078Y-66650413D01*
X174318065Y-66716388D01*
X174311307Y-66785000D01*
X174311307Y-68035000D01*
X174318065Y-68103612D01*
X174338078Y-68169587D01*
X174370578Y-68230390D01*
X174414315Y-68283685D01*
X174467610Y-68327422D01*
X174528413Y-68359922D01*
X174594388Y-68379935D01*
X174663000Y-68386693D01*
X175044000Y-68386693D01*
X175112612Y-68379935D01*
X175178587Y-68359922D01*
X175239390Y-68327422D01*
X175292685Y-68283685D01*
X175336422Y-68230390D01*
X175368922Y-68169587D01*
X175388935Y-68103612D01*
X175395693Y-68035000D01*
X175395693Y-66785000D01*
X175388935Y-66716388D01*
X175368922Y-66650413D01*
X175336422Y-66589610D01*
X175328500Y-66579957D01*
X175328500Y-59082430D01*
X175418097Y-59022563D01*
X175522563Y-58918097D01*
X175540000Y-58892001D01*
X175557437Y-58918097D01*
X175578501Y-58939161D01*
X175578500Y-66579957D01*
X175570578Y-66589610D01*
X175538078Y-66650413D01*
X175518065Y-66716388D01*
X175511307Y-66785000D01*
X175511307Y-68035000D01*
X175518065Y-68103612D01*
X175538078Y-68169587D01*
X175570578Y-68230390D01*
X175614315Y-68283685D01*
X175667610Y-68327422D01*
X175728413Y-68359922D01*
X175794388Y-68379935D01*
X175863000Y-68386693D01*
X176244000Y-68386693D01*
X176312612Y-68379935D01*
X176378587Y-68359922D01*
X176439390Y-68327422D01*
X176492685Y-68283685D01*
X176536422Y-68230390D01*
X176568922Y-68169587D01*
X176588935Y-68103612D01*
X176595693Y-68035000D01*
X176595693Y-66785000D01*
X176588935Y-66716388D01*
X176568922Y-66650413D01*
X176536422Y-66589610D01*
X176528500Y-66579957D01*
X176528500Y-59082430D01*
X176618097Y-59022563D01*
X176722563Y-58918097D01*
X176740000Y-58892001D01*
X176757437Y-58918097D01*
X176778501Y-58939161D01*
X176778500Y-66579957D01*
X176770578Y-66589610D01*
X176738078Y-66650413D01*
X176718065Y-66716388D01*
X176711307Y-66785000D01*
X176711307Y-68035000D01*
X176718065Y-68103612D01*
X176738078Y-68169587D01*
X176770578Y-68230390D01*
X176814315Y-68283685D01*
X176867610Y-68327422D01*
X176928413Y-68359922D01*
X176994388Y-68379935D01*
X177063000Y-68386693D01*
X177444000Y-68386693D01*
X177512612Y-68379935D01*
X177578587Y-68359922D01*
X177639390Y-68327422D01*
X177692685Y-68283685D01*
X177736422Y-68230390D01*
X177768922Y-68169587D01*
X177788935Y-68103612D01*
X177795693Y-68035000D01*
X177795693Y-66785000D01*
X177788935Y-66716388D01*
X177768922Y-66650413D01*
X177736422Y-66589610D01*
X177728500Y-66579957D01*
X177728500Y-59082430D01*
X177818097Y-59022563D01*
X177922563Y-58918097D01*
X177940000Y-58892001D01*
X177957437Y-58918097D01*
X177978501Y-58939161D01*
X177978500Y-66579957D01*
X177970578Y-66589610D01*
X177938078Y-66650413D01*
X177918065Y-66716388D01*
X177911307Y-66785000D01*
X177911307Y-68035000D01*
X177918065Y-68103612D01*
X177938078Y-68169587D01*
X177970578Y-68230390D01*
X178014315Y-68283685D01*
X178067610Y-68327422D01*
X178128413Y-68359922D01*
X178194388Y-68379935D01*
X178263000Y-68386693D01*
X178644000Y-68386693D01*
X178712612Y-68379935D01*
X178778587Y-68359922D01*
X178839390Y-68327422D01*
X178892685Y-68283685D01*
X178936422Y-68230390D01*
X178968922Y-68169587D01*
X178988935Y-68103612D01*
X178995693Y-68035000D01*
X178995693Y-66785000D01*
X178988935Y-66716388D01*
X178968922Y-66650413D01*
X178936422Y-66589610D01*
X178928500Y-66579957D01*
X178928500Y-59082430D01*
X179018097Y-59022563D01*
X179122563Y-58918097D01*
X179140000Y-58892001D01*
X179157437Y-58918097D01*
X179178501Y-58939161D01*
X179178500Y-66579957D01*
X179170578Y-66589610D01*
X179138078Y-66650413D01*
X179118065Y-66716388D01*
X179111307Y-66785000D01*
X179111307Y-68035000D01*
X179118065Y-68103612D01*
X179138078Y-68169587D01*
X179170578Y-68230390D01*
X179214315Y-68283685D01*
X179267610Y-68327422D01*
X179328413Y-68359922D01*
X179394388Y-68379935D01*
X179463000Y-68386693D01*
X179844000Y-68386693D01*
X179912612Y-68379935D01*
X179978587Y-68359922D01*
X180039390Y-68327422D01*
X180092685Y-68283685D01*
X180136422Y-68230390D01*
X180168922Y-68169587D01*
X180188935Y-68103612D01*
X180195693Y-68035000D01*
X180195693Y-66785000D01*
X180188935Y-66716388D01*
X180168922Y-66650413D01*
X180136422Y-66589610D01*
X180128500Y-66579957D01*
X180128500Y-59082430D01*
X180218097Y-59022563D01*
X180322563Y-58918097D01*
X180340000Y-58892001D01*
X180357437Y-58918097D01*
X180378501Y-58939161D01*
X180378500Y-66579957D01*
X180370578Y-66589610D01*
X180338078Y-66650413D01*
X180318065Y-66716388D01*
X180311307Y-66785000D01*
X180311307Y-68035000D01*
X180318065Y-68103612D01*
X180338078Y-68169587D01*
X180370578Y-68230390D01*
X180414315Y-68283685D01*
X180467610Y-68327422D01*
X180528413Y-68359922D01*
X180594388Y-68379935D01*
X180663000Y-68386693D01*
X181044000Y-68386693D01*
X181112612Y-68379935D01*
X181178587Y-68359922D01*
X181239390Y-68327422D01*
X181292685Y-68283685D01*
X181336422Y-68230390D01*
X181368922Y-68169587D01*
X181388935Y-68103612D01*
X181395693Y-68035000D01*
X181395693Y-66785000D01*
X181388935Y-66716388D01*
X181368922Y-66650413D01*
X181336422Y-66589610D01*
X181328500Y-66579957D01*
X181328500Y-59082430D01*
X181418097Y-59022563D01*
X181522563Y-58918097D01*
X181540000Y-58892001D01*
X181557437Y-58918097D01*
X181578501Y-58939161D01*
X181578500Y-66579957D01*
X181570578Y-66589610D01*
X181538078Y-66650413D01*
X181518065Y-66716388D01*
X181511307Y-66785000D01*
X181511307Y-68035000D01*
X181518065Y-68103612D01*
X181538078Y-68169587D01*
X181570578Y-68230390D01*
X181614315Y-68283685D01*
X181667610Y-68327422D01*
X181728413Y-68359922D01*
X181794388Y-68379935D01*
X181863000Y-68386693D01*
X182244000Y-68386693D01*
X182312612Y-68379935D01*
X182378587Y-68359922D01*
X182439390Y-68327422D01*
X182492685Y-68283685D01*
X182536422Y-68230390D01*
X182568922Y-68169587D01*
X182588935Y-68103612D01*
X182595693Y-68035000D01*
X182595693Y-66785000D01*
X182588935Y-66716388D01*
X182568922Y-66650413D01*
X182536422Y-66589610D01*
X182528500Y-66579957D01*
X182528500Y-59082430D01*
X182618097Y-59022563D01*
X182722563Y-58918097D01*
X182740000Y-58892001D01*
X182757437Y-58918097D01*
X182778501Y-58939161D01*
X182778500Y-66579957D01*
X182770578Y-66589610D01*
X182738078Y-66650413D01*
X182718065Y-66716388D01*
X182711307Y-66785000D01*
X182711307Y-68035000D01*
X182718065Y-68103612D01*
X182738078Y-68169587D01*
X182770578Y-68230390D01*
X182814315Y-68283685D01*
X182867610Y-68327422D01*
X182928413Y-68359922D01*
X182994388Y-68379935D01*
X183063000Y-68386693D01*
X183444000Y-68386693D01*
X183512612Y-68379935D01*
X183578587Y-68359922D01*
X183639390Y-68327422D01*
X183692685Y-68283685D01*
X183736422Y-68230390D01*
X183768922Y-68169587D01*
X183788935Y-68103612D01*
X183795693Y-68035000D01*
X183795693Y-66785000D01*
X183788935Y-66716388D01*
X183768922Y-66650413D01*
X183736422Y-66589610D01*
X183728500Y-66579957D01*
X183728500Y-59082430D01*
X183818097Y-59022563D01*
X183922563Y-58918097D01*
X183940000Y-58892001D01*
X183957437Y-58918097D01*
X183978501Y-58939161D01*
X183978500Y-66579957D01*
X183970578Y-66589610D01*
X183938078Y-66650413D01*
X183918065Y-66716388D01*
X183911307Y-66785000D01*
X183911307Y-68035000D01*
X183918065Y-68103612D01*
X183938078Y-68169587D01*
X183970578Y-68230390D01*
X184014315Y-68283685D01*
X184067610Y-68327422D01*
X184128413Y-68359922D01*
X184194388Y-68379935D01*
X184263000Y-68386693D01*
X184644000Y-68386693D01*
X184712612Y-68379935D01*
X184778587Y-68359922D01*
X184839390Y-68327422D01*
X184892685Y-68283685D01*
X184936422Y-68230390D01*
X184968922Y-68169587D01*
X184988935Y-68103612D01*
X184995693Y-68035000D01*
X184995693Y-67794790D01*
X192018000Y-67794790D01*
X192018000Y-68185210D01*
X192094167Y-68568128D01*
X192243574Y-68928829D01*
X192460480Y-69253451D01*
X192736549Y-69529520D01*
X193061171Y-69746426D01*
X193421872Y-69895833D01*
X193804790Y-69972000D01*
X194195210Y-69972000D01*
X194578128Y-69895833D01*
X194938829Y-69746426D01*
X195263451Y-69529520D01*
X195539520Y-69253451D01*
X195756426Y-68928829D01*
X195905833Y-68568128D01*
X195982000Y-68185210D01*
X195982000Y-67794790D01*
X195905833Y-67411872D01*
X195756426Y-67051171D01*
X195539520Y-66726549D01*
X195263451Y-66450480D01*
X194938829Y-66233574D01*
X194578128Y-66084167D01*
X194195210Y-66008000D01*
X193804790Y-66008000D01*
X193421872Y-66084167D01*
X193061171Y-66233574D01*
X192736549Y-66450480D01*
X192460480Y-66726549D01*
X192243574Y-67051171D01*
X192094167Y-67411872D01*
X192018000Y-67794790D01*
X184995693Y-67794790D01*
X184995693Y-66785000D01*
X184988935Y-66716388D01*
X184968922Y-66650413D01*
X184936422Y-66589610D01*
X184928500Y-66579957D01*
X184928500Y-59082430D01*
X185018097Y-59022563D01*
X185122563Y-58918097D01*
X185204641Y-58795258D01*
X185261178Y-58658767D01*
X185290000Y-58513869D01*
X185290000Y-58366131D01*
X185261178Y-58221233D01*
X185204641Y-58084742D01*
X185122563Y-57961903D01*
X185018097Y-57857437D01*
X184895258Y-57775359D01*
X184758767Y-57718822D01*
X184613869Y-57690000D01*
X184466131Y-57690000D01*
X184321233Y-57718822D01*
X184184742Y-57775359D01*
X184061903Y-57857437D01*
X183957437Y-57961903D01*
X183940000Y-57987999D01*
X183922563Y-57961903D01*
X183818097Y-57857437D01*
X183695258Y-57775359D01*
X183558767Y-57718822D01*
X183413869Y-57690000D01*
X183266131Y-57690000D01*
X183121233Y-57718822D01*
X182984742Y-57775359D01*
X182861903Y-57857437D01*
X182757437Y-57961903D01*
X182740000Y-57987999D01*
X182722563Y-57961903D01*
X182618097Y-57857437D01*
X182495258Y-57775359D01*
X182358767Y-57718822D01*
X182213869Y-57690000D01*
X182066131Y-57690000D01*
X181921233Y-57718822D01*
X181784742Y-57775359D01*
X181661903Y-57857437D01*
X181557437Y-57961903D01*
X181540000Y-57987999D01*
X181522563Y-57961903D01*
X181418097Y-57857437D01*
X181295258Y-57775359D01*
X181158767Y-57718822D01*
X181013869Y-57690000D01*
X180866131Y-57690000D01*
X180721233Y-57718822D01*
X180584742Y-57775359D01*
X180461903Y-57857437D01*
X180357437Y-57961903D01*
X180340000Y-57987999D01*
X180322563Y-57961903D01*
X180218097Y-57857437D01*
X180095258Y-57775359D01*
X179958767Y-57718822D01*
X179813869Y-57690000D01*
X179666131Y-57690000D01*
X179521233Y-57718822D01*
X179384742Y-57775359D01*
X179261903Y-57857437D01*
X179157437Y-57961903D01*
X179140000Y-57987999D01*
X179122563Y-57961903D01*
X179018097Y-57857437D01*
X178895258Y-57775359D01*
X178758767Y-57718822D01*
X178613869Y-57690000D01*
X178466131Y-57690000D01*
X178321233Y-57718822D01*
X178184742Y-57775359D01*
X178061903Y-57857437D01*
X177957437Y-57961903D01*
X177940000Y-57987999D01*
X177922563Y-57961903D01*
X177818097Y-57857437D01*
X177695258Y-57775359D01*
X177558767Y-57718822D01*
X177413869Y-57690000D01*
X177266131Y-57690000D01*
X177121233Y-57718822D01*
X176984742Y-57775359D01*
X176861903Y-57857437D01*
X176757437Y-57961903D01*
X176740000Y-57987999D01*
X176722563Y-57961903D01*
X176618097Y-57857437D01*
X176495258Y-57775359D01*
X176358767Y-57718822D01*
X176213869Y-57690000D01*
X176066131Y-57690000D01*
X175921233Y-57718822D01*
X175784742Y-57775359D01*
X175661903Y-57857437D01*
X175557437Y-57961903D01*
X175540000Y-57987999D01*
X175522563Y-57961903D01*
X175418097Y-57857437D01*
X175295258Y-57775359D01*
X175158767Y-57718822D01*
X175013869Y-57690000D01*
X174866131Y-57690000D01*
X174721233Y-57718822D01*
X174584742Y-57775359D01*
X174461903Y-57857437D01*
X174357437Y-57961903D01*
X174340000Y-57987999D01*
X174322563Y-57961903D01*
X174218097Y-57857437D01*
X174095258Y-57775359D01*
X173958767Y-57718822D01*
X173813869Y-57690000D01*
X173666131Y-57690000D01*
X173521233Y-57718822D01*
X173384742Y-57775359D01*
X173261903Y-57857437D01*
X173157437Y-57961903D01*
X173075359Y-58084742D01*
X173018822Y-58221233D01*
X172990000Y-58366131D01*
X160410000Y-58366131D01*
X160410000Y-53336039D01*
X169736000Y-53336039D01*
X169736000Y-53523961D01*
X169772662Y-53708272D01*
X169844576Y-53881888D01*
X169948980Y-54038140D01*
X170081860Y-54171020D01*
X170238112Y-54275424D01*
X170411728Y-54347338D01*
X170596039Y-54384000D01*
X170783961Y-54384000D01*
X170968272Y-54347338D01*
X171141888Y-54275424D01*
X171195569Y-54239556D01*
X171206312Y-54293566D01*
X171287348Y-54489203D01*
X171404993Y-54665272D01*
X171554728Y-54815007D01*
X171730797Y-54932652D01*
X171926434Y-55013688D01*
X172134122Y-55055000D01*
X172345878Y-55055000D01*
X172553566Y-55013688D01*
X172749203Y-54932652D01*
X172925272Y-54815007D01*
X173075007Y-54665272D01*
X173192652Y-54489203D01*
X173273688Y-54293566D01*
X173315000Y-54085878D01*
X173315000Y-53874122D01*
X184665000Y-53874122D01*
X184665000Y-54085878D01*
X184706312Y-54293566D01*
X184787348Y-54489203D01*
X184904993Y-54665272D01*
X185054728Y-54815007D01*
X185230797Y-54932652D01*
X185426434Y-55013688D01*
X185634122Y-55055000D01*
X185845878Y-55055000D01*
X186053566Y-55013688D01*
X186249203Y-54932652D01*
X186425272Y-54815007D01*
X186575007Y-54665272D01*
X186692652Y-54489203D01*
X186773688Y-54293566D01*
X186784431Y-54239556D01*
X186838112Y-54275424D01*
X187011728Y-54347338D01*
X187196039Y-54384000D01*
X187383961Y-54384000D01*
X187568272Y-54347338D01*
X187741888Y-54275424D01*
X187898140Y-54171020D01*
X188031020Y-54038140D01*
X188135424Y-53881888D01*
X188207338Y-53708272D01*
X188244000Y-53523961D01*
X188244000Y-53336039D01*
X188207338Y-53151728D01*
X188135424Y-52978112D01*
X188031020Y-52821860D01*
X187898140Y-52688980D01*
X187741888Y-52584576D01*
X187568272Y-52512662D01*
X187383961Y-52476000D01*
X187196039Y-52476000D01*
X187011728Y-52512662D01*
X186838112Y-52584576D01*
X186681860Y-52688980D01*
X186548980Y-52821860D01*
X186444576Y-52978112D01*
X186386251Y-53118920D01*
X186249203Y-53027348D01*
X186053566Y-52946312D01*
X185991369Y-52933940D01*
X185951821Y-52894392D01*
X186107790Y-52838914D01*
X186197694Y-52673893D01*
X186253676Y-52494503D01*
X186273586Y-52307639D01*
X186256657Y-52120481D01*
X186203540Y-51940223D01*
X186116279Y-51773790D01*
X186107790Y-51761086D01*
X185951820Y-51705607D01*
X185357426Y-52300000D01*
X185371569Y-52314142D01*
X185329142Y-52356569D01*
X185315000Y-52342426D01*
X184720607Y-52936820D01*
X184776086Y-53092790D01*
X184941107Y-53182694D01*
X184998970Y-53200751D01*
X184904993Y-53294728D01*
X184787348Y-53470797D01*
X184706312Y-53666434D01*
X184665000Y-53874122D01*
X173315000Y-53874122D01*
X173273688Y-53666434D01*
X173192652Y-53470797D01*
X173075007Y-53294728D01*
X172981555Y-53201276D01*
X173024777Y-53188540D01*
X173191210Y-53101279D01*
X173203914Y-53092790D01*
X173259393Y-52936820D01*
X172665000Y-52342426D01*
X172650858Y-52356569D01*
X172608431Y-52314142D01*
X172622574Y-52300000D01*
X172707426Y-52300000D01*
X173301820Y-52894393D01*
X173457790Y-52838914D01*
X173547694Y-52673893D01*
X173603676Y-52494503D01*
X173623586Y-52307639D01*
X173622205Y-52292361D01*
X184356414Y-52292361D01*
X184373343Y-52479519D01*
X184426460Y-52659777D01*
X184513721Y-52826210D01*
X184522210Y-52838914D01*
X184678180Y-52894393D01*
X185272574Y-52300000D01*
X184678180Y-51705607D01*
X184522210Y-51761086D01*
X184432306Y-51926107D01*
X184376324Y-52105497D01*
X184356414Y-52292361D01*
X173622205Y-52292361D01*
X173606657Y-52120481D01*
X173553540Y-51940223D01*
X173466279Y-51773790D01*
X173457790Y-51761086D01*
X173301820Y-51705607D01*
X172707426Y-52300000D01*
X172622574Y-52300000D01*
X172028180Y-51705607D01*
X171872210Y-51761086D01*
X171782306Y-51926107D01*
X171726324Y-52105497D01*
X171706414Y-52292361D01*
X171723343Y-52479519D01*
X171776460Y-52659777D01*
X171863721Y-52826210D01*
X171872210Y-52838914D01*
X172028179Y-52894392D01*
X171988631Y-52933940D01*
X171926434Y-52946312D01*
X171730797Y-53027348D01*
X171593749Y-53118920D01*
X171535424Y-52978112D01*
X171431020Y-52821860D01*
X171298140Y-52688980D01*
X171141888Y-52584576D01*
X170968272Y-52512662D01*
X170783961Y-52476000D01*
X170596039Y-52476000D01*
X170411728Y-52512662D01*
X170238112Y-52584576D01*
X170081860Y-52688980D01*
X169948980Y-52821860D01*
X169844576Y-52978112D01*
X169772662Y-53151728D01*
X169736000Y-53336039D01*
X160410000Y-53336039D01*
X160410000Y-51086039D01*
X169736000Y-51086039D01*
X169736000Y-51273961D01*
X169772662Y-51458272D01*
X169844576Y-51631888D01*
X169948980Y-51788140D01*
X170081860Y-51921020D01*
X170238112Y-52025424D01*
X170411728Y-52097338D01*
X170596039Y-52134000D01*
X170783961Y-52134000D01*
X170968272Y-52097338D01*
X171141888Y-52025424D01*
X171298140Y-51921020D01*
X171431020Y-51788140D01*
X171514515Y-51663180D01*
X172070607Y-51663180D01*
X172665000Y-52257574D01*
X173259393Y-51663180D01*
X184720607Y-51663180D01*
X185315000Y-52257574D01*
X185909393Y-51663180D01*
X185853914Y-51507210D01*
X185688893Y-51417306D01*
X185509503Y-51361324D01*
X185322639Y-51341414D01*
X185135481Y-51358343D01*
X184955223Y-51411460D01*
X184788790Y-51498721D01*
X184776086Y-51507210D01*
X184720607Y-51663180D01*
X173259393Y-51663180D01*
X173203914Y-51507210D01*
X173038893Y-51417306D01*
X172859503Y-51361324D01*
X172672639Y-51341414D01*
X172485481Y-51358343D01*
X172305223Y-51411460D01*
X172138790Y-51498721D01*
X172126086Y-51507210D01*
X172070607Y-51663180D01*
X171514515Y-51663180D01*
X171535424Y-51631888D01*
X171607338Y-51458272D01*
X171644000Y-51273961D01*
X171644000Y-51086039D01*
X186336000Y-51086039D01*
X186336000Y-51273961D01*
X186372662Y-51458272D01*
X186444576Y-51631888D01*
X186548980Y-51788140D01*
X186681860Y-51921020D01*
X186838112Y-52025424D01*
X187011728Y-52097338D01*
X187196039Y-52134000D01*
X187383961Y-52134000D01*
X187568272Y-52097338D01*
X187741888Y-52025424D01*
X187898140Y-51921020D01*
X188031020Y-51788140D01*
X188135424Y-51631888D01*
X188207338Y-51458272D01*
X188244000Y-51273961D01*
X188244000Y-51086039D01*
X188207338Y-50901728D01*
X188135424Y-50728112D01*
X188031020Y-50571860D01*
X187898140Y-50438980D01*
X187741888Y-50334576D01*
X187568272Y-50262662D01*
X187383961Y-50226000D01*
X187196039Y-50226000D01*
X187011728Y-50262662D01*
X186838112Y-50334576D01*
X186681860Y-50438980D01*
X186548980Y-50571860D01*
X186444576Y-50728112D01*
X186372662Y-50901728D01*
X186336000Y-51086039D01*
X171644000Y-51086039D01*
X171607338Y-50901728D01*
X171535424Y-50728112D01*
X171431020Y-50571860D01*
X171298140Y-50438980D01*
X171141888Y-50334576D01*
X170968272Y-50262662D01*
X170783961Y-50226000D01*
X170596039Y-50226000D01*
X170411728Y-50262662D01*
X170238112Y-50334576D01*
X170081860Y-50438980D01*
X169948980Y-50571860D01*
X169844576Y-50728112D01*
X169772662Y-50901728D01*
X169736000Y-51086039D01*
X160410000Y-51086039D01*
X160410000Y-49940000D01*
X197590000Y-49940000D01*
X197590001Y-101120000D01*
M02*
