G04 #@! TF.GenerationSoftware,KiCad,Pcbnew,(5.1.0)-1*
G04 #@! TF.CreationDate,2021-08-05T13:01:27-06:00*
G04 #@! TF.ProjectId,_autosave-Igloo19,5f617574-6f73-4617-9665-2d49676c6f6f,rev?*
G04 #@! TF.SameCoordinates,Original*
G04 #@! TF.FileFunction,Paste,Bot*
G04 #@! TF.FilePolarity,Positive*
%FSLAX46Y46*%
G04 Gerber Fmt 4.6, Leading zero omitted, Abs format (unit mm)*
G04 Created by KiCad (PCBNEW (5.1.0)-1) date 2021-08-05 13:01:27*
%MOMM*%
%LPD*%
G04 APERTURE LIST*
%ADD10C,0.850000*%
%ADD11C,0.010000*%
%ADD12R,0.300000X1.630000*%
%ADD13R,0.300000X1.800000*%
G04 APERTURE END LIST*
D10*
X187715000Y-51180000D02*
G75*
G03X187715000Y-51180000I-425000J0D01*
G01*
D11*
G36*
X186526100Y-53056231D02*
G01*
X186534794Y-53041035D01*
X186545935Y-53022457D01*
X186557494Y-53004137D01*
X186569466Y-52986084D01*
X186581844Y-52968307D01*
X186594623Y-52950815D01*
X186607795Y-52933618D01*
X186621353Y-52916724D01*
X186635292Y-52900142D01*
X186649603Y-52883880D01*
X186664280Y-52867948D01*
X186679314Y-52852352D01*
X186694698Y-52837102D01*
X186710424Y-52822204D01*
X186726484Y-52807668D01*
X186742870Y-52793499D01*
X186759573Y-52779705D01*
X186776584Y-52766295D01*
X186793896Y-52753273D01*
X186811498Y-52740648D01*
X186829383Y-52728425D01*
X186847540Y-52716611D01*
X186865960Y-52705212D01*
X186884634Y-52694234D01*
X186903553Y-52683683D01*
X186922706Y-52673563D01*
X186942083Y-52663881D01*
X186961676Y-52654640D01*
X186981473Y-52645847D01*
X187001080Y-52637660D01*
X187043281Y-52623540D01*
X187086164Y-52611647D01*
X187129610Y-52602016D01*
X187173500Y-52594671D01*
X187217715Y-52589633D01*
X187262133Y-52586916D01*
X187306633Y-52586528D01*
X187351091Y-52588469D01*
X187395387Y-52592734D01*
X187439400Y-52599312D01*
X187483007Y-52608184D01*
X187526091Y-52619326D01*
X187568532Y-52632708D01*
X187610215Y-52648293D01*
X187651025Y-52666037D01*
X187690850Y-52685894D01*
X187729582Y-52707807D01*
X187767114Y-52731717D01*
X187803343Y-52757559D01*
X187838170Y-52785262D01*
X187871499Y-52814749D01*
X187903239Y-52845940D01*
X187933304Y-52878750D01*
X187961610Y-52913088D01*
X187988080Y-52948860D01*
X188012642Y-52985969D01*
X188035228Y-53024312D01*
X188055776Y-53063785D01*
X188074230Y-53104279D01*
X188090540Y-53145684D01*
X188104660Y-53187886D01*
X188116553Y-53230768D01*
X188126184Y-53274214D01*
X188133529Y-53318104D01*
X188138567Y-53362319D01*
X188141284Y-53406736D01*
X188141672Y-53451236D01*
X188139731Y-53495694D01*
X188135466Y-53539990D01*
X188128888Y-53584002D01*
X188120016Y-53627609D01*
X188108874Y-53670692D01*
X188095492Y-53713133D01*
X188079908Y-53754816D01*
X188062163Y-53795626D01*
X188042307Y-53835451D01*
X188020394Y-53874183D01*
X187996484Y-53911714D01*
X187970642Y-53947943D01*
X187942940Y-53982769D01*
X187913452Y-54016098D01*
X187882261Y-54047839D01*
X187849452Y-54077903D01*
X187815114Y-54106209D01*
X187779342Y-54132679D01*
X187742233Y-54157240D01*
X187703890Y-54179826D01*
X187664418Y-54200374D01*
X187623924Y-54218829D01*
X187582520Y-54235138D01*
X187556157Y-54243958D01*
X187535703Y-54250153D01*
X187515100Y-54255835D01*
X187494362Y-54260999D01*
X187473501Y-54265643D01*
X187452530Y-54269763D01*
X187431463Y-54273358D01*
X187410312Y-54276425D01*
X187389092Y-54278962D01*
X187367814Y-54280967D01*
X187346493Y-54282439D01*
X187325142Y-54283377D01*
X187303774Y-54283781D01*
X187282403Y-54283651D01*
X187261041Y-54282986D01*
X187239703Y-54281786D01*
X187218402Y-54280054D01*
X187197151Y-54277789D01*
X187175962Y-54274993D01*
X187154851Y-54271668D01*
X187133829Y-54267817D01*
X187112910Y-54263440D01*
X187092107Y-54258542D01*
X187071434Y-54253124D01*
X187050902Y-54247192D01*
X187030525Y-54240747D01*
X187010315Y-54233795D01*
X186990286Y-54226340D01*
X186970450Y-54218386D01*
X186945070Y-54207353D01*
X186526100Y-53056231D01*
X186526100Y-53056231D01*
G37*
X186526100Y-53056231D02*
X186534794Y-53041035D01*
X186545935Y-53022457D01*
X186557494Y-53004137D01*
X186569466Y-52986084D01*
X186581844Y-52968307D01*
X186594623Y-52950815D01*
X186607795Y-52933618D01*
X186621353Y-52916724D01*
X186635292Y-52900142D01*
X186649603Y-52883880D01*
X186664280Y-52867948D01*
X186679314Y-52852352D01*
X186694698Y-52837102D01*
X186710424Y-52822204D01*
X186726484Y-52807668D01*
X186742870Y-52793499D01*
X186759573Y-52779705D01*
X186776584Y-52766295D01*
X186793896Y-52753273D01*
X186811498Y-52740648D01*
X186829383Y-52728425D01*
X186847540Y-52716611D01*
X186865960Y-52705212D01*
X186884634Y-52694234D01*
X186903553Y-52683683D01*
X186922706Y-52673563D01*
X186942083Y-52663881D01*
X186961676Y-52654640D01*
X186981473Y-52645847D01*
X187001080Y-52637660D01*
X187043281Y-52623540D01*
X187086164Y-52611647D01*
X187129610Y-52602016D01*
X187173500Y-52594671D01*
X187217715Y-52589633D01*
X187262133Y-52586916D01*
X187306633Y-52586528D01*
X187351091Y-52588469D01*
X187395387Y-52592734D01*
X187439400Y-52599312D01*
X187483007Y-52608184D01*
X187526091Y-52619326D01*
X187568532Y-52632708D01*
X187610215Y-52648293D01*
X187651025Y-52666037D01*
X187690850Y-52685894D01*
X187729582Y-52707807D01*
X187767114Y-52731717D01*
X187803343Y-52757559D01*
X187838170Y-52785262D01*
X187871499Y-52814749D01*
X187903239Y-52845940D01*
X187933304Y-52878750D01*
X187961610Y-52913088D01*
X187988080Y-52948860D01*
X188012642Y-52985969D01*
X188035228Y-53024312D01*
X188055776Y-53063785D01*
X188074230Y-53104279D01*
X188090540Y-53145684D01*
X188104660Y-53187886D01*
X188116553Y-53230768D01*
X188126184Y-53274214D01*
X188133529Y-53318104D01*
X188138567Y-53362319D01*
X188141284Y-53406736D01*
X188141672Y-53451236D01*
X188139731Y-53495694D01*
X188135466Y-53539990D01*
X188128888Y-53584002D01*
X188120016Y-53627609D01*
X188108874Y-53670692D01*
X188095492Y-53713133D01*
X188079908Y-53754816D01*
X188062163Y-53795626D01*
X188042307Y-53835451D01*
X188020394Y-53874183D01*
X187996484Y-53911714D01*
X187970642Y-53947943D01*
X187942940Y-53982769D01*
X187913452Y-54016098D01*
X187882261Y-54047839D01*
X187849452Y-54077903D01*
X187815114Y-54106209D01*
X187779342Y-54132679D01*
X187742233Y-54157240D01*
X187703890Y-54179826D01*
X187664418Y-54200374D01*
X187623924Y-54218829D01*
X187582520Y-54235138D01*
X187556157Y-54243958D01*
X187535703Y-54250153D01*
X187515100Y-54255835D01*
X187494362Y-54260999D01*
X187473501Y-54265643D01*
X187452530Y-54269763D01*
X187431463Y-54273358D01*
X187410312Y-54276425D01*
X187389092Y-54278962D01*
X187367814Y-54280967D01*
X187346493Y-54282439D01*
X187325142Y-54283377D01*
X187303774Y-54283781D01*
X187282403Y-54283651D01*
X187261041Y-54282986D01*
X187239703Y-54281786D01*
X187218402Y-54280054D01*
X187197151Y-54277789D01*
X187175962Y-54274993D01*
X187154851Y-54271668D01*
X187133829Y-54267817D01*
X187112910Y-54263440D01*
X187092107Y-54258542D01*
X187071434Y-54253124D01*
X187050902Y-54247192D01*
X187030525Y-54240747D01*
X187010315Y-54233795D01*
X186990286Y-54226340D01*
X186970450Y-54218386D01*
X186945070Y-54207353D01*
X186526100Y-53056231D01*
G36*
X184876070Y-53028422D02*
G01*
X184864958Y-53020956D01*
X184847294Y-53008611D01*
X184829915Y-52995868D01*
X184812830Y-52982735D01*
X184796047Y-52969217D01*
X184779576Y-52955322D01*
X184763423Y-52941056D01*
X184747599Y-52926428D01*
X184732110Y-52911445D01*
X184716966Y-52896114D01*
X184702173Y-52880444D01*
X184687739Y-52864442D01*
X184673672Y-52848116D01*
X184659979Y-52831476D01*
X184646668Y-52814529D01*
X184633744Y-52797285D01*
X184621214Y-52779752D01*
X184609086Y-52761939D01*
X184597365Y-52743856D01*
X184586057Y-52725511D01*
X184575168Y-52706914D01*
X184564704Y-52688076D01*
X184554671Y-52669004D01*
X184545072Y-52649710D01*
X184535913Y-52630203D01*
X184527200Y-52610494D01*
X184518936Y-52590592D01*
X184511125Y-52570507D01*
X184503772Y-52550250D01*
X184495770Y-52526390D01*
X184485383Y-52483123D01*
X184477273Y-52439368D01*
X184471465Y-52395248D01*
X184467973Y-52350885D01*
X184466808Y-52306400D01*
X184467973Y-52261915D01*
X184471465Y-52217552D01*
X184477273Y-52173432D01*
X184485383Y-52129677D01*
X184495771Y-52086406D01*
X184508410Y-52043738D01*
X184523264Y-52001790D01*
X184540294Y-51960677D01*
X184559452Y-51920512D01*
X184580686Y-51881404D01*
X184603937Y-51843461D01*
X184629142Y-51806787D01*
X184656232Y-51771483D01*
X184685133Y-51737645D01*
X184715765Y-51705365D01*
X184748045Y-51674733D01*
X184781883Y-51645832D01*
X184817187Y-51618742D01*
X184853861Y-51593537D01*
X184891804Y-51570286D01*
X184930912Y-51549052D01*
X184971077Y-51529894D01*
X185012190Y-51512864D01*
X185054138Y-51498010D01*
X185096810Y-51485370D01*
X185140077Y-51474983D01*
X185183832Y-51466873D01*
X185227952Y-51461065D01*
X185272315Y-51457573D01*
X185316800Y-51456408D01*
X185361285Y-51457573D01*
X185405648Y-51461065D01*
X185449768Y-51466873D01*
X185493523Y-51474983D01*
X185536794Y-51485371D01*
X185579462Y-51498010D01*
X185621410Y-51512864D01*
X185662523Y-51529894D01*
X185702688Y-51549052D01*
X185741796Y-51570286D01*
X185779739Y-51593537D01*
X185816413Y-51618742D01*
X185851717Y-51645832D01*
X185885555Y-51674733D01*
X185917835Y-51705365D01*
X185948467Y-51737645D01*
X185977368Y-51771483D01*
X186004458Y-51806787D01*
X186029663Y-51843461D01*
X186052914Y-51881404D01*
X186074148Y-51920512D01*
X186093306Y-51960677D01*
X186110336Y-52001790D01*
X186125190Y-52043738D01*
X186137830Y-52086410D01*
X186142271Y-52104026D01*
X186147054Y-52125078D01*
X186151297Y-52146245D01*
X186154996Y-52167514D01*
X186158150Y-52188871D01*
X186160756Y-52210301D01*
X186162812Y-52231791D01*
X186164318Y-52253327D01*
X186165272Y-52274894D01*
X186165674Y-52296478D01*
X186165524Y-52318066D01*
X186164820Y-52339643D01*
X186163565Y-52361195D01*
X186161759Y-52382707D01*
X186159402Y-52404166D01*
X186156497Y-52425558D01*
X186153046Y-52446869D01*
X186149050Y-52468084D01*
X186144512Y-52489190D01*
X186139436Y-52510173D01*
X186133824Y-52531019D01*
X186127681Y-52551714D01*
X186121010Y-52572246D01*
X186113815Y-52592600D01*
X186106102Y-52612764D01*
X186097875Y-52632723D01*
X186089141Y-52652465D01*
X186079903Y-52671977D01*
X186070170Y-52691247D01*
X186059330Y-52711370D01*
X184876070Y-53028422D01*
X184876070Y-53028422D01*
G37*
X184876070Y-53028422D02*
X184864958Y-53020956D01*
X184847294Y-53008611D01*
X184829915Y-52995868D01*
X184812830Y-52982735D01*
X184796047Y-52969217D01*
X184779576Y-52955322D01*
X184763423Y-52941056D01*
X184747599Y-52926428D01*
X184732110Y-52911445D01*
X184716966Y-52896114D01*
X184702173Y-52880444D01*
X184687739Y-52864442D01*
X184673672Y-52848116D01*
X184659979Y-52831476D01*
X184646668Y-52814529D01*
X184633744Y-52797285D01*
X184621214Y-52779752D01*
X184609086Y-52761939D01*
X184597365Y-52743856D01*
X184586057Y-52725511D01*
X184575168Y-52706914D01*
X184564704Y-52688076D01*
X184554671Y-52669004D01*
X184545072Y-52649710D01*
X184535913Y-52630203D01*
X184527200Y-52610494D01*
X184518936Y-52590592D01*
X184511125Y-52570507D01*
X184503772Y-52550250D01*
X184495770Y-52526390D01*
X184485383Y-52483123D01*
X184477273Y-52439368D01*
X184471465Y-52395248D01*
X184467973Y-52350885D01*
X184466808Y-52306400D01*
X184467973Y-52261915D01*
X184471465Y-52217552D01*
X184477273Y-52173432D01*
X184485383Y-52129677D01*
X184495771Y-52086406D01*
X184508410Y-52043738D01*
X184523264Y-52001790D01*
X184540294Y-51960677D01*
X184559452Y-51920512D01*
X184580686Y-51881404D01*
X184603937Y-51843461D01*
X184629142Y-51806787D01*
X184656232Y-51771483D01*
X184685133Y-51737645D01*
X184715765Y-51705365D01*
X184748045Y-51674733D01*
X184781883Y-51645832D01*
X184817187Y-51618742D01*
X184853861Y-51593537D01*
X184891804Y-51570286D01*
X184930912Y-51549052D01*
X184971077Y-51529894D01*
X185012190Y-51512864D01*
X185054138Y-51498010D01*
X185096810Y-51485370D01*
X185140077Y-51474983D01*
X185183832Y-51466873D01*
X185227952Y-51461065D01*
X185272315Y-51457573D01*
X185316800Y-51456408D01*
X185361285Y-51457573D01*
X185405648Y-51461065D01*
X185449768Y-51466873D01*
X185493523Y-51474983D01*
X185536794Y-51485371D01*
X185579462Y-51498010D01*
X185621410Y-51512864D01*
X185662523Y-51529894D01*
X185702688Y-51549052D01*
X185741796Y-51570286D01*
X185779739Y-51593537D01*
X185816413Y-51618742D01*
X185851717Y-51645832D01*
X185885555Y-51674733D01*
X185917835Y-51705365D01*
X185948467Y-51737645D01*
X185977368Y-51771483D01*
X186004458Y-51806787D01*
X186029663Y-51843461D01*
X186052914Y-51881404D01*
X186074148Y-51920512D01*
X186093306Y-51960677D01*
X186110336Y-52001790D01*
X186125190Y-52043738D01*
X186137830Y-52086410D01*
X186142271Y-52104026D01*
X186147054Y-52125078D01*
X186151297Y-52146245D01*
X186154996Y-52167514D01*
X186158150Y-52188871D01*
X186160756Y-52210301D01*
X186162812Y-52231791D01*
X186164318Y-52253327D01*
X186165272Y-52274894D01*
X186165674Y-52296478D01*
X186165524Y-52318066D01*
X186164820Y-52339643D01*
X186163565Y-52361195D01*
X186161759Y-52382707D01*
X186159402Y-52404166D01*
X186156497Y-52425558D01*
X186153046Y-52446869D01*
X186149050Y-52468084D01*
X186144512Y-52489190D01*
X186139436Y-52510173D01*
X186133824Y-52531019D01*
X186127681Y-52551714D01*
X186121010Y-52572246D01*
X186113815Y-52592600D01*
X186106102Y-52612764D01*
X186097875Y-52632723D01*
X186089141Y-52652465D01*
X186079903Y-52671977D01*
X186070170Y-52691247D01*
X186059330Y-52711370D01*
X184876070Y-53028422D01*
D10*
X171115000Y-51180000D02*
G75*
G03X171115000Y-51180000I-425000J0D01*
G01*
D11*
G36*
X171920670Y-52711370D02*
G01*
X171909451Y-52687861D01*
X171900793Y-52668505D01*
X171892565Y-52648963D01*
X171884771Y-52629244D01*
X171877414Y-52609358D01*
X171870500Y-52589313D01*
X171864029Y-52569121D01*
X171858007Y-52548790D01*
X171852436Y-52528332D01*
X171847318Y-52507755D01*
X171842657Y-52487070D01*
X171838454Y-52466287D01*
X171834711Y-52445417D01*
X171831431Y-52424468D01*
X171828614Y-52403453D01*
X171826263Y-52382380D01*
X171824378Y-52361260D01*
X171822960Y-52340104D01*
X171822011Y-52318922D01*
X171821530Y-52297724D01*
X171821517Y-52276520D01*
X171821974Y-52255321D01*
X171822899Y-52234138D01*
X171824292Y-52212980D01*
X171826152Y-52191858D01*
X171828479Y-52170783D01*
X171831271Y-52149764D01*
X171834527Y-52128812D01*
X171838245Y-52107936D01*
X171843970Y-52080010D01*
X171856610Y-52037338D01*
X171871464Y-51995390D01*
X171888494Y-51954277D01*
X171907652Y-51914112D01*
X171928886Y-51875004D01*
X171952137Y-51837061D01*
X171977342Y-51800387D01*
X172004432Y-51765083D01*
X172033333Y-51731245D01*
X172063965Y-51698965D01*
X172096245Y-51668333D01*
X172130083Y-51639432D01*
X172165387Y-51612342D01*
X172202061Y-51587137D01*
X172240004Y-51563886D01*
X172279112Y-51542652D01*
X172319277Y-51523494D01*
X172360390Y-51506464D01*
X172402338Y-51491610D01*
X172445006Y-51478971D01*
X172488277Y-51468583D01*
X172532032Y-51460473D01*
X172576152Y-51454665D01*
X172620515Y-51451173D01*
X172665000Y-51450008D01*
X172709485Y-51451173D01*
X172753848Y-51454665D01*
X172797968Y-51460473D01*
X172841723Y-51468583D01*
X172884990Y-51478970D01*
X172927662Y-51491610D01*
X172969610Y-51506464D01*
X173010723Y-51523494D01*
X173050888Y-51542652D01*
X173089996Y-51563886D01*
X173127939Y-51587137D01*
X173164613Y-51612342D01*
X173199917Y-51639432D01*
X173233755Y-51668333D01*
X173266035Y-51698965D01*
X173296667Y-51731245D01*
X173325568Y-51765083D01*
X173352658Y-51800387D01*
X173377863Y-51837061D01*
X173401114Y-51875004D01*
X173422348Y-51914112D01*
X173441506Y-51954277D01*
X173458536Y-51995390D01*
X173473390Y-52037338D01*
X173486029Y-52080006D01*
X173496417Y-52123277D01*
X173504527Y-52167032D01*
X173510335Y-52211152D01*
X173513827Y-52255515D01*
X173514992Y-52300000D01*
X173513827Y-52344485D01*
X173510335Y-52388848D01*
X173504527Y-52432968D01*
X173496417Y-52476723D01*
X173486030Y-52519990D01*
X173480115Y-52540987D01*
X173473669Y-52561811D01*
X173466692Y-52582463D01*
X173459189Y-52602929D01*
X173451164Y-52623197D01*
X173442624Y-52643253D01*
X173433572Y-52663083D01*
X173424017Y-52682676D01*
X173413962Y-52702017D01*
X173403417Y-52721095D01*
X173392386Y-52739896D01*
X173380877Y-52758409D01*
X173368899Y-52776621D01*
X173356458Y-52794521D01*
X173343563Y-52812097D01*
X173330223Y-52829337D01*
X173316446Y-52846229D01*
X173302241Y-52862764D01*
X173287617Y-52878929D01*
X173272584Y-52894715D01*
X173257152Y-52910111D01*
X173241332Y-52925107D01*
X173225132Y-52939693D01*
X173208565Y-52953859D01*
X173191640Y-52967597D01*
X173174369Y-52980898D01*
X173156764Y-52993751D01*
X173138835Y-53006150D01*
X173120595Y-53018087D01*
X173103930Y-53028422D01*
X171920670Y-52711370D01*
X171920670Y-52711370D01*
G37*
X171920670Y-52711370D02*
X171909451Y-52687861D01*
X171900793Y-52668505D01*
X171892565Y-52648963D01*
X171884771Y-52629244D01*
X171877414Y-52609358D01*
X171870500Y-52589313D01*
X171864029Y-52569121D01*
X171858007Y-52548790D01*
X171852436Y-52528332D01*
X171847318Y-52507755D01*
X171842657Y-52487070D01*
X171838454Y-52466287D01*
X171834711Y-52445417D01*
X171831431Y-52424468D01*
X171828614Y-52403453D01*
X171826263Y-52382380D01*
X171824378Y-52361260D01*
X171822960Y-52340104D01*
X171822011Y-52318922D01*
X171821530Y-52297724D01*
X171821517Y-52276520D01*
X171821974Y-52255321D01*
X171822899Y-52234138D01*
X171824292Y-52212980D01*
X171826152Y-52191858D01*
X171828479Y-52170783D01*
X171831271Y-52149764D01*
X171834527Y-52128812D01*
X171838245Y-52107936D01*
X171843970Y-52080010D01*
X171856610Y-52037338D01*
X171871464Y-51995390D01*
X171888494Y-51954277D01*
X171907652Y-51914112D01*
X171928886Y-51875004D01*
X171952137Y-51837061D01*
X171977342Y-51800387D01*
X172004432Y-51765083D01*
X172033333Y-51731245D01*
X172063965Y-51698965D01*
X172096245Y-51668333D01*
X172130083Y-51639432D01*
X172165387Y-51612342D01*
X172202061Y-51587137D01*
X172240004Y-51563886D01*
X172279112Y-51542652D01*
X172319277Y-51523494D01*
X172360390Y-51506464D01*
X172402338Y-51491610D01*
X172445006Y-51478971D01*
X172488277Y-51468583D01*
X172532032Y-51460473D01*
X172576152Y-51454665D01*
X172620515Y-51451173D01*
X172665000Y-51450008D01*
X172709485Y-51451173D01*
X172753848Y-51454665D01*
X172797968Y-51460473D01*
X172841723Y-51468583D01*
X172884990Y-51478970D01*
X172927662Y-51491610D01*
X172969610Y-51506464D01*
X173010723Y-51523494D01*
X173050888Y-51542652D01*
X173089996Y-51563886D01*
X173127939Y-51587137D01*
X173164613Y-51612342D01*
X173199917Y-51639432D01*
X173233755Y-51668333D01*
X173266035Y-51698965D01*
X173296667Y-51731245D01*
X173325568Y-51765083D01*
X173352658Y-51800387D01*
X173377863Y-51837061D01*
X173401114Y-51875004D01*
X173422348Y-51914112D01*
X173441506Y-51954277D01*
X173458536Y-51995390D01*
X173473390Y-52037338D01*
X173486029Y-52080006D01*
X173496417Y-52123277D01*
X173504527Y-52167032D01*
X173510335Y-52211152D01*
X173513827Y-52255515D01*
X173514992Y-52300000D01*
X173513827Y-52344485D01*
X173510335Y-52388848D01*
X173504527Y-52432968D01*
X173496417Y-52476723D01*
X173486030Y-52519990D01*
X173480115Y-52540987D01*
X173473669Y-52561811D01*
X173466692Y-52582463D01*
X173459189Y-52602929D01*
X173451164Y-52623197D01*
X173442624Y-52643253D01*
X173433572Y-52663083D01*
X173424017Y-52682676D01*
X173413962Y-52702017D01*
X173403417Y-52721095D01*
X173392386Y-52739896D01*
X173380877Y-52758409D01*
X173368899Y-52776621D01*
X173356458Y-52794521D01*
X173343563Y-52812097D01*
X173330223Y-52829337D01*
X173316446Y-52846229D01*
X173302241Y-52862764D01*
X173287617Y-52878929D01*
X173272584Y-52894715D01*
X173257152Y-52910111D01*
X173241332Y-52925107D01*
X173225132Y-52939693D01*
X173208565Y-52953859D01*
X173191640Y-52967597D01*
X173174369Y-52980898D01*
X173156764Y-52993751D01*
X173138835Y-53006150D01*
X173120595Y-53018087D01*
X173103930Y-53028422D01*
X171920670Y-52711370D01*
G36*
X171034930Y-54207353D02*
G01*
X171010528Y-54216482D01*
X170990491Y-54223421D01*
X170970306Y-54229914D01*
X170949982Y-54235960D01*
X170929530Y-54241555D01*
X170908959Y-54246697D01*
X170888279Y-54251383D01*
X170867501Y-54255610D01*
X170846635Y-54259377D01*
X170825690Y-54262682D01*
X170804677Y-54265523D01*
X170783607Y-54267899D01*
X170762489Y-54269808D01*
X170741334Y-54271250D01*
X170720153Y-54272224D01*
X170698955Y-54272730D01*
X170677751Y-54272767D01*
X170656552Y-54272335D01*
X170635367Y-54271435D01*
X170614207Y-54270067D01*
X170593083Y-54268231D01*
X170572004Y-54265929D01*
X170550982Y-54263161D01*
X170530026Y-54259930D01*
X170509146Y-54256235D01*
X170488353Y-54252081D01*
X170467658Y-54247467D01*
X170447069Y-54242397D01*
X170426597Y-54236874D01*
X170399280Y-54228738D01*
X170357876Y-54212429D01*
X170317382Y-54193974D01*
X170277910Y-54173426D01*
X170239567Y-54150840D01*
X170202458Y-54126279D01*
X170166686Y-54099809D01*
X170132348Y-54071503D01*
X170099539Y-54041439D01*
X170068348Y-54009698D01*
X170038860Y-53976369D01*
X170011158Y-53941543D01*
X169985316Y-53905314D01*
X169961406Y-53867783D01*
X169939493Y-53829051D01*
X169919637Y-53789226D01*
X169901892Y-53748416D01*
X169886308Y-53706733D01*
X169872926Y-53664292D01*
X169861784Y-53621209D01*
X169852912Y-53577602D01*
X169846334Y-53533590D01*
X169842069Y-53489294D01*
X169840128Y-53444836D01*
X169840516Y-53400336D01*
X169843233Y-53355919D01*
X169848271Y-53311704D01*
X169855616Y-53267814D01*
X169865247Y-53224368D01*
X169877140Y-53181486D01*
X169891260Y-53139284D01*
X169907570Y-53097879D01*
X169926024Y-53057385D01*
X169946572Y-53017912D01*
X169969158Y-52979569D01*
X169993720Y-52942460D01*
X170020190Y-52906688D01*
X170048496Y-52872350D01*
X170078561Y-52839540D01*
X170110301Y-52808349D01*
X170143630Y-52778862D01*
X170178457Y-52751159D01*
X170214686Y-52725317D01*
X170252218Y-52701407D01*
X170290950Y-52679494D01*
X170330775Y-52659637D01*
X170371585Y-52641893D01*
X170413268Y-52626308D01*
X170455709Y-52612926D01*
X170498793Y-52601784D01*
X170542400Y-52592912D01*
X170586413Y-52586334D01*
X170630709Y-52582069D01*
X170675167Y-52580128D01*
X170719667Y-52580516D01*
X170764085Y-52583233D01*
X170808300Y-52588271D01*
X170852190Y-52595616D01*
X170895636Y-52605247D01*
X170938519Y-52617140D01*
X170980720Y-52631260D01*
X171001098Y-52638974D01*
X171021280Y-52647210D01*
X171041245Y-52655960D01*
X171060980Y-52665219D01*
X171080471Y-52674979D01*
X171099706Y-52685235D01*
X171118672Y-52695980D01*
X171137357Y-52707207D01*
X171155748Y-52718909D01*
X171173834Y-52731077D01*
X171191603Y-52743705D01*
X171209042Y-52756783D01*
X171226141Y-52770303D01*
X171242888Y-52784256D01*
X171259273Y-52798634D01*
X171275284Y-52813426D01*
X171290912Y-52828623D01*
X171306145Y-52844215D01*
X171320975Y-52860192D01*
X171335390Y-52876543D01*
X171349382Y-52893258D01*
X171362942Y-52910325D01*
X171376061Y-52927734D01*
X171388730Y-52945473D01*
X171400940Y-52963531D01*
X171412685Y-52981895D01*
X171423955Y-53000554D01*
X171434744Y-53019495D01*
X171445045Y-53038706D01*
X171453900Y-53056231D01*
X171034930Y-54207353D01*
X171034930Y-54207353D01*
G37*
X171034930Y-54207353D02*
X171010528Y-54216482D01*
X170990491Y-54223421D01*
X170970306Y-54229914D01*
X170949982Y-54235960D01*
X170929530Y-54241555D01*
X170908959Y-54246697D01*
X170888279Y-54251383D01*
X170867501Y-54255610D01*
X170846635Y-54259377D01*
X170825690Y-54262682D01*
X170804677Y-54265523D01*
X170783607Y-54267899D01*
X170762489Y-54269808D01*
X170741334Y-54271250D01*
X170720153Y-54272224D01*
X170698955Y-54272730D01*
X170677751Y-54272767D01*
X170656552Y-54272335D01*
X170635367Y-54271435D01*
X170614207Y-54270067D01*
X170593083Y-54268231D01*
X170572004Y-54265929D01*
X170550982Y-54263161D01*
X170530026Y-54259930D01*
X170509146Y-54256235D01*
X170488353Y-54252081D01*
X170467658Y-54247467D01*
X170447069Y-54242397D01*
X170426597Y-54236874D01*
X170399280Y-54228738D01*
X170357876Y-54212429D01*
X170317382Y-54193974D01*
X170277910Y-54173426D01*
X170239567Y-54150840D01*
X170202458Y-54126279D01*
X170166686Y-54099809D01*
X170132348Y-54071503D01*
X170099539Y-54041439D01*
X170068348Y-54009698D01*
X170038860Y-53976369D01*
X170011158Y-53941543D01*
X169985316Y-53905314D01*
X169961406Y-53867783D01*
X169939493Y-53829051D01*
X169919637Y-53789226D01*
X169901892Y-53748416D01*
X169886308Y-53706733D01*
X169872926Y-53664292D01*
X169861784Y-53621209D01*
X169852912Y-53577602D01*
X169846334Y-53533590D01*
X169842069Y-53489294D01*
X169840128Y-53444836D01*
X169840516Y-53400336D01*
X169843233Y-53355919D01*
X169848271Y-53311704D01*
X169855616Y-53267814D01*
X169865247Y-53224368D01*
X169877140Y-53181486D01*
X169891260Y-53139284D01*
X169907570Y-53097879D01*
X169926024Y-53057385D01*
X169946572Y-53017912D01*
X169969158Y-52979569D01*
X169993720Y-52942460D01*
X170020190Y-52906688D01*
X170048496Y-52872350D01*
X170078561Y-52839540D01*
X170110301Y-52808349D01*
X170143630Y-52778862D01*
X170178457Y-52751159D01*
X170214686Y-52725317D01*
X170252218Y-52701407D01*
X170290950Y-52679494D01*
X170330775Y-52659637D01*
X170371585Y-52641893D01*
X170413268Y-52626308D01*
X170455709Y-52612926D01*
X170498793Y-52601784D01*
X170542400Y-52592912D01*
X170586413Y-52586334D01*
X170630709Y-52582069D01*
X170675167Y-52580128D01*
X170719667Y-52580516D01*
X170764085Y-52583233D01*
X170808300Y-52588271D01*
X170852190Y-52595616D01*
X170895636Y-52605247D01*
X170938519Y-52617140D01*
X170980720Y-52631260D01*
X171001098Y-52638974D01*
X171021280Y-52647210D01*
X171041245Y-52655960D01*
X171060980Y-52665219D01*
X171080471Y-52674979D01*
X171099706Y-52685235D01*
X171118672Y-52695980D01*
X171137357Y-52707207D01*
X171155748Y-52718909D01*
X171173834Y-52731077D01*
X171191603Y-52743705D01*
X171209042Y-52756783D01*
X171226141Y-52770303D01*
X171242888Y-52784256D01*
X171259273Y-52798634D01*
X171275284Y-52813426D01*
X171290912Y-52828623D01*
X171306145Y-52844215D01*
X171320975Y-52860192D01*
X171335390Y-52876543D01*
X171349382Y-52893258D01*
X171362942Y-52910325D01*
X171376061Y-52927734D01*
X171388730Y-52945473D01*
X171400940Y-52963531D01*
X171412685Y-52981895D01*
X171423955Y-53000554D01*
X171434744Y-53019495D01*
X171445045Y-53038706D01*
X171453900Y-53056231D01*
X171034930Y-54207353D01*
D10*
X171095000Y-99900000D02*
G75*
G03X171095000Y-99900000I-425000J0D01*
G01*
D11*
G36*
X171433900Y-98023769D02*
G01*
X171425206Y-98038965D01*
X171414065Y-98057543D01*
X171402506Y-98075863D01*
X171390534Y-98093916D01*
X171378156Y-98111693D01*
X171365377Y-98129185D01*
X171352205Y-98146382D01*
X171338647Y-98163276D01*
X171324708Y-98179858D01*
X171310397Y-98196120D01*
X171295720Y-98212052D01*
X171280686Y-98227648D01*
X171265302Y-98242898D01*
X171249576Y-98257796D01*
X171233516Y-98272332D01*
X171217130Y-98286501D01*
X171200427Y-98300295D01*
X171183416Y-98313705D01*
X171166104Y-98326727D01*
X171148502Y-98339352D01*
X171130617Y-98351575D01*
X171112460Y-98363389D01*
X171094040Y-98374788D01*
X171075366Y-98385766D01*
X171056447Y-98396317D01*
X171037294Y-98406437D01*
X171017917Y-98416119D01*
X170998324Y-98425360D01*
X170978527Y-98434153D01*
X170958920Y-98442340D01*
X170916719Y-98456460D01*
X170873836Y-98468353D01*
X170830390Y-98477984D01*
X170786500Y-98485329D01*
X170742285Y-98490367D01*
X170697867Y-98493084D01*
X170653367Y-98493472D01*
X170608909Y-98491531D01*
X170564613Y-98487266D01*
X170520600Y-98480688D01*
X170476993Y-98471816D01*
X170433909Y-98460674D01*
X170391468Y-98447292D01*
X170349785Y-98431707D01*
X170308975Y-98413963D01*
X170269150Y-98394106D01*
X170230418Y-98372193D01*
X170192886Y-98348283D01*
X170156657Y-98322441D01*
X170121830Y-98294738D01*
X170088501Y-98265251D01*
X170056761Y-98234060D01*
X170026696Y-98201250D01*
X169998390Y-98166912D01*
X169971920Y-98131140D01*
X169947358Y-98094031D01*
X169924772Y-98055688D01*
X169904224Y-98016215D01*
X169885770Y-97975721D01*
X169869460Y-97934316D01*
X169855340Y-97892114D01*
X169843447Y-97849232D01*
X169833816Y-97805786D01*
X169826471Y-97761896D01*
X169821433Y-97717681D01*
X169818716Y-97673264D01*
X169818328Y-97628764D01*
X169820269Y-97584306D01*
X169824534Y-97540010D01*
X169831112Y-97495998D01*
X169839984Y-97452391D01*
X169851126Y-97409308D01*
X169864508Y-97366867D01*
X169880092Y-97325184D01*
X169897837Y-97284374D01*
X169917693Y-97244549D01*
X169939606Y-97205817D01*
X169963516Y-97168286D01*
X169989358Y-97132057D01*
X170017060Y-97097231D01*
X170046548Y-97063902D01*
X170077739Y-97032161D01*
X170110548Y-97002097D01*
X170144886Y-96973791D01*
X170180658Y-96947321D01*
X170217767Y-96922760D01*
X170256110Y-96900174D01*
X170295582Y-96879626D01*
X170336076Y-96861171D01*
X170377480Y-96844862D01*
X170403843Y-96836042D01*
X170424297Y-96829847D01*
X170444900Y-96824165D01*
X170465638Y-96819001D01*
X170486499Y-96814357D01*
X170507470Y-96810237D01*
X170528537Y-96806642D01*
X170549688Y-96803575D01*
X170570908Y-96801038D01*
X170592186Y-96799033D01*
X170613507Y-96797561D01*
X170634858Y-96796623D01*
X170656226Y-96796219D01*
X170677597Y-96796349D01*
X170698959Y-96797014D01*
X170720297Y-96798214D01*
X170741598Y-96799946D01*
X170762849Y-96802211D01*
X170784038Y-96805007D01*
X170805149Y-96808332D01*
X170826171Y-96812183D01*
X170847090Y-96816560D01*
X170867893Y-96821458D01*
X170888566Y-96826876D01*
X170909098Y-96832808D01*
X170929475Y-96839253D01*
X170949685Y-96846205D01*
X170969714Y-96853660D01*
X170989550Y-96861614D01*
X171014930Y-96872647D01*
X171433900Y-98023769D01*
X171433900Y-98023769D01*
G37*
X171433900Y-98023769D02*
X171425206Y-98038965D01*
X171414065Y-98057543D01*
X171402506Y-98075863D01*
X171390534Y-98093916D01*
X171378156Y-98111693D01*
X171365377Y-98129185D01*
X171352205Y-98146382D01*
X171338647Y-98163276D01*
X171324708Y-98179858D01*
X171310397Y-98196120D01*
X171295720Y-98212052D01*
X171280686Y-98227648D01*
X171265302Y-98242898D01*
X171249576Y-98257796D01*
X171233516Y-98272332D01*
X171217130Y-98286501D01*
X171200427Y-98300295D01*
X171183416Y-98313705D01*
X171166104Y-98326727D01*
X171148502Y-98339352D01*
X171130617Y-98351575D01*
X171112460Y-98363389D01*
X171094040Y-98374788D01*
X171075366Y-98385766D01*
X171056447Y-98396317D01*
X171037294Y-98406437D01*
X171017917Y-98416119D01*
X170998324Y-98425360D01*
X170978527Y-98434153D01*
X170958920Y-98442340D01*
X170916719Y-98456460D01*
X170873836Y-98468353D01*
X170830390Y-98477984D01*
X170786500Y-98485329D01*
X170742285Y-98490367D01*
X170697867Y-98493084D01*
X170653367Y-98493472D01*
X170608909Y-98491531D01*
X170564613Y-98487266D01*
X170520600Y-98480688D01*
X170476993Y-98471816D01*
X170433909Y-98460674D01*
X170391468Y-98447292D01*
X170349785Y-98431707D01*
X170308975Y-98413963D01*
X170269150Y-98394106D01*
X170230418Y-98372193D01*
X170192886Y-98348283D01*
X170156657Y-98322441D01*
X170121830Y-98294738D01*
X170088501Y-98265251D01*
X170056761Y-98234060D01*
X170026696Y-98201250D01*
X169998390Y-98166912D01*
X169971920Y-98131140D01*
X169947358Y-98094031D01*
X169924772Y-98055688D01*
X169904224Y-98016215D01*
X169885770Y-97975721D01*
X169869460Y-97934316D01*
X169855340Y-97892114D01*
X169843447Y-97849232D01*
X169833816Y-97805786D01*
X169826471Y-97761896D01*
X169821433Y-97717681D01*
X169818716Y-97673264D01*
X169818328Y-97628764D01*
X169820269Y-97584306D01*
X169824534Y-97540010D01*
X169831112Y-97495998D01*
X169839984Y-97452391D01*
X169851126Y-97409308D01*
X169864508Y-97366867D01*
X169880092Y-97325184D01*
X169897837Y-97284374D01*
X169917693Y-97244549D01*
X169939606Y-97205817D01*
X169963516Y-97168286D01*
X169989358Y-97132057D01*
X170017060Y-97097231D01*
X170046548Y-97063902D01*
X170077739Y-97032161D01*
X170110548Y-97002097D01*
X170144886Y-96973791D01*
X170180658Y-96947321D01*
X170217767Y-96922760D01*
X170256110Y-96900174D01*
X170295582Y-96879626D01*
X170336076Y-96861171D01*
X170377480Y-96844862D01*
X170403843Y-96836042D01*
X170424297Y-96829847D01*
X170444900Y-96824165D01*
X170465638Y-96819001D01*
X170486499Y-96814357D01*
X170507470Y-96810237D01*
X170528537Y-96806642D01*
X170549688Y-96803575D01*
X170570908Y-96801038D01*
X170592186Y-96799033D01*
X170613507Y-96797561D01*
X170634858Y-96796623D01*
X170656226Y-96796219D01*
X170677597Y-96796349D01*
X170698959Y-96797014D01*
X170720297Y-96798214D01*
X170741598Y-96799946D01*
X170762849Y-96802211D01*
X170784038Y-96805007D01*
X170805149Y-96808332D01*
X170826171Y-96812183D01*
X170847090Y-96816560D01*
X170867893Y-96821458D01*
X170888566Y-96826876D01*
X170909098Y-96832808D01*
X170929475Y-96839253D01*
X170949685Y-96846205D01*
X170969714Y-96853660D01*
X170989550Y-96861614D01*
X171014930Y-96872647D01*
X171433900Y-98023769D01*
G36*
X173083930Y-98051578D02*
G01*
X173095042Y-98059044D01*
X173112706Y-98071389D01*
X173130085Y-98084132D01*
X173147170Y-98097265D01*
X173163953Y-98110783D01*
X173180424Y-98124678D01*
X173196577Y-98138944D01*
X173212401Y-98153572D01*
X173227890Y-98168555D01*
X173243034Y-98183886D01*
X173257827Y-98199556D01*
X173272261Y-98215558D01*
X173286328Y-98231884D01*
X173300021Y-98248524D01*
X173313332Y-98265471D01*
X173326256Y-98282715D01*
X173338786Y-98300248D01*
X173350914Y-98318061D01*
X173362635Y-98336144D01*
X173373943Y-98354489D01*
X173384832Y-98373086D01*
X173395296Y-98391924D01*
X173405329Y-98410996D01*
X173414928Y-98430290D01*
X173424087Y-98449797D01*
X173432800Y-98469506D01*
X173441064Y-98489408D01*
X173448875Y-98509493D01*
X173456228Y-98529750D01*
X173464230Y-98553610D01*
X173474617Y-98596877D01*
X173482727Y-98640632D01*
X173488535Y-98684752D01*
X173492027Y-98729115D01*
X173493192Y-98773600D01*
X173492027Y-98818085D01*
X173488535Y-98862448D01*
X173482727Y-98906568D01*
X173474617Y-98950323D01*
X173464229Y-98993594D01*
X173451590Y-99036262D01*
X173436736Y-99078210D01*
X173419706Y-99119323D01*
X173400548Y-99159488D01*
X173379314Y-99198596D01*
X173356063Y-99236539D01*
X173330858Y-99273213D01*
X173303768Y-99308517D01*
X173274867Y-99342355D01*
X173244235Y-99374635D01*
X173211955Y-99405267D01*
X173178117Y-99434168D01*
X173142813Y-99461258D01*
X173106139Y-99486463D01*
X173068196Y-99509714D01*
X173029088Y-99530948D01*
X172988923Y-99550106D01*
X172947810Y-99567136D01*
X172905862Y-99581990D01*
X172863190Y-99594630D01*
X172819923Y-99605017D01*
X172776168Y-99613127D01*
X172732048Y-99618935D01*
X172687685Y-99622427D01*
X172643200Y-99623592D01*
X172598715Y-99622427D01*
X172554352Y-99618935D01*
X172510232Y-99613127D01*
X172466477Y-99605017D01*
X172423206Y-99594629D01*
X172380538Y-99581990D01*
X172338590Y-99567136D01*
X172297477Y-99550106D01*
X172257312Y-99530948D01*
X172218204Y-99509714D01*
X172180261Y-99486463D01*
X172143587Y-99461258D01*
X172108283Y-99434168D01*
X172074445Y-99405267D01*
X172042165Y-99374635D01*
X172011533Y-99342355D01*
X171982632Y-99308517D01*
X171955542Y-99273213D01*
X171930337Y-99236539D01*
X171907086Y-99198596D01*
X171885852Y-99159488D01*
X171866694Y-99119323D01*
X171849664Y-99078210D01*
X171834810Y-99036262D01*
X171822170Y-98993590D01*
X171817729Y-98975974D01*
X171812946Y-98954922D01*
X171808703Y-98933755D01*
X171805004Y-98912486D01*
X171801850Y-98891129D01*
X171799244Y-98869699D01*
X171797188Y-98848209D01*
X171795682Y-98826673D01*
X171794728Y-98805106D01*
X171794326Y-98783522D01*
X171794476Y-98761934D01*
X171795180Y-98740357D01*
X171796435Y-98718805D01*
X171798241Y-98697293D01*
X171800598Y-98675834D01*
X171803503Y-98654442D01*
X171806954Y-98633131D01*
X171810950Y-98611916D01*
X171815488Y-98590810D01*
X171820564Y-98569827D01*
X171826176Y-98548981D01*
X171832319Y-98528286D01*
X171838990Y-98507754D01*
X171846185Y-98487400D01*
X171853898Y-98467236D01*
X171862125Y-98447277D01*
X171870859Y-98427535D01*
X171880097Y-98408023D01*
X171889830Y-98388753D01*
X171900670Y-98368630D01*
X173083930Y-98051578D01*
X173083930Y-98051578D01*
G37*
X173083930Y-98051578D02*
X173095042Y-98059044D01*
X173112706Y-98071389D01*
X173130085Y-98084132D01*
X173147170Y-98097265D01*
X173163953Y-98110783D01*
X173180424Y-98124678D01*
X173196577Y-98138944D01*
X173212401Y-98153572D01*
X173227890Y-98168555D01*
X173243034Y-98183886D01*
X173257827Y-98199556D01*
X173272261Y-98215558D01*
X173286328Y-98231884D01*
X173300021Y-98248524D01*
X173313332Y-98265471D01*
X173326256Y-98282715D01*
X173338786Y-98300248D01*
X173350914Y-98318061D01*
X173362635Y-98336144D01*
X173373943Y-98354489D01*
X173384832Y-98373086D01*
X173395296Y-98391924D01*
X173405329Y-98410996D01*
X173414928Y-98430290D01*
X173424087Y-98449797D01*
X173432800Y-98469506D01*
X173441064Y-98489408D01*
X173448875Y-98509493D01*
X173456228Y-98529750D01*
X173464230Y-98553610D01*
X173474617Y-98596877D01*
X173482727Y-98640632D01*
X173488535Y-98684752D01*
X173492027Y-98729115D01*
X173493192Y-98773600D01*
X173492027Y-98818085D01*
X173488535Y-98862448D01*
X173482727Y-98906568D01*
X173474617Y-98950323D01*
X173464229Y-98993594D01*
X173451590Y-99036262D01*
X173436736Y-99078210D01*
X173419706Y-99119323D01*
X173400548Y-99159488D01*
X173379314Y-99198596D01*
X173356063Y-99236539D01*
X173330858Y-99273213D01*
X173303768Y-99308517D01*
X173274867Y-99342355D01*
X173244235Y-99374635D01*
X173211955Y-99405267D01*
X173178117Y-99434168D01*
X173142813Y-99461258D01*
X173106139Y-99486463D01*
X173068196Y-99509714D01*
X173029088Y-99530948D01*
X172988923Y-99550106D01*
X172947810Y-99567136D01*
X172905862Y-99581990D01*
X172863190Y-99594630D01*
X172819923Y-99605017D01*
X172776168Y-99613127D01*
X172732048Y-99618935D01*
X172687685Y-99622427D01*
X172643200Y-99623592D01*
X172598715Y-99622427D01*
X172554352Y-99618935D01*
X172510232Y-99613127D01*
X172466477Y-99605017D01*
X172423206Y-99594629D01*
X172380538Y-99581990D01*
X172338590Y-99567136D01*
X172297477Y-99550106D01*
X172257312Y-99530948D01*
X172218204Y-99509714D01*
X172180261Y-99486463D01*
X172143587Y-99461258D01*
X172108283Y-99434168D01*
X172074445Y-99405267D01*
X172042165Y-99374635D01*
X172011533Y-99342355D01*
X171982632Y-99308517D01*
X171955542Y-99273213D01*
X171930337Y-99236539D01*
X171907086Y-99198596D01*
X171885852Y-99159488D01*
X171866694Y-99119323D01*
X171849664Y-99078210D01*
X171834810Y-99036262D01*
X171822170Y-98993590D01*
X171817729Y-98975974D01*
X171812946Y-98954922D01*
X171808703Y-98933755D01*
X171805004Y-98912486D01*
X171801850Y-98891129D01*
X171799244Y-98869699D01*
X171797188Y-98848209D01*
X171795682Y-98826673D01*
X171794728Y-98805106D01*
X171794326Y-98783522D01*
X171794476Y-98761934D01*
X171795180Y-98740357D01*
X171796435Y-98718805D01*
X171798241Y-98697293D01*
X171800598Y-98675834D01*
X171803503Y-98654442D01*
X171806954Y-98633131D01*
X171810950Y-98611916D01*
X171815488Y-98590810D01*
X171820564Y-98569827D01*
X171826176Y-98548981D01*
X171832319Y-98528286D01*
X171838990Y-98507754D01*
X171846185Y-98487400D01*
X171853898Y-98467236D01*
X171862125Y-98447277D01*
X171870859Y-98427535D01*
X171880097Y-98408023D01*
X171889830Y-98388753D01*
X171900670Y-98368630D01*
X173083930Y-98051578D01*
D10*
X187695000Y-99900000D02*
G75*
G03X187695000Y-99900000I-425000J0D01*
G01*
D11*
G36*
X186039330Y-98368630D02*
G01*
X186050549Y-98392139D01*
X186059207Y-98411495D01*
X186067435Y-98431037D01*
X186075229Y-98450756D01*
X186082586Y-98470642D01*
X186089500Y-98490687D01*
X186095971Y-98510879D01*
X186101993Y-98531210D01*
X186107564Y-98551668D01*
X186112682Y-98572245D01*
X186117343Y-98592930D01*
X186121546Y-98613713D01*
X186125289Y-98634583D01*
X186128569Y-98655532D01*
X186131386Y-98676547D01*
X186133737Y-98697620D01*
X186135622Y-98718740D01*
X186137040Y-98739896D01*
X186137989Y-98761078D01*
X186138470Y-98782276D01*
X186138483Y-98803480D01*
X186138026Y-98824679D01*
X186137101Y-98845862D01*
X186135708Y-98867020D01*
X186133848Y-98888142D01*
X186131521Y-98909217D01*
X186128729Y-98930236D01*
X186125473Y-98951188D01*
X186121755Y-98972064D01*
X186116030Y-98999990D01*
X186103390Y-99042662D01*
X186088536Y-99084610D01*
X186071506Y-99125723D01*
X186052348Y-99165888D01*
X186031114Y-99204996D01*
X186007863Y-99242939D01*
X185982658Y-99279613D01*
X185955568Y-99314917D01*
X185926667Y-99348755D01*
X185896035Y-99381035D01*
X185863755Y-99411667D01*
X185829917Y-99440568D01*
X185794613Y-99467658D01*
X185757939Y-99492863D01*
X185719996Y-99516114D01*
X185680888Y-99537348D01*
X185640723Y-99556506D01*
X185599610Y-99573536D01*
X185557662Y-99588390D01*
X185514994Y-99601029D01*
X185471723Y-99611417D01*
X185427968Y-99619527D01*
X185383848Y-99625335D01*
X185339485Y-99628827D01*
X185295000Y-99629992D01*
X185250515Y-99628827D01*
X185206152Y-99625335D01*
X185162032Y-99619527D01*
X185118277Y-99611417D01*
X185075010Y-99601030D01*
X185032338Y-99588390D01*
X184990390Y-99573536D01*
X184949277Y-99556506D01*
X184909112Y-99537348D01*
X184870004Y-99516114D01*
X184832061Y-99492863D01*
X184795387Y-99467658D01*
X184760083Y-99440568D01*
X184726245Y-99411667D01*
X184693965Y-99381035D01*
X184663333Y-99348755D01*
X184634432Y-99314917D01*
X184607342Y-99279613D01*
X184582137Y-99242939D01*
X184558886Y-99204996D01*
X184537652Y-99165888D01*
X184518494Y-99125723D01*
X184501464Y-99084610D01*
X184486610Y-99042662D01*
X184473971Y-98999994D01*
X184463583Y-98956723D01*
X184455473Y-98912968D01*
X184449665Y-98868848D01*
X184446173Y-98824485D01*
X184445008Y-98780000D01*
X184446173Y-98735515D01*
X184449665Y-98691152D01*
X184455473Y-98647032D01*
X184463583Y-98603277D01*
X184473970Y-98560010D01*
X184479885Y-98539013D01*
X184486331Y-98518189D01*
X184493308Y-98497537D01*
X184500811Y-98477071D01*
X184508836Y-98456803D01*
X184517376Y-98436747D01*
X184526428Y-98416917D01*
X184535983Y-98397324D01*
X184546038Y-98377983D01*
X184556583Y-98358905D01*
X184567614Y-98340104D01*
X184579123Y-98321591D01*
X184591101Y-98303379D01*
X184603542Y-98285479D01*
X184616437Y-98267903D01*
X184629777Y-98250663D01*
X184643554Y-98233771D01*
X184657759Y-98217236D01*
X184672383Y-98201071D01*
X184687416Y-98185285D01*
X184702848Y-98169889D01*
X184718668Y-98154893D01*
X184734868Y-98140307D01*
X184751435Y-98126141D01*
X184768360Y-98112403D01*
X184785631Y-98099102D01*
X184803236Y-98086249D01*
X184821165Y-98073850D01*
X184839405Y-98061913D01*
X184856070Y-98051578D01*
X186039330Y-98368630D01*
X186039330Y-98368630D01*
G37*
X186039330Y-98368630D02*
X186050549Y-98392139D01*
X186059207Y-98411495D01*
X186067435Y-98431037D01*
X186075229Y-98450756D01*
X186082586Y-98470642D01*
X186089500Y-98490687D01*
X186095971Y-98510879D01*
X186101993Y-98531210D01*
X186107564Y-98551668D01*
X186112682Y-98572245D01*
X186117343Y-98592930D01*
X186121546Y-98613713D01*
X186125289Y-98634583D01*
X186128569Y-98655532D01*
X186131386Y-98676547D01*
X186133737Y-98697620D01*
X186135622Y-98718740D01*
X186137040Y-98739896D01*
X186137989Y-98761078D01*
X186138470Y-98782276D01*
X186138483Y-98803480D01*
X186138026Y-98824679D01*
X186137101Y-98845862D01*
X186135708Y-98867020D01*
X186133848Y-98888142D01*
X186131521Y-98909217D01*
X186128729Y-98930236D01*
X186125473Y-98951188D01*
X186121755Y-98972064D01*
X186116030Y-98999990D01*
X186103390Y-99042662D01*
X186088536Y-99084610D01*
X186071506Y-99125723D01*
X186052348Y-99165888D01*
X186031114Y-99204996D01*
X186007863Y-99242939D01*
X185982658Y-99279613D01*
X185955568Y-99314917D01*
X185926667Y-99348755D01*
X185896035Y-99381035D01*
X185863755Y-99411667D01*
X185829917Y-99440568D01*
X185794613Y-99467658D01*
X185757939Y-99492863D01*
X185719996Y-99516114D01*
X185680888Y-99537348D01*
X185640723Y-99556506D01*
X185599610Y-99573536D01*
X185557662Y-99588390D01*
X185514994Y-99601029D01*
X185471723Y-99611417D01*
X185427968Y-99619527D01*
X185383848Y-99625335D01*
X185339485Y-99628827D01*
X185295000Y-99629992D01*
X185250515Y-99628827D01*
X185206152Y-99625335D01*
X185162032Y-99619527D01*
X185118277Y-99611417D01*
X185075010Y-99601030D01*
X185032338Y-99588390D01*
X184990390Y-99573536D01*
X184949277Y-99556506D01*
X184909112Y-99537348D01*
X184870004Y-99516114D01*
X184832061Y-99492863D01*
X184795387Y-99467658D01*
X184760083Y-99440568D01*
X184726245Y-99411667D01*
X184693965Y-99381035D01*
X184663333Y-99348755D01*
X184634432Y-99314917D01*
X184607342Y-99279613D01*
X184582137Y-99242939D01*
X184558886Y-99204996D01*
X184537652Y-99165888D01*
X184518494Y-99125723D01*
X184501464Y-99084610D01*
X184486610Y-99042662D01*
X184473971Y-98999994D01*
X184463583Y-98956723D01*
X184455473Y-98912968D01*
X184449665Y-98868848D01*
X184446173Y-98824485D01*
X184445008Y-98780000D01*
X184446173Y-98735515D01*
X184449665Y-98691152D01*
X184455473Y-98647032D01*
X184463583Y-98603277D01*
X184473970Y-98560010D01*
X184479885Y-98539013D01*
X184486331Y-98518189D01*
X184493308Y-98497537D01*
X184500811Y-98477071D01*
X184508836Y-98456803D01*
X184517376Y-98436747D01*
X184526428Y-98416917D01*
X184535983Y-98397324D01*
X184546038Y-98377983D01*
X184556583Y-98358905D01*
X184567614Y-98340104D01*
X184579123Y-98321591D01*
X184591101Y-98303379D01*
X184603542Y-98285479D01*
X184616437Y-98267903D01*
X184629777Y-98250663D01*
X184643554Y-98233771D01*
X184657759Y-98217236D01*
X184672383Y-98201071D01*
X184687416Y-98185285D01*
X184702848Y-98169889D01*
X184718668Y-98154893D01*
X184734868Y-98140307D01*
X184751435Y-98126141D01*
X184768360Y-98112403D01*
X184785631Y-98099102D01*
X184803236Y-98086249D01*
X184821165Y-98073850D01*
X184839405Y-98061913D01*
X184856070Y-98051578D01*
X186039330Y-98368630D01*
G36*
X186925070Y-96872647D02*
G01*
X186949472Y-96863518D01*
X186969509Y-96856579D01*
X186989694Y-96850086D01*
X187010018Y-96844040D01*
X187030470Y-96838445D01*
X187051041Y-96833303D01*
X187071721Y-96828617D01*
X187092499Y-96824390D01*
X187113365Y-96820623D01*
X187134310Y-96817318D01*
X187155323Y-96814477D01*
X187176393Y-96812101D01*
X187197511Y-96810192D01*
X187218666Y-96808750D01*
X187239847Y-96807776D01*
X187261045Y-96807270D01*
X187282249Y-96807233D01*
X187303448Y-96807665D01*
X187324633Y-96808565D01*
X187345793Y-96809933D01*
X187366917Y-96811769D01*
X187387996Y-96814071D01*
X187409018Y-96816839D01*
X187429974Y-96820070D01*
X187450854Y-96823765D01*
X187471647Y-96827919D01*
X187492342Y-96832533D01*
X187512931Y-96837603D01*
X187533403Y-96843126D01*
X187560720Y-96851262D01*
X187602124Y-96867571D01*
X187642618Y-96886026D01*
X187682090Y-96906574D01*
X187720433Y-96929160D01*
X187757542Y-96953721D01*
X187793314Y-96980191D01*
X187827652Y-97008497D01*
X187860461Y-97038561D01*
X187891652Y-97070302D01*
X187921140Y-97103631D01*
X187948842Y-97138457D01*
X187974684Y-97174686D01*
X187998594Y-97212217D01*
X188020507Y-97250949D01*
X188040363Y-97290774D01*
X188058108Y-97331584D01*
X188073692Y-97373267D01*
X188087074Y-97415708D01*
X188098216Y-97458791D01*
X188107088Y-97502398D01*
X188113666Y-97546410D01*
X188117931Y-97590706D01*
X188119872Y-97635164D01*
X188119484Y-97679664D01*
X188116767Y-97724081D01*
X188111729Y-97768296D01*
X188104384Y-97812186D01*
X188094753Y-97855632D01*
X188082860Y-97898514D01*
X188068740Y-97940716D01*
X188052430Y-97982121D01*
X188033976Y-98022615D01*
X188013428Y-98062088D01*
X187990842Y-98100431D01*
X187966280Y-98137540D01*
X187939810Y-98173312D01*
X187911504Y-98207650D01*
X187881439Y-98240460D01*
X187849699Y-98271651D01*
X187816370Y-98301138D01*
X187781543Y-98328841D01*
X187745314Y-98354683D01*
X187707782Y-98378593D01*
X187669050Y-98400506D01*
X187629225Y-98420363D01*
X187588415Y-98438107D01*
X187546732Y-98453692D01*
X187504291Y-98467074D01*
X187461207Y-98478216D01*
X187417600Y-98487088D01*
X187373587Y-98493666D01*
X187329291Y-98497931D01*
X187284833Y-98499872D01*
X187240333Y-98499484D01*
X187195915Y-98496767D01*
X187151700Y-98491729D01*
X187107810Y-98484384D01*
X187064364Y-98474753D01*
X187021481Y-98462860D01*
X186979280Y-98448740D01*
X186958902Y-98441026D01*
X186938720Y-98432790D01*
X186918755Y-98424040D01*
X186899020Y-98414781D01*
X186879529Y-98405021D01*
X186860294Y-98394765D01*
X186841328Y-98384020D01*
X186822643Y-98372793D01*
X186804252Y-98361091D01*
X186786166Y-98348923D01*
X186768397Y-98336295D01*
X186750958Y-98323217D01*
X186733859Y-98309697D01*
X186717112Y-98295744D01*
X186700727Y-98281366D01*
X186684716Y-98266574D01*
X186669088Y-98251377D01*
X186653855Y-98235785D01*
X186639025Y-98219808D01*
X186624610Y-98203457D01*
X186610618Y-98186742D01*
X186597058Y-98169675D01*
X186583939Y-98152266D01*
X186571270Y-98134527D01*
X186559060Y-98116469D01*
X186547315Y-98098105D01*
X186536045Y-98079446D01*
X186525256Y-98060505D01*
X186514955Y-98041294D01*
X186506100Y-98023769D01*
X186925070Y-96872647D01*
X186925070Y-96872647D01*
G37*
X186925070Y-96872647D02*
X186949472Y-96863518D01*
X186969509Y-96856579D01*
X186989694Y-96850086D01*
X187010018Y-96844040D01*
X187030470Y-96838445D01*
X187051041Y-96833303D01*
X187071721Y-96828617D01*
X187092499Y-96824390D01*
X187113365Y-96820623D01*
X187134310Y-96817318D01*
X187155323Y-96814477D01*
X187176393Y-96812101D01*
X187197511Y-96810192D01*
X187218666Y-96808750D01*
X187239847Y-96807776D01*
X187261045Y-96807270D01*
X187282249Y-96807233D01*
X187303448Y-96807665D01*
X187324633Y-96808565D01*
X187345793Y-96809933D01*
X187366917Y-96811769D01*
X187387996Y-96814071D01*
X187409018Y-96816839D01*
X187429974Y-96820070D01*
X187450854Y-96823765D01*
X187471647Y-96827919D01*
X187492342Y-96832533D01*
X187512931Y-96837603D01*
X187533403Y-96843126D01*
X187560720Y-96851262D01*
X187602124Y-96867571D01*
X187642618Y-96886026D01*
X187682090Y-96906574D01*
X187720433Y-96929160D01*
X187757542Y-96953721D01*
X187793314Y-96980191D01*
X187827652Y-97008497D01*
X187860461Y-97038561D01*
X187891652Y-97070302D01*
X187921140Y-97103631D01*
X187948842Y-97138457D01*
X187974684Y-97174686D01*
X187998594Y-97212217D01*
X188020507Y-97250949D01*
X188040363Y-97290774D01*
X188058108Y-97331584D01*
X188073692Y-97373267D01*
X188087074Y-97415708D01*
X188098216Y-97458791D01*
X188107088Y-97502398D01*
X188113666Y-97546410D01*
X188117931Y-97590706D01*
X188119872Y-97635164D01*
X188119484Y-97679664D01*
X188116767Y-97724081D01*
X188111729Y-97768296D01*
X188104384Y-97812186D01*
X188094753Y-97855632D01*
X188082860Y-97898514D01*
X188068740Y-97940716D01*
X188052430Y-97982121D01*
X188033976Y-98022615D01*
X188013428Y-98062088D01*
X187990842Y-98100431D01*
X187966280Y-98137540D01*
X187939810Y-98173312D01*
X187911504Y-98207650D01*
X187881439Y-98240460D01*
X187849699Y-98271651D01*
X187816370Y-98301138D01*
X187781543Y-98328841D01*
X187745314Y-98354683D01*
X187707782Y-98378593D01*
X187669050Y-98400506D01*
X187629225Y-98420363D01*
X187588415Y-98438107D01*
X187546732Y-98453692D01*
X187504291Y-98467074D01*
X187461207Y-98478216D01*
X187417600Y-98487088D01*
X187373587Y-98493666D01*
X187329291Y-98497931D01*
X187284833Y-98499872D01*
X187240333Y-98499484D01*
X187195915Y-98496767D01*
X187151700Y-98491729D01*
X187107810Y-98484384D01*
X187064364Y-98474753D01*
X187021481Y-98462860D01*
X186979280Y-98448740D01*
X186958902Y-98441026D01*
X186938720Y-98432790D01*
X186918755Y-98424040D01*
X186899020Y-98414781D01*
X186879529Y-98405021D01*
X186860294Y-98394765D01*
X186841328Y-98384020D01*
X186822643Y-98372793D01*
X186804252Y-98361091D01*
X186786166Y-98348923D01*
X186768397Y-98336295D01*
X186750958Y-98323217D01*
X186733859Y-98309697D01*
X186717112Y-98295744D01*
X186700727Y-98281366D01*
X186684716Y-98266574D01*
X186669088Y-98251377D01*
X186653855Y-98235785D01*
X186639025Y-98219808D01*
X186624610Y-98203457D01*
X186610618Y-98186742D01*
X186597058Y-98169675D01*
X186583939Y-98152266D01*
X186571270Y-98134527D01*
X186559060Y-98116469D01*
X186547315Y-98098105D01*
X186536045Y-98079446D01*
X186525256Y-98060505D01*
X186514955Y-98041294D01*
X186506100Y-98023769D01*
X186925070Y-96872647D01*
D12*
X183740000Y-51915000D03*
D13*
X183740000Y-54580000D03*
D12*
X183240000Y-51915000D03*
D13*
X183240000Y-54580000D03*
D12*
X182740000Y-51915000D03*
D13*
X182740000Y-54580000D03*
D12*
X182240000Y-51915000D03*
D13*
X182240000Y-54580000D03*
D12*
X181740000Y-51915000D03*
D13*
X181740000Y-54580000D03*
D12*
X181240000Y-51915000D03*
D13*
X181240000Y-54580000D03*
D12*
X180740000Y-51915000D03*
D13*
X180740000Y-54580000D03*
D12*
X180240000Y-51915000D03*
D13*
X180240000Y-54580000D03*
D12*
X179740000Y-51915000D03*
D13*
X179740000Y-54580000D03*
D12*
X179240000Y-51915000D03*
D13*
X179240000Y-54580000D03*
D12*
X178740000Y-51915000D03*
D13*
X178740000Y-54580000D03*
D12*
X178240000Y-51915000D03*
D13*
X178240000Y-54580000D03*
D12*
X177740000Y-51915000D03*
D13*
X177740000Y-54580000D03*
D12*
X177240000Y-51915000D03*
D13*
X177240000Y-54580000D03*
D12*
X176740000Y-51915000D03*
D13*
X176740000Y-54580000D03*
D12*
X176240000Y-51915000D03*
D13*
X176240000Y-54580000D03*
D12*
X175740000Y-51915000D03*
D13*
X175740000Y-54580000D03*
D12*
X175240000Y-51915000D03*
D13*
X175240000Y-54580000D03*
D12*
X174740000Y-51915000D03*
D13*
X174740000Y-54580000D03*
D12*
X174240000Y-51915000D03*
D13*
X174240000Y-54580000D03*
D12*
X174220000Y-99165000D03*
D13*
X174220000Y-96500000D03*
D12*
X174720000Y-99165000D03*
D13*
X174720000Y-96500000D03*
D12*
X175220000Y-99165000D03*
D13*
X175220000Y-96500000D03*
D12*
X175720000Y-99165000D03*
D13*
X175720000Y-96500000D03*
D12*
X176220000Y-99165000D03*
D13*
X176220000Y-96500000D03*
D12*
X176720000Y-99165000D03*
D13*
X176720000Y-96500000D03*
D12*
X177220000Y-99165000D03*
D13*
X177220000Y-96500000D03*
D12*
X177720000Y-99165000D03*
D13*
X177720000Y-96500000D03*
D12*
X178220000Y-99165000D03*
D13*
X178220000Y-96500000D03*
D12*
X178720000Y-99165000D03*
D13*
X178720000Y-96500000D03*
D12*
X179220000Y-99165000D03*
D13*
X179220000Y-96500000D03*
D12*
X179720000Y-99165000D03*
D13*
X179720000Y-96500000D03*
D12*
X180220000Y-99165000D03*
D13*
X180220000Y-96500000D03*
D12*
X180720000Y-99165000D03*
D13*
X180720000Y-96500000D03*
D12*
X181220000Y-99165000D03*
D13*
X181220000Y-96500000D03*
D12*
X181720000Y-99165000D03*
D13*
X181720000Y-96500000D03*
D12*
X182220000Y-99165000D03*
D13*
X182220000Y-96500000D03*
D12*
X182720000Y-99165000D03*
D13*
X182720000Y-96500000D03*
D12*
X183220000Y-99165000D03*
D13*
X183220000Y-96500000D03*
D12*
X183720000Y-99165000D03*
D13*
X183720000Y-96500000D03*
M02*
