M48
; DRILL file {KiCad (5.1.0)-1} date 8/5/2021 1:01:29 PM
; FORMAT={-:-/ absolute / inch / decimal}
; #@! TF.CreationDate,2021-08-05T13:01:29-06:00
; #@! TF.GenerationSoftware,Kicad,Pcbnew,(5.1.0)-1
; #@! TF.FileFunction,Plated,1,2,PTH
FMAT,2
INCH
T1C0.0157
T2C0.0276
%
G90
G05
T1
X6.45Y-2.25
X6.45Y-2.4
X6.45Y-2.85
X6.45Y-3.0
X6.45Y-3.15
X6.45Y-3.45
X6.45Y-3.6
X6.65Y-2.25
X6.65Y-2.4
X6.65Y-2.55
X6.65Y-2.7
X6.65Y-2.85
X6.65Y-3.0
X6.65Y-3.15
X6.65Y-3.3
X6.65Y-3.45
X6.65Y-3.6
X6.8Y-2.7736
X6.8Y-2.8736
X6.8Y-2.9736
X6.8Y-3.0736
X6.8Y-3.1736
X6.8335Y-3.6
X6.8402Y-2.3008
X6.85Y-2.7264
X6.85Y-3.2264
X6.8807Y-3.6
X6.8874Y-2.3008
X6.928Y-3.6
X6.9346Y-2.3008
X6.95Y-2.7264
X6.95Y-3.2264
X6.9752Y-3.6
X6.9819Y-2.3008
X7.0224Y-3.6
X7.0291Y-2.3008
X7.05Y-2.7264
X7.05Y-3.2264
X7.0697Y-3.6
X7.0764Y-2.3008
X7.1169Y-3.6
X7.1236Y-2.3008
X7.15Y-2.7264
X7.15Y-3.2264
X7.1642Y-3.6
X7.1709Y-2.3008
X7.2114Y-3.6
X7.2181Y-2.3008
X7.25Y-2.7264
X7.25Y-3.2264
X7.2587Y-3.6
X7.2654Y-2.3008
X7.2961Y-2.7736
X7.2961Y-2.8736
X7.2961Y-2.9736
X7.2961Y-3.0736
X7.2961Y-3.1736
X7.45Y-2.25
X7.45Y-2.4
X7.45Y-2.55
X7.45Y-2.7
X7.45Y-2.85
X7.45Y-3.0
X7.45Y-3.15
X7.45Y-3.3
X7.45Y-3.45
X7.45Y-3.6
X7.65Y-2.25
X7.65Y-2.4
X7.65Y-2.85
X7.65Y-3.0
X7.65Y-3.15
X7.65Y-3.45
X7.65Y-3.6
T2
X6.7201Y-2.015
X6.7201Y-2.1035
X6.7978Y-2.0591
X7.2959Y-2.0591
X7.3736Y-2.015
X7.3736Y-2.1035
X6.7193Y-3.8445
X6.7193Y-3.9331
X6.797Y-3.889
X7.2951Y-3.889
X7.3728Y-3.8445
X7.3728Y-3.9331
T0
M30
