G04 #@! TF.GenerationSoftware,KiCad,Pcbnew,(5.1.0)-1*
G04 #@! TF.CreationDate,2021-08-05T13:01:27-06:00*
G04 #@! TF.ProjectId,_autosave-Igloo19,5f617574-6f73-4617-9665-2d49676c6f6f,rev?*
G04 #@! TF.SameCoordinates,Original*
G04 #@! TF.FileFunction,Legend,Bot*
G04 #@! TF.FilePolarity,Positive*
%FSLAX46Y46*%
G04 Gerber Fmt 4.6, Leading zero omitted, Abs format (unit mm)*
G04 Created by KiCad (PCBNEW (5.1.0)-1) date 2021-08-05 13:01:27*
%MOMM*%
%LPD*%
G04 APERTURE LIST*
%ADD10C,0.200000*%
%ADD11C,0.150000*%
G04 APERTURE END LIST*
D10*
X187840000Y-54980000D02*
X187840000Y-54530000D01*
X186820000Y-54980000D02*
X187840000Y-54980000D01*
X170140000Y-54980000D02*
X171160000Y-54980000D01*
X170140000Y-54530000D02*
X170140000Y-54980000D01*
X174340000Y-56030000D02*
G75*
G03X174340000Y-56030000I-100000J0D01*
G01*
X187840000Y-49580000D02*
X187840000Y-50080000D01*
X170140000Y-49580000D02*
X187840000Y-49580000D01*
X170140000Y-50080000D02*
X170140000Y-49580000D01*
X170120000Y-96100000D02*
X170120000Y-96550000D01*
X171140000Y-96100000D02*
X170120000Y-96100000D01*
X187820000Y-96100000D02*
X186800000Y-96100000D01*
X187820000Y-96550000D02*
X187820000Y-96100000D01*
X183820000Y-95050000D02*
G75*
G03X183820000Y-95050000I-100000J0D01*
G01*
X170120000Y-101500000D02*
X170120000Y-101000000D01*
X187820000Y-101500000D02*
X170120000Y-101500000D01*
X187820000Y-101000000D02*
X187820000Y-101500000D01*
D11*
X173498333Y-58067380D02*
X173498333Y-58781666D01*
X173545952Y-58924523D01*
X173641190Y-59019761D01*
X173784047Y-59067380D01*
X173879285Y-59067380D01*
X173069761Y-58162619D02*
X173022142Y-58115000D01*
X172926904Y-58067380D01*
X172688809Y-58067380D01*
X172593571Y-58115000D01*
X172545952Y-58162619D01*
X172498333Y-58257857D01*
X172498333Y-58353095D01*
X172545952Y-58495952D01*
X173117380Y-59067380D01*
X172498333Y-59067380D01*
X185128333Y-91917380D02*
X185128333Y-92631666D01*
X185175952Y-92774523D01*
X185271190Y-92869761D01*
X185414047Y-92917380D01*
X185509285Y-92917380D01*
X184128333Y-92917380D02*
X184699761Y-92917380D01*
X184414047Y-92917380D02*
X184414047Y-91917380D01*
X184509285Y-92060238D01*
X184604523Y-92155476D01*
X184699761Y-92203095D01*
M02*
